<svg xmlns="http://www.w3.org/2000/svg" xmlns:xlink="http://www.w3.org/1999/xlink" width="100" height="100" viewBox="0 0 100 100"><style>.st0{clip-path:url(#SVGID_2_);} .st1{clip-path:url(#SVGID_4_);} .st2{clip-path:url(#SVGID_6_);fill:url(#SVGID_7_);} .st3{clip-path:url(#SVGID_9_);fill:none;stroke:#FFFFFF;stroke-miterlimit:10;} .st4{filter:url(#Adobe_OpacityMaskFilter);} .st5{clip-path:url(#SVGID_11_);} .st6{enable-background:new ;} .st7{clip-path:url(#SVGID_14_);fill:#231F20;} .st8{clip-path:url(#SVGID_11_);mask:url(#SVGID_12_);} .st9{clip-path:url(#SVGID_16_);fill:#F26822;} .st10{filter:url(#Adobe_OpacityMaskFilter_1_);} .st11{clip-path:url(#SVGID_19_);fill:#231F20;} .st12{clip-path:url(#SVGID_11_);mask:url(#SVGID_17_);} .st13{clip-path:url(#SVGID_21_);fill:#F26822;} .st14{filter:url(#Adobe_OpacityMaskFilter_2_);} .st15{clip-path:url(#SVGID_11_);fill:#231F20;} .st16{clip-path:url(#SVGID_11_);mask:url(#SVGID_22_);} .st17{clip-path:url(#SVGID_24_);fill:#F26822;} .st18{filter:url(#Adobe_OpacityMaskFilter_3_);} .st19{clip-path:url(#SVGID_27_);fill:#231F20;} .st20{clip-path:url(#SVGID_11_);mask:url(#SVGID_25_);} .st21{clip-path:url(#SVGID_29_);fill:#F26822;} .st22{filter:url(#Adobe_OpacityMaskFilter_4_);} .st23{clip-path:url(#SVGID_32_);fill:#231F20;} .st24{clip-path:url(#SVGID_11_);mask:url(#SVGID_30_);} .st25{clip-path:url(#SVGID_34_);fill:#F26822;} .st26{filter:url(#Adobe_OpacityMaskFilter_5_);} .st27{filter:url(#Adobe_OpacityMaskFilter_6_);} .st28{clip-path:url(#SVGID_11_);mask:url(#SVGID_35_);} .st29{fill:#231F20;} .st30{clip-path:url(#SVGID_37_);fill:#F26822;} .st31{clip-path:url(#SVGID_39_);} .st32{clip-path:url(#SVGID_41_);} .st33{clip-path:url(#SVGID_43_);fill:url(#SVGID_44_);} .st34{clip-path:url(#SVGID_46_);fill:none;stroke:#FFFFFF;stroke-miterlimit:10;} .st35{filter:url(#Adobe_OpacityMaskFilter_7_);} .st36{clip-path:url(#SVGID_48_);} .st37{clip-path:url(#SVGID_51_);fill:#231F20;} .st38{clip-path:url(#SVGID_48_);mask:url(#SVGID_49_);} .st39{clip-path:url(#SVGID_53_);fill:#F26822;} .st40{filter:url(#Adobe_OpacityMaskFilter_8_);} .st41{clip-path:url(#SVGID_56_);fill:#231F20;} .st42{clip-path:url(#SVGID_48_);mask:url(#SVGID_54_);} .st43{clip-path:url(#SVGID_58_);fill:#F26822;} .st44{filter:url(#Adobe_OpacityMaskFilter_9_);} .st45{clip-path:url(#SVGID_48_);fill:#231F20;} .st46{clip-path:url(#SVGID_48_);mask:url(#SVGID_59_);} .st47{clip-path:url(#SVGID_61_);fill:#F26822;} .st48{filter:url(#Adobe_OpacityMaskFilter_10_);} .st49{clip-path:url(#SVGID_64_);fill:#231F20;} .st50{clip-path:url(#SVGID_48_);mask:url(#SVGID_62_);} .st51{clip-path:url(#SVGID_66_);fill:#F26822;} .st52{filter:url(#Adobe_OpacityMaskFilter_11_);} .st53{clip-path:url(#SVGID_69_);fill:#231F20;} .st54{clip-path:url(#SVGID_48_);mask:url(#SVGID_67_);} .st55{clip-path:url(#SVGID_71_);fill:#F26822;} .st56{filter:url(#Adobe_OpacityMaskFilter_12_);} .st57{filter:url(#Adobe_OpacityMaskFilter_13_);} .st58{clip-path:url(#SVGID_48_);mask:url(#SVGID_72_);} .st59{clip-path:url(#SVGID_74_);fill:#F26822;}</style><g id="POWERUP_x5F_Bo-Minus_1_"><defs><path id="SVGID_1_" d="M0 0h100v100H0z"/></defs><clipPath id="SVGID_2_"><use xlink:href="#SVGID_1_" overflow="visible"/></clipPath><g class="st0"><defs><path id="SVGID_3_" d="M0 0h100v100H0z"/></defs><clipPath id="SVGID_4_"><use xlink:href="#SVGID_3_" overflow="visible"/></clipPath><g class="st1"><defs><path id="SVGID_5_" d="M29.7 64.5c-8-11.2-5.4-26.8 5.8-34.8 11.2-8 26.8-5.4 34.8 5.8 8 11.2 5.4 26.8-5.8 34.8-4.4 3.1-9.4 4.6-14.4 4.6-7.9 0-15.5-3.6-20.4-10.4M44 15.2c-2 3-5.7 4.2-9 2.8-5.1-2-10.5 1.9-10.3 7.3.2 3.6-2.2 6.7-5.6 7.6-5.3 1.4-7.4 7.7-4 12 2.2 2.8 2.2 6.7-.1 9.5-3.5 4.2-1.5 10.6 3.8 12 3.4.9 5.7 4.2 5.5 7.7-.3 5.4 5 9.4 10.1 7.5 3.3-1.2 7.1 0 9 3 2.9 4.6 9.6 4.7 12.6.1 2-3 5.7-4.2 9-2.8 5.1 2 10.5-1.9 10.3-7.3-.2-3.6 2.2-6.7 5.6-7.6 5.3-1.4 7.4-7.7 4-12-2.2-2.8-2.2-6.7.1-9.5 3.5-4.2 1.5-10.6-3.8-12-3.4-.9-5.7-4.2-5.5-7.7.3-5.4-5-9.4-10.1-7.5-3.3 1.2-7.1 0-9-3-1.5-2.3-3.9-3.5-6.4-3.5-2.3 0-4.7 1.1-6.2 3.4"/></defs><clipPath id="SVGID_6_"><use xlink:href="#SVGID_5_" overflow="visible"/></clipPath><radialGradient id="SVGID_7_" cx="1.054" cy="-1.054" r="1" gradientTransform="matrix(47.4546 47.4546 47.4546 -47.4546 30.9999 -75.2497)" gradientUnits="userSpaceOnUse"><stop offset="0" stop-color="#FFF"/><stop offset=".052" stop-color="#DCDBEC"/><stop offset=".109" stop-color="#BEBCDB"/><stop offset=".174" stop-color="#A4A0CD"/><stop offset=".248" stop-color="#8F8AC2"/><stop offset=".333" stop-color="#7F79B9"/><stop offset=".439" stop-color="#736EB3"/><stop offset=".588" stop-color="#6D67AF"/><stop offset="1" stop-color="#6B65AE"/></radialGradient><path class="st2" d="M50-26.8l77.3 77.4L50 127.9l-77.3-77.3z"/></g><g class="st1"><defs><path id="SVGID_8_" d="M12.8 11.3h74.5v77.4H12.8z"/></defs><clipPath id="SVGID_9_"><use xlink:href="#SVGID_8_" overflow="visible"/></clipPath><path class="st3" d="M65.4 18.2c5.1-2 10.5 2 10.2 7.4-.2 3.6 2.1 6.8 5.6 7.7 5.3 1.4 7.3 7.8 3.9 12-2.3 2.8-2.3 6.7 0 9.5 3.4 4.2 1.3 10.6-3.9 12-3.4.9-5.8 4.1-5.6 7.7.3 5.4-5.1 9.4-10.2 7.4-3.3-1.3-7.1-.1-9 2.9-3 4.6-9.7 4.6-12.6 0-1.9-3-5.7-4.2-9-2.9-5.1 2-10.5-2-10.2-7.4.2-3.6-2.1-6.8-5.6-7.7-5.3-1.4-7.3-7.8-3.9-12 2.3-2.8 2.3-6.7 0-9.5-3.4-4.2-1.3-10.6 3.9-12 3.4-.9 5.8-4.1 5.6-7.7-.3-5.4 5.1-9.4 10.2-7.4 3.3 1.3 7.1.1 9-2.9 3-4.6 9.7-4.6 12.6 0 1.9 2.9 5.7 4.2 9 2.9z"/><ellipse transform="matrix(0.8145 -0.5802 0.5802 0.8145 -19.7333 38.2829)" class="st3" cx="50" cy="50" rx="24.9" ry="24.9"/></g><g class="st1"><defs><path id="SVGID_10_" d="M0 0h100v100H0z"/></defs><clipPath id="SVGID_11_"><use xlink:href="#SVGID_10_" overflow="visible"/></clipPath><defs><filter id="Adobe_OpacityMaskFilter" filterUnits="userSpaceOnUse" x="47.9" y="35.6" width="12.2" height="18.5"><feFlood result="back" flood-color="#fff" flood-opacity="1"/><feBlend in="SourceGraphic" in2="back"/></filter></defs><mask maskUnits="userSpaceOnUse" x="47.9" y="35.6" width="12.2" height="18.5" id="SVGID_12_"><g class="st4"><defs><path id="SVGID_13_" d="M47.4 37.4h11.8v16.3H47.4z"/></defs><clipPath id="SVGID_14_" class="st5"><use xlink:href="#SVGID_13_" overflow="visible"/></clipPath><g class="st6"><path class="st7" d="M50.9 44.6c.4-1.3.9-2.9 1.3-4.1-.5 1.1-1 2.1-1.5 3.3l-1.8 3.8-.2-.3.9-4.5c.3-1.4.5-2.7.8-3.9-.4 1.2-.9 2.7-1.3 4l-1.2 3.6-.3-.3 2.9-8.8.5.4-1 5c-.4 1.2-.6 2.2-.8 3.2.3-.8.8-1.7 1.2-2.7l2-4.2.5.4-2.9 9.4-.3-.3 1.2-4zM54.2 40.4l-3.3 9.4-.3-.4 3.2-9.3zM52 49c.1.5.2 1 .5 1.2.4.4.9 0 1.2-.9.3-.9.3-1.5.1-2.4-.3-1-.3-2.1.1-3.5.5-1.6 1.4-2.4 2.1-1.9.4.3.5.7.6 1.1l-.5 1c0-.3-.2-.8-.5-1-.5-.4-.9.3-1.2 1-.3.9-.3 1.5 0 2.4.3 1.1.3 2.1-.2 3.5s-1.3 2.2-2 1.5c-.3-.3-.5-.8-.5-1.3l.3-.7zM54.2 51.2c.1.5.2 1 .5 1.3.4.4.9 0 1.3-.9s.4-1.6.1-2.5c-.3-1.1-.4-2.2.2-3.6.6-1.6 1.5-2.4 2.3-1.9.4.3.6.8.6 1.2l-.6 1c0-.3-.2-.8-.5-1.1-.5-.4-1 .3-1.3 1-.4.9-.3 1.6-.1 2.5.3 1.2.3 2.2-.3 3.6s-1.5 2.3-2.2 1.5c-.3-.3-.5-.9-.6-1.4l.6-.7z"/></g></g></mask><g class="st8"><defs><path id="SVGID_15_" d="M47.9 35.6h12.2v18.5H47.9z"/></defs><clipPath id="SVGID_16_"><use xlink:href="#SVGID_15_" overflow="visible"/></clipPath><path class="st9" d="M60.1 43.5c0-.1-.1-.3-.2-.4l-.3-.3-9.1-7c-.1-.1-.2-.1-.3-.1h-.3c-.1 0-.2.1-.2.2-.1.1-.1.2-.1.3l-1.7 6.2 3.6.2c1.2.1 2.3.9 2.6 2.1l2.3 9.5 3.7-9.8c0-.1.1-.3.1-.4-.1-.2-.1-.4-.1-.5"/></g><defs><filter id="Adobe_OpacityMaskFilter_1_" filterUnits="userSpaceOnUse" x="56.9" y="40.7" width="13.1" height="14.7"><feFlood result="back" flood-color="#fff" flood-opacity="1"/><feBlend in="SourceGraphic" in2="back"/></filter></defs><mask maskUnits="userSpaceOnUse" x="56.9" y="40.7" width="13.1" height="14.7" id="SVGID_17_"><g class="st10"><defs><path id="SVGID_18_" d="M58.3 42.3h10.5v11.4H58.3z"/></defs><clipPath id="SVGID_19_" class="st5"><use xlink:href="#SVGID_18_" overflow="visible"/></clipPath><g class="st6"><path class="st11" d="M62 49.1c.4-1.2.9-2.6 1.4-3.7-.5 1.1-1 2.2-1.6 3.5L59.9 53h-.3l.9-3.6c.3-1.2.6-2.3.9-3.3-.4 1.2-1 2.7-1.5 3.9l-1.3 3.5-.4.2 3.2-8.7.5-.2-1 4.2c-.3 1-.5 1.8-.7 2.6.4-.8.8-1.8 1.3-2.9l2.1-4.5.5-.2-3 8.3-.3.2 1.2-3.4zM65.2 43.6L62 51.9l-.4.2 3.3-8.3zM62.9 50.5c0 .2.2.3.4.2.3-.2.7-.8 1-1.5.3-.7.3-1.1.2-1.4-.2-.3-.2-.9.3-2.1.6-1.4 1.3-2.6 1.8-2.7.3-.1.4.1.4.2l-.5 1c0-.1-.1-.3-.3-.2-.4.1-.8.9-1 1.5-.3.8-.3 1.1-.2 1.4.2.3.1.9-.3 2.1-.5 1.2-1.2 2.3-1.7 2.6-.2.1-.4 0-.4-.2l.3-.9zM64.7 49.6c0 .2.1.3.3.2.3-.1.7-.7 1-1.5.3-.7.4-1.1.2-1.3-.2-.3-.1-.9.3-2 .6-1.3 1.3-2.5 1.8-2.7.2-.1.3.1.3.2l-.5.9c0-.1-.1-.3-.3-.2-.3.1-.8.9-1 1.5-.3.8-.3 1.1-.2 1.4.2.3.1.9-.4 2s-1.2 2.2-1.7 2.5c-.2.1-.4 0-.4-.2l.6-.8z"/></g></g></mask><g class="st12"><defs><path id="SVGID_20_" d="M56.9 40.7H70v14.7H56.9z"/></defs><clipPath id="SVGID_21_"><use xlink:href="#SVGID_20_" overflow="visible"/></clipPath><path class="st13" d="M70 40.8c0-.1-.1-.1-.1-.1h-.2L62 43.3c-.1 0-.2.1-.3.2l-.3.3c-.1.1-.2.2-.3.4s-.1.3-.2.4L57 54.9c0 .1-.1.2-.1.3 0 .1 0 .1.1.2 0 0 .1.1.2.1s.2 0 .3-.1l7.5-3.7c.1 0 .2-.1.2-.2.1-.1.2-.1.2-.2.1-.1.2-.2.2-.3.1-.1.1-.2.2-.3l4.1-9.3c.1-.1.1-.2.1-.3v-.3"/></g><defs><filter id="Adobe_OpacityMaskFilter_2_" filterUnits="userSpaceOnUse" x="50.8" y="33" width="18.9" height="9.6"><feFlood result="back" flood-color="#fff" flood-opacity="1"/><feBlend in="SourceGraphic" in2="back"/></filter></defs><mask maskUnits="userSpaceOnUse" x="50.8" y="33" width="18.9" height="9.6" id="SVGID_22_"><path class="st14 st6 st15" d="M66.4 39.8s0-.1-.1-.2c0-.1-.1-.1-.2-.2l-6.8-4.8c-.1 0-.1-.1-.2-.1s-.2-.1-.2-.1h-.4l-2.1.4c-.1 0-.1 0-.2.1l-.1.1v.1c0 .1.1.1.1.2l6.5 5.1c.1.1.2.1.3.2.1 0 .2.1.3.1h.6l2.4-.7c.1 0 .1 0 .1-.1v-.1"/></mask><g class="st16"><defs><path id="SVGID_23_" d="M50.8 33h18.9v9.6H50.8z"/></defs><clipPath id="SVGID_24_"><use xlink:href="#SVGID_23_" overflow="visible"/></clipPath><path class="st17" d="M69.7 39.7c0-.1-.1-.1-.1-.2-.1-.1-.1-.1-.3-.2l-8.6-5.9c-.1-.1-.2-.1-.3-.2-.1 0-.2-.1-.3-.1-.1 0-.2-.1-.3-.1h-.3l-8.3 1.5c-.1 0-.2.1-.2.1-.1 0-.1.1-.1.2s0 .1.1.2c0 .1.1.1.2.2l9.1 6.9c.1.1.2.2.4.2.1.1.3.1.4.1.1 0 .3.1.4.1h.4l7.8-2.6c.1 0 .1-.1.2-.1-.2 0-.2 0-.2-.1"/></g><defs><filter id="Adobe_OpacityMaskFilter_3_" filterUnits="userSpaceOnUse" x="30" y="50.1" width="15.3" height="16.8"><feFlood result="back" flood-color="#fff" flood-opacity="1"/><feBlend in="SourceGraphic" in2="back"/></filter></defs><mask maskUnits="userSpaceOnUse" x="30" y="50.1" width="15.3" height="16.8" id="SVGID_25_"><g class="st18"><defs><path id="SVGID_26_" d="M31.2 51.5h12.6v14.3H31.2z"/></defs><clipPath id="SVGID_27_" class="st5"><use xlink:href="#SVGID_26_" overflow="visible"/></clipPath><g class="st6"><path class="st19" d="M35.9 58.6c-.6-1.6-1.3-3.6-1.8-5.1.4 1.4.8 2.8 1.2 4.4l1.4 5.3-.3-.1-2.4-5.5c-.8-1.6-1.4-3.2-2-4.6.5 1.4 1.2 3.4 1.8 5.1l1.6 4.7-.4-.1-3.9-11.3.5.1 2.5 5.7c.6 1.4 1.2 2.7 1.7 3.9-.3-1.1-.7-2.3-1-3.7l-1.5-5.6.5.1 4.3 11.8-.4-.1-1.8-5zM35.1 52.3l4.1 11.9-.4-.2-4.2-11.8zM39.2 62.6c.3.5.7.9 1 1 .4.1.4-.6 0-1.8-.4-1.1-.8-1.8-1.5-2.6-.8-.8-1.5-2-2.1-3.7-.7-1.9-.7-3.3-.1-3.1.3.1.7.4 1 .8l.3 1.3c-.2-.2-.5-.7-.8-.7-.5-.1-.3.9 0 1.7.4 1.1.8 1.8 1.5 2.5.8 1 1.5 2 2.1 3.8.6 1.9.8 3.3 0 3-.3-.1-.8-.6-1.1-1l-.3-1.2zM41.7 63.4c.3.5.8 1 1.1 1.1.5.2.5-.6.1-1.8-.4-1.2-.8-1.9-1.5-2.7-.8-.9-1.5-2-2.1-3.8-.7-2-.7-3.4 0-3.2.4.1.7.4 1 .8l.3 1.3c-.2-.3-.6-.7-.9-.8-.5-.1-.3.9 0 1.8.4 1.2.8 1.8 1.5 2.6.9 1 1.5 2.1 2.2 3.9.6 1.9.8 3.4-.1 3.1-.3-.1-.8-.6-1.2-1.1l-.4-1.2z"/></g></g></mask><g class="st20"><defs><path id="SVGID_28_" d="M30 50.1h15.3v16.8H30z"/></defs><clipPath id="SVGID_29_"><use xlink:href="#SVGID_28_" overflow="visible"/></clipPath><path class="st21" d="M45.3 66.2L41.1 53c-.1-.2-.1-.3-.2-.5s-.2-.3-.3-.4c-.1-.1-.2-.2-.4-.3-.1-.1-.3-.1-.4-.1l-9.4-1.5h-.2c-.1 0-.1.1-.1.2v.3c0 .1 0 .3.1.4l4.3 11.7c0 .1.1.3.2.4l.3.3.3.3c.1.1.2.1.3.2l9.3 3h.3c.1 0 .2-.1.2-.1.1-.1.1-.2.1-.3-.2-.2-.2-.3-.2-.4"/></g><defs><filter id="Adobe_OpacityMaskFilter_4_" filterUnits="userSpaceOnUse" x="30.4" y="42.7" width="21.7" height="8.1"><feFlood result="back" flood-color="#fff" flood-opacity="1"/><feBlend in="SourceGraphic" in2="back"/></filter></defs><mask maskUnits="userSpaceOnUse" x="30.4" y="42.7" width="21.7" height="8.1" id="SVGID_30_"><g class="st22"><defs><path id="SVGID_31_" d="M32.3 43.2h18.8v6.9H32.3z"/></defs><clipPath id="SVGID_32_" class="st5"><use xlink:href="#SVGID_31_" overflow="visible"/></clipPath><g class="st6"><path class="st23" d="M42.3 45.1c1.4.1 3.2.1 4.5.2-1.2-.1-2.3-.3-3.6-.5l-3.8-.6.3-.2 4.9-.2c1.6-.1 3.1-.1 4.6-.1-1.4 0-3.2-.1-4.7-.2l-3.8-.2.4-.2 10 .4-.6.5-5.9.2c-1.3 0-2.5.1-3.5.1.8.1 1.7.2 2.8.4l4.6.6-.6.4-10.1-.5.4-.2 4.1.1zM46.5 46.6l-9.7-.8.4-.2 9.7.7zM37.4 46.4c-.5.1-1 .2-1.3.4-.5.3-.1.5.7.6.8.1 1.5 0 2.4-.2 1.1-.3 2.3-.5 3.7-.3 1.7.1 2.5.6 1.7 1-.4.3-.9.4-1.4.5l-1-.2c.3-.1.9-.2 1.2-.4.5-.3-.2-.5-.9-.6-1-.1-1.6 0-2.7.3-1.2.3-2.3.4-3.6.3-1.3-.1-2-.5-1.2-1 .3-.2.9-.4 1.4-.5l1 .1z"/><path class="st23" d="M34.8 47.9c-.5.1-1 .2-1.3.4-.5.3-.2.5.6.6.8.1 1.4.1 2.4-.2 1.1-.3 2.3-.4 3.7-.3 1.6.2 2.4.7 1.6 1.2-.4.3-1 .4-1.4.5l-1-.3c.3-.1.9-.2 1.2-.4.5-.3-.1-.6-.8-.7-.9-.1-1.6 0-2.6.2-1.2.3-2.3.4-3.5.2-1.2-.2-1.8-.6-1-1.1.3-.2.9-.4 1.4-.5l.7.4z"/></g></g></mask><g class="st24"><defs><path id="SVGID_33_" d="M30.4 42.7h21.7v8.1H30.4z"/></defs><clipPath id="SVGID_34_"><use xlink:href="#SVGID_33_" overflow="visible"/></clipPath><path class="st25" d="M41.9 50.3l10-6.6c.1-.1.2-.1.2-.2s.1-.1 0-.2l-.1-.1c-.1 0-.2 0-.3-.1l-9.7-.4h-.3c-.1 0-.3 0-.4.1-.1 0-.3.1-.4.1-.1 0-.2.1-.3.2l-9.7 5.6c-.1.1-.2.1-.3.2-.1.1-.1.1-.1.2v.1s.1.1.2.1l9.4 1.4h.4c.2 0 .3 0 .5-.1s.3-.1.5-.2c.1 0 .3 0 .4-.1"/></g><defs><filter id="Adobe_OpacityMaskFilter_5_" filterUnits="userSpaceOnUse" x="41.9" y="44.2" width="14.6" height="22.3"><feFlood result="back" flood-color="#fff" flood-opacity="1"/><feBlend in="SourceGraphic" in2="back"/></filter></defs><mask maskUnits="userSpaceOnUse" x="41.9" y="44.2" width="14.6" height="22.3" id="SVGID_35_"><g class="st26 st6"><defs><filter id="Adobe_OpacityMaskFilter_6_" filterUnits="userSpaceOnUse" x="45.7" y="50.8" width="8.7" height="8.5"><feFlood result="back" flood-color="#fff" flood-opacity="1"/><feBlend in="SourceGraphic" in2="back"/></filter></defs><path class="st28 st29" d="M46.1 55.7l7.2-4.8c.1-.1.2-.1.2-.1.1 0 .1 0 .2.1.1 0 .1.1.2.2s.1.2.1.3l.2.9v.6c0 .1-.1.2-.1.3s-.1.2-.2.2l-6.8 5.9c-.1.1-.2.1-.2.1h-.2c-.1 0-.1-.1-.2-.1-.1-.1-.1-.1-.1-.3l-.7-2c0-.1-.1-.2-.1-.4 0-.1 0-.3.1-.4 0-.1.1-.2.2-.3l.2-.2"/></g></mask><g class="st5"><defs><path id="SVGID_36_" d="M41.9 44.2h14.6v22.3H41.9z"/></defs><clipPath id="SVGID_37_"><use xlink:href="#SVGID_36_" overflow="visible"/></clipPath><path class="st30" d="M42.6 50.9l9.9-6.6c.1-.1.2-.1.3-.1.1 0 .2 0 .3.1.1.1.2.1.2.2.1.1.1.2.2.4l3 12.4v.4c0 .1 0 .3-.1.4 0 .1-.1.3-.2.4-.1.1-.1.2-.2.3l-8.8 7.5c-.1.1-.2.2-.3.2h-.3c-.1 0-.2-.1-.3-.2-.1-.1-.1-.2-.2-.3L42 52.8c-.1-.2-.1-.3-.1-.5s0-.3.1-.5.1-.3.2-.5.2-.3.4-.4"/></g></g></g></g></svg>