<svg xmlns="http://www.w3.org/2000/svg" xmlns:xlink="http://www.w3.org/1999/xlink" width="100" height="100" viewBox="0 0 100 100"><style>.st0{clip-path:url(#SVGID_2_);} .st1{clip-path:url(#SVGID_4_);} .st2{clip-path:url(#SVGID_6_);fill:url(#SVGID_7_);} .st3{clip-path:url(#SVGID_9_);fill:none;stroke:#FFFFFF;stroke-miterlimit:10;} .st4{clip-path:url(#SVGID_11_);fill:#B2A048;} .st5{clip-path:url(#SVGID_11_);fill:#FFFFFF;} .st6{clip-path:url(#SVGID_11_);fill:#212120;} .st7{clip-path:url(#SVGID_11_);fill:#516B59;} .st8{clip-path:url(#SVGID_11_);fill:#B2A04B;} .st9{filter:url(#Adobe_OpacityMaskFilter);} .st10{clip-path:url(#SVGID_11_);} .st11{enable-background:new ;} .st12{clip-path:url(#SVGID_14_);fill:#212120;} .st13{clip-path:url(#SVGID_11_);mask:url(#SVGID_12_);} .st14{clip-path:url(#SVGID_16_);fill:#212120;} .st15{filter:url(#Adobe_OpacityMaskFilter_1_);} .st16{clip-path:url(#SVGID_11_);fill:#231F20;} .st17{clip-path:url(#SVGID_11_);mask:url(#SVGID_17_);} .st18{clip-path:url(#SVGID_19_);fill:#843C3E;} .st19{clip-path:url(#SVGID_21_);} .st20{clip-path:url(#SVGID_23_);} .st21{clip-path:url(#SVGID_25_);fill:url(#SVGID_26_);} .st22{clip-path:url(#SVGID_28_);fill:none;stroke:#FFFFFF;stroke-miterlimit:10;} .st23{clip-path:url(#SVGID_30_);fill:#B2A048;} .st24{clip-path:url(#SVGID_30_);fill:#FFFFFF;} .st25{clip-path:url(#SVGID_30_);fill:#212120;} .st26{clip-path:url(#SVGID_30_);fill:#516B59;} .st27{clip-path:url(#SVGID_30_);fill:#B2A04B;} .st28{filter:url(#Adobe_OpacityMaskFilter_2_);} .st29{clip-path:url(#SVGID_30_);} .st30{clip-path:url(#SVGID_33_);fill:#212120;} .st31{clip-path:url(#SVGID_30_);mask:url(#SVGID_31_);} .st32{clip-path:url(#SVGID_35_);fill:#212120;} .st33{filter:url(#Adobe_OpacityMaskFilter_3_);} .st34{clip-path:url(#SVGID_30_);fill:#231F20;} .st35{clip-path:url(#SVGID_30_);mask:url(#SVGID_36_);} .st36{clip-path:url(#SVGID_38_);fill:#843C3E;}</style><g id="POWERUP_x5F_Boundy_Hunter_1_"><defs><path id="SVGID_1_" d="M0 0h100v100H0z"/></defs><clipPath id="SVGID_2_"><use xlink:href="#SVGID_1_" overflow="visible"/></clipPath><g class="st0"><defs><path id="SVGID_3_" d="M0 0h100v100H0z"/></defs><clipPath id="SVGID_4_"><use xlink:href="#SVGID_3_" overflow="visible"/></clipPath><g class="st1"><defs><path id="SVGID_5_" d="M29.7 64.5c-8-11.2-5.4-26.8 5.8-34.8 11.2-8 26.8-5.4 34.8 5.8 8 11.2 5.4 26.8-5.8 34.8-4.4 3.1-9.4 4.6-14.4 4.6-7.9 0-15.5-3.6-20.4-10.4M44 15.2c-2 3-5.7 4.2-9 2.8-5.1-2-10.5 1.9-10.3 7.3.2 3.6-2.2 6.7-5.6 7.6-5.3 1.4-7.4 7.7-4 12 2.2 2.8 2.2 6.7-.1 9.5-3.5 4.2-1.5 10.6 3.8 12 3.4.9 5.7 4.2 5.5 7.7-.3 5.4 5 9.4 10.1 7.5 3.3-1.2 7.1 0 9 3 2.9 4.6 9.6 4.7 12.6.1 2-3 5.7-4.2 9-2.8 5.1 2 10.5-1.9 10.3-7.3-.2-3.6 2.2-6.7 5.6-7.6 5.3-1.4 7.4-7.7 4-12-2.2-2.8-2.2-6.7.1-9.5 3.5-4.2 1.5-10.6-3.8-12-3.4-.9-5.7-4.2-5.5-7.7.3-5.4-5-9.4-10.1-7.5-3.3 1.2-7.1 0-9-3-1.5-2.3-3.9-3.5-6.4-3.5-2.3 0-4.7 1.1-6.2 3.4"/></defs><clipPath id="SVGID_6_"><use xlink:href="#SVGID_5_" overflow="visible"/></clipPath><radialGradient id="SVGID_7_" cx="1.054" cy="-1.054" r="1" gradientTransform="matrix(47.4546 47.4546 47.4546 -47.4546 30.9999 -75.2497)" gradientUnits="userSpaceOnUse"><stop offset="0" stop-color="#FFF"/><stop offset=".052" stop-color="#DCDBEC"/><stop offset=".109" stop-color="#BEBCDB"/><stop offset=".174" stop-color="#A4A0CD"/><stop offset=".248" stop-color="#8F8AC2"/><stop offset=".333" stop-color="#7F79B9"/><stop offset=".439" stop-color="#736EB3"/><stop offset=".588" stop-color="#6D67AF"/><stop offset="1" stop-color="#6B65AE"/></radialGradient><path class="st2" d="M50-26.8l77.3 77.4L50 127.9l-77.3-77.3z"/></g><g class="st1"><defs><path id="SVGID_8_" d="M12.8 11.3h74.5v77.4H12.8z"/></defs><clipPath id="SVGID_9_"><use xlink:href="#SVGID_8_" overflow="visible"/></clipPath><path class="st3" d="M65.4 18.2c5.1-2 10.5 2 10.2 7.4-.2 3.6 2.1 6.8 5.6 7.7 5.3 1.4 7.3 7.8 3.9 12-2.3 2.8-2.3 6.7 0 9.5 3.4 4.2 1.3 10.6-3.9 12-3.4.9-5.8 4.1-5.6 7.7.3 5.4-5.1 9.4-10.2 7.4-3.3-1.3-7.1-.1-9 2.9-3 4.6-9.7 4.6-12.6 0-1.9-3-5.7-4.2-9-2.9-5.1 2-10.5-2-10.2-7.4.2-3.6-2.1-6.8-5.6-7.7-5.3-1.4-7.3-7.8-3.9-12 2.3-2.8 2.3-6.7 0-9.5-3.4-4.2-1.3-10.6 3.9-12 3.4-.9 5.8-4.1 5.6-7.7-.3-5.4 5.1-9.4 10.2-7.4 3.3 1.3 7.1.1 9-2.9 3-4.6 9.7-4.6 12.6 0 1.9 2.9 5.7 4.2 9 2.9z"/><ellipse transform="matrix(0.8145 -0.5802 0.5802 0.8145 -19.7333 38.2829)" class="st3" cx="50" cy="50" rx="24.9" ry="24.9"/></g><g class="st1"><defs><path id="SVGID_10_" d="M0 0h100v100H0z"/></defs><clipPath id="SVGID_11_"><use xlink:href="#SVGID_10_" overflow="visible"/></clipPath><path class="st4" d="M33.8 63.8l-1.8-1s1.7-20 1.8-20.5c.1-.5.5-.6.5-.6h2.9l-2.6 21.9-.8.2"/><path class="st5" d="M33 51l3.7.6-.5 2.2-3.4-.6zM34.3 46.6l1.6-22.1h.6L35 46.6zM42.4 23.7l-3.9-.2-.4-1.2 5.3-.6z"/><path class="st6" d="M34.6 21.4l2.4-.6 6.6.6.2 1s-3.8-1-7 2.1h-1l-1.2-3.1z"/><path class="st7" d="M33.8 63.8l12.6 7h7.9l12.7-7 1.2-.7S66.6 47.7 66.5 47c-.3-1.9-1.8-2.3-1.8-2.3 0-1 0-6.1-3.9-9.9-4-4-9.3-3.8-11.2-3.7-1.9.1-7.1.3-10.8 4.6-2.9 3.5-3 7.6-3 8.9l-2 19.2z"/><path class="st8" d="M60.5 40.9l.3 2.9h.6l-.2-2.9zM61.8 40.9l.3 2.9h.6l-.3-2.9zM62.9 40.9l.3 2.9h.6l-.2-2.9zM64.4 40.9H64l.2 2.9h.5z"/><defs><filter id="Adobe_OpacityMaskFilter" filterUnits="userSpaceOnUse" x="33.8" y="44.6" width="33.2" height="26.2"><feFlood result="back" flood-color="#fff" flood-opacity="1"/><feBlend in="SourceGraphic" in2="back"/></filter></defs><mask maskUnits="userSpaceOnUse" x="33.8" y="44.6" width="33.2" height="26.2" id="SVGID_12_"><g class="st9"><defs><path id="SVGID_13_" d="M35 55.8h30.6v14.6H35z"/></defs><clipPath id="SVGID_14_" class="st10"><use xlink:href="#SVGID_13_" overflow="visible"/></clipPath><g class="st11"><path class="st12" d="M35 64.5l9.9 5.6s.2-12.8-3.5-14.3c-4.7-.1-6.4 8.7-6.4 8.7M55.6 70.4l10.1-5.7s-2.4-9.7-6.5-8.9c-3.6.9-3.6 14.6-3.6 14.6"/></g></g></mask><g class="st13"><defs><path id="SVGID_15_" d="M33.8 44.6H67v26.2H33.8z"/></defs><clipPath id="SVGID_16_"><use xlink:href="#SVGID_15_" overflow="visible"/></clipPath><path class="st14" d="M33.8 63.8l12.6 7h7.9l12.7-7-2.2-19.1-28.8-.1z"/></g><defs><filter id="Adobe_OpacityMaskFilter_1_" filterUnits="userSpaceOnUse" x="35.4" y="44.6" width="29.9" height="26.2"><feFlood result="back" flood-color="#fff" flood-opacity="1"/><feBlend in="SourceGraphic" in2="back"/></filter></defs><mask maskUnits="userSpaceOnUse" x="35.4" y="44.6" width="29.9" height="26.2" id="SVGID_17_"><path class="st15 st11 st16" d="M47.1 70.9h6.6V49.6s5.2-.5 10.7-2.6l.2-1.4s-11.4 1.8-28.3.3v1c3.6 1.6 10.8 2.6 10.8 2.6v21.4z"/></mask><g class="st17"><defs><path id="SVGID_18_" d="M35.4 44.6h29.9v26.2H35.4z"/></defs><clipPath id="SVGID_19_"><use xlink:href="#SVGID_18_" overflow="visible"/></clipPath><path class="st18" d="M45.4 70.2l1 .6h7.9l.8-.5s-1.9-17.6 10.2-20.9l-.5-4.7-28.8-.1-.6 4.8c12.4 4.1 10 20.8 10 20.8"/></g></g></g></g></svg>