<svg xmlns="http://www.w3.org/2000/svg" xmlns:xlink="http://www.w3.org/1999/xlink" width="100" height="100" viewBox="0 0 100 100"><style>.st0{fill:#FFFFFF;} .st1{clip-path:url(#SVGID_2_);} .st2{clip-path:url(#SVGID_4_);fill:url(#SVGID_5_);} .st3{clip-path:url(#SVGID_7_);fill:none;stroke:#FFFFFF;stroke-miterlimit:10;} .st4{filter:url(#Adobe_OpacityMaskFilter);} .st5{mask:url(#SVGID_8_);fill:#F16722;} .st6{opacity:0.75;fill:url(#SVGID_9_);} .st7{opacity:0.75;fill:#62C8D7;} .st8{opacity:0.75;fill:url(#SVGID_10_);} .st9{clip-path:url(#SVGID_12_);} .st10{clip-path:url(#SVGID_14_);fill:url(#SVGID_15_);} .st11{clip-path:url(#SVGID_17_);fill:none;stroke:#FFFFFF;stroke-miterlimit:10;} .st12{filter:url(#Adobe_OpacityMaskFilter_1_);} .st13{mask:url(#SVGID_18_);fill:#F16722;} .st14{opacity:0.75;fill:url(#SVGID_19_);} .st15{opacity:0.75;fill:url(#SVGID_20_);}</style><defs><path id="SVGID_1_" d="M12.8 11.3h74.5v77.4H12.8z"/></defs><clipPath id="SVGID_2_"><use xlink:href="#SVGID_1_" overflow="visible"/></clipPath><g class="st1"><defs><path id="SVGID_3_" d="M29.7 64.5c-8-11.2-5.4-26.8 5.8-34.8 11.2-8 26.8-5.4 34.8 5.8 8 11.2 5.4 26.8-5.8 34.8-4.4 3.1-9.4 4.6-14.4 4.6-7.9 0-15.5-3.6-20.4-10.4M44 15.2c-2 3-5.7 4.2-9 2.8-5.1-2-10.5 1.9-10.3 7.3.2 3.6-2.2 6.7-5.6 7.6-5.3 1.4-7.4 7.7-4 12 2.2 2.8 2.2 6.7-.1 9.5-3.5 4.2-1.5 10.6 3.8 12 3.4.9 5.7 4.2 5.5 7.7-.3 5.4 5 9.4 10.1 7.5 3.3-1.2 7.1 0 9 3 2.9 4.6 9.6 4.7 12.6.1 2-3 5.7-4.2 9-2.8 5.1 2 10.5-1.9 10.3-7.3-.2-3.6 2.2-6.7 5.6-7.6 5.3-1.4 7.4-7.7 4-12-2.2-2.8-2.2-6.7.1-9.5 3.5-4.2 1.5-10.6-3.8-12-3.4-.9-5.7-4.2-5.5-7.7.3-5.4-5-9.4-10.1-7.5-3.3 1.2-7.1 0-9-3-1.5-2.3-3.9-3.5-6.4-3.5-2.3 0-4.7 1.1-6.2 3.4"/></defs><clipPath id="SVGID_4_"><use xlink:href="#SVGID_3_" overflow="visible"/></clipPath><radialGradient id="SVGID_5_" cx="1.069" cy="-.8" r="1" gradientTransform="matrix(47.4546 47.4546 47.4546 -47.4546 18.2353 -63.9626)" gradientUnits="userSpaceOnUse"><stop offset="0" stop-color="#FFF"/><stop offset=".052" stop-color="#DCDBEC"/><stop offset=".109" stop-color="#BEBCDB"/><stop offset=".174" stop-color="#A4A0CD"/><stop offset=".248" stop-color="#8F8AC2"/><stop offset=".333" stop-color="#7F79B9"/><stop offset=".439" stop-color="#736EB3"/><stop offset=".588" stop-color="#6D67AF"/><stop offset="1" stop-color="#6B65AE"/></radialGradient><path class="st2" d="M50-26.8l77.3 77.4L50 127.9l-77.3-77.3"/></g><g class="st1"><defs><path id="SVGID_6_" d="M12.8 11.3h74.5v77.4H12.8z"/></defs><clipPath id="SVGID_7_"><use xlink:href="#SVGID_6_" overflow="visible"/></clipPath><path class="st3" d="M65.4 18.2c5.1-2 10.5 2 10.2 7.4-.2 3.6 2.1 6.8 5.6 7.7 5.3 1.4 7.3 7.8 3.9 12-2.3 2.8-2.3 6.7 0 9.5 3.4 4.2 1.3 10.6-3.9 12-3.4.9-5.8 4.1-5.6 7.7.3 5.4-5.1 9.4-10.2 7.4-3.3-1.3-7.1-.1-9 2.9-3 4.6-9.7 4.6-12.6 0-1.9-3-5.7-4.2-9-2.9-5.1 2-10.5-2-10.2-7.4.2-3.6-2.1-6.8-5.6-7.7-5.3-1.4-7.3-7.8-3.9-12 2.3-2.8 2.3-6.7 0-9.5-3.4-4.2-1.3-10.6 3.9-12 3.4-.9 5.8-4.1 5.6-7.7-.3-5.4 5.1-9.4 10.2-7.4 3.3 1.3 7.1.1 9-2.9 3-4.6 9.7-4.6 12.6 0 1.9 2.9 5.7 4.2 9 2.9z"/><ellipse transform="matrix(0.8145 -0.5802 0.5802 0.8145 -19.7331 38.2829)" class="st3" cx="50" cy="50" rx="24.9" ry="24.9"/></g><defs><filter id="Adobe_OpacityMaskFilter" filterUnits="userSpaceOnUse" x="18.3" y="14" width="58.3" height="70"><feColorMatrix values="1 0 0 0 0 0 1 0 0 0 0 0 1 0 0 0 0 0 1 0"/></filter></defs><mask maskUnits="userSpaceOnUse" x="18.3" y="14" width="58.3" height="70" id="SVGID_8_"><path class="st4 st0" d="M29.7 64.5c-8-11.2-5.4-26.8 5.8-34.8 1.6-1.1 3.3-2.1 5.1-2.8.5-.2 12.5-13.4 13.1-13.6 10.1-3.3 15.8 1.8 22.3 11C82.9 34 86.3 76 78.3 85.8c-.8 1-14.7-3.3-14.7-3.3s1.4-12.6.8-12.2c-11.2 8-26.7 5.4-34.7-5.8z"/></mask><path class="st5" d="M47.2 47.7c-1.4 2.9-.3 5.7-.3 5.7s-2.4 3.1-3.6 7.1c-1 3.4-1.3 4-2.4 4.9-1.1.9-3.3.1-6.5 1.8-2.7 1.5-4.5 2.9-7.2 4.5-1.7 1.1-4 .4-5.6.5-1.6 0-2.3.6-2.3 1.7 0 1.7.3 2.6-.3 4-.5.9-.7 1.5-.6 3 .1 1.5.2 2.8 1 2.8 1.1 0 .4-1.1 2-3 1.6-1.8 2.3-3.7 4-4.7 1.7-1 6.2-1.9 9.8-3 2.8-.9 4.7-1.6 6.3-2.3.9-.4 2.1-.4 3.3-1.1.8-.5 1.4-1.4 2-1.9.8-.8 3.6-2.7 4.9-4.4 2-2.7 2.6-4.5 3.8-6.5.1 0 1.4.6 2.7.9 3 .8 5.5.8 7.7 1.1 2.8.4 2.9.2 2.8.5-.3.7-1.5 2.1-1.7 5.4-.2 3.3.6 6.4-.1 9.5-.2.9-.4 2.2-.7 2.8-.4.9-.8 1-1.1 2.3-.3 1.2.1 2.2 1 2.4 1 .3 1.7.5 3.2 1 1.5.5 2.9 1.5 4.6 1.3 1.9-.2 3.2-.6 3.1-1.2-.5-.7-1.4-.8-3-1.8-1.7-1.2-2.9-2.1-3.4-3.6-.2-.8-.3-1.3-.2-2.4.4-3.1 2.8-11 3.2-12.7.4-2 .8-2.7 1-3.9.2-.9.3-2.5-.4-3.3-.4-.4-2.2-1.4-3.3-2-2.1-1.1-3.7-2.4-7.3-3.7-4-1.4-5.7-1.7-5.7-1.7s.7-2 1.2-4.5c.5-2.1.7-3.3.8-4.4.4-1.4.5-2.5.6-3.1.4.5 1 1.1 1.7 1.5 1 .6 1.6.9 2.4 1.3 1.6.9 2.1 1 2.4 1 .3 0 1.4-.5 2.9-2.3 1.2-1.4 2-3.2 2.6-4.7.6-1.8 1-2.8 1-2.8s.5-.3.9-.8c.7-.8.8-1.9.8-2.2-.1-.3-1.1-1.7-2.4-1.9-.6.1-.7.5-.9.8-.4-.2-.9.5-.9.5v1.6l.3 1.2s-.2.6-.9 1.7c-.4.7-1.5 1.7-2.1 2.2-1.3 1-1.8 1.9-1.8 1.9s0-.2-1.1-1.4c-.6-.7-1.4-1.3-2.4-2.1 0-.7-.2-1.9-.7-2.8-.4-.7-1.1-1.4-1.9-1.7-.7-.8-1.4-1.3-1.4-1.3s-.1-.6 0-.8c.1-.2.2-.2.2-.2s1 .4 1.7.2c.4-.1.4-.7.5-1 0-.2.3-.2.3-.3 0-.1-.1-.4-.1-.4l.3-.3s-.1-.5-.1-.6c0-.2.6-.1.6-.1s.2 0 .3-.2c.1-.2 0-.4-.1-.8s-.2-.7-.2-1.2c.1-.3.3-.7.3-.8 0-.3.1-.6-.3-2-.5-1.6-1.7-2.8-4-3-2.1-.1-4 .5-4.5 3.3-.2 1.1 0 2.2.2 2.9.2 1 0 1.5-.2 2.1-.2.6-.5 1.1-.8 1.3-.1.3-.1.4-1.1.8-.6.3-.9 0-2.7.1-1.4.1-2.3.7-3.1 1.4-.7.4-1.1.1-4.1 1.6-1.2.6-2.6 2.1-3.8 2.7-.9.5-1.8 1-2 1.3-.2.3-1.1 1.9-1.4 4.9-.3 2.9-.4 3.8-.4 6.2V45s-.5.8-.7 1.8c-.1.8-.1 1.6.4 2.4.3.5 2.8.3 3.5 0 .8-.2.5-1.7.5-1.7s.5-.4.4-.9c-.1-.3-.4-1-.6-1.3-.1-.1-.3-.2-.6-.3-.3-.1-.2-.5-.2-.5s.3-1.3.5-2.5c.2-1.3 1-3.1 1.4-4.4.8-2.2.6-3.6.6-3.6s1.5-.2 3.6-1c1.9-.8 2.4-1.3 2.9-1.6.4-.2.6-.1.7 0 .3.3.1 1.7.5 3 .8 2.5 1.9 5.1 2 7.4 0 2.5-1.3 3.8-2.2 5.9z"/><radialGradient id="SVGID_9_" cx="56.148" cy="31.951" r="28.8" fx="53.491" fy="31.663" gradientTransform="matrix(1 0 0 2.0971 0 -35.054)" gradientUnits="userSpaceOnUse"><stop offset="0" stop-color="#64C9DC" stop-opacity=".95"/><stop offset="1" stop-color="#00688F"/></radialGradient><path class="st6" d="M30.2 67.6l4.7-1.9 4.3-.8 1.8-4.7 1.8-3.7 2.6-3 .5-5.4 1.8-10.5s-.7-3.6-1-6.2c.1 0 .1.7-.9 1-1.8.7-2 17.1-2.3 17.2-.3.1-.5-4.1-.6-8.2 0-.1-.4 1.7-.4.2-.2-.3.1-8.2-.2-8.1-.1 0-.9.7-1.1.6 0-.1-.2-.1-.2-.2.5-.2.2-.6.3-.7.2-.3 1.8-1 1.8-1l2-2.1s-.2-3-1.3-3.3c.1-.2.4-.5.4-.5l1.4-2.2s2.6 0 3.9.5c.2 0 1.4 4.1 1.4 4.1l3 .3c2.2.3 3.2 1.2 3.2 1.2l1.8 2.3 2.1.4 1.2 1.4s-1.3-.4.5.5c2.5 2.1 4.3.1 4.3.1l2.1.1 4.3-2.5s-.6.9-.7 1.8c0 .2-.3 4-.6 4.5-.2.3-.3-2.7-.6-2.3-.8 1.2-1.8 2.4-1.8 2.4s-1.2 1.2-1.8 1.2-2.2-1-2.2-1l-1.1 7.2-.6-8-1.8-1.3-2.4 3.9.8 6.1 6.5 2 8.9 5.8.7 11.2-3.8 8.8 3.4 3.5 2.3 3.4-.8 3.4-.3 3.5-.6-2.7-1.8-.2-.8 1.7-.7 3.1-1-4.9s-.8.1-2.1 0-1.8-.8-3.8-1.8c-.2-.1-1.4 5.1-1.8 5.1S63.6 83 63.6 83s-2.2-1.8-2.2-1.9c0-.3-2.4 1.1-2.4 1.1l-10-5.9-9.7-2.4-9.1-6.3z"/><path class="st7" d="M33.4 50.3c0 .2.5 5.1.8 5.1.3 0 .7-4.6 1-4.6.8 0 1-.8 1-.8l1.8-.3s0 1.8.4 1.8c.3 0 .3-3.4.3-3.4l.6-.7s-.5-1.3-.4-1.8-1-1-1-1l-1.1-2.1-.5-1.4s.1-1.9-.1-2.9-1.6-2.7-1.6-2.7l-.9 3.8v4.5l-1.1 3.8.8 2.7z"/><radialGradient id="SVGID_10_" cx="42.023" cy="79.375" r="21" gradientUnits="userSpaceOnUse"><stop offset="0" stop-color="#64C9DC" stop-opacity=".95"/><stop offset="1" stop-color="#00688F"/></radialGradient><path class="st8" d="M28.9 63.8l4.3 4.1s1.7 1.4 2.6 2.3c.9.8 4.8 1.8 4.8 1.8s4.5.2 5.1.6c.6.4 1.3 1.9 2.4 1.3 1.1-.6 3.1-.3 4.5-1s4.2.4 4.5.4 3.8-2.8 5-3.5c1.2-.7 4.8-.3 4.8-.3s-.7 7.2-1.8 8c-1.1.8-.4 3.2-1.4 3.6-.3 0-3.4-.4-3.8.1s-.2 14.5-.2 14.5l-2.4-12.4s-1 4.4-2.4 4.8c-1.4.4-2.7-.3-2.7-.3s-1.7.9-3.4 1.2-4.5-4-4.8-3.6c-.3.4-2.5 7.4-2.3 7.9s-2.1-6.7-2.1-6.7-1.4-.3-2.3-1.1c-.9-.7-1-4.5-1.3-4.5s-2.2 3-3.2 3-2.9-3.5-2.9-3.5-1.8 11.9-2.9 12.1c-1.1.2-1-13.8-1.8-13.7-2.1 4.3-2-8.9-1.5-9.1L20.9 67s-1.3-.2-4-1.6c0-1.3 3.2-2.3 5.8-2.3s6.2.7 6.2.7z"/></svg>