<svg xmlns="http://www.w3.org/2000/svg" xmlns:xlink="http://www.w3.org/1999/xlink" width="100" height="100" viewBox="0 0 100 100"><style>.st0{clip-path:url(#SVGID_2_);} .st1{clip-path:url(#SVGID_4_);} .st2{clip-path:url(#SVGID_6_);fill:#F26924;} .st3{clip-path:url(#SVGID_8_);fill:url(#SVGID_9_);} .st4{clip-path:url(#SVGID_11_);fill:none;stroke:#FFFFFF;stroke-miterlimit:10;} .st5{opacity:0.6;clip-path:url(#SVGID_13_);} .st6{clip-path:url(#SVGID_15_);fill:#75CCCD;} .st7{clip-path:url(#SVGID_17_);fill:#75CCCD;} .st8{opacity:0.9;clip-path:url(#SVGID_13_);} .st9{clip-path:url(#SVGID_19_);fill:#75CCCD;} .st10{clip-path:url(#SVGID_21_);fill:#75CCCD;} .st11{opacity:0.75;clip-path:url(#SVGID_13_);} .st12{clip-path:url(#SVGID_23_);fill:#75CCCD;} .st13{clip-path:url(#SVGID_25_);fill:#75CCCD;} .st14{clip-path:url(#SVGID_27_);fill:#75CCCD;} .st15{opacity:0.5;clip-path:url(#SVGID_13_);} .st16{clip-path:url(#SVGID_29_);fill:#75CCCD;} .st17{opacity:0.8;clip-path:url(#SVGID_13_);} .st18{clip-path:url(#SVGID_31_);fill:#75CCCD;} .st19{clip-path:url(#SVGID_33_);fill:#75CCCD;} .st20{clip-path:url(#SVGID_35_);fill:#75CCCD;} .st21{clip-path:url(#SVGID_37_);fill:#75CCCD;} .st22{clip-path:url(#SVGID_39_);fill:#75CCCD;} .st23{clip-path:url(#SVGID_41_);fill:#75CCCD;} .st24{clip-path:url(#SVGID_43_);fill:#75CCCD;} .st25{clip-path:url(#SVGID_45_);fill:#75CCCD;} .st26{clip-path:url(#SVGID_47_);fill:#75CCCD;} .st27{clip-path:url(#SVGID_49_);fill:#75CCCD;} .st28{clip-path:url(#SVGID_51_);fill:#75CCCD;} .st29{clip-path:url(#SVGID_53_);fill:#75CCCD;} .st30{clip-path:url(#SVGID_55_);fill:#75CCCD;} .st31{clip-path:url(#SVGID_57_);fill:#75CCCD;} .st32{clip-path:url(#SVGID_59_);fill:#75CCCD;} .st33{clip-path:url(#SVGID_61_);fill:#75CCCD;} .st34{clip-path:url(#SVGID_63_);fill:#75CCCD;} .st35{clip-path:url(#SVGID_65_);fill:#75CCCD;} .st36{clip-path:url(#SVGID_67_);fill:#75CCCD;} .st37{clip-path:url(#SVGID_69_);fill:#75CCCD;} .st38{clip-path:url(#SVGID_71_);fill:#75CCCD;} .st39{clip-path:url(#SVGID_73_);fill:#75CCCD;} .st40{clip-path:url(#SVGID_75_);fill:#75CCCD;} .st41{clip-path:url(#SVGID_77_);fill:#75CCCD;} .st42{clip-path:url(#SVGID_79_);fill:#75CCCD;} .st43{clip-path:url(#SVGID_81_);fill:#75CCCD;} .st44{clip-path:url(#SVGID_83_);fill:#75CCCD;} .st45{clip-path:url(#SVGID_85_);fill:#75CCCD;} .st46{clip-path:url(#SVGID_87_);fill:#75CCCD;} .st47{clip-path:url(#SVGID_89_);fill:#75CCCD;} .st48{clip-path:url(#SVGID_91_);fill:#75CCCD;} .st49{clip-path:url(#SVGID_93_);fill:#75CCCD;} .st50{clip-path:url(#SVGID_95_);fill:#75CCCD;} .st51{clip-path:url(#SVGID_97_);fill:#75CCCD;} .st52{clip-path:url(#SVGID_99_);fill:#75CCCD;} .st53{clip-path:url(#SVGID_101_);fill:#75CCCD;} .st54{clip-path:url(#SVGID_103_);fill:#75CCCD;} .st55{clip-path:url(#SVGID_105_);fill:#75CCCD;} .st56{clip-path:url(#SVGID_107_);fill:#75CCCD;} .st57{clip-path:url(#SVGID_109_);fill:#75CCCD;} .st58{clip-path:url(#SVGID_111_);fill:#75CCCD;} .st59{clip-path:url(#SVGID_113_);fill:#75CCCD;} .st60{clip-path:url(#SVGID_115_);fill:#75CCCD;} .st61{clip-path:url(#SVGID_117_);fill:#75CCCD;} .st62{clip-path:url(#SVGID_119_);fill:#75CCCD;} .st63{clip-path:url(#SVGID_121_);fill:#75CCCD;} .st64{clip-path:url(#SVGID_123_);fill:#75CCCD;} .st65{clip-path:url(#SVGID_125_);fill:#75CCCD;} .st66{clip-path:url(#SVGID_127_);fill:#75CCCD;} .st67{clip-path:url(#SVGID_129_);fill:#75CCCD;} .st68{clip-path:url(#SVGID_131_);fill:#75CCCD;} .st69{clip-path:url(#SVGID_133_);fill:#75CCCD;} .st70{clip-path:url(#SVGID_135_);fill:#75CCCD;} .st71{clip-path:url(#SVGID_137_);fill:#75CCCD;} .st72{clip-path:url(#SVGID_139_);fill:#75CCCD;} .st73{clip-path:url(#SVGID_141_);fill:#75CCCD;} .st74{clip-path:url(#SVGID_143_);fill:#75CCCD;} .st75{clip-path:url(#SVGID_145_);fill:#75CCCD;} .st76{clip-path:url(#SVGID_147_);fill:#75CCCD;} .st77{clip-path:url(#SVGID_149_);fill:#75CCCD;} .st78{clip-path:url(#SVGID_151_);fill:#75CCCD;} .st79{clip-path:url(#SVGID_153_);fill:#75CCCD;} .st80{clip-path:url(#SVGID_155_);fill:#75CCCD;} .st81{clip-path:url(#SVGID_157_);} .st82{clip-path:url(#SVGID_159_);} .st83{clip-path:url(#SVGID_161_);fill:#F26924;} .st84{clip-path:url(#SVGID_163_);fill:url(#SVGID_164_);} .st85{clip-path:url(#SVGID_166_);fill:none;stroke:#FFFFFF;stroke-miterlimit:10;} .st86{opacity:0.6;clip-path:url(#SVGID_168_);} .st87{clip-path:url(#SVGID_170_);fill:#75CCCD;} .st88{clip-path:url(#SVGID_172_);fill:#75CCCD;} .st89{opacity:0.9;clip-path:url(#SVGID_168_);} .st90{clip-path:url(#SVGID_174_);fill:#75CCCD;} .st91{clip-path:url(#SVGID_176_);fill:#75CCCD;} .st92{opacity:0.75;clip-path:url(#SVGID_168_);} .st93{clip-path:url(#SVGID_178_);fill:#75CCCD;} .st94{clip-path:url(#SVGID_180_);fill:#75CCCD;} .st95{clip-path:url(#SVGID_182_);fill:#75CCCD;} .st96{opacity:0.5;clip-path:url(#SVGID_168_);} .st97{clip-path:url(#SVGID_184_);fill:#75CCCD;} .st98{opacity:0.8;clip-path:url(#SVGID_168_);} .st99{clip-path:url(#SVGID_186_);fill:#75CCCD;} .st100{clip-path:url(#SVGID_188_);fill:#75CCCD;} .st101{clip-path:url(#SVGID_190_);fill:#75CCCD;} .st102{clip-path:url(#SVGID_192_);fill:#75CCCD;} .st103{clip-path:url(#SVGID_194_);fill:#75CCCD;} .st104{clip-path:url(#SVGID_196_);fill:#75CCCD;} .st105{clip-path:url(#SVGID_198_);fill:#75CCCD;} .st106{clip-path:url(#SVGID_200_);fill:#75CCCD;} .st107{clip-path:url(#SVGID_202_);fill:#75CCCD;} .st108{clip-path:url(#SVGID_204_);fill:#75CCCD;} .st109{clip-path:url(#SVGID_206_);fill:#75CCCD;} .st110{clip-path:url(#SVGID_208_);fill:#75CCCD;} .st111{clip-path:url(#SVGID_210_);fill:#75CCCD;} .st112{clip-path:url(#SVGID_212_);fill:#75CCCD;} .st113{clip-path:url(#SVGID_214_);fill:#75CCCD;} .st114{clip-path:url(#SVGID_216_);fill:#75CCCD;} .st115{clip-path:url(#SVGID_218_);fill:#75CCCD;} .st116{clip-path:url(#SVGID_220_);fill:#75CCCD;} .st117{clip-path:url(#SVGID_222_);fill:#75CCCD;} .st118{clip-path:url(#SVGID_224_);fill:#75CCCD;} .st119{clip-path:url(#SVGID_226_);fill:#75CCCD;} .st120{clip-path:url(#SVGID_228_);fill:#75CCCD;} .st121{clip-path:url(#SVGID_230_);fill:#75CCCD;} .st122{clip-path:url(#SVGID_232_);fill:#75CCCD;} .st123{clip-path:url(#SVGID_234_);fill:#75CCCD;} .st124{clip-path:url(#SVGID_236_);fill:#75CCCD;} .st125{clip-path:url(#SVGID_238_);fill:#75CCCD;} .st126{clip-path:url(#SVGID_240_);fill:#75CCCD;} .st127{clip-path:url(#SVGID_242_);fill:#75CCCD;} .st128{clip-path:url(#SVGID_244_);fill:#75CCCD;} .st129{clip-path:url(#SVGID_246_);fill:#75CCCD;} .st130{clip-path:url(#SVGID_248_);fill:#75CCCD;} .st131{clip-path:url(#SVGID_250_);fill:#75CCCD;} .st132{clip-path:url(#SVGID_252_);fill:#75CCCD;} .st133{clip-path:url(#SVGID_254_);fill:#75CCCD;} .st134{clip-path:url(#SVGID_256_);fill:#75CCCD;} .st135{clip-path:url(#SVGID_258_);fill:#75CCCD;} .st136{clip-path:url(#SVGID_260_);fill:#75CCCD;} .st137{clip-path:url(#SVGID_262_);fill:#75CCCD;} .st138{clip-path:url(#SVGID_264_);fill:#75CCCD;} .st139{clip-path:url(#SVGID_266_);fill:#75CCCD;} .st140{clip-path:url(#SVGID_268_);fill:#75CCCD;} .st141{clip-path:url(#SVGID_270_);fill:#75CCCD;} .st142{clip-path:url(#SVGID_272_);fill:#75CCCD;} .st143{clip-path:url(#SVGID_274_);fill:#75CCCD;} .st144{clip-path:url(#SVGID_276_);fill:#75CCCD;} .st145{clip-path:url(#SVGID_278_);fill:#75CCCD;} .st146{clip-path:url(#SVGID_280_);fill:#75CCCD;} .st147{clip-path:url(#SVGID_282_);fill:#75CCCD;} .st148{clip-path:url(#SVGID_284_);fill:#75CCCD;} .st149{clip-path:url(#SVGID_286_);fill:#75CCCD;} .st150{clip-path:url(#SVGID_288_);fill:#75CCCD;} .st151{clip-path:url(#SVGID_290_);fill:#75CCCD;} .st152{clip-path:url(#SVGID_292_);fill:#75CCCD;} .st153{clip-path:url(#SVGID_294_);fill:#75CCCD;} .st154{clip-path:url(#SVGID_296_);fill:#75CCCD;} .st155{clip-path:url(#SVGID_298_);fill:#75CCCD;} .st156{clip-path:url(#SVGID_300_);fill:#75CCCD;} .st157{clip-path:url(#SVGID_302_);fill:#75CCCD;} .st158{clip-path:url(#SVGID_304_);fill:#75CCCD;} .st159{clip-path:url(#SVGID_306_);fill:#75CCCD;} .st160{clip-path:url(#SVGID_308_);fill:#75CCCD;} .st161{clip-path:url(#SVGID_310_);fill:#75CCCD;}</style><g id="POWERUP_x5F_Freeze_1_"><defs><path id="SVGID_1_" d="M0 0h100v100H0z"/></defs><clipPath id="SVGID_2_"><use xlink:href="#SVGID_1_" overflow="visible"/></clipPath><g class="st0"><defs><path id="SVGID_3_" d="M0 0h100v100H0z"/></defs><clipPath id="SVGID_4_"><use xlink:href="#SVGID_3_" overflow="visible"/></clipPath><g class="st1"><defs><path id="SVGID_5_" d="M0 0h100v100H0z"/></defs><clipPath id="SVGID_6_"><use xlink:href="#SVGID_5_" overflow="visible"/></clipPath><path class="st2" d="M44.8 18s-2.3 12.4-.1 23.3c0 0 .7 3.1-1.9 5.5-2.4 2.2-2.9 4.5.7 7.1 0 0 3.5 1.8 5.1 7.8 0 0 .3 4.5 3.9 4.9 0 0 1.2.1 1.7.5 0 0 2.9 2.1 4.5-.1 0 0 1.2-1.1-1.5-1.8 0 0-2.8-.9-3.1-5.2 0 0-1.5-13.1-1.6-14.5-.1-1.6.1-7.8 1.7-13.1 1.7-5.3 3.5-13 3-14.4H44.8z"/></g><g class="st1"><defs><path id="SVGID_7_" d="M29.7 64.5c-8-11.2-5.4-26.8 5.8-34.8 11.2-8 26.8-5.4 34.8 5.8 8 11.2 5.4 26.8-5.8 34.8-4.4 3.1-9.4 4.6-14.4 4.6-7.9 0-15.5-3.6-20.4-10.4M44 15.2c-2 3-5.7 4.2-9 2.8-5.1-2-10.5 1.9-10.3 7.3.2 3.6-2.2 6.7-5.6 7.6-5.3 1.4-7.4 7.7-4 12 2.2 2.8 2.2 6.7-.1 9.5-3.5 4.2-1.5 10.6 3.8 12 3.4.9 5.7 4.2 5.5 7.7-.3 5.4 5 9.4 10.1 7.5 3.3-1.2 7.1 0 9 3 2.9 4.6 9.6 4.7 12.6.1 2-3 5.7-4.2 9-2.8 5.1 2 10.5-1.9 10.3-7.3-.2-3.6 2.2-6.7 5.6-7.6 5.3-1.4 7.4-7.7 4-12-2.2-2.8-2.2-6.7.1-9.5 3.5-4.2 1.5-10.6-3.8-12-3.4-.9-5.7-4.2-5.5-7.7.3-5.4-5-9.4-10.1-7.5-3.3 1.2-7.1 0-9-3-1.5-2.3-3.9-3.5-6.4-3.5-2.3 0-4.7 1.1-6.2 3.4"/></defs><clipPath id="SVGID_8_"><use xlink:href="#SVGID_7_" overflow="visible"/></clipPath><radialGradient id="SVGID_9_" cx="1.054" cy="-1.054" r="1" gradientTransform="matrix(47.4546 47.4546 47.4546 -47.4546 30.9999 -75.2497)" gradientUnits="userSpaceOnUse"><stop offset="0" stop-color="#FFF"/><stop offset=".052" stop-color="#DCDBEC"/><stop offset=".109" stop-color="#BEBCDB"/><stop offset=".174" stop-color="#A4A0CD"/><stop offset=".248" stop-color="#8F8AC2"/><stop offset=".333" stop-color="#7F79B9"/><stop offset=".439" stop-color="#736EB3"/><stop offset=".588" stop-color="#6D67AF"/><stop offset="1" stop-color="#6B65AE"/></radialGradient><path class="st3" d="M50-26.8l77.3 77.4L50 127.9l-77.3-77.3z"/></g><g class="st1"><defs><path id="SVGID_10_" d="M12.8 11.3h74.5v77.4H12.8z"/></defs><clipPath id="SVGID_11_"><use xlink:href="#SVGID_10_" overflow="visible"/></clipPath><path class="st4" d="M65.4 18.2c5.1-2 10.5 2 10.2 7.4-.2 3.6 2.1 6.8 5.6 7.7 5.3 1.4 7.3 7.8 3.9 12-2.3 2.8-2.3 6.7 0 9.5 3.4 4.2 1.3 10.6-3.9 12-3.4.9-5.8 4.1-5.6 7.7.3 5.4-5.1 9.4-10.2 7.4-3.3-1.3-7.1-.1-9 2.9-3 4.6-9.7 4.6-12.6 0-1.9-3-5.7-4.2-9-2.9-5.1 2-10.5-2-10.2-7.4.2-3.6-2.1-6.8-5.6-7.7-5.3-1.4-7.3-7.8-3.9-12 2.3-2.8 2.3-6.7 0-9.5-3.4-4.2-1.3-10.6 3.9-12 3.4-.9 5.8-4.1 5.6-7.7-.3-5.4 5.1-9.4 10.2-7.4 3.3 1.3 7.1.1 9-2.9 3-4.6 9.7-4.6 12.6 0 1.9 2.9 5.7 4.2 9 2.9z"/><ellipse transform="matrix(0.8145 -0.5802 0.5802 0.8145 -19.7333 38.2829)" class="st4" cx="50" cy="50" rx="24.9" ry="24.9"/></g><g class="st1"><defs><path id="SVGID_12_" d="M0 0h100v100H0z"/></defs><clipPath id="SVGID_13_"><use xlink:href="#SVGID_12_" overflow="visible"/></clipPath><g class="st5"><defs><path id="SVGID_14_" d="M53.5 66.3h7.9v3.8h-7.9z"/></defs><clipPath id="SVGID_15_"><use xlink:href="#SVGID_14_" overflow="visible"/></clipPath><path class="st6" d="M57.4 66.3l-3.9 2.1 4.3 1.6 3.7-2.8z"/></g><g class="st5"><defs><path id="SVGID_16_" d="M57.8 66.8h5.3V70h-5.3z"/></defs><clipPath id="SVGID_17_"><use xlink:href="#SVGID_16_" overflow="visible"/></clipPath><path class="st7" d="M57.8 70l4.9-1.4.4-1.8-1.6.4z"/></g><g class="st8"><defs><path id="SVGID_18_" d="M52.6 64.2h4.8v4.2h-4.8z"/></defs><clipPath id="SVGID_19_"><use xlink:href="#SVGID_18_" overflow="visible"/></clipPath><path class="st9" d="M57.4 66.3v-2.1l-4.8.6.9 3.6z"/></g><g class="st8"><defs><path id="SVGID_20_" d="M57.4 64.2h4.2v3h-4.2z"/></defs><clipPath id="SVGID_21_"><use xlink:href="#SVGID_20_" overflow="visible"/></clipPath><path class="st10" d="M57.4 64.2l4.2.9-.1 2.1-4.1-.9z"/></g><g class="st11"><defs><path id="SVGID_22_" d="M61.5 64.4h1.6v2.8h-1.6z"/></defs><clipPath id="SVGID_23_"><use xlink:href="#SVGID_22_" overflow="visible"/></clipPath><path class="st12" d="M61.6 65.1l1.5-.7v2.4l-1.6.4z"/></g><g class="st5"><defs><path id="SVGID_24_" d="M63.1 64.4h1.8v2.8h-1.8z"/></defs><clipPath id="SVGID_25_"><use xlink:href="#SVGID_24_" overflow="visible"/></clipPath><path class="st13" d="M63.1 64.4l1.8 1.7-.6 1.1-1.2-.4z"/></g><g class="st11"><defs><path id="SVGID_26_" d="M62.7 66.8H65v1.8h-2.3z"/></defs><clipPath id="SVGID_27_"><use xlink:href="#SVGID_26_" overflow="visible"/></clipPath><path class="st14" d="M62.7 68.6l2.2-.2-.7-1.2-1.1-.4z"/></g><g class="st15"><defs><path id="SVGID_28_" d="M64.3 66.1h.7v2.3h-.7z"/></defs><clipPath id="SVGID_29_"><use xlink:href="#SVGID_28_" overflow="visible"/></clipPath><path class="st16" d="M64.9 66.1v2.3l-.7-1.2z"/></g><g class="st17"><defs><path id="SVGID_30_" d="M57.4 63h5.7v2.1h-5.7z"/></defs><clipPath id="SVGID_31_"><use xlink:href="#SVGID_30_" overflow="visible"/></clipPath><path class="st18" d="M63.1 64.4L60.2 63l-2.8 1.2 4.2.9z"/></g><g class="st17"><defs><path id="SVGID_32_" d="M56.4 58.9h3.8v5.3h-3.8z"/></defs><clipPath id="SVGID_33_"><use xlink:href="#SVGID_32_" overflow="visible"/></clipPath><path class="st19" d="M60.2 63L59 58.9 56.4 60l1 4.2z"/></g><g class="st11"><defs><path id="SVGID_34_" d="M54.7 60h2.7v4.5h-2.7z"/></defs><clipPath id="SVGID_35_"><use xlink:href="#SVGID_34_" overflow="visible"/></clipPath><path class="st20" d="M56.4 60l-1.7 2.4.5 2.1 2.2-.3z"/></g><g class="st17"><defs><path id="SVGID_36_" d="M48 64.8h5.6v3.6H48z"/></defs><clipPath id="SVGID_37_"><use xlink:href="#SVGID_36_" overflow="visible"/></clipPath><path class="st21" d="M53.5 68.4h-4.3L48 66.1l4.6-1.3z"/></g><g class="st5"><defs><path id="SVGID_38_" d="M43.7 64h5.5v4.3h-5.5z"/></defs><clipPath id="SVGID_39_"><use xlink:href="#SVGID_38_" overflow="visible"/></clipPath><path class="st22" d="M49.2 68.4c-.2 0-5.1-1.8-5.1-1.8l-.4-2.6 4.3 2 1.2 2.4z"/></g><g class="st5"><defs><path id="SVGID_40_" d="M38.5 64h5.6v2.8h-5.6z"/></defs><clipPath id="SVGID_41_"><use xlink:href="#SVGID_40_" overflow="visible"/></clipPath><path class="st23" d="M44.1 66.6l-5.6.2v-1.1l5.2-1.7z"/></g><g class="st15"><defs><path id="SVGID_42_" d="M33 63h5.5v3.8H33z"/></defs><clipPath id="SVGID_43_"><use xlink:href="#SVGID_42_" overflow="visible"/></clipPath><path class="st24" d="M38.5 66.8l-4.7-1.2L33 63l5.5 2.7z"/></g><g class="st11"><defs><path id="SVGID_44_" d="M37.9 61.5h5.8v4.1h-5.8z"/></defs><clipPath id="SVGID_45_"><use xlink:href="#SVGID_44_" overflow="visible"/></clipPath><path class="st25" d="M38.5 65.7l-.6-2.3 5.4-1.9.4 2.5z"/></g><g class="st5"><defs><path id="SVGID_46_" d="M33 60h5.5v5.7H33z"/></defs><clipPath id="SVGID_47_"><use xlink:href="#SVGID_46_" overflow="visible"/></clipPath><path class="st26" d="M38.5 65.7L33 63l1.1-3 3.8 3.4z"/></g><g class="st17"><defs><path id="SVGID_48_" d="M48 61.5h4.6V66H48z"/></defs><clipPath id="SVGID_49_"><use xlink:href="#SVGID_48_" overflow="visible"/></clipPath><path class="st27" d="M48 66.1l.7-4.1 1.9-.5 2 3.3z"/></g><g class="st15"><defs><path id="SVGID_50_" d="M43.7 62h5v4.1h-5z"/></defs><clipPath id="SVGID_51_"><use xlink:href="#SVGID_50_" overflow="visible"/></clipPath><path class="st28" d="M48.7 62l-5 2 4.3 2.1z"/></g><g class="st8"><defs><path id="SVGID_52_" d="M43.3 61.5h5.4V64h-5.4z"/></defs><clipPath id="SVGID_53_"><use xlink:href="#SVGID_52_" overflow="visible"/></clipPath><path class="st29" d="M48.7 62l-5.4-.5.4 2.5z"/></g><g class="st8"><defs><path id="SVGID_54_" d="M37.9 60h5.4v3.4h-5.4z"/></defs><clipPath id="SVGID_55_"><use xlink:href="#SVGID_54_" overflow="visible"/></clipPath><path class="st30" d="M43.3 61.5L40 60l-1.7 1-.4 2.4z"/></g><g class="st8"><defs><path id="SVGID_56_" d="M34.1 60h4.2v3.4h-4.2z"/></defs><clipPath id="SVGID_57_"><use xlink:href="#SVGID_56_" overflow="visible"/></clipPath><path class="st31" d="M38.3 61l-4.2-1 3.8 3.4z"/></g><g class="st5"><defs><path id="SVGID_58_" d="M34.1 57.8H40v3.3h-5.9z"/></defs><clipPath id="SVGID_59_"><use xlink:href="#SVGID_58_" overflow="visible"/></clipPath><path class="st32" d="M34.1 60l3.6-2.2L40 60l-1.7 1z"/></g><g class="st17"><defs><path id="SVGID_60_" d="M43.3 58.6h5.4V62h-5.4z"/></defs><clipPath id="SVGID_61_"><use xlink:href="#SVGID_60_" overflow="visible"/></clipPath><path class="st33" d="M43.3 61.5l3.1-2.9 1.7 1.4.6 2z"/></g><g class="st11"><defs><path id="SVGID_62_" d="M40 58.7h4.9v2.8H40z"/></defs><clipPath id="SVGID_63_"><use xlink:href="#SVGID_62_" overflow="visible"/></clipPath><path class="st34" d="M40 60l3.3-1.3L45 60l-1.7 1.5z"/></g><g class="st17"><defs><path id="SVGID_64_" d="M37.7 57h5.6v2.9h-5.6z"/></defs><clipPath id="SVGID_65_"><use xlink:href="#SVGID_64_" overflow="visible"/></clipPath><path class="st35" d="M43.3 58.7l-5-1.7-.6.8L40 60z"/></g><g class="st5"><defs><path id="SVGID_66_" d="M52.6 61h2.6v3.8h-2.6z"/></defs><clipPath id="SVGID_67_"><use xlink:href="#SVGID_66_" overflow="visible"/></clipPath><path class="st36" d="M52.6 64.8V61l2.1 1.4.5 2.1z"/></g><g class="st17"><defs><path id="SVGID_68_" d="M50.6 58.7h2v6.1h-2z"/></defs><clipPath id="SVGID_69_"><use xlink:href="#SVGID_68_" overflow="visible"/></clipPath><path class="st37" d="M50.6 61.5l.8-2.8 1.2 2.3v3.8z"/></g><g class="st11"><defs><path id="SVGID_70_" d="M52.6 58.2h3.8v4.2h-3.8z"/></defs><clipPath id="SVGID_71_"><use xlink:href="#SVGID_70_" overflow="visible"/></clipPath><path class="st38" d="M52.6 61l1.3-2.8 2.5 1.8-1.7 2.4z"/></g><g class="st8"><defs><path id="SVGID_72_" d="M53.9 56.1h5.2V60h-5.2z"/></defs><clipPath id="SVGID_73_"><use xlink:href="#SVGID_72_" overflow="visible"/></clipPath><path class="st39" d="M53.9 58.2l2.2-2.1 2.9 2.8-2.6 1.1z"/></g><g class="st17"><defs><path id="SVGID_74_" d="M37.2 53h1.1v4.8h-1.1z"/></defs><clipPath id="SVGID_75_"><use xlink:href="#SVGID_74_" overflow="visible"/></clipPath><path class="st40" d="M37.7 57.8l-.5-2.4.9-2.4.2 4z"/></g><g class="st8"><defs><path id="SVGID_76_" d="M53.2 51.3h2.9v4.8h-2.9z"/></defs><clipPath id="SVGID_77_"><use xlink:href="#SVGID_76_" overflow="visible"/></clipPath><path class="st41" d="M56.1 56.1l-.6-3.1-1.2-1.7-1.1 2.4z"/></g><g class="st11"><defs><path id="SVGID_78_" d="M52.3 53.7H56v4.5h-3.7z"/></defs><clipPath id="SVGID_79_"><use xlink:href="#SVGID_78_" overflow="visible"/></clipPath><path class="st42" d="M56.1 56.1l-2.9-2.4-.9 2.7 1.6 1.8z"/></g><g class="st17"><defs><path id="SVGID_80_" d="M49.7 53.5h2.7v5.2h-2.7z"/></defs><clipPath id="SVGID_81_"><use xlink:href="#SVGID_80_" overflow="visible"/></clipPath><path class="st43" d="M51.4 58.7l-1.7-1.9.6-3.3 2 2.9z"/></g><g class="st17"><defs><path id="SVGID_82_" d="M51.4 56.4h2.5v4.7h-2.5z"/></defs><clipPath id="SVGID_83_"><use xlink:href="#SVGID_82_" overflow="visible"/></clipPath><path class="st44" d="M51.4 58.7l1.2 2.3 1.3-2.8-1.6-1.8z"/></g><g class="st8"><defs><path id="SVGID_84_" d="M48.1 58.7h3.3V62h-3.3z"/></defs><clipPath id="SVGID_85_"><use xlink:href="#SVGID_84_" overflow="visible"/></clipPath><path class="st45" d="M48.1 60l3.3-1.3-.8 2.8-1.9.5z"/></g><g class="st8"><defs><path id="SVGID_86_" d="M43.3 55.7h3.1V60h-3.1z"/></defs><clipPath id="SVGID_87_"><use xlink:href="#SVGID_86_" overflow="visible"/></clipPath><path class="st46" d="M43.3 58.7l.6-3 2.5 2.9L45 60z"/></g><g class="st15"><defs><path id="SVGID_88_" d="M38.3 54.7h4.2v3.1h-4.2z"/></defs><clipPath id="SVGID_89_"><use xlink:href="#SVGID_88_" overflow="visible"/></clipPath><path class="st47" d="M38.3 57l2.5-2.3 1.7.7-2 2.4z"/></g><g class="st11"><defs><path id="SVGID_90_" d="M40.5 55.4h3.4v3.3h-3.4z"/></defs><clipPath id="SVGID_91_"><use xlink:href="#SVGID_90_" overflow="visible"/></clipPath><path class="st48" d="M42.5 55.4l1.4.3-.6 3-2.8-.9z"/></g><g class="st17"><defs><path id="SVGID_92_" d="M38.1 51.3h2.7v5.8h-2.7z"/></defs><clipPath id="SVGID_93_"><use xlink:href="#SVGID_92_" overflow="visible"/></clipPath><path class="st49" d="M40.8 54.7l-.8-3.5-1.9 1.8.2 4z"/></g><g class="st15"><defs><path id="SVGID_94_" d="M38.5 48.1h4v3.2h-4z"/></defs><clipPath id="SVGID_95_"><use xlink:href="#SVGID_94_" overflow="visible"/></clipPath><path class="st50" d="M40 51.3l-1.5-1.6.9-1.6 3.1.8z"/></g><g class="st8"><defs><path id="SVGID_96_" d="M46.4 56.6h2.9V60h-2.9z"/></defs><clipPath id="SVGID_97_"><use xlink:href="#SVGID_96_" overflow="visible"/></clipPath><path class="st51" d="M46.4 58.6l1.7-2 1.2 2.9-1.2.5z"/></g><g class="st5"><defs><path id="SVGID_98_" d="M48.1 56.6h3.3v2.9h-3.3z"/></defs><clipPath id="SVGID_99_"><use xlink:href="#SVGID_98_" overflow="visible"/></clipPath><path class="st52" d="M48.1 56.6l1.6.2 1.7 1.9-2.1.8z"/></g><g class="st5"><defs><path id="SVGID_100_" d="M47.9 52.4h2.4v4.4h-2.4z"/></defs><clipPath id="SVGID_101_"><use xlink:href="#SVGID_100_" overflow="visible"/></clipPath><path class="st53" d="M48.1 56.6l-.2-4.2 2.4 1.1-.6 3.3z"/></g><g class="st8"><defs><path id="SVGID_102_" d="M50.3 50h2.9v6.4h-2.9z"/></defs><clipPath id="SVGID_103_"><use xlink:href="#SVGID_102_" overflow="visible"/></clipPath><path class="st54" d="M50.3 53.5l1.1-3.5 1.8 3.7-.9 2.7z"/></g><g class="st5"><defs><path id="SVGID_104_" d="M51.4 48.9h3.1v4.8h-3.1z"/></defs><clipPath id="SVGID_105_"><use xlink:href="#SVGID_104_" overflow="visible"/></clipPath><path class="st55" d="M51.4 50l3.1-1.1-.2 2.4-1.1 2.4z"/></g><g class="st15"><defs><path id="SVGID_106_" d="M47.4 47.2h4V50h-4z"/></defs><clipPath id="SVGID_107_"><use xlink:href="#SVGID_106_" overflow="visible"/></clipPath><path class="st56" d="M51.4 50l-1.7-2.8-2.3 1.4 1.1 1.4z"/></g><g class="st11"><defs><path id="SVGID_108_" d="M47.9 50h3.5v3.5h-3.5z"/></defs><clipPath id="SVGID_109_"><use xlink:href="#SVGID_108_" overflow="visible"/></clipPath><path class="st57" d="M51.4 50l-3.5 2.4 2.4 1.1z"/></g><g class="st17"><defs><path id="SVGID_110_" d="M45 50h6.4v2.4H45z"/></defs><clipPath id="SVGID_111_"><use xlink:href="#SVGID_110_" overflow="visible"/></clipPath><path class="st58" d="M48.5 50L45 51.5l2.9.9 3.5-2.4z"/></g><g class="st17"><defs><path id="SVGID_112_" d="M44.9 48.6h3.6v2.9h-3.6z"/></defs><clipPath id="SVGID_113_"><use xlink:href="#SVGID_112_" overflow="visible"/></clipPath><path class="st59" d="M47.4 48.6h-2.5l.1 2.9 3.5-1.5z"/></g><g class="st11"><defs><path id="SVGID_114_" d="M40 48.9h4.9v3.7H40z"/></defs><clipPath id="SVGID_115_"><use xlink:href="#SVGID_114_" overflow="visible"/></clipPath><path class="st60" d="M42.5 48.9l2.5 2.6-2.2 1.1-2.8-1.3z"/></g><g class="st11"><defs><path id="SVGID_116_" d="M38.1 49.7h2v3.4h-2z"/></defs><clipPath id="SVGID_117_"><use xlink:href="#SVGID_116_" overflow="visible"/></clipPath><path class="st61" d="M38.5 49.7l-.4 3.3 1.9-1.8z"/></g><g class="st5"><defs><path id="SVGID_118_" d="M42.5 47H45v4.5h-2.5z"/></defs><clipPath id="SVGID_119_"><use xlink:href="#SVGID_118_" overflow="visible"/></clipPath><path class="st62" d="M42.5 48.9l1.6-1.9.8 1.6.1 2.9z"/></g><g class="st5"><defs><path id="SVGID_120_" d="M40 51.3h2.8v4.2H40z"/></defs><clipPath id="SVGID_121_"><use xlink:href="#SVGID_120_" overflow="visible"/></clipPath><path class="st63" d="M42.8 52.6l-.3 2.8-1.7-.7-.8-3.4z"/></g><g class="st11"><defs><path id="SVGID_122_" d="M43.9 54.7h4.2v3.9h-4.2z"/></defs><clipPath id="SVGID_123_"><use xlink:href="#SVGID_122_" overflow="visible"/></clipPath><path class="st64" d="M43.9 55.7l2.5-1 1.7 1.9-1.7 2z"/></g><g class="st17"><defs><path id="SVGID_124_" d="M46.4 52.4H48v4.2h-1.6z"/></defs><clipPath id="SVGID_125_"><use xlink:href="#SVGID_124_" overflow="visible"/></clipPath><path class="st65" d="M46.4 54.7l1.5-2.3.2 4.2z"/></g><g class="st8"><defs><path id="SVGID_126_" d="M45 51.5h2.9v3.2H45z"/></defs><clipPath id="SVGID_127_"><use xlink:href="#SVGID_126_" overflow="visible"/></clipPath><path class="st66" d="M46.4 54.7L45 51.5l2.9.9z"/></g><g class="st5"><defs><path id="SVGID_128_" d="M42.8 51.5h3.6v3.2h-3.6z"/></defs><clipPath id="SVGID_129_"><use xlink:href="#SVGID_128_" overflow="visible"/></clipPath><path class="st67" d="M46.4 54.7l-3.6-2.1 2.2-1.1z"/></g><g class="st8"><defs><path id="SVGID_130_" d="M42.5 54.7h3.9v1h-3.9z"/></defs><clipPath id="SVGID_131_"><use xlink:href="#SVGID_130_" overflow="visible"/></clipPath><path class="st68" d="M46.4 54.7l-2.5 1-1.4-.3z"/></g><g class="st17"><defs><path id="SVGID_132_" d="M42.5 52.6h3.9v2.8h-3.9z"/></defs><clipPath id="SVGID_133_"><use xlink:href="#SVGID_132_" overflow="visible"/></clipPath><path class="st69" d="M46.4 54.7l-3.6-2.1-.3 2.8z"/></g><g class="st11"><defs><path id="SVGID_134_" d="M39.4 46.8h4.7v2.1h-4.7z"/></defs><clipPath id="SVGID_135_"><use xlink:href="#SVGID_134_" overflow="visible"/></clipPath><path class="st70" d="M42.5 48.9l-3.1-.8 3.1-1.3 1.6.2z"/></g><g class="st8"><defs><path id="SVGID_136_" d="M44.1 47h5.5v1.6h-5.5z"/></defs><clipPath id="SVGID_137_"><use xlink:href="#SVGID_136_" overflow="visible"/></clipPath><path class="st71" d="M44.1 47l5.6.2-2.3 1.4h-2.5z"/></g><g class="st17"><defs><path id="SVGID_138_" d="M49.7 47.2h4.8V50h-4.8z"/></defs><clipPath id="SVGID_139_"><use xlink:href="#SVGID_138_" overflow="visible"/></clipPath><path class="st72" d="M49.7 47.2l4.8 1.7-3.1 1.1z"/></g><g class="st11"><defs><path id="SVGID_140_" d="M42.2 44.3h3V47h-3z"/></defs><clipPath id="SVGID_141_"><use xlink:href="#SVGID_140_" overflow="visible"/></clipPath><path class="st73" d="M42.5 46.8l-.3-2.5 3 .4-1.1 2.3z"/></g><g class="st17"><defs><path id="SVGID_142_" d="M44.1 44.7h4.3v2.4h-4.3z"/></defs><clipPath id="SVGID_143_"><use xlink:href="#SVGID_142_" overflow="visible"/></clipPath><path class="st74" d="M45.2 44.7l3.3 1.7-1.8.7-2.6-.1z"/></g><g class="st8"><defs><path id="SVGID_144_" d="M48.5 45.9h3.3v1.3h-3.3z"/></defs><clipPath id="SVGID_145_"><use xlink:href="#SVGID_144_" overflow="visible"/></clipPath><path class="st75" d="M48.5 46.4l.7-.5h2.5l-2 1.3z"/></g><g class="st15"><defs><path id="SVGID_146_" d="M46.7 46.4h3v.8h-3z"/></defs><clipPath id="SVGID_147_"><use xlink:href="#SVGID_146_" overflow="visible"/></clipPath><path class="st76" d="M48.5 46.4l-1.8.7 3 .1z"/></g><g class="st11"><defs><path id="SVGID_148_" d="M49.7 45.9h3.6v2.2h-3.6z"/></defs><clipPath id="SVGID_149_"><use xlink:href="#SVGID_148_" overflow="visible"/></clipPath><path class="st77" d="M51.7 45.9l1.6 1.2-1.2.9-2.4-.8z"/></g><g class="st11"><defs><path id="SVGID_150_" d="M51.7 45.7h3.4v1.4h-3.4z"/></defs><clipPath id="SVGID_151_"><use xlink:href="#SVGID_150_" overflow="visible"/></clipPath><path class="st78" d="M51.7 45.9l1.9-.2 1.6.7-1.9.7z"/></g><g class="st8"><defs><path id="SVGID_152_" d="M52.1 46.4h3.1v2.5h-3.1z"/></defs><clipPath id="SVGID_153_"><use xlink:href="#SVGID_152_" overflow="visible"/></clipPath><path class="st79" d="M54.5 48.9l.7-2.5-1.9.7-1.2.9z"/></g><g class="st17"><defs><path id="SVGID_154_" d="M40.6 44.3h1.9v3.3h-1.9z"/></defs><clipPath id="SVGID_155_"><use xlink:href="#SVGID_154_" overflow="visible"/></clipPath><path class="st80" d="M42.2 44.3l-1.6 3.3 1.9-.8z"/></g></g></g></g></svg>