<svg xmlns="http://www.w3.org/2000/svg" width="100" height="100" viewBox="0 0 100 100"><style>.st0{fill:#243051;} .st1{opacity:0.24;} .st2{fill:none;stroke:#FFFFFF;stroke-miterlimit:10;} .st3{fill:#F9EB9B;} .st4{fill:#172335;stroke:#FFFFFF;stroke-miterlimit:10;}</style><path class="st1" d="M85.4 53.5l-4.5-19.9c-.9-3.8-3.4-7.1-7-8.8L55.5 16c-3.5-1.7-7.7-1.7-11.2 0l-18.4 8.8c-3.5 1.7-6.1 4.9-7 8.8l-4.5 19.9c-.9 3.8 0 7.9 2.5 10.9l12.7 15.9c2.5 3.1 6.2 4.9 10.1 4.9h20.4c3.9 0 7.7-1.8 10.1-4.9l12.7-15.9c2.4-3 3.3-7.1 2.5-10.9zm-7.3-3L75 64c-.9 3.8-3.4 7.1-7 8.8l-12.5 6c-3.5 1.7-7.7 1.7-11.2 0l-12.5-6c-3.5-1.7-6.1-4.9-7-8.8l-3.1-13.6c-.9-3.8 0-7.9 2.5-10.9l8.7-10.9c2.5-3.1 6.2-4.9 10.1-4.9h13.9c3.9 0 7.7 1.8 10.1 4.9l8.7 10.9c2.4 3.1 3.3 7.1 2.4 11z"/><path class="st2" d="M55.5 16l18.4 8.8c3.5 1.7 6.1 4.9 7 8.8l4.5 19.9c.9 3.8 0 7.9-2.5 10.9l-12.7 16c-2.5 3.1-6.2 4.9-10.1 4.9H39.7c-3.9 0-7.7-1.8-10.1-4.9l-12.7-16c-2.5-3.1-3.4-7.1-2.5-10.9l4.5-19.9c.9-3.8 3.4-7.1 7-8.8L44.3 16c3.5-1.7 7.6-1.7 11.2 0z"/><path class="st2" d="M66.9 28.7l8.7 10.9c2.5 3.1 3.4 7.1 2.5 10.9L75 64c-.9 3.8-3.4 7.1-7 8.8l-12.5 6c-3.5 1.7-7.7 1.7-11.2 0l-12.5-6c-3.5-1.7-6.1-4.9-7-8.8l-3.1-13.6c-.9-3.8 0-7.9 2.5-10.9l8.7-10.9c2.5-3.1 6.2-4.9 10.1-4.9h13.9c3.9.1 7.6 1.9 10 5z"/><path class="st3" d="M73.8 11.2L23 52.7l21.3 3.5L27 89l49.7-40.2-20.4-2.9"/><path class="st4" d="M57.7 45.8c1 .1 2 .3 2.9.7.9.4 1.7 1 2.3 1.7.7.7 1.2 1.5 1.5 2.4.4.9.6 1.9.6 2.9 0 1.1-.2 2.1-.6 3-.4 1-1 1.8-1.7 2.5s-1.5 1.3-2.4 1.7c-.9.4-1.9.6-3 .6-1.2 0-2.2-.2-3.2-.7-1-.5-1.8-1.1-2.6-1.8v.4l.3 1.8s.3 1.1.6 1.7l.9 1.5c.4.5.8.9 1.4 1.3v1h-9.3v-1c.5-.4 1-.8 1.3-1.3.4-.5.7-1 .9-1.5.2-.5.4-1.1.6-1.7l.3-1.8v-.4c-.7.8-1.6 1.4-2.6 1.8-1 .5-2 .7-3.2.7-1.1 0-2.1-.2-3-.6-.9-.4-1.8-1-2.4-1.7-.7-.7-1.2-1.5-1.7-2.5-.4-1-.6-2-.6-3s.2-2 .6-2.9c.4-.9.9-1.7 1.6-2.4.7-.7 1.4-1.2 2.3-1.7.9-.4 1.8-.7 2.9-.7v-.3-.3c0-1.1.2-2.1.6-3 .4-.9 1-1.8 1.7-2.4.7-.7 1.5-1.2 2.4-1.7.9-.4 1.9-.6 3-.6s2.1.2 3 .6c.9.4 1.8 1 2.4 1.7s1.2 1.5 1.7 2.4c.4.9.6 1.9.6 3v.6z"/></svg>