<svg xmlns="http://www.w3.org/2000/svg" xmlns:xlink="http://www.w3.org/1999/xlink" width="100" height="100" viewBox="0 0 100 100" overflow="scroll"><style>.st0{fill:#FFFFFF;} .st1{fill:url(#SVGID_1_);} .st2{fill:url(#SVGID_2_);} .st3{fill:url(#SVGID_3_);} .st4{fill:url(#SVGID_4_);} .st5{opacity:0.3;fill:url(#SVGID_5_);} .st6{fill:url(#SVGID_6_);} .st7{fill:url(#SVGID_7_);} .st8{fill:#EB2027;} .st9{fill:url(#SVGID_8_);} .st10{fill:url(#SVGID_9_);} .st11{fill:url(#SVGID_10_);} .st12{fill:url(#SVGID_11_);} .st13{fill:url(#SVGID_12_);} .st14{opacity:0.3;fill:url(#SVGID_13_);} .st15{fill:url(#SVGID_14_);} .st16{fill:url(#SVGID_15_);} .st17{fill:url(#SVGID_16_);} .st18{fill:url(#SVGID_17_);} .st19{fill:url(#SVGID_18_);} .st20{clip-path:url(#SVGID_20_);} .st21{clip-path:url(#SVGID_22_);fill:url(#SVGID_23_);} .st22{clip-path:url(#SVGID_25_);fill:none;stroke:#FFFFFF;stroke-miterlimit:10;} .st23{fill:url(#SVGID_26_);} .st24{fill:url(#SVGID_27_);} .st25{fill:url(#SVGID_28_);} .st26{fill:url(#SVGID_29_);} .st27{opacity:0.3;fill:url(#SVGID_30_);} .st28{fill:url(#SVGID_31_);} .st29{fill:url(#SVGID_32_);} .st30{fill:url(#SVGID_33_);} .st31{fill:url(#SVGID_34_);} .st32{fill:url(#SVGID_35_);} .st33{fill:url(#SVGID_36_);} .st34{fill:url(#SVGID_37_);} .st35{opacity:0.3;fill:url(#SVGID_38_);} .st36{fill:url(#SVGID_39_);} .st37{fill:url(#SVGID_40_);} .st38{fill:url(#SVGID_41_);} .st39{fill:url(#SVGID_42_);} .st40{fill:url(#SVGID_43_);} .st41{clip-path:url(#SVGID_45_);} .st42{clip-path:url(#SVGID_47_);fill:url(#SVGID_48_);} .st43{clip-path:url(#SVGID_50_);fill:none;stroke:#FFFFFF;stroke-miterlimit:10;}</style><radialGradient id="SVGID_1_" cx="64.267" cy="42.983" r="7.5" gradientUnits="userSpaceOnUse"><stop offset="0" stop-color="#951A1D"/><stop offset=".027" stop-color="#9C271F"/><stop offset=".141" stop-color="#B55724"/><stop offset=".259" stop-color="#CB802A"/><stop offset=".378" stop-color="#DDA22E"/><stop offset=".499" stop-color="#EBBD31"/><stop offset=".623" stop-color="#F5CF33"/><stop offset=".75" stop-color="#FBDA35"/><stop offset=".89" stop-color="#FDDE35"/></radialGradient><circle class="st1" cx="64.3" cy="43" r="7.5"/><linearGradient id="SVGID_2_" gradientUnits="userSpaceOnUse" x1="1135.654" y1="199.23" x2="1144.591" y2="211.823" gradientTransform="rotate(-135 568.524 347.056)"><stop offset="0" stop-color="#951A1D"/><stop offset=".027" stop-color="#9C271F"/><stop offset=".141" stop-color="#B55724"/><stop offset=".259" stop-color="#CB802A"/><stop offset=".378" stop-color="#DDA22E"/><stop offset=".499" stop-color="#EBBD31"/><stop offset=".623" stop-color="#F5CF33"/><stop offset=".75" stop-color="#FBDA35"/><stop offset=".89" stop-color="#FDDE35"/></linearGradient><circle class="st2" cx="64.3" cy="43" r="7.4"/><radialGradient id="SVGID_3_" cx="834.052" cy="-299.81" r="8.086" gradientTransform="rotate(-110.048 568.564 139.01)" gradientUnits="userSpaceOnUse"><stop offset="0" stop-color="#AA412A"/><stop offset=".266" stop-color="#C27666"/><stop offset=".774" stop-color="#EED8D3"/><stop offset="1" stop-color="#FFF"/></radialGradient><circle class="st3" cx="64.3" cy="43" r="6.5"/><linearGradient id="SVGID_4_" gradientUnits="userSpaceOnUse" x1="1136.789" y1="200.829" x2="1143.447" y2="210.212" gradientTransform="rotate(-135 568.524 347.056)"><stop offset="0" stop-color="#951A1D"/><stop offset=".027" stop-color="#9C271F"/><stop offset=".141" stop-color="#B55724"/><stop offset=".259" stop-color="#CB802A"/><stop offset=".378" stop-color="#DDA22E"/><stop offset=".499" stop-color="#EBBD31"/><stop offset=".623" stop-color="#F5CF33"/><stop offset=".75" stop-color="#FBDA35"/><stop offset=".89" stop-color="#FDDE35"/></linearGradient><circle class="st4" cx="64.3" cy="43" r="5.5"/><radialGradient id="SVGID_5_" cx="66.485" cy="44.616" r="8.086" gradientUnits="userSpaceOnUse"><stop offset="0" stop-color="#AA412A"/><stop offset=".266" stop-color="#C27666"/><stop offset=".774" stop-color="#EED8D3"/><stop offset="1" stop-color="#FFF"/></radialGradient><circle class="st5" cx="64.1" cy="42.6" r="6.5"/><linearGradient id="SVGID_6_" gradientUnits="userSpaceOnUse" x1="59.922" y1="36.861" x2="68.646" y2="49.154"><stop offset="0" stop-color="#951A1D"/><stop offset=".027" stop-color="#9C271F"/><stop offset=".141" stop-color="#B55724"/><stop offset=".259" stop-color="#CB802A"/><stop offset=".378" stop-color="#DDA22E"/><stop offset=".499" stop-color="#EBBD31"/><stop offset=".623" stop-color="#F5CF33"/><stop offset=".75" stop-color="#FBDA35"/><stop offset=".89" stop-color="#FDDE35"/></linearGradient><path class="st6" d="M64.3 35.7c-4 0-7.3 3.2-7.3 7.3 0 4 3.2 7.3 7.3 7.3 4 0 7.3-3.2 7.3-7.3-.1-4-3.3-7.3-7.3-7.3zm-.6 12.5c-3.4 0-6.1-2.7-6.1-6.1 0-3.4 2.7-6.1 6.1-6.1 3.4 0 6.1 2.7 6.1 6.1.1 3.4-2.7 6.1-6.1 6.1z"/><linearGradient id="SVGID_7_" gradientUnits="userSpaceOnUse" x1="64.499" y1="57.748" x2="64.201" y2="38.962"><stop offset=".11" stop-color="#FDDE35"/><stop offset=".25" stop-color="#FBDA35"/><stop offset=".378" stop-color="#F5CF33"/><stop offset=".501" stop-color="#EBBD31"/><stop offset=".622" stop-color="#DDA22E"/><stop offset=".741" stop-color="#CB802A"/><stop offset=".859" stop-color="#B55724"/><stop offset=".973" stop-color="#9C271F"/><stop offset="1" stop-color="#951A1D"/></linearGradient><path class="st7" d="M69.3 46c-2.8 2.8-7.3 2.8-10.1 0-1.1-1.1-1.8-2.5-2-4-.3 2.2.3 4.5 2 6.2 2.8 2.8 7.3 2.8 10.1 0 1.7-1.7 2.3-4 2-6.2-.2 1.5-.9 2.8-2 4z"/><g><path class="st8" d="M65.1 44.4l-1-.4-1 .5.2-1.1-.8-.8 1.1-.1.5-1 .5 1 1 .1-.7.8"/><linearGradient id="SVGID_8_" gradientUnits="userSpaceOnUse" x1="59.562" y1="34.884" x2="66.76" y2="47.827"><stop offset="0" stop-color="#EB1D25"/><stop offset="1" stop-color="#D81F26"/></linearGradient><path class="st9" d="M63.4 43.4l-.7-.7 1-.1.4-.9.4.9.9.1-.6.6.1 1-.8-.5-.8.5"/></g><g><radialGradient id="SVGID_9_" cx="-652.059" cy="-339.191" r="33.824" gradientTransform="translate(323.894 198.987) scale(.4287)" gradientUnits="userSpaceOnUse"><stop offset="0" stop-color="#951A1D"/><stop offset=".027" stop-color="#9C271F"/><stop offset=".141" stop-color="#B55724"/><stop offset=".259" stop-color="#CB802A"/><stop offset=".378" stop-color="#DDA22E"/><stop offset=".499" stop-color="#EBBD31"/><stop offset=".623" stop-color="#F5CF33"/><stop offset=".75" stop-color="#FBDA35"/><stop offset=".89" stop-color="#FDDE35"/></radialGradient><circle class="st10" cx="44.4" cy="53.6" r="14.5"/><linearGradient id="SVGID_10_" gradientUnits="userSpaceOnUse" x1="1138.078" y1="171.811" x2="1155.356" y2="196.157" gradientTransform="rotate(-135 568.524 347.056)"><stop offset="0" stop-color="#951A1D"/><stop offset=".027" stop-color="#9C271F"/><stop offset=".141" stop-color="#B55724"/><stop offset=".259" stop-color="#CB802A"/><stop offset=".378" stop-color="#DDA22E"/><stop offset=".499" stop-color="#EBBD31"/><stop offset=".623" stop-color="#F5CF33"/><stop offset=".75" stop-color="#FBDA35"/><stop offset=".89" stop-color="#FDDE35"/></linearGradient><circle class="st11" cx="44.4" cy="53.6" r="14.4"/><radialGradient id="SVGID_11_" cx="1447.07" cy="-834.68" r="36.468" gradientTransform="rotate(-110.053 475.27 45.815) scale(.4287)" gradientUnits="userSpaceOnUse"><stop offset="0" stop-color="#AA412A"/><stop offset=".266" stop-color="#C27666"/><stop offset=".774" stop-color="#EED8D3"/><stop offset="1" stop-color="#FFF"/></radialGradient><circle class="st12" cx="44.4" cy="53.6" r="12.6"/><linearGradient id="SVGID_12_" gradientUnits="userSpaceOnUse" x1="1140.272" y1="174.902" x2="1153.145" y2="193.041" gradientTransform="rotate(-135 568.524 347.056)"><stop offset="0" stop-color="#951A1D"/><stop offset=".027" stop-color="#9C271F"/><stop offset=".141" stop-color="#B55724"/><stop offset=".259" stop-color="#CB802A"/><stop offset=".378" stop-color="#DDA22E"/><stop offset=".499" stop-color="#EBBD31"/><stop offset=".623" stop-color="#F5CF33"/><stop offset=".75" stop-color="#FBDA35"/><stop offset=".89" stop-color="#FDDE35"/></linearGradient><circle class="st13" cx="44.4" cy="53.6" r="10.7"/><radialGradient id="SVGID_13_" cx="-642.055" cy="-331.83" r="36.467" gradientTransform="translate(323.894 198.987) scale(.4287)" gradientUnits="userSpaceOnUse"><stop offset="0" stop-color="#AA412A"/><stop offset=".266" stop-color="#C27666"/><stop offset=".774" stop-color="#EED8D3"/><stop offset="1" stop-color="#FFF"/></radialGradient><circle class="st14" cx="44" cy="52.9" r="12.6"/><linearGradient id="SVGID_14_" gradientUnits="userSpaceOnUse" x1="35.965" y1="41.744" x2="52.832" y2="65.51"><stop offset="0" stop-color="#951A1D"/><stop offset=".027" stop-color="#9C271F"/><stop offset=".141" stop-color="#B55724"/><stop offset=".259" stop-color="#CB802A"/><stop offset=".378" stop-color="#DDA22E"/><stop offset=".499" stop-color="#EBBD31"/><stop offset=".623" stop-color="#F5CF33"/><stop offset=".75" stop-color="#FBDA35"/><stop offset=".89" stop-color="#FDDE35"/></linearGradient><path class="st15" d="M44.4 39.6c-7.7 0-14 6.3-14 14s6.3 14 14 14 14-6.3 14-14c0-7.8-6.3-14-14-14zm-1 24.1c-6.5 0-11.8-5.3-11.8-11.8 0-6.5 5.3-11.8 11.8-11.8 6.5 0 11.8 5.3 11.8 11.8 0 6.6-5.3 11.8-11.8 11.8z"/><linearGradient id="SVGID_15_" gradientUnits="userSpaceOnUse" x1="44.814" y1="82.127" x2="44.239" y2="45.807"><stop offset=".11" stop-color="#FDDE35"/><stop offset=".25" stop-color="#FBDA35"/><stop offset=".378" stop-color="#F5CF33"/><stop offset=".501" stop-color="#EBBD31"/><stop offset=".622" stop-color="#DDA22E"/><stop offset=".741" stop-color="#CB802A"/><stop offset=".859" stop-color="#B55724"/><stop offset=".973" stop-color="#9C271F"/><stop offset="1" stop-color="#951A1D"/></linearGradient><path class="st16" d="M54.1 59.3c-5.4 5.4-14.2 5.4-19.6 0-2.2-2.2-3.5-4.9-3.9-7.7-.7 4.2.6 8.7 3.9 11.9 5.4 5.4 14.2 5.4 19.6 0 3.2-3.2 4.5-7.7 3.9-11.9-.4 2.9-1.7 5.6-3.9 7.7z"/><g><path class="st8" d="M45.8 52.8l-1.4-.7-1.3.7.2-1.5-1-1 1.4-.2.7-1.4.7 1.4 1.5.2-1.1 1"/><linearGradient id="SVGID_16_" gradientUnits="userSpaceOnUse" x1="41.349" y1="45.302" x2="51.316" y2="63.223"><stop offset="0" stop-color="#EB1D25"/><stop offset="1" stop-color="#D81F26"/></linearGradient><path class="st17" d="M43.5 51.3l-.9-.9 1.2-.2.6-1.2.6 1.2 1.3.2-1 .9.3 1.2-1.2-.5-1.1.6"/><g><path class="st8" d="M42 59.2l-1.3-.7-1.3.7.2-1.5-1.1-1 1.5-.2.6-1.4.7 1.4 1.5.2-1.1 1"/><linearGradient id="SVGID_17_" gradientUnits="userSpaceOnUse" x1="36.486" y1="49.715" x2="46.452" y2="67.635"><stop offset="0" stop-color="#EB2027"/><stop offset="1" stop-color="#BC202E"/></linearGradient><path class="st18" d="M39.7 57.7l-.9-.9 1.3-.2.5-1.2.6 1.2 1.3.2-.9.9.2 1.2-1.1-.5-1.2.6"/></g><g><path class="st8" d="M49.5 59.2l-1.3-.7-1.3.7.2-1.5-1.1-1 1.5-.2.7-1.4.6 1.4 1.5.2-1 1"/><linearGradient id="SVGID_18_" gradientUnits="userSpaceOnUse" x1="41.914" y1="45.964" x2="51.88" y2="63.884"><stop offset="0" stop-color="#EB1D25"/><stop offset="1" stop-color="#D81F26"/></linearGradient><path class="st19" d="M47.3 57.7l-1-.9 1.3-.2.6-1.2.5 1.2 1.3.2-.9.9.2 1.2-1.1-.5-1.1.6"/></g></g></g><g><defs><path id="SVGID_19_" d="M12.8 11.3h74.5v77.4H12.8z"/></defs><clipPath id="SVGID_20_"><use xlink:href="#SVGID_19_" overflow="visible"/></clipPath><g class="st20"><defs><path id="SVGID_21_" d="M29.7 64.5c-8-11.2-5.4-26.8 5.8-34.8 11.2-8 26.8-5.4 34.8 5.8 8 11.2 5.4 26.8-5.8 34.8-4.4 3.1-9.4 4.6-14.4 4.6-7.9 0-15.5-3.6-20.4-10.4M44 15.2c-2 3-5.7 4.2-9 2.8-5.1-2-10.5 1.9-10.3 7.3.2 3.6-2.2 6.7-5.6 7.6-5.3 1.4-7.4 7.7-4 12 2.2 2.8 2.2 6.7-.1 9.5-3.5 4.2-1.5 10.6 3.8 12 3.4.9 5.7 4.2 5.5 7.7-.3 5.4 5 9.4 10.1 7.5 3.3-1.2 7.1 0 9 3 2.9 4.6 9.6 4.7 12.6.1 2-3 5.7-4.2 9-2.8 5.1 2 10.5-1.9 10.3-7.3-.2-3.6 2.2-6.7 5.6-7.6 5.3-1.4 7.4-7.7 4-12-2.2-2.8-2.2-6.7.1-9.5 3.5-4.2 1.5-10.6-3.8-12-3.4-.9-5.7-4.2-5.5-7.7.3-5.4-5-9.4-10.1-7.5-3.3 1.2-7.1 0-9-3-1.5-2.3-3.9-3.5-6.4-3.5-2.3 0-4.7 1.1-6.2 3.4"/></defs><clipPath id="SVGID_22_"><use xlink:href="#SVGID_21_" overflow="visible"/></clipPath><radialGradient id="SVGID_23_" cx="-147.749" cy="-103.289" r="1" gradientTransform="scale(67.111) rotate(45 50.592 230.736)" gradientUnits="userSpaceOnUse"><stop offset="0" stop-color="#FFF"/><stop offset=".052" stop-color="#DCDBEC"/><stop offset=".109" stop-color="#BEBCDB"/><stop offset=".174" stop-color="#A4A0CD"/><stop offset=".248" stop-color="#8F8AC2"/><stop offset=".333" stop-color="#7F79B9"/><stop offset=".439" stop-color="#736EB3"/><stop offset=".588" stop-color="#6D67AF"/><stop offset="1" stop-color="#6B65AE"/></radialGradient><path class="st21" d="M50-26.8l77.3 77.4L50 127.9l-77.3-77.3"/></g><g class="st20"><defs><path id="SVGID_24_" d="M12.8 11.3h74.5v77.4H12.8z"/></defs><clipPath id="SVGID_25_"><use xlink:href="#SVGID_24_" overflow="visible"/></clipPath><path class="st22" d="M65.4 18.2c5.1-2 10.5 2 10.2 7.4-.2 3.6 2.1 6.8 5.6 7.7 5.3 1.4 7.3 7.8 3.9 12-2.3 2.8-2.3 6.7 0 9.5 3.4 4.2 1.3 10.6-3.9 12-3.4.9-5.8 4.1-5.6 7.7.3 5.4-5.1 9.4-10.2 7.4-3.3-1.3-7.1-.1-9 2.9-3 4.6-9.7 4.6-12.6 0-1.9-3-5.7-4.2-9-2.9-5.1 2-10.5-2-10.2-7.4.2-3.6-2.1-6.8-5.6-7.7-5.3-1.4-7.3-7.8-3.9-12 2.3-2.8 2.3-6.7 0-9.5-3.4-4.2-1.3-10.6 3.9-12 3.4-.9 5.8-4.1 5.6-7.7-.3-5.4 5.1-9.4 10.2-7.4 3.3 1.3 7.1.1 9-2.9 3-4.6 9.7-4.6 12.6 0 1.9 2.9 5.7 4.2 9 2.9z"/><ellipse transform="rotate(-35.462 49.998 49.996)" class="st22" cx="50" cy="50" rx="24.9" ry="24.9"/></g></g></svg>