<svg id="Layer_1" data-name="Layer 1" xmlns="http://www.w3.org/2000/svg" xmlns:xlink="http://www.w3.org/1999/xlink" viewBox="0 0 100 100"><defs><style>.cls-1,.cls-2,.cls-7{fill:none;}.cls-2{clip-path:url(#clip-path);}.cls-3{clip-path:url(#clip-path-2);}.cls-4{clip-path:url(#clip-path-3);}.cls-5{fill:url(#radial-gradient);}.cls-6{clip-path:url(#clip-path-5);}.cls-7{stroke:#fff;stroke-miterlimit:10;}.cls-8{fill:#fff;}.cls-9{fill:#ffe600;}</style><clipPath id="clip-path"><rect class="cls-1" x="12.8" y="11.3" width="74.5" height="77.4"/></clipPath><clipPath id="clip-path-2"><rect class="cls-1" width="100" height="100"/></clipPath><clipPath id="clip-path-3"><path class="cls-1" d="M29.7,64.5A25.07,25.07,0,1,1,50.1,74.9,25,25,0,0,1,29.7,64.5M44,15.2A7.32,7.32,0,0,1,35,18a7.54,7.54,0,0,0-10.3,7.3,7.45,7.45,0,0,1-5.6,7.6,7.54,7.54,0,0,0-4,12,7.53,7.53,0,0,1-.1,9.5,7.45,7.45,0,0,0,3.8,12,7.55,7.55,0,0,1,5.5,7.7,7.51,7.51,0,0,0,10.1,7.5,7.61,7.61,0,0,1,9,3,7.48,7.48,0,0,0,12.6.1,7.32,7.32,0,0,1,9-2.8,7.54,7.54,0,0,0,10.3-7.3A7.45,7.45,0,0,1,80.9,67a7.54,7.54,0,0,0,4-12,7.53,7.53,0,0,1,.1-9.5,7.45,7.45,0,0,0-3.8-12,7.55,7.55,0,0,1-5.5-7.7,7.51,7.51,0,0,0-10.1-7.5,7.61,7.61,0,0,1-9-3,7.57,7.57,0,0,0-6.4-3.5A7.38,7.38,0,0,0,44,15.2"/></clipPath><radialGradient id="radial-gradient" cx="-247.62" cy="449" r="1" gradientTransform="translate(33089.13 -9531.53) rotate(45) scale(67.11)" gradientUnits="userSpaceOnUse"><stop offset="0" stop-color="#fff"/><stop offset="0.05" stop-color="#dcdbec"/><stop offset="0.11" stop-color="#bebcdb"/><stop offset="0.17" stop-color="#a4a0cd"/><stop offset="0.25" stop-color="#8f8ac2"/><stop offset="0.33" stop-color="#7f79b9"/><stop offset="0.44" stop-color="#736eb3"/><stop offset="0.59" stop-color="#6d67af"/><stop offset="1" stop-color="#6b65ae"/></radialGradient><clipPath id="clip-path-5"><rect class="cls-2" x="12.79" y="11.27" width="74.5" height="77.4" transform="translate(-19.71 38.3) rotate(-35.46)"/></clipPath></defs><title>powerup</title><g class="cls-3"><g class="cls-4"><path class="cls-5" d="M50-26.8l77.3,77.4L50,127.9-27.3,50.6Z"/></g><g class="cls-3"><g class="cls-6"><path class="cls-7" d="M65.4,18.2a7.5,7.5,0,0,1,10.2,7.4,7.46,7.46,0,0,0,5.6,7.7,7.52,7.52,0,0,1,3.9,12,7.4,7.4,0,0,0,0,9.5,7.56,7.56,0,0,1-3.9,12,7.56,7.56,0,0,0-5.6,7.7,7.5,7.5,0,0,1-10.2,7.4,7.44,7.44,0,0,0-9,2.9,7.48,7.48,0,0,1-12.6,0,7.44,7.44,0,0,0-9-2.9,7.5,7.5,0,0,1-10.2-7.4A7.46,7.46,0,0,0,19,66.8a7.52,7.52,0,0,1-3.9-12,7.4,7.4,0,0,0,0-9.5,7.56,7.56,0,0,1,3.9-12,7.56,7.56,0,0,0,5.6-7.7,7.5,7.5,0,0,1,10.2-7.4,7.44,7.44,0,0,0,9-2.9,7.48,7.48,0,0,1,12.6,0A7.56,7.56,0,0,0,65.4,18.2Z"/><circle class="cls-7" cx="50" cy="50" r="24.9" transform="translate(-19.73 38.29) rotate(-35.46)"/></g></g></g><path class="cls-1" d="M54.2,64.5c0,.5.2,1,.5,1s.5-.4.5-1-.2-1-.5-1a1,1,0,0,0-.5,1"/><rect class="cls-1" width="100" height="100"/><rect class="cls-1" width="100" height="100"/><rect class="cls-1" width="100" height="100"/><rect class="cls-1" width="100" height="100"/><rect class="cls-1" width="100" height="100"/><rect class="cls-1" width="100" height="100"/><rect class="cls-1" width="100" height="100"/><rect class="cls-1" width="100" height="100"/><rect class="cls-1" width="100" height="100"/><rect class="cls-1" width="100" height="100"/><rect class="cls-1" width="100" height="100"/><rect class="cls-1" width="100" height="100"/><polygon class="cls-9" points="63.47 21.33 38.48 48.74 49.13 52.33 32.13 80.67 63.78 50.12 54.67 46 63.47 21.33"/></svg>