<svg xmlns="http://www.w3.org/2000/svg" xmlns:xlink="http://www.w3.org/1999/xlink" width="100" height="100" viewBox="0 0 100 100" overflow="scroll"><style>.st0{clip-path:url(#SVGID_2_);} .st1{clip-path:url(#SVGID_4_);} .st2{clip-path:url(#SVGID_6_);fill:url(#SVGID_7_);} .st3{clip-path:url(#SVGID_9_);fill:none;stroke:#FFFFFF;stroke-miterlimit:10;} .st4{clip-path:url(#SVGID_11_);fill:url(#SVGID_12_);} .st5{clip-path:url(#SVGID_14_);fill:url(#SVGID_15_);} .st6{clip-path:url(#SVGID_17_);fill:#F26822;} .st7{clip-path:url(#SVGID_19_);fill:url(#SVGID_20_);} .st8{filter:url(#Adobe_OpacityMaskFilter);} .st9{clip-path:url(#SVGID_22_);} .st10{enable-background:new ;} .st11{clip-path:url(#SVGID_22_);mask:url(#SVGID_23_);} .st12{clip-path:url(#SVGID_25_);fill:#F26822;} .st13{clip-path:url(#SVGID_22_);fill:#010101;} .st14{filter:url(#Adobe_OpacityMaskFilter_1_);} .st15{opacity:0.4;clip-path:url(#SVGID_22_);mask:url(#SVGID_26_);} .st16{clip-path:url(#SVGID_28_);fill:#010101;} .st17{filter:url(#Adobe_OpacityMaskFilter_2_);} .st18{clip-path:url(#SVGID_22_);mask:url(#SVGID_29_);} .st19{clip-path:url(#SVGID_31_);} .st20{clip-path:url(#SVGID_33_);} .st21{clip-path:url(#SVGID_35_);fill:url(#SVGID_36_);} .st22{clip-path:url(#SVGID_38_);fill:#010101;} .st23{clip-path:url(#SVGID_31_);fill:#010101;} .st24{clip-path:url(#SVGID_40_);fill:#010101;} .st25{clip-path:url(#SVGID_42_);fill:#010101;} .st26{clip-path:url(#SVGID_44_);fill:url(#SVGID_45_);} .st27{clip-path:url(#SVGID_47_);fill:#010101;} .st28{clip-path:url(#SVGID_49_);} .st29{clip-path:url(#SVGID_51_);} .st30{clip-path:url(#SVGID_53_);fill:url(#SVGID_54_);} .st31{clip-path:url(#SVGID_56_);fill:none;stroke:#FFFFFF;stroke-miterlimit:10;} .st32{clip-path:url(#SVGID_58_);fill:url(#SVGID_59_);} .st33{clip-path:url(#SVGID_61_);fill:url(#SVGID_62_);} .st34{clip-path:url(#SVGID_64_);fill:#F26822;} .st35{clip-path:url(#SVGID_66_);fill:url(#SVGID_67_);} .st36{filter:url(#Adobe_OpacityMaskFilter_3_);} .st37{clip-path:url(#SVGID_69_);} .st38{clip-path:url(#SVGID_69_);mask:url(#SVGID_70_);} .st39{clip-path:url(#SVGID_72_);fill:#F26822;} .st40{clip-path:url(#SVGID_69_);fill:#010101;} .st41{filter:url(#Adobe_OpacityMaskFilter_4_);} .st42{opacity:0.4;clip-path:url(#SVGID_69_);mask:url(#SVGID_73_);} .st43{clip-path:url(#SVGID_75_);fill:#010101;} .st44{filter:url(#Adobe_OpacityMaskFilter_5_);} .st45{clip-path:url(#SVGID_69_);mask:url(#SVGID_76_);} .st46{clip-path:url(#SVGID_78_);} .st47{clip-path:url(#SVGID_80_);} .st48{clip-path:url(#SVGID_82_);fill:url(#SVGID_83_);} .st49{clip-path:url(#SVGID_85_);fill:#010101;} .st50{clip-path:url(#SVGID_78_);fill:#010101;} .st51{clip-path:url(#SVGID_87_);fill:#010101;} .st52{clip-path:url(#SVGID_89_);fill:#010101;} .st53{clip-path:url(#SVGID_91_);fill:url(#SVGID_92_);} .st54{clip-path:url(#SVGID_94_);fill:#010101;}</style><g id="POWERUP_x5F_Immunity_1_"><defs><path id="SVGID_1_" d="M0 0h100v100H0z"/></defs><clipPath id="SVGID_2_"><use xlink:href="#SVGID_1_" overflow="visible"/></clipPath><g class="st0"><defs><path id="SVGID_3_" d="M0 0h100v100H0z"/></defs><clipPath id="SVGID_4_"><use xlink:href="#SVGID_3_" overflow="visible"/></clipPath><g class="st1"><defs><path id="SVGID_5_" d="M29.7 64.5c-8-11.2-5.4-26.8 5.8-34.8 11.2-8 26.8-5.4 34.8 5.8 8 11.2 5.4 26.8-5.8 34.8-4.4 3.1-9.4 4.6-14.4 4.6-7.9 0-15.5-3.6-20.4-10.4M44 15.2c-2 3-5.7 4.2-9 2.8-5.1-2-10.5 1.9-10.3 7.3.2 3.6-2.2 6.7-5.6 7.6-5.3 1.4-7.4 7.7-4 12 2.2 2.8 2.2 6.7-.1 9.5-3.5 4.2-1.5 10.6 3.8 12 3.4.9 5.7 4.2 5.5 7.7-.3 5.4 5 9.4 10.1 7.5 3.3-1.2 7.1 0 9 3 2.9 4.6 9.6 4.7 12.6.1 2-3 5.7-4.2 9-2.8 5.1 2 10.5-1.9 10.3-7.3-.2-3.6 2.2-6.7 5.6-7.6 5.3-1.4 7.4-7.7 4-12-2.2-2.8-2.2-6.7.1-9.5 3.5-4.2 1.5-10.6-3.8-12-3.4-.9-5.7-4.2-5.5-7.7.3-5.4-5-9.4-10.1-7.5-3.3 1.2-7.1 0-9-3-1.5-2.3-3.9-3.5-6.4-3.5-2.3 0-4.7 1.1-6.2 3.4"/></defs><clipPath id="SVGID_6_"><use xlink:href="#SVGID_5_" overflow="visible"/></clipPath><radialGradient id="SVGID_7_" cx="-797.751" cy="-268.842" r="1" gradientTransform="matrix(47.4546 47.4546 47.4546 -47.4546 50645.6992 25123.8574)" gradientUnits="userSpaceOnUse"><stop offset="0" stop-color="#FFF"/><stop offset=".052" stop-color="#DCDBEC"/><stop offset=".109" stop-color="#BEBCDB"/><stop offset=".174" stop-color="#A4A0CD"/><stop offset=".248" stop-color="#8F8AC2"/><stop offset=".333" stop-color="#7F79B9"/><stop offset=".439" stop-color="#736EB3"/><stop offset=".588" stop-color="#6D67AF"/><stop offset="1" stop-color="#6B65AE"/></radialGradient><path class="st2" d="M50-26.8l77.3 77.4L50 127.9l-77.3-77.3z"/></g><g class="st1"><defs><path id="SVGID_8_" d="M12.8 11.3h74.5v77.4H12.8z"/></defs><clipPath id="SVGID_9_"><use xlink:href="#SVGID_8_" overflow="visible"/></clipPath><path class="st3" d="M65.4 18.2c5.1-2 10.5 2 10.2 7.4-.2 3.6 2.1 6.8 5.6 7.7 5.3 1.4 7.3 7.8 3.9 12-2.3 2.8-2.3 6.7 0 9.5 3.4 4.2 1.3 10.6-3.9 12-3.4.9-5.8 4.1-5.6 7.7.3 5.4-5.1 9.4-10.2 7.4-3.3-1.3-7.1-.1-9 2.9-3 4.6-9.7 4.6-12.6 0-1.9-3-5.7-4.2-9-2.9-5.1 2-10.5-2-10.2-7.4.2-3.6-2.1-6.8-5.6-7.7-5.3-1.4-7.3-7.8-3.9-12 2.3-2.8 2.3-6.7 0-9.5-3.4-4.2-1.3-10.6 3.9-12 3.4-.9 5.8-4.1 5.6-7.7-.3-5.4 5.1-9.4 10.2-7.4 3.3 1.3 7.1.1 9-2.9 3-4.6 9.7-4.6 12.6 0 1.9 2.9 5.7 4.2 9 2.9z"/><ellipse transform="matrix(0.8145 -0.5802 0.5802 0.8145 -19.7333 38.2829)" class="st3" cx="50" cy="50" rx="24.9" ry="24.9"/></g><g class="st1"><defs><path id="SVGID_10_" d="M49.9 30.1c-6.1 4.4-14.3 4.6-14.3 4.6h-.2v.3c0 9 .1 15.3 2.1 20.5 1.9 5 5.4 9 12.5 14.4v.1l.2-.1c7.1-5.4 10.6-9.4 12.5-14.4 2-5.2 2.1-11.5 2.1-20.5v-.2h-.2c-.1 0-8.3-.2-14.3-4.6L50 30l-.1.1z"/></defs><clipPath id="SVGID_11_"><use xlink:href="#SVGID_10_" overflow="visible"/></clipPath><linearGradient id="SVGID_12_" gradientUnits="userSpaceOnUse" x1="-815.987" y1="-295.389" x2="-814.987" y2="-295.389" gradientTransform="matrix(6.8404 -38.7939 -38.7939 -6.8404 -5831.0132 -33606.4531)"><stop offset="0" stop-color="#676255"/><stop offset=".238" stop-color="#433F33"/><stop offset=".477" stop-color="#1A170D"/><stop offset="1" stop-color="#E8E5DF"/></linearGradient><path class="st4" d="M28.4 68.8L36.1 25l35.5 6.2L63.9 75z"/></g><g class="st1"><defs><path id="SVGID_13_" d="M36.8 36.1c0 8.2.2 14 2 18.8 1.7 4.5 4.9 8.2 11.2 13.1 6.3-4.9 9.5-8.6 11.2-13.1 1.8-4.8 2-10.6 2-18.8-2.5-.2-8.3-1.1-13.2-4.3-4.9 3.3-10.7 4.1-13.2 4.3"/></defs><clipPath id="SVGID_14_"><use xlink:href="#SVGID_13_" overflow="visible"/></clipPath><linearGradient id="SVGID_15_" gradientUnits="userSpaceOnUse" x1="-841.338" y1="-265.255" x2="-840.338" y2="-265.255" gradientTransform="matrix(-27.3062 -4.8148 -4.8148 27.3062 -24188.7539 3244.3076)"><stop offset="0" stop-color="#FFFFFD"/><stop offset=".11" stop-color="#FAFAF8"/><stop offset=".244" stop-color="#ECEBE9"/><stop offset=".391" stop-color="#D4D3D0"/><stop offset=".547" stop-color="#B2B1AE"/><stop offset=".71" stop-color="#888681"/><stop offset=".876" stop-color="#54524C"/><stop offset="1" stop-color="#29261F"/></linearGradient><path class="st5" d="M62.4 72.6L30.6 67l7-39.7 31.8 5.6z"/></g><g class="st1"><defs><path id="SVGID_16_" d="M0 0h100v100H0z"/></defs><clipPath id="SVGID_17_"><use xlink:href="#SVGID_16_" overflow="visible"/></clipPath><path class="st6" d="M50 47h12.6c.3-3.2.4-6.7.4-10.7-2.4-.2-8.1-1.1-13-4.2V47zM50 47zM62.6 47zM62.9 36.4c.1 0 .1 0 0 0zM50 32.2z"/><path class="st6" d="M57.4 35.3c-2.8-.8-5.3-1.8-7.4-3.2V47h12.6c.3-3 .4-6.3.4-10.7-1.3-.1-3.3-.3-5.6-1M62.6 47H50V32.2c2.1 1.4 4.6 2.4 7.4 3.2 2.3.6 4.3.9 5.6 1-.1 4.3-.1 7.6-.4 10.6"/></g><g class="st1"><defs><path id="SVGID_18_" d="M37.4 47c.3 2.9.8 5.5 1.6 7.8 1.7 4.4 4.8 8.1 11 12.9V47H37.4z"/></defs><clipPath id="SVGID_19_"><use xlink:href="#SVGID_18_" overflow="visible"/></clipPath><radialGradient id="SVGID_20_" cx="-790.937" cy="-282.333" r="1" gradientTransform="matrix(42.013 0 0 -42.013 33271.5781 -11830.7793)" gradientUnits="userSpaceOnUse"><stop offset="0" stop-color="#B5AB9C"/><stop offset=".167" stop-color="#B1A899"/><stop offset=".317" stop-color="#A79D90"/><stop offset=".46" stop-color="#948C80"/><stop offset=".599" stop-color="#7B746A"/><stop offset=".735" stop-color="#59544D"/><stop offset=".868" stop-color="#312E2A"/><stop offset=".998" stop-color="#020202"/><stop offset="1" stop-color="#010101"/></radialGradient><path class="st7" d="M37.4 47H50v20.7H37.4z"/></g><g class="st1"><defs><path id="SVGID_21_" d="M0 0h100v100H0z"/></defs><clipPath id="SVGID_22_"><use xlink:href="#SVGID_21_" overflow="visible"/></clipPath><defs><filter id="Adobe_OpacityMaskFilter" filterUnits="userSpaceOnUse" x="37.4" y="47" width="12.6" height="20.7"><feColorMatrix values="-1 0 0 0 1 0 -1 0 0 1 0 0 -1 0 1 0 0 0 1 0" color-interpolation-filters="sRGB" result="source"/><feFlood result="back" flood-color="#fff" flood-opacity="1"/><feBlend in="source" in2="back"/></filter></defs><mask maskUnits="userSpaceOnUse" x="37.4" y="47" width="12.6" height="20.7" id="SVGID_23_"><g class="st8"><path class="st9" d="M37.4 47H50v20.7H37.4z"/></g></mask><g class="st11"><defs><path id="SVGID_24_" d="M37.4 47H50v20.7H37.4z"/></defs><clipPath id="SVGID_25_"><use xlink:href="#SVGID_24_" overflow="visible"/></clipPath><path class="st12" d="M39 54.8c1.7 4.5 4.8 8.1 11 12.9V47H37.4c.3 3 .8 5.6 1.6 7.8"/></g><path class="st13" d="M50 67.8c0-.1 0-.1 0 0zM50 47v.1zM37.4 47.1s0-.1 0 0zM37.4 47c.3 3.2.8 5.7 1.6 7.8 1.7 4.5 4.8 8.1 11 12.9V47H37.4zM50 67.8c-6.2-4.9-9.2-8.5-10.9-12.9-.8-2.1-1.3-4.6-1.6-7.8H50v20.7c0-.1 0-.1 0 0z"/><defs><filter id="Adobe_OpacityMaskFilter_1_" filterUnits="userSpaceOnUse" x="37" y="32.1" width="25.9" height="35.6"><feFlood result="back" flood-color="#fff" flood-opacity="1"/><feBlend in="SourceGraphic" in2="back"/></filter></defs><g class="st15"><defs><path id="SVGID_27_" d="M37 32.1h25.9v35.6H37z"/></defs><clipPath id="SVGID_28_"><use xlink:href="#SVGID_27_" overflow="visible"/></clipPath><path class="st16" d="M37 36.4c0 3.9.1 7.5.4 10.7.3 2.9.8 5.5 1.6 7.8 1.7 4.4 4.8 8.1 11 12.9-6-4.7-9-8.3-10.6-12.6-1.7-4.6-1.9-10.3-2-18.2 2.4-.2 7.8-.9 12.6-4 4.7 3.1 10.5 3.8 13 4v-.5c-2.5-.2-8.1-1.1-13-4.2-4.9 3-10.5 3.8-13 4.1"/></g><defs><filter id="Adobe_OpacityMaskFilter_2_" filterUnits="userSpaceOnUse" x="50" y="47" width="12.7" height="20.8"><feFlood result="back" flood-color="#fff" flood-opacity="1"/><feBlend in="SourceGraphic" in2="back"/></filter></defs><g class="st18"><defs><path id="SVGID_30_" d="M50 47h12.7v20.8H50z"/></defs><clipPath id="SVGID_31_"><use xlink:href="#SVGID_30_" overflow="visible"/></clipPath><g class="st19"><defs><path id="SVGID_32_" d="M50 47h12.6v20.7H50z"/></defs><clipPath id="SVGID_33_"><use xlink:href="#SVGID_32_" overflow="visible"/></clipPath><g class="st20"><defs><path id="SVGID_34_" d="M50 67.8c6.2-4.8 9.3-8.5 11-12.9.9-2.3 1.4-4.9 1.6-7.8H50v20.7z"/></defs><clipPath id="SVGID_35_"><use xlink:href="#SVGID_34_" overflow="visible"/></clipPath><radialGradient id="SVGID_36_" cx="-790.937" cy="-282.333" r="1" gradientTransform="matrix(42.013 0 0 -42.013 33271.5547 -11830.7725)" gradientUnits="userSpaceOnUse"><stop offset="0" stop-color="#FFFFFA"/><stop offset=".373" stop-color="#FDFDF8"/><stop offset=".521" stop-color="#F7F7F1"/><stop offset=".629" stop-color="#ECEBE5"/><stop offset=".717" stop-color="#DDDBD4"/><stop offset=".794" stop-color="#C9C5BD"/><stop offset=".862" stop-color="#B0ABA1"/><stop offset=".924" stop-color="#938C80"/><stop offset=".98" stop-color="#72695B"/><stop offset="1" stop-color="#645A4B"/></radialGradient><path class="st21" d="M50 47h12.6v20.7H50z"/></g></g><g class="st19"><clipPath id="SVGID_38_"><use xlink:href="#SVGID_37_" overflow="visible"/></clipPath><path class="st22" d="M50 67.8c0-.1 0-.1 0 0z"/></g><path class="st23" d="M50 47v20.7c6.2-4.8 9.3-8.5 11-12.9.8-2.2 1.3-4.6 1.6-7.8H50zm10.9 7.8c-1.7 4.4-4.7 8.1-10.9 12.9V47.1h12.6c-.3 3.1-.8 5.6-1.7 7.7"/><g class="st19"><clipPath id="SVGID_40_"><use xlink:href="#SVGID_39_" overflow="visible"/></clipPath><path class="st24" d="M62.6 47s0 .1 0 0z"/></g><g class="st19"><clipPath id="SVGID_42_"><use xlink:href="#SVGID_41_" overflow="visible"/></clipPath><path class="st25" d="M50 47.1V47z"/></g></g></g><g class="st1"><defs><path id="SVGID_43_" d="M37 36.4c0 3.9.1 7.5.4 10.7H50v-15c-4.9 3.2-10.5 4-13 4.3"/></defs><clipPath id="SVGID_44_"><use xlink:href="#SVGID_43_" overflow="visible"/></clipPath><radialGradient id="SVGID_45_" cx="-790.937" cy="-282.333" r="1" gradientTransform="matrix(42.0134 0 0 -42.0134 33271.8789 -11830.8809)" gradientUnits="userSpaceOnUse"><stop offset="0" stop-color="#FFFFFA"/><stop offset=".373" stop-color="#FDFDF8"/><stop offset=".521" stop-color="#F7F7F1"/><stop offset=".629" stop-color="#ECEBE5"/><stop offset=".717" stop-color="#DDDBD4"/><stop offset=".794" stop-color="#C9C5BD"/><stop offset=".862" stop-color="#B0ABA1"/><stop offset=".924" stop-color="#938C80"/><stop offset=".98" stop-color="#72695B"/><stop offset="1" stop-color="#645A4B"/></radialGradient><path class="st26" d="M37 32.1h13V47H37z"/></g><g class="st1"><defs><path id="SVGID_46_" d="M0 0h100v100H0z"/></defs><clipPath id="SVGID_47_"><use xlink:href="#SVGID_46_" overflow="visible"/></clipPath><path class="st27" d="M50 47zM37.4 47zM50 32.1c0 .1 0 .1 0 0zM42.6 35.3c-2.3.6-4.3.9-5.6 1 0 4.3.1 7.6.4 10.7H50V32.1c-2.1 1.4-4.6 2.5-7.4 3.2M50 47H37.4c-.3-3-.4-6.3-.4-10.6 1.3-.1 3.3-.4 5.6-1 2.8-.8 5.3-1.8 7.4-3.2V47zM37 36.4z"/></g></g></g></svg>