<svg xmlns="http://www.w3.org/2000/svg" xmlns:xlink="http://www.w3.org/1999/xlink" x="0px" y="0px" width="101px" height="101px" viewBox="0 0 101 101"><style>.st0{fill:#FFFFFF;stroke:#000000;stroke-miterlimit:10;} .st1{enable-background:new ;} .st2{clip-path:url(#SVGID_2_);enable-background:new ;} .st3{fill:#EEBB43;} .st4{fill:#EFBB46;} .st5{fill:#EFBC48;} .st6{fill:#F0BE4B;} .st7{fill:#EFBE4E;} .st8{fill:#EFC051;} .st9{fill:#F1C157;} .st10{clip-path:url(#SVGID_4_);enable-background:new ;} .st11{fill:#EEB940;} .st12{clip-path:url(#SVGID_6_);enable-background:new ;} .st13{clip-path:url(#SVGID_8_);enable-background:new ;} .st14{fill:#EEB83B;} .st15{fill:#EDB735;} .st16{fill:#EEB633;} .st17{fill:#EEB531;} .st18{fill:#EEB42E;} .st19{fill:#EEB32B;} .st20{clip-path:url(#SVGID_10_);enable-background:new ;} .st21{fill:#EBAD20;} .st22{fill:#ECAF21;} .st23{fill:#ECB022;} .st24{fill:#ECB123;} .st25{fill:#ECB225;} .st26{clip-path:url(#SVGID_12_);enable-background:new ;} .st27{clip-path:url(#SVGID_14_);enable-background:new ;} .st28{clip-path:url(#SVGID_16_);enable-background:new ;} .st29{fill:#EBAC20;} .st30{clip-path:url(#SVGID_18_);enable-background:new ;} .st31{fill:#827F73;} .st32{fill:#878377;} .st33{fill:#8B897C;} .st34{fill:#908D80;} .st35{fill:#949182;} .st36{fill:#999687;} .st37{fill:#9C998A;} .st38{fill:#807464;} .st39{fill:#9C9889;} .st40{fill:#807463;} .st41{fill:#807363;} .st42{fill:#9A9789;} .st43{fill:#9A9788;} .st44{fill:#9B8B78;} .st45{fill:#9A8A77;} .st46{fill:#9B8A77;} .st47{clip-path:url(#SVGID_20_);enable-background:new ;} .st48{fill:#EBAB20;} .st49{fill:#F3F2E9;} .st50{fill:#DCD2B7;} .st51{fill:#E9A422;} .st52{clip-path:url(#SVGID_22_);enable-background:new ;} .st53{clip-path:url(#SVGID_24_);enable-background:new ;} .st54{fill:#426F91;} .st55{fill:#437295;} .st56{fill:#457498;} .st57{fill:#48779C;} .st58{fill:#497AA0;} .st59{fill:#4B7DA4;} .st60{fill:#4C80A7;} .st61{clip-path:url(#SVGID_26_);enable-background:new ;} .st62{fill:#406C8D;} .st63{clip-path:url(#SVGID_28_);enable-background:new ;} .st64{fill:#447396;} .st65{clip-path:url(#SVGID_30_);enable-background:new ;} .st66{fill:#3F6989;} .st67{fill:#3D6686;} .st68{fill:#3B6383;} .st69{fill:#3A617F;} .st70{fill:#385E7B;} .st71{fill:#375B78;} .st72{clip-path:url(#SVGID_32_);enable-background:new ;} .st73{fill:#DB4126;} .st74{clip-path:url(#SVGID_34_);enable-background:new ;} .st75{clip-path:url(#SVGID_36_);enable-background:new ;} .st76{fill:#31536C;} .st77{fill:#325570;} .st78{fill:#335874;} .st79{clip-path:url(#SVGID_38_);enable-background:new ;} .st80{fill:#2C4B61;} .st81{fill:#2D4E65;} .st82{fill:#2F5069;} .st83{clip-path:url(#SVGID_40_);enable-background:new ;} .st84{fill:#375C7A;} .st85{fill:#F16227;} .st86{clip-path:url(#SVGID_42_);enable-background:new ;} .st87{clip-path:url(#SVGID_44_);enable-background:new ;} .st88{clip-path:url(#SVGID_46_);} .st89{clip-path:url(#SVGID_48_);fill:url(#SVGID_49_);} .st90{clip-path:url(#SVGID_51_);fill:none;stroke:#FFFFFF;stroke-miterlimit:10;} .st91{fill:#FFFFFF;} .st92{fill:#414F53;} .st93{clip-path:url(#SVGID_53_);enable-background:new ;} .st94{clip-path:url(#SVGID_55_);enable-background:new ;} .st95{clip-path:url(#SVGID_57_);enable-background:new ;} .st96{clip-path:url(#SVGID_59_);enable-background:new ;} .st97{clip-path:url(#SVGID_61_);enable-background:new ;} .st98{clip-path:url(#SVGID_63_);enable-background:new ;} .st99{clip-path:url(#SVGID_65_);enable-background:new ;} .st100{clip-path:url(#SVGID_67_);enable-background:new ;} .st101{clip-path:url(#SVGID_69_);enable-background:new ;} .st102{clip-path:url(#SVGID_71_);enable-background:new ;} .st103{clip-path:url(#SVGID_73_);enable-background:new ;} .st104{clip-path:url(#SVGID_75_);enable-background:new ;} .st105{clip-path:url(#SVGID_77_);enable-background:new ;} .st106{clip-path:url(#SVGID_79_);enable-background:new ;} .st107{clip-path:url(#SVGID_81_);enable-background:new ;} .st108{clip-path:url(#SVGID_83_);enable-background:new ;} .st109{clip-path:url(#SVGID_85_);enable-background:new ;} .st110{clip-path:url(#SVGID_87_);enable-background:new ;} .st111{clip-path:url(#SVGID_89_);enable-background:new ;} .st112{clip-path:url(#SVGID_91_);enable-background:new ;} .st113{clip-path:url(#SVGID_93_);enable-background:new ;} .st114{clip-path:url(#SVGID_95_);enable-background:new ;} .st115{clip-path:url(#SVGID_97_);} .st116{clip-path:url(#SVGID_99_);fill:url(#SVGID_100_);} .st117{clip-path:url(#SVGID_102_);fill:none;stroke:#FFFFFF;stroke-miterlimit:10;}</style><g><g class="st1"><g class="st1"><defs><path id="SVGID_1_" class="st1" d="M29,59.1l29-5.8c0,0.1,0,0.1,0,0.2c0,0.1,0,0.1,0,0.2c0,0,0,0.1,0,0.1c0,0,0,0,0,0.1l-29,5.9 c0,0,0,0,0-0.1c0,0,0-0.1,0-0.1c0-0.1,0-0.1,0-0.2C29,59.3,29,59.2,29,59.1z"/></defs><clipPath id="SVGID_2_"><use xlink:href="#SVGID_1_" overflow="visible"/></clipPath><g class="st2"><polyline class="st3" points="29,59.1 58.1,53.3 58.1,53.3 58.1,53.3 58.1,53.3 58.1,53.3 29,59.1 29,59.1 29,59.1 29,59.1 29,59.1"/><path class="st4" d="M29,59.1l29-5.8c0,0,0,0.1,0,0.1c0,0,0,0,0,0.1c0,0,0,0,0,0.1c0,0,0,0,0,0.1l-29,5.9c0,0,0,0,0-0.1 c0,0,0,0,0-0.1C29,59.3,29,59.2,29,59.1C29,59.2,29,59.1,29,59.1"/><path class="st5" d="M29,59.4l29-5.9c0,0,0,0,0,0c0,0,0,0,0,0c0,0,0,0,0,0c0,0,0,0,0,0l-29,5.9c0,0,0,0,0,0 C29,59.5,29,59.5,29,59.4C29,59.5,29,59.5,29,59.4C29,59.5,29,59.4,29,59.4"/><path class="st6" d="M29,59.6l29-5.9c0,0,0,0,0,0c0,0,0,0,0,0c0,0,0,0,0,0c0,0,0,0,0,0L29,59.6C29,59.6,29,59.6,29,59.6 C29,59.6,29,59.6,29,59.6C29,59.6,29,59.6,29,59.6C29,59.6,29,59.6,29,59.6"/><polyline class="st7" points="29,59.6 58.1,53.7 58.1,53.8 58.1,53.8 58.1,53.8 58.1,53.8 29,59.7 29,59.7 29,59.7 29,59.6 29,59.6"/><polyline class="st8" points="29,59.7 58.1,53.8 58.1,53.8 58.1,53.8 58.1,53.8 58.1,53.8 29.1,59.7 29.1,59.7 29,59.7 29,59.7 29,59.7"/><polyline class="st9" points="29.1,59.7 58.1,53.8 58.1,53.8 58.1,53.8 58.1,53.8 58.1,53.8 29.1,59.7 29.1,59.7 29.1,59.7 29.1,59.7 29.1,59.7"/><polyline class="st8" points="29.1,59.7 58.1,53.8 58.1,53.8 58.1,53.8 58.1,53.8 58.1,53.8 29.1,59.7 29.1,59.7 29.1,59.7 29.1,59.7 29.1,59.7"/><polyline class="st7" points="29.1,59.7 58.1,53.8 58.1,53.8 58.1,53.8 58.1,53.8 58.1,53.8 29.1,59.7 29.1,59.7 29.1,59.7 29.1,59.7 29.1,59.7"/><polyline class="st6" points="29.1,59.7 58.1,53.8 58.1,53.8 58.1,53.8 58.1,53.8 58.1,53.8 29.1,59.7 29.1,59.7 29.1,59.7 29.1,59.7 29.1,59.7"/><polyline class="st5" points="29.1,59.7 58.1,53.8 58.1,53.8 58.1,53.8 58.1,53.8 58.1,53.8 29.1,59.7 29.1,59.7 29.1,59.7 29.1,59.7 29.1,59.7"/><polyline class="st4" points="29.1,59.7 58.1,53.8 58.1,53.8 58.1,53.8 58.1,53.8 58.1,53.8 29.1,59.7 29.1,59.7 29.1,59.7 29.1,59.7 29.1,59.7"/><polyline class="st3" points="29.1,59.7 58.1,53.8 58.1,53.8 58.1,53.8 58.1,53.8 58.1,53.8 29.1,59.7 29.1,59.7 29.1,59.7 29.1,59.7 29.1,59.7"/></g></g><g class="st1"><defs><path id="SVGID_3_" class="st1" d="M58.1,53.1C58.1,53.1,58.1,53.1,58.1,53.1C58.1,53.2,58.1,53.2,58.1,53.1c0,0.1,0,0.1,0,0.1 c0,0,0,0,0,0l-29,5.8c0,0,0,0,0,0c0,0,0,0,0,0c0,0,0,0,0,0c0,0,0,0,0,0c0,0,0-0.1,0-0.1c0,0,0-0.1,0-0.1c0,0,0-0.1,0-0.1 c0,0,0-0.1,0-0.1c9.7-1.9,19.4-3.8,29.1-5.8c0,0,0,0.1,0,0.1c0,0,0,0.1,0,0.1c0,0,0,0.1,0,0.1C58.1,53,58.1,53.1,58.1,53.1z"/></defs><clipPath id="SVGID_4_"><use xlink:href="#SVGID_3_" overflow="visible"/></clipPath><g class="st10"><path class="st11" d="M29,58.4l29.1-5.8c0,0,0,0,0,0c0,0,0,0,0,0c0,0,0,0,0,0c0,0,0,0,0,0L29,58.6c0,0,0,0,0-0.1c0,0,0,0,0-0.1 C29,58.5,29,58.4,29,58.4C29,58.4,29,58.4,29,58.4"/><path class="st3" d="M29,58.6l29.1-5.8c0,0,0,0.1,0,0.1c0,0,0,0,0,0.1c0,0,0,0,0,0.1c0,0,0,0,0,0.1c0,0,0,0,0,0c0,0,0,0,0,0 c0,0,0,0,0,0c0,0,0,0,0,0l-29,5.8c0,0,0,0,0,0c0,0,0,0,0,0c0,0,0,0,0,0c0,0,0,0,0,0c0,0,0-0.1,0-0.1c0,0,0-0.1,0-0.1 C29,58.7,29,58.7,29,58.6C29,58.6,29,58.6,29,58.6"/></g></g><g class="st1"><defs><path id="SVGID_5_" class="st1" d="M58.1,52.6L58.1,52.6L58.1,52.6L58.1,52.6L58.1,52.6c-9.7,1.9-19.4,3.8-29.1,5.8v0l0,0l0,0 l0,0C37.8,56.6,49.4,54.3,58.1,52.6z"/></defs><clipPath id="SVGID_6_"><use xlink:href="#SVGID_5_" overflow="visible"/></clipPath><g class="st12"><path class="st11" d="M29,58.4l29.1-5.8c0,0,0,0,0,0c0,0,0,0,0,0c0,0,0,0,0,0c0,0,0,0,0,0L29,58.6c0,0,0,0,0-0.1c0,0,0,0,0-0.1 C29,58.5,29,58.4,29,58.4C29,58.4,29,58.4,29,58.4"/></g></g><g><polygon class="st4" points="29.1,58.2 58.1,52.5 58.1,52.6 29,58.4"/></g><g><polygon class="st4" points="29.1,57.7 58.1,52 58.1,52.5 29.1,58.2"/></g><g><polygon class="st4" points="29.1,57.5 58.2,51.8 58.1,52 29.1,57.7"/></g><g><polygon class="st4" points="29.1,56.9 58.2,51.3 58.2,51.8 29.1,57.5"/></g><g><polygon class="st4" points="29.2,56.8 58.2,51.2 58.2,51.3 29.1,56.9"/></g><g><polygon class="st4" points="29.2,56.2 58.3,50.7 58.2,51.2 29.2,56.8"/></g><g><polygon class="st4" points="29.2,56 58.3,50.5 58.3,50.7 29.2,56.2"/></g><g class="st1"><defs><path id="SVGID_7_" class="st1" d="M29.1,59.7l29-5.9c0,0,0,0,0.1,0c0,0,0.1,0,0.2,0c0.1,0,0.2,0,0.3,0.1c0.1,0,0.2,0,0.3,0.1 c0,0,0,0,0,0c0,0,0,0,0,0c0,0,0,0,0,0c0,0,0,0,0,0l-29,5.9c0,0,0,0,0,0c0,0,0,0,0,0c0,0,0,0,0,0c0,0,0,0,0,0 c-0.1,0-0.2,0-0.3-0.1c-0.1,0-0.2,0-0.3-0.1c-0.1,0-0.1,0-0.2-0.1C29.1,59.7,29.1,59.7,29.1,59.7z"/></defs><clipPath id="SVGID_8_"><use xlink:href="#SVGID_7_" overflow="visible"/></clipPath><g class="st13"><polyline class="st3" points="29.1,59.7 58.1,53.8 58.1,53.8 58.1,53.8 58.1,53.8 58.1,53.8 29.1,59.7 29.1,59.7 29.1,59.7 29.1,59.7 29.1,59.7"/><polyline class="st11" points="29.1,59.7 58.1,53.8 58.1,53.8 58.1,53.8 58.1,53.8 58.1,53.8 29.1,59.7 29.1,59.7 29.1,59.7 29.1,59.7 29.1,59.7"/><polyline class="st14" points="29.1,59.7 58.1,53.8 58.1,53.8 58.1,53.8 58.1,53.8 58.1,53.8 29.1,59.7 29.1,59.7 29.1,59.7 29.1,59.7 29.1,59.7"/><polyline class="st15" points="29.1,59.7 58.1,53.8 58.1,53.8 58.1,53.8 58.1,53.8 58.1,53.8 29.1,59.7 29.1,59.7 29.1,59.7 29.1,59.7 29.1,59.7"/><polyline class="st16" points="29.1,59.7 58.1,53.8 58.1,53.8 58.1,53.8 58.1,53.8 58.2,53.8 29.1,59.7 29.1,59.7 29.1,59.7 29.1,59.7 29.1,59.7"/><path class="st17" d="M29.1,59.7l29-5.9c0,0,0,0,0,0c0,0,0,0,0,0c0,0,0,0,0,0c0,0,0,0,0,0L29.1,59.7 C29.2,59.8,29.2,59.8,29.1,59.7C29.2,59.8,29.2,59.8,29.1,59.7C29.1,59.8,29.1,59.7,29.1,59.7C29.1,59.7,29.1,59.7,29.1,59.7"/><path class="st18" d="M29.2,59.8l29-5.9c0,0,0,0,0.1,0c0,0,0.1,0,0.1,0c0,0,0.1,0,0.1,0c0,0,0.1,0,0.1,0l-29,5.9 c0,0-0.1,0-0.1,0c0,0-0.1,0-0.1,0C29.3,59.8,29.3,59.8,29.2,59.8C29.3,59.8,29.2,59.8,29.2,59.8"/><path class="st19" d="M29.6,59.9l29-5.9c0,0,0.1,0,0.1,0c0,0,0.1,0,0.1,0c0,0,0.1,0,0.1,0c0,0,0.1,0,0.1,0c0,0,0,0,0,0 c0,0,0,0,0,0c0,0,0,0,0,0c0,0,0,0,0,0l-29,5.9c0,0,0,0,0,0c0,0,0,0,0,0c0,0,0,0,0,0c0,0,0,0,0,0c0,0-0.1,0-0.1,0 c0,0-0.1,0-0.1,0C29.8,59.9,29.7,59.9,29.6,59.9C29.7,59.9,29.6,59.9,29.6,59.9"/></g></g><g class="st1"><defs><path id="SVGID_9_" class="st1" d="M28.4,52.9l29.1-5.2c0,0,0,0,0.1,0c0,0,0,0,0.1,0s0,0,0.1,0s0,0,0.1,0l-29.1,5.2 c0,0,0,0-0.1,0s0,0-0.1,0C28.5,52.9,28.5,52.9,28.4,52.9C28.5,52.9,28.4,52.9,28.4,52.9z"/></defs><clipPath id="SVGID_10_"><use xlink:href="#SVGID_9_" overflow="visible"/></clipPath><g class="st20"><polyline class="st21" points="28.4,52.9 57.6,47.8 57.6,47.8 57.6,47.8 57.6,47.8 57.6,47.8 28.4,52.9 28.4,52.9 28.4,52.9 28.4,52.9 28.4,52.9"/><path class="st22" d="M28.4,52.9l29.1-5.2c0,0,0,0,0,0c0,0,0,0,0,0c0,0,0,0,0,0c0,0,0,0,0,0L28.4,52.9 C28.5,52.9,28.5,52.9,28.4,52.9C28.5,52.9,28.5,52.9,28.4,52.9C28.4,52.9,28.4,52.9,28.4,52.9C28.4,52.9,28.4,52.9,28.4,52.9"/><path class="st23" d="M28.5,52.9l29.1-5.2c0,0,0,0,0,0c0,0,0,0,0,0c0,0,0,0,0,0c0,0,0,0,0,0L28.5,52.9 C28.5,52.9,28.5,52.9,28.5,52.9C28.5,52.9,28.5,52.9,28.5,52.9C28.5,52.9,28.5,52.9,28.5,52.9C28.5,52.9,28.5,52.9,28.5,52.9"/><path class="st24" d="M28.6,52.9l29.1-5.2c0,0,0,0,0,0c0,0,0,0,0,0c0,0,0,0,0,0c0,0,0,0,0,0L28.6,52.9 C28.6,52.9,28.6,52.9,28.6,52.9C28.6,52.9,28.6,52.9,28.6,52.9C28.6,52.9,28.6,52.9,28.6,52.9C28.6,52.9,28.6,52.9,28.6,52.9"/><path class="st25" d="M28.6,52.9l29.1-5.2c0,0,0,0,0,0c0,0,0,0,0,0c0,0,0,0,0,0c0,0,0,0,0,0L28.6,52.9 C28.7,52.9,28.7,52.9,28.6,52.9C28.6,52.9,28.6,52.9,28.6,52.9C28.6,52.9,28.6,52.9,28.6,52.9C28.6,52.9,28.6,52.9,28.6,52.9"/><polyline class="st19" points="28.7,52.9 57.8,47.8 57.8,47.8 57.8,47.8 57.8,47.8 57.8,47.8 28.7,52.9 28.7,52.9 28.7,52.9 28.7,52.9 28.7,52.9"/></g></g><g class="st1"><defs><path id="SVGID_11_" class="st1" d="M29.2,55.5L58.3,50c0,0,0,0.1,0,0.1c0,0,0,0.1,0,0.1c0,0,0,0.1,0,0.1c0,0,0,0.1,0,0.1 L29.2,56c0,0,0-0.1,0-0.1c0,0,0-0.1,0-0.1c0,0,0-0.1,0-0.1C29.2,55.6,29.2,55.5,29.2,55.5z"/></defs><clipPath id="SVGID_12_"><use xlink:href="#SVGID_11_" overflow="visible"/></clipPath><g class="st26"><path class="st11" d="M29.2,55.5L58.3,50c0,0,0,0.1,0,0.1c0,0,0,0.1,0,0.1c0,0,0,0.1,0,0.1c0,0,0,0.1,0,0.1L29.2,56 c0,0,0-0.1,0-0.1c0,0,0-0.1,0-0.1c0,0,0-0.1,0-0.1C29.2,55.6,29.2,55.5,29.2,55.5"/></g></g><g class="st1"><defs><path id="SVGID_13_" class="st1" d="M29.3,54.8l29.1-5.4c0,0,0,0,0,0.1c0,0,0,0.1,0,0.1c0,0,0,0.1,0,0.1c0,0.1,0,0.1,0,0.2 c0,0,0,0,0,0c0,0,0,0,0,0c0,0,0,0,0,0c0,0,0,0,0,0l-29.1,5.5c0,0,0,0,0,0c0,0,0,0,0,0c0,0,0,0,0,0c0,0,0,0,0,0 c0-0.1,0-0.1,0-0.2c0-0.1,0-0.1,0-0.2C29.3,54.9,29.3,54.9,29.3,54.8C29.3,54.8,29.3,54.8,29.3,54.8z"/></defs><clipPath id="SVGID_14_"><use xlink:href="#SVGID_13_" overflow="visible"/></clipPath><g class="st27"><polyline class="st23" points="29.3,54.8 58.4,49.4 58.4,49.4 58.4,49.4 58.4,49.4 58.4,49.4 29.3,54.8 29.3,54.8 29.3,54.8 29.3,54.8 29.3,54.8"/><polyline class="st24" points="29.3,54.8 58.4,49.4 58.4,49.4 58.4,49.4 58.4,49.4 58.4,49.4 29.3,54.8 29.3,54.8 29.3,54.8 29.3,54.8 29.3,54.8"/><polyline class="st25" points="29.3,54.8 58.4,49.4 58.4,49.4 58.4,49.4 58.4,49.4 58.4,49.4 29.3,54.8 29.3,54.8 29.3,54.8 29.3,54.8 29.3,54.8"/><polyline class="st19" points="29.3,54.8 58.4,49.4 58.4,49.4 58.4,49.4 58.4,49.4 58.4,49.4 29.3,54.8 29.3,54.8 29.3,54.8 29.3,54.8 29.3,54.8"/><polyline class="st18" points="29.3,54.8 58.4,49.4 58.4,49.4 58.4,49.4 58.4,49.4 58.4,49.4 29.3,54.8 29.3,54.8 29.3,54.8 29.3,54.8 29.3,54.8"/><polyline class="st17" points="29.3,54.8 58.4,49.4 58.4,49.4 58.4,49.4 58.4,49.4 58.4,49.4 29.3,54.8 29.3,54.8 29.3,54.8 29.3,54.8 29.3,54.8"/><polyline class="st16" points="29.3,54.8 58.4,49.4 58.4,49.4 58.4,49.5 58.4,49.5 58.4,49.5 29.3,54.9 29.3,54.9 29.3,54.8 29.3,54.8 29.3,54.8"/><path class="st15" d="M29.3,54.9l29.1-5.4c0,0,0,0,0,0c0,0,0,0,0,0c0,0,0,0,0,0c0,0,0,0,0,0L29.3,55 C29.3,55,29.3,54.9,29.3,54.9C29.3,54.9,29.3,54.9,29.3,54.9C29.3,54.9,29.3,54.9,29.3,54.9C29.3,54.9,29.3,54.9,29.3,54.9"/><path class="st14" d="M29.3,55l29.1-5.4c0,0,0,0,0,0.1c0,0,0,0,0,0.1c0,0,0,0.1,0,0.1c0,0,0,0.1,0,0.1c0,0,0,0,0,0c0,0,0,0,0,0 c0,0,0,0,0,0c0,0,0,0,0,0l-29.1,5.4c0,0,0,0,0,0c0,0,0,0,0,0c0,0,0,0,0,0c0,0,0,0,0,0c0,0,0-0.1,0-0.1c0,0,0-0.1,0-0.1 C29.3,55.1,29.3,55.1,29.3,55C29.3,55,29.3,55,29.3,55"/><path class="st11" d="M29.3,55.4l29.1-5.4c0,0,0,0,0,0c0,0,0,0,0,0c0,0,0,0,0,0c0,0,0,0,0,0l-29.1,5.5 C29.2,55.5,29.2,55.5,29.3,55.4C29.3,55.5,29.3,55.4,29.3,55.4C29.3,55.4,29.3,55.4,29.3,55.4C29.3,55.4,29.3,55.4,29.3,55.4"/></g></g><g class="st1"><defs><path id="SVGID_15_" class="st1" d="M29.4,54.8l29.1-5.4c0,0,0,0,0,0c0,0,0,0,0,0c0,0,0,0,0,0c0,0,0,0,0,0L29.4,54.8 C29.3,54.8,29.3,54.8,29.4,54.8C29.3,54.8,29.4,54.8,29.4,54.8C29.4,54.8,29.4,54.8,29.4,54.8C29.4,54.8,29.4,54.8,29.4,54.8z"/></defs><clipPath id="SVGID_16_"><use xlink:href="#SVGID_15_" overflow="visible"/></clipPath><g class="st28"><path class="st29" d="M29.4,54.8l29.1-5.4c0,0,0,0,0,0c0,0,0,0,0,0s0,0,0,0c0,0,0,0,0,0L29.4,54.8 C29.3,54.8,29.4,54.8,29.4,54.8C29.4,54.8,29.4,54.8,29.4,54.8C29.4,54.8,29.4,54.8,29.4,54.8C29.4,54.8,29.4,54.8,29.4,54.8"/><polyline class="st21" points="29.3,54.8 58.4,49.4 58.4,49.4 58.4,49.4 58.4,49.4 58.4,49.4 29.3,54.8 29.3,54.8 29.3,54.8 29.3,54.8 29.3,54.8"/><polyline class="st22" points="29.3,54.8 58.4,49.4 58.4,49.4 58.4,49.4 58.4,49.4 58.4,49.4 29.3,54.8 29.3,54.8 29.3,54.8 29.3,54.8 29.3,54.8"/><polyline class="st23" points="29.3,54.8 58.4,49.4 58.4,49.4 58.4,49.4 58.4,49.4 58.4,49.4 29.3,54.8 29.3,54.8 29.3,54.8 29.3,54.8 29.3,54.8"/><polyline class="st24" points="29.3,54.8 58.4,49.4 58.4,49.4 58.4,49.4 58.4,49.4 58.4,49.4 29.3,54.8 29.3,54.8 29.3,54.8 29.3,54.8 29.3,54.8"/></g></g><g class="st1"><defs><path id="SVGID_17_" class="st1" d="M58.4,49.4c0,0,0.1,0,0.1,0c0.1,0,0.1,0,0.2,0c0.1,0,0.2,0,0.3,0c0.1,0,0.2,0,0.3,0l-29,5.4 c-0.1,0-0.2,0-0.3-0.1c-0.1,0-0.2,0-0.3,0c-0.1,0-0.2,0-0.2,0c-0.1,0-0.1,0-0.2,0C38.1,53.2,49.7,51,58.4,49.4z"/></defs><clipPath id="SVGID_18_"><use xlink:href="#SVGID_17_" overflow="visible"/></clipPath><g class="st30"><polyline class="st31" points="29.4,54.8 58.4,49.4 58.4,49.4 58.4,49.4 58.4,49.4 58.4,49.4 29.4,54.8 29.4,54.8 29.4,54.8 29.4,54.8 29.4,54.8"/><polyline class="st32" points="29.4,54.8 58.4,49.4 58.5,49.4 58.5,49.4 58.5,49.4 58.5,49.4 29.4,54.8 29.4,54.8 29.4,54.8 29.4,54.8 29.4,54.8"/><path class="st33" d="M29.4,54.8l29.1-5.4c0,0,0,0,0,0c0,0,0,0,0,0c0,0,0,0,0,0c0,0,0,0,0,0L29.4,54.8 C29.5,54.8,29.5,54.8,29.4,54.8C29.5,54.8,29.5,54.8,29.4,54.8C29.5,54.8,29.5,54.8,29.4,54.8C29.4,54.8,29.4,54.8,29.4,54.8"/><path class="st34" d="M29.5,54.8l29.1-5.4c0,0,0,0,0,0c0,0,0,0,0,0c0,0,0,0,0.1,0c0,0,0,0,0.1,0l-29,5.4c0,0,0,0-0.1,0 C29.6,54.8,29.6,54.8,29.5,54.8C29.6,54.8,29.6,54.8,29.5,54.8C29.5,54.8,29.5,54.8,29.5,54.8"/><path class="st35" d="M29.7,54.8l29-5.4c0,0,0.1,0,0.1,0c0,0,0.1,0,0.1,0c0,0,0.1,0,0.1,0c0,0,0.1,0,0.1,0l-29,5.4 c0,0-0.1,0-0.1,0c0,0-0.1,0-0.1,0c0,0-0.1,0-0.1,0C29.8,54.8,29.8,54.8,29.7,54.8"/><path class="st36" d="M30.2,54.8l29-5.4c0,0,0,0,0,0c0,0,0,0,0,0c0,0,0,0,0,0c0,0,0,0,0,0l-29,5.4c0,0,0,0,0,0 C30.3,54.9,30.3,54.9,30.2,54.8C30.3,54.9,30.3,54.8,30.2,54.8C30.2,54.8,30.2,54.8,30.2,54.8"/></g></g><g><polygon class="st19" points="30.1,60 59.1,54 82.6,58.4 55.4,65.1"/></g><g><polygon class="st37" points="29,59.1 58.1,53.3 82.6,57.8 55.4,64.4"/></g><g><polygon class="st38" points="29,58.9 58.1,53.1 82.6,57.6 55.4,64.2"/></g><g><polygon class="st39" points="29,58.4 58.1,52.6 82.7,57.1 55.5,63.6"/></g><g><polygon class="st40" points="29.1,58.2 58.1,52.5 82.7,56.9 55.5,63.4"/></g><g><polygon class="st39" points="29.1,57.7 58.1,52 82.7,56.4 55.5,62.9"/></g><g><polygon class="st41" points="29.1,57.5 58.2,51.8 82.8,56.3 55.6,62.7"/></g><g><polygon class="st39" points="29.1,56.9 58.2,51.3 82.8,55.8 55.6,62.1"/></g><g><polygon class="st41" points="29.2,56.8 58.2,51.2 82.8,55.6 55.6,61.9"/></g><g><polygon class="st39" points="29.2,56.2 58.3,50.7 82.9,55.1 55.7,61.4"/></g><g><polygon class="st41" points="29.2,56 58.3,50.5 82.9,54.9 55.7,61.2"/></g><g><polygon class="st42" points="29.2,55.5 58.3,50 82.9,54.4 55.7,60.6"/></g><g><polygon class="st41" points="29.3,55.3 58.3,49.9 82.9,54.2 55.7,60.4"/></g><g><polygon class="st43" points="30.4,54.9 59.4,49.5 74.9,52.2 47,58.1"/></g><g><path class="st40" d="M55.4,64.2l0,0.2L29,59.1c0,0,0,0,0,0c0,0,0,0,0,0c0,0,0,0,0,0c0,0,0,0,0,0L55.4,64.2z"/></g><g><polygon class="st44" points="55.4,64.2 82.6,57.6 82.6,57.8 55.4,64.4"/></g><g><polygon class="st19" points="55.4,65.1 82.6,58.4 83,58.4 55.8,65.1"/></g><g><polygon class="st45" points="55.5,63.4 82.7,56.9 82.7,57.1 55.5,63.6"/></g><g><polygon class="st40" points="55.5,63.4 55.5,63.6 29,58.4 29.1,58.2"/></g><g><polygon class="st40" points="55.6,62.7 55.5,62.9 29.1,57.7 29.1,57.5"/></g><g><polygon class="st45" points="55.6,62.7 82.8,56.3 82.7,56.4 55.5,62.9"/></g><g><polygon class="st40" points="55.6,61.9 55.6,62.1 29.1,56.9 29.2,56.8"/></g><g><polygon class="st46" points="55.6,61.9 82.8,55.6 82.8,55.8 55.6,62.1"/></g><g><polygon class="st40" points="55.7,61.2 55.7,61.4 29.2,56.2 29.2,56"/></g><g><polygon class="st45" points="55.7,61.2 82.9,54.9 82.9,55.1 55.7,61.4"/></g><g class="st1"><defs><path id="SVGID_19_" class="st1" d="M83.4,59.9l-27.1,6.9c0.1,0,0.2,0,0.2-0.1c0.1,0,0.1-0.1,0.2-0.1c0-0.1,0.1-0.1,0.1-0.2 c0-0.1,0-0.1,0.1-0.2c0-0.1,0-0.2-0.1-0.3c0-0.1-0.1-0.2-0.2-0.3c-0.1-0.1-0.2-0.2-0.3-0.2c-0.1-0.1-0.3-0.1-0.4-0.1L83,58.4 c0.1,0,0.3,0.1,0.4,0.1c0.1,0.1,0.2,0.1,0.3,0.2c0.1,0.1,0.1,0.2,0.2,0.3c0,0.1,0.1,0.2,0,0.3c0,0.1,0,0.1-0.1,0.2 c0,0.1-0.1,0.1-0.1,0.2c0,0-0.1,0.1-0.2,0.1C83.5,59.8,83.4,59.9,83.4,59.9z"/></defs><use xlink:href="#SVGID_19_" overflow="visible" fill="#EBAB20"/><clipPath id="SVGID_20_"><use xlink:href="#SVGID_19_" overflow="visible"/></clipPath><g class="st47"><polyline class="st48" points="55.8,65.1 83,58.4 83,58.4 83,58.4 83,58.4 83,58.4 55.9,65.2 55.9,65.2 55.9,65.1 55.9,65.1 55.8,65.1"/><path class="st48" d="M55.9,65.2L83,58.4c0,0,0,0,0,0c0,0,0,0,0,0c0,0,0,0,0,0c0,0,0,0,0,0L55.9,65.2 C56,65.2,55.9,65.2,55.9,65.2C55.9,65.2,55.9,65.2,55.9,65.2C55.9,65.2,55.9,65.2,55.9,65.2C55.9,65.2,55.9,65.2,55.9,65.2"/><path class="st48" d="M56,65.2l27.2-6.7c0,0,0,0,0,0c0,0,0,0,0,0c0,0,0,0,0,0c0,0,0,0,0,0L56,65.2C56,65.2,56,65.2,56,65.2 C56,65.2,56,65.2,56,65.2C56,65.2,56,65.2,56,65.2C56,65.2,56,65.2,56,65.2"/><path class="st48" d="M56,65.2l27.1-6.7c0,0,0,0,0,0c0,0,0,0,0,0c0,0,0,0,0,0c0,0,0,0,0,0L56,65.2C56.1,65.2,56.1,65.2,56,65.2 C56.1,65.2,56.1,65.2,56,65.2C56.1,65.2,56.1,65.2,56,65.2C56,65.2,56,65.2,56,65.2"/><path class="st48" d="M56.1,65.2l27.1-6.7c0,0,0,0,0,0c0,0,0,0,0,0c0,0,0,0,0,0c0,0,0,0,0,0L56.1,65.2 C56.2,65.3,56.2,65.3,56.1,65.2C56.2,65.2,56.1,65.2,56.1,65.2C56.1,65.2,56.1,65.2,56.1,65.2C56.1,65.2,56.1,65.2,56.1,65.2"/><path class="st48" d="M56.2,65.3l27.1-6.7c0,0,0,0,0,0c0,0,0,0,0,0c0,0,0,0,0,0c0,0,0,0,0,0L56.2,65.3 C56.2,65.3,56.2,65.3,56.2,65.3C56.2,65.3,56.2,65.3,56.2,65.3C56.2,65.3,56.2,65.3,56.2,65.3C56.2,65.3,56.2,65.3,56.2,65.3"/><path class="st48" d="M56.2,65.3l27.1-6.7c0,0,0,0,0,0c0,0,0,0,0,0c0,0,0,0,0,0c0,0,0,0,0,0L56.2,65.3 C56.3,65.3,56.3,65.3,56.2,65.3C56.3,65.3,56.3,65.3,56.2,65.3C56.3,65.3,56.3,65.3,56.2,65.3C56.3,65.3,56.2,65.3,56.2,65.3"/><path class="st48" d="M56.3,65.3l27.1-6.7c0,0,0,0,0,0c0,0,0,0,0,0c0,0,0,0,0,0c0,0,0,0,0,0L56.3,65.3 C56.4,65.4,56.4,65.4,56.3,65.3C56.4,65.4,56.3,65.4,56.3,65.3C56.3,65.3,56.3,65.3,56.3,65.3C56.3,65.3,56.3,65.3,56.3,65.3"/><path class="st48" d="M56.4,65.4l27.1-6.7c0,0,0,0,0,0c0,0,0,0,0,0s0,0,0,0c0,0,0,0,0,0L56.4,65.4 C56.4,65.4,56.4,65.4,56.4,65.4C56.4,65.4,56.4,65.4,56.4,65.4C56.4,65.4,56.4,65.4,56.4,65.4C56.4,65.4,56.4,65.4,56.4,65.4"/><path class="st48" d="M56.4,65.4l27.1-6.7c0,0,0,0,0,0c0,0,0,0,0,0c0,0,0,0,0,0c0,0,0,0,0,0L56.4,65.4 C56.5,65.5,56.5,65.5,56.4,65.4C56.5,65.5,56.5,65.5,56.4,65.4C56.5,65.4,56.5,65.4,56.4,65.4C56.4,65.4,56.4,65.4,56.4,65.4"/><path class="st48" d="M56.5,65.5l27.1-6.7c0,0,0,0,0,0c0,0,0,0,0,0c0,0,0,0,0,0c0,0,0,0,0,0L56.5,65.5 C56.5,65.5,56.5,65.5,56.5,65.5C56.5,65.5,56.5,65.5,56.5,65.5C56.5,65.5,56.5,65.5,56.5,65.5C56.5,65.5,56.5,65.5,56.5,65.5"/><path class="st48" d="M56.6,65.5l27.1-6.8c0,0,0,0,0,0c0,0,0,0,0,0c0,0,0,0,0,0c0,0,0,0,0,0L56.6,65.5 C56.6,65.6,56.6,65.6,56.6,65.5C56.6,65.6,56.6,65.6,56.6,65.5C56.6,65.6,56.6,65.6,56.6,65.5C56.6,65.5,56.6,65.5,56.6,65.5"/><path class="st48" d="M56.6,65.6l27.1-6.8c0,0,0,0,0,0c0,0,0,0,0,0c0,0,0,0,0,0s0,0,0,0l-27.1,6.8 C56.7,65.7,56.7,65.7,56.6,65.6C56.7,65.7,56.7,65.7,56.6,65.6C56.7,65.7,56.6,65.6,56.6,65.6C56.6,65.6,56.6,65.6,56.6,65.6"/><path class="st48" d="M56.7,65.7L83.8,59c0,0,0,0,0,0c0,0,0,0,0,0c0,0,0,0,0,0c0,0,0,0,0,0l-27.1,6.8 C56.7,65.8,56.7,65.8,56.7,65.7C56.7,65.8,56.7,65.8,56.7,65.7C56.7,65.8,56.7,65.8,56.7,65.7C56.7,65.8,56.7,65.7,56.7,65.7"/><path class="st48" d="M56.7,65.8L83.8,59c0,0,0,0,0,0c0,0,0,0,0,0c0,0,0,0,0,0c0,0,0,0,0,0l-27.1,6.8 C56.8,65.9,56.8,65.9,56.7,65.8C56.8,65.9,56.8,65.9,56.7,65.8C56.8,65.9,56.8,65.9,56.7,65.8C56.8,65.9,56.8,65.8,56.7,65.8"/><path class="st48" d="M56.8,65.9l27.1-6.8c0,0,0,0,0,0c0,0,0,0,0,0c0,0,0,0,0,0c0,0,0,0,0,0L56.8,65.9 C56.8,66,56.8,66,56.8,65.9C56.8,66,56.8,66,56.8,65.9C56.8,66,56.8,66,56.8,65.9C56.8,65.9,56.8,65.9,56.8,65.9"/><polyline class="st48" points="56.8,66 83.9,59.2 83.9,59.2 83.9,59.2 83.9,59.2 83.9,59.2 56.8,66 56.8,66 56.8,66 56.8,66 56.8,66"/><polyline class="st48" points="56.8,66 83.9,59.2 83.9,59.2 83.9,59.3 83.9,59.3 83.9,59.3 56.8,66.1 56.8,66.1 56.8,66.1 56.8,66.1 56.8,66"/><polyline class="st48" points="56.8,66.1 83.9,59.3 83.9,59.3 83.9,59.3 83.9,59.3 83.9,59.3 56.8,66.1 56.8,66.1 56.8,66.1 56.8,66.1 56.8,66.1"/><polyline class="st48" points="56.8,66.1 83.9,59.3 83.9,59.3 83.9,59.3 83.9,59.3 83.9,59.3 56.8,66.2 56.8,66.1 56.8,66.1 56.8,66.1 56.8,66.1"/><polyline class="st48" points="56.8,66.2 83.9,59.3 83.9,59.3 83.9,59.3 83.9,59.3 83.9,59.3 83.9,59.3 83.9,59.3 83.9,59.4 83.9,59.4 56.8,66.2 56.8,66.2 56.8,66.2 56.8,66.2 56.8,66.2 56.8,66.2 56.8,66.2 56.8,66.2 56.8,66.2"/><polyline class="st48" points="56.8,66.2 83.9,59.4 83.9,59.4 83.9,59.4 83.9,59.4 83.9,59.4 56.8,66.2 56.8,66.2 56.8,66.2 56.8,66.2 56.8,66.2"/><polyline class="st48" points="56.8,66.2 83.9,59.4 83.9,59.4 83.9,59.4 83.9,59.4 83.9,59.4 56.8,66.2 56.8,66.2 56.8,66.2 56.8,66.2 56.8,66.2"/><polyline class="st48" points="56.8,66.2 83.9,59.4 83.9,59.4 83.9,59.4 83.9,59.4 83.9,59.4 56.8,66.3 56.8,66.3 56.8,66.3 56.8,66.3 56.8,66.2"/><polyline class="st48" points="56.8,66.3 83.9,59.4 83.9,59.4 83.9,59.4 83.9,59.5 83.9,59.5 56.8,66.3 56.8,66.3 56.8,66.3 56.8,66.3 56.8,66.3"/><polyline class="st48" points="56.8,66.3 83.9,59.5 83.9,59.5 83.9,59.5 83.9,59.5 83.9,59.5 56.8,66.3 56.8,66.3 56.8,66.3 56.8,66.3 56.8,66.3"/><polyline class="st48" points="56.8,66.3 83.9,59.5 83.8,59.5 83.8,59.5 83.8,59.5 83.8,59.5 56.8,66.4 56.8,66.4 56.8,66.3 56.8,66.3 56.8,66.3"/><polyline class="st48" points="56.8,66.4 83.8,59.5 83.8,59.5 83.8,59.5 83.8,59.5 83.8,59.5 56.7,66.4 56.7,66.4 56.7,66.4 56.7,66.4 56.8,66.4"/><polyline class="st48" points="56.7,66.4 83.8,59.5 83.8,59.6 83.8,59.6 83.8,59.6 83.8,59.6 56.7,66.4 56.7,66.4 56.7,66.4 56.7,66.4 56.7,66.4"/><polyline class="st48" points="56.7,66.4 83.8,59.6 83.8,59.6 83.8,59.6 83.8,59.6 83.8,59.6 56.7,66.5 56.7,66.5 56.7,66.4 56.7,66.4 56.7,66.4"/><polyline class="st48" points="56.7,66.5 83.8,59.6 83.8,59.6 83.8,59.6 83.8,59.6 83.8,59.6 56.7,66.5 56.7,66.5 56.7,66.5 56.7,66.5 56.7,66.5"/><path class="st48" d="M56.7,66.5l27.1-6.9c0,0,0,0,0,0c0,0,0,0,0,0c0,0,0,0,0,0c0,0,0,0,0,0L56.7,66.5 C56.6,66.6,56.6,66.5,56.7,66.5C56.6,66.5,56.6,66.5,56.7,66.5C56.6,66.5,56.7,66.5,56.7,66.5C56.7,66.5,56.7,66.5,56.7,66.5"/><path class="st48" d="M56.6,66.6l27.1-6.9c0,0,0,0-0.1,0.1c0,0-0.1,0-0.1,0.1c0,0-0.1,0-0.1,0c0,0-0.1,0-0.1,0l-27.1,6.9 c0,0,0.1,0,0.1,0c0,0,0.1,0,0.1,0C56.5,66.7,56.5,66.6,56.6,66.6C56.6,66.6,56.6,66.6,56.6,66.6"/></g></g><g><polygon class="st45" points="55.7,60.4 82.9,54.2 82.9,54.4 55.7,60.6"/></g><g><path class="st40" d="M55.7,60.4l0,0.2l-26.5-5.1c0,0,0,0,0,0c0,0,0,0,0,0c0,0,0,0,0,0c0,0,0,0,0,0L55.7,60.4z"/></g><g><polygon class="st49" points="55.8,59.8 83,53.6 82.6,58.4 55.4,65.1"/></g><g><path class="st50" d="M55.8,59.8l-0.4,5.3L30.1,60c0,0,0,0,0,0c0,0,0,0,0,0c0,0,0,0,0,0c0,0,0,0,0,0c-0.1,0-0.2,0-0.3-0.1 c-0.1,0-0.2,0-0.3-0.1c-0.1,0-0.1,0-0.2-0.1c-0.1,0-0.1,0-0.1,0c0,0,0,0,0-0.1c0,0,0-0.1,0-0.1c0-0.1,0-0.1,0-0.2 c0-0.1,0-0.1,0-0.2l26.4,5.3l0-0.2L29,58.9c0,0,0-0.1,0-0.1c0,0,0-0.1,0-0.1c0,0,0-0.1,0-0.1c0,0,0-0.1,0-0.1l26.4,5.2l0-0.2 l-26.4-5.2l0-0.5l26.4,5.2l0-0.2l-26.5-5.2l0-0.5l26.5,5.2l0-0.2l-26.5-5.2l0-0.5l26.5,5.2l0-0.2L29.2,56c0,0,0-0.1,0-0.1 c0,0,0-0.1,0-0.1s0-0.1,0-0.1c0,0,0-0.1,0-0.1l26.5,5.1l0-0.2l-26.5-5.1c0-0.1,0-0.1,0-0.2c0-0.1,0-0.1,0-0.2c0,0,0-0.1,0-0.1 c0,0,0,0,0-0.1c0,0,0,0,0.1,0c0.1,0,0.1,0,0.2,0c0.1,0,0.2,0,0.3,0c0.1,0,0.2,0,0.4,0.1L47,58.1L55.8,59.8z"/></g><g><polygon class="st43" points="47,58.1 74.9,52.2 83,53.6 55.8,59.8"/></g><g><polygon class="st51" points="28.7,52.9 57.8,47.8 83.6,52.3 56.4,58.2"/></g><g class="st1"><defs><path id="SVGID_21_" class="st1" d="M83.9,53.7l-27.1,6.1c0.1,0,0.2,0,0.2-0.1c0.1,0,0.1-0.1,0.2-0.1c0.1-0.1,0.1-0.1,0.1-0.2 c0-0.1,0.1-0.1,0.1-0.2c0-0.1,0-0.2-0.1-0.3c0-0.1-0.1-0.2-0.2-0.3c-0.1-0.1-0.2-0.2-0.3-0.2c-0.1-0.1-0.3-0.1-0.4-0.1l27.2-6 c0.1,0,0.3,0.1,0.4,0.1c0.1,0.1,0.2,0.1,0.3,0.2c0.1,0.1,0.1,0.2,0.2,0.3c0,0.1,0.1,0.2,0,0.3c0,0.1,0,0.1-0.1,0.2 c0,0.1-0.1,0.1-0.1,0.2c0,0-0.1,0.1-0.2,0.1C84.1,53.7,84,53.7,83.9,53.7z"/></defs><use xlink:href="#SVGID_21_" overflow="visible" fill="#EBAB20"/><clipPath id="SVGID_22_"><use xlink:href="#SVGID_21_" overflow="visible"/></clipPath><g class="st52"><polyline class="st48" points="56.4,58.2 83.6,52.3 83.6,52.3 83.6,52.3 83.6,52.3 83.6,52.3 56.4,58.2 56.4,58.2 56.4,58.2 56.4,58.2 56.4,58.2"/><path class="st48" d="M56.4,58.2l27.2-6c0,0,0,0,0,0c0,0,0,0,0,0c0,0,0,0,0,0c0,0,0,0,0,0L56.4,58.2 C56.5,58.3,56.5,58.3,56.4,58.2C56.5,58.2,56.5,58.2,56.4,58.2C56.5,58.2,56.5,58.2,56.4,58.2C56.5,58.2,56.5,58.2,56.4,58.2"/><path class="st48" d="M56.5,58.3l27.2-6c0,0,0,0,0,0c0,0,0,0,0,0c0,0,0,0,0,0c0,0,0,0,0,0L56.5,58.3 C56.6,58.3,56.6,58.3,56.5,58.3C56.6,58.3,56.6,58.3,56.5,58.3C56.6,58.3,56.6,58.3,56.5,58.3C56.5,58.3,56.5,58.3,56.5,58.3"/><path class="st48" d="M56.6,58.3l27.2-6c0,0,0,0,0,0c0,0,0,0,0,0c0,0,0,0,0,0c0,0,0,0,0,0L56.6,58.3 C56.7,58.3,56.7,58.3,56.6,58.3C56.6,58.3,56.6,58.3,56.6,58.3C56.6,58.3,56.6,58.3,56.6,58.3C56.6,58.3,56.6,58.3,56.6,58.3"/><path class="st48" d="M56.7,58.3l27.2-6c0,0,0,0,0,0c0,0,0,0,0,0c0,0,0,0,0,0c0,0,0,0,0,0L56.7,58.3 C56.7,58.3,56.7,58.3,56.7,58.3C56.7,58.3,56.7,58.3,56.7,58.3C56.7,58.3,56.7,58.3,56.7,58.3C56.7,58.3,56.7,58.3,56.7,58.3"/><path class="st48" d="M56.7,58.3l27.1-6c0,0,0,0,0,0s0,0,0,0c0,0,0,0,0,0c0,0,0,0,0,0L56.7,58.3C56.8,58.4,56.8,58.4,56.7,58.3 C56.8,58.4,56.8,58.4,56.7,58.3C56.8,58.4,56.8,58.3,56.7,58.3C56.8,58.3,56.7,58.3,56.7,58.3"/><path class="st48" d="M56.8,58.4l27.1-6c0,0,0,0,0,0c0,0,0,0,0,0c0,0,0,0,0,0c0,0,0,0,0,0L56.8,58.4 C56.9,58.4,56.9,58.4,56.8,58.4C56.9,58.4,56.8,58.4,56.8,58.4C56.8,58.4,56.8,58.4,56.8,58.4C56.8,58.4,56.8,58.4,56.8,58.4"/><path class="st48" d="M56.9,58.4l27.1-6c0,0,0,0,0,0c0,0,0,0,0,0c0,0,0,0,0,0s0,0,0,0L56.9,58.4C56.9,58.4,56.9,58.4,56.9,58.4 C56.9,58.4,56.9,58.4,56.9,58.4C56.9,58.4,56.9,58.4,56.9,58.4C56.9,58.4,56.9,58.4,56.9,58.4"/><path class="st48" d="M56.9,58.5l27.1-6c0,0,0,0,0,0c0,0,0,0,0,0c0,0,0,0,0,0c0,0,0,0,0,0L56.9,58.5C57,58.5,57,58.5,56.9,58.5 C57,58.5,57,58.5,56.9,58.5C57,58.5,57,58.5,56.9,58.5C56.9,58.5,56.9,58.5,56.9,58.5"/><path class="st48" d="M57,58.5l27.1-6c0,0,0,0,0,0s0,0,0,0c0,0,0,0,0,0s0,0,0,0L57,58.5C57.1,58.5,57,58.5,57,58.5 C57,58.5,57,58.5,57,58.5C57,58.5,57,58.5,57,58.5C57,58.5,57,58.5,57,58.5"/><path class="st48" d="M57.1,58.5l27.1-6c0,0,0,0,0,0c0,0,0,0,0,0c0,0,0,0,0,0c0,0,0,0,0,0L57.1,58.5 C57.1,58.6,57.1,58.6,57.1,58.5C57.1,58.6,57.1,58.6,57.1,58.5C57.1,58.6,57.1,58.6,57.1,58.5C57.1,58.6,57.1,58.6,57.1,58.5"/><path class="st48" d="M57.1,58.6l27.1-6c0,0,0,0,0,0c0,0,0,0,0,0c0,0,0,0,0,0c0,0,0,0,0,0L57.1,58.6 C57.2,58.7,57.2,58.7,57.1,58.6C57.2,58.7,57.2,58.6,57.1,58.6C57.1,58.6,57.1,58.6,57.1,58.6C57.1,58.6,57.1,58.6,57.1,58.6"/><path class="st48" d="M57.2,58.7l27.1-6c0,0,0,0,0,0c0,0,0,0,0,0c0,0,0,0,0,0s0,0,0,0l-27.1,6C57.3,58.8,57.3,58.8,57.2,58.7 C57.2,58.8,57.2,58.8,57.2,58.7C57.2,58.7,57.2,58.7,57.2,58.7C57.2,58.7,57.2,58.7,57.2,58.7"/><path class="st48" d="M57.3,58.8l27.1-6c0,0,0,0,0,0c0,0,0,0,0,0c0,0,0,0,0,0c0,0,0,0,0,0l-27.1,6 C57.3,58.9,57.3,58.9,57.3,58.8C57.3,58.9,57.3,58.9,57.3,58.8C57.3,58.9,57.3,58.8,57.3,58.8C57.3,58.8,57.3,58.8,57.3,58.8"/><path class="st48" d="M57.3,58.9l27.1-6c0,0,0,0,0,0c0,0,0,0,0,0c0,0,0,0,0,0c0,0,0,0,0,0L57.3,59C57.3,59,57.3,59,57.3,58.9 C57.3,59,57.3,59,57.3,58.9C57.3,59,57.3,58.9,57.3,58.9C57.3,58.9,57.3,58.9,57.3,58.9"/><path class="st48" d="M57.3,59L84.4,53c0,0,0,0,0,0c0,0,0,0,0,0c0,0,0,0,0,0c0,0,0,0,0,0L57.3,59C57.4,59.1,57.4,59.1,57.3,59 C57.4,59.1,57.4,59,57.3,59C57.4,59,57.4,59,57.3,59C57.4,59,57.3,59,57.3,59"/><path class="st48" d="M57.4,59.1L84.5,53c0,0,0,0,0,0c0,0,0,0,0,0c0,0,0,0,0,0c0,0,0,0,0,0L57.4,59.1 C57.4,59.1,57.4,59.1,57.4,59.1C57.4,59.1,57.4,59.1,57.4,59.1C57.4,59.1,57.4,59.1,57.4,59.1C57.4,59.1,57.4,59.1,57.4,59.1"/><polyline class="st48" points="57.4,59.1 84.5,53.1 84.5,53.1 84.5,53.1 84.5,53.1 84.5,53.1 57.4,59.2 57.4,59.1 57.4,59.1 57.4,59.1 57.4,59.1"/><polyline class="st48" points="57.4,59.2 84.5,53.1 84.5,53.1 84.5,53.1 84.5,53.1 84.5,53.1 57.4,59.2 57.4,59.2 57.4,59.2 57.4,59.2 57.4,59.2"/><polyline class="st48" points="57.4,59.2 84.5,53.1 84.5,53.1 84.5,53.1 84.5,53.1 84.5,53.1 57.4,59.2 57.4,59.2 57.4,59.2 57.4,59.2 57.4,59.2"/><polyline class="st48" points="57.4,59.2 84.5,53.1 84.5,53.2 84.5,53.2 84.5,53.2 84.5,53.2 84.5,53.2 84.5,53.2 84.5,53.2 84.5,53.2 57.4,59.3 57.4,59.3 57.4,59.3 57.4,59.2 57.4,59.2 57.4,59.2 57.4,59.2 57.4,59.2 57.4,59.2"/><polyline class="st48" points="57.4,59.3 84.5,53.2 84.5,53.2 84.5,53.2 84.5,53.2 84.5,53.2 57.4,59.3 57.4,59.3 57.4,59.3 57.4,59.3 57.4,59.3"/><polyline class="st48" points="57.4,59.3 84.5,53.2 84.5,53.2 84.5,53.2 84.5,53.2 84.5,53.2 57.4,59.3 57.4,59.3 57.4,59.3 57.4,59.3 57.4,59.3"/><polyline class="st48" points="57.4,59.3 84.5,53.2 84.5,53.2 84.5,53.2 84.4,53.2 84.4,53.3 57.3,59.3 57.4,59.3 57.4,59.3 57.4,59.3 57.4,59.3"/><polyline class="st48" points="57.3,59.3 84.4,53.3 84.4,53.3 84.4,53.3 84.4,53.3 84.4,53.3 57.3,59.4 57.3,59.4 57.3,59.4 57.3,59.4 57.3,59.3"/><polyline class="st48" points="57.3,59.4 84.4,53.3 84.4,53.3 84.4,53.3 84.4,53.3 84.4,53.3 57.3,59.4 57.3,59.4 57.3,59.4 57.3,59.4 57.3,59.4"/><polyline class="st48" points="57.3,59.4 84.4,53.3 84.4,53.3 84.4,53.3 84.4,53.3 84.4,53.3 57.3,59.4 57.3,59.4 57.3,59.4 57.3,59.4 57.3,59.4"/><polyline class="st48" points="57.3,59.4 84.4,53.3 84.4,53.3 84.4,53.3 84.4,53.4 84.4,53.4 57.3,59.5 57.3,59.5 57.3,59.5 57.3,59.4 57.3,59.4"/><polyline class="st48" points="57.3,59.5 84.4,53.4 84.4,53.4 84.4,53.4 84.4,53.4 84.4,53.4 57.3,59.5 57.3,59.5 57.3,59.5 57.3,59.5 57.3,59.5"/><polyline class="st48" points="57.3,59.5 84.4,53.4 84.4,53.4 84.4,53.4 84.4,53.4 84.4,53.4 57.3,59.5 57.3,59.5 57.3,59.5 57.3,59.5 57.3,59.5"/><polyline class="st48" points="57.3,59.5 84.4,53.4 84.4,53.4 84.4,53.4 84.3,53.5 84.3,53.5 57.2,59.6 57.2,59.6 57.2,59.6 57.3,59.6 57.3,59.5"/><path class="st48" d="M57.2,59.6l27.1-6.1c0,0,0,0,0,0c0,0,0,0,0,0c0,0,0,0,0,0c0,0,0,0,0,0L57.2,59.6 C57.2,59.6,57.2,59.6,57.2,59.6C57.2,59.6,57.2,59.6,57.2,59.6C57.2,59.6,57.2,59.6,57.2,59.6C57.2,59.6,57.2,59.6,57.2,59.6"/><path class="st48" d="M57.2,59.6l27.1-6.1c0,0-0.1,0-0.1,0.1c0,0-0.1,0-0.1,0.1c0,0-0.1,0-0.1,0c0,0-0.1,0-0.1,0l-27.1,6.1 c0,0,0.1,0,0.1,0c0,0,0.1,0,0.1,0C57,59.8,57.1,59.7,57.2,59.6C57.1,59.7,57.2,59.7,57.2,59.6"/></g></g><g><path class="st48" d="M56.4,58.2c0.1,0,0.3,0.1,0.4,0.1c0.1,0.1,0.2,0.1,0.3,0.2c0.1,0.1,0.2,0.2,0.2,0.3c0,0.1,0.1,0.2,0.1,0.3 c0,0.1,0,0.2-0.1,0.3c-0.1,0.1-0.1,0.2-0.2,0.2c-0.1,0.1-0.2,0.1-0.3,0.1c-0.1,0-0.3,0-0.4,0l-0.5-0.1L47,58.1l-16.6-3.2 c0,0,0,0,0,0c0,0,0,0,0,0c0,0,0,0,0,0c0,0,0,0,0,0c-0.1,0-0.3,0-0.4-0.1c-0.1,0-0.2,0-0.3,0c-0.1,0-0.2,0-0.2,0 c-0.1,0-0.1,0-0.1,0c0,0,0,0,0,0.1c0,0,0,0.1,0,0.1c0,0,0,0.1,0,0.2c0,0.1,0,0.1,0,0.2c0,0,0,0,0,0c0,0,0,0,0,0c0,0,0,0,0,0 c0,0,0,0,0,0c0,0,0,0.1,0,0.1c0,0,0,0.1,0,0.1c0,0,0,0.1,0,0.1c0,0,0,0.1,0,0.1l0,0.2l0,0.5l0,0.2l0,0.5l0,0.2l0,0.5l0,0.2 c0,0,0,0.1,0,0.1c0,0,0,0.1,0,0.1c0,0,0,0.1,0,0.1c0,0,0,0.1,0,0.1c0,0,0,0,0,0c0,0,0,0,0,0c0,0,0,0,0,0c0,0,0,0,0,0 c0,0.1,0,0.2,0,0.2c0,0.1,0,0.1,0,0.2c0,0.1,0,0.1,0,0.1c0,0,0,0.1,0,0.1c0,0,0,0,0.1,0c0.1,0,0.1,0,0.2,0.1c0.1,0,0.2,0,0.3,0.1 c0.1,0,0.2,0,0.3,0.1c0,0,0,0,0,0c0,0,0,0,0,0c0,0,0,0,0,0c0,0,0,0,0,0l25.3,5.1l0.5,0.1c0.1,0,0.3,0.1,0.4,0.1 c0.1,0.1,0.2,0.1,0.3,0.2c0.1,0.1,0.2,0.2,0.2,0.3c0,0.1,0.1,0.2,0.1,0.3c0,0.1,0,0.2-0.1,0.3c-0.1,0.1-0.1,0.2-0.2,0.2 c-0.1,0.1-0.2,0.1-0.3,0.1c-0.1,0-0.3,0-0.4,0l-27.6-5.6c-0.1,0-0.3-0.1-0.4-0.2c-0.1-0.1-0.2-0.2-0.3-0.3 c-0.1-0.1-0.1-0.3-0.2-0.4c0-0.1-0.1-0.3,0-0.5l0.4-6c0-0.2,0-0.3,0.1-0.4c0.1-0.1,0.1-0.2,0.2-0.3c0.1-0.1,0.2-0.2,0.3-0.2 c0.1,0,0.2,0,0.4,0L56.4,58.2z"/></g></g></g><g><g class="st1"><g class="st1"><defs><path id="SVGID_23_" class="st1" d="M29,50.5l29-5.8c0,0.1,0,0.1,0,0.2c0,0.1,0,0.1,0,0.2c0,0,0,0.1,0,0.1c0,0,0,0,0,0.1 l-29,5.9c0,0,0,0,0-0.1c0,0,0-0.1,0-0.1c0-0.1,0-0.1,0-0.2C29,50.7,29,50.6,29,50.5z"/></defs><clipPath id="SVGID_24_"><use xlink:href="#SVGID_23_" overflow="visible"/></clipPath><g class="st53"><polyline class="st54" points="29,50.5 58.1,44.7 58.1,44.7 58.1,44.7 58.1,44.7 58.1,44.7 29,50.5 29,50.5 29,50.5 29,50.5 29,50.5"/><path class="st55" d="M29,50.5l29-5.8c0,0,0,0.1,0,0.1c0,0,0,0,0,0.1c0,0,0,0,0,0.1c0,0,0,0,0,0.1l-29,5.9c0,0,0,0,0-0.1 c0,0,0,0,0-0.1C29,50.7,29,50.6,29,50.5C29,50.6,29,50.5,29,50.5"/><path class="st56" d="M29,50.8l29-5.9c0,0,0,0,0,0c0,0,0,0,0,0c0,0,0,0,0,0c0,0,0,0,0,0L29,51c0,0,0,0,0,0S29,50.9,29,50.8 C29,50.9,29,50.9,29,50.8C29,50.9,29,50.8,29,50.8"/><path class="st57" d="M29,51l29-5.9c0,0,0,0,0,0c0,0,0,0,0,0c0,0,0,0,0,0c0,0,0,0,0,0L29,51C29,51,29,51,29,51 C29,51,29,51,29,51C29,51,29,51,29,51C29,51,29,51,29,51"/><polyline class="st58" points="29,51 58.1,45.1 58.1,45.2 58.1,45.2 58.1,45.2 58.1,45.2 29,51.1 29,51.1 29,51 29,51 29,51"/><polyline class="st59" points="29,51.1 58.1,45.2 58.1,45.2 58.1,45.2 58.1,45.2 58.1,45.2 29.1,51.1 29.1,51.1 29,51.1 29,51.1 29,51.1"/><polyline class="st60" points="29.1,51.1 58.1,45.2 58.1,45.2 58.1,45.2 58.1,45.2 58.1,45.2 29.1,51.1 29.1,51.1 29.1,51.1 29.1,51.1 29.1,51.1"/><polyline class="st59" points="29.1,51.1 58.1,45.2 58.1,45.2 58.1,45.2 58.1,45.2 58.1,45.2 29.1,51.1 29.1,51.1 29.1,51.1 29.1,51.1 29.1,51.1"/><polyline class="st58" points="29.1,51.1 58.1,45.2 58.1,45.2 58.1,45.2 58.1,45.2 58.1,45.2 29.1,51.1 29.1,51.1 29.1,51.1 29.1,51.1 29.1,51.1"/><polyline class="st57" points="29.1,51.1 58.1,45.2 58.1,45.2 58.1,45.2 58.1,45.2 58.1,45.2 29.1,51.1 29.1,51.1 29.1,51.1 29.1,51.1 29.1,51.1"/><polyline class="st56" points="29.1,51.1 58.1,45.2 58.1,45.2 58.1,45.2 58.1,45.2 58.1,45.2 29.1,51.1 29.1,51.1 29.1,51.1 29.1,51.1 29.1,51.1"/><polyline class="st55" points="29.1,51.1 58.1,45.2 58.1,45.2 58.1,45.2 58.1,45.2 58.1,45.2 29.1,51.1 29.1,51.1 29.1,51.1 29.1,51.1 29.1,51.1"/><polyline class="st54" points="29.1,51.1 58.1,45.2 58.1,45.2 58.1,45.2 58.1,45.2 58.1,45.2 29.1,51.1 29.1,51.1 29.1,51.1 29.1,51.1 29.1,51.1"/></g></g><g class="st1"><defs><path id="SVGID_25_" class="st1" d="M58.1,44.5C58.1,44.5,58.1,44.5,58.1,44.5C58.1,44.6,58.1,44.6,58.1,44.5c0,0.1,0,0.1,0,0.1 c0,0,0,0,0,0l-29,5.8c0,0,0,0,0,0c0,0,0,0,0,0c0,0,0,0,0,0c0,0,0,0,0,0c0,0,0-0.1,0-0.1c0,0,0-0.1,0-0.1c0,0,0-0.1,0-0.1 c0,0,0-0.1,0-0.1c9.7-1.9,19.4-3.8,29.1-5.8c0,0,0,0.1,0,0.1c0,0,0,0.1,0,0.1c0,0,0,0.1,0,0.1C58.1,44.4,58.1,44.5,58.1,44.5z"/></defs><clipPath id="SVGID_26_"><use xlink:href="#SVGID_25_" overflow="visible"/></clipPath><g class="st61"><path class="st62" d="M29,49.8L58.1,44c0,0,0,0,0,0c0,0,0,0,0,0c0,0,0,0,0,0c0,0,0,0,0,0L29,50c0,0,0,0,0-0.1c0,0,0,0,0-0.1 C29,49.9,29,49.8,29,49.8C29,49.8,29,49.8,29,49.8"/><path class="st54" d="M29,50l29.1-5.8c0,0,0,0,0,0.1c0,0,0,0,0,0.1c0,0,0,0,0,0.1c0,0,0,0,0,0.1c0,0,0,0,0,0c0,0,0,0,0,0 c0,0,0,0,0,0c0,0,0,0,0,0l-29,5.8c0,0,0,0,0,0c0,0,0,0,0,0c0,0,0,0,0,0c0,0,0,0,0,0c0,0,0-0.1,0-0.1c0,0,0-0.1,0-0.1 C29,50.1,29,50.1,29,50C29,50,29,50,29,50"/></g></g><g class="st1"><defs><path id="SVGID_27_" class="st1" d="M58.1,44L58.1,44L58.1,44L58.1,44L58.1,44c-9.7,1.9-19.4,3.8-29.1,5.8v0l0,0c0,0,0,0,0,0 l0,0C37.8,48,49.4,45.7,58.1,44z"/></defs><clipPath id="SVGID_28_"><use xlink:href="#SVGID_27_" overflow="visible"/></clipPath><g class="st63"><path class="st62" d="M29,49.8L58.1,44c0,0,0,0,0,0c0,0,0,0,0,0c0,0,0,0,0,0c0,0,0,0,0,0L29,50c0,0,0,0,0-0.1c0,0,0,0,0-0.1 C29,49.9,29,49.8,29,49.8C29,49.8,29,49.8,29,49.8"/></g></g><g><polygon class="st64" points="29.1,49.6 58.1,43.9 58.1,44 29,49.8"/></g><g><polygon class="st64" points="29.1,49.1 58.1,43.4 58.1,43.9 29.1,49.6"/></g><g><polygon class="st64" points="29.1,48.9 58.2,43.2 58.1,43.4 29.1,49.1"/></g><g><polygon class="st64" points="29.1,48.3 58.2,42.7 58.2,43.2 29.1,48.9"/></g><g><polygon class="st64" points="29.2,48.2 58.2,42.6 58.2,42.7 29.1,48.3"/></g><g><polygon class="st64" points="29.2,47.6 58.3,42.1 58.2,42.6 29.2,48.2"/></g><g><polygon class="st64" points="29.2,47.4 58.3,41.9 58.3,42.1 29.2,47.6"/></g><g class="st1"><defs><path id="SVGID_29_" class="st1" d="M29.1,51.1l29-5.9c0,0,0,0,0.1,0c0,0,0.1,0,0.2,0c0.1,0,0.2,0,0.3,0.1c0.1,0,0.2,0,0.3,0.1 c0,0,0,0,0,0c0,0,0,0,0,0c0,0,0,0,0,0c0,0,0,0,0,0l-29,5.9c0,0,0,0,0,0c0,0,0,0,0,0c0,0,0,0,0,0c0,0,0,0,0,0 c-0.1,0-0.2,0-0.3-0.1c-0.1,0-0.2,0-0.3-0.1c-0.1,0-0.1,0-0.2-0.1C29.1,51.1,29.1,51.1,29.1,51.1z"/></defs><clipPath id="SVGID_30_"><use xlink:href="#SVGID_29_" overflow="visible"/></clipPath><g class="st65"><polyline class="st54" points="29.1,51.1 58.1,45.2 58.1,45.2 58.1,45.2 58.1,45.2 58.1,45.2 29.1,51.1 29.1,51.1 29.1,51.1 29.1,51.1 29.1,51.1"/><polyline class="st62" points="29.1,51.1 58.1,45.2 58.1,45.2 58.1,45.2 58.1,45.2 58.1,45.2 29.1,51.1 29.1,51.1 29.1,51.1 29.1,51.1 29.1,51.1"/><polyline class="st66" points="29.1,51.1 58.1,45.2 58.1,45.2 58.1,45.2 58.1,45.2 58.1,45.2 29.1,51.1 29.1,51.1 29.1,51.1 29.1,51.1 29.1,51.1"/><polyline class="st67" points="29.1,51.1 58.1,45.2 58.1,45.2 58.1,45.2 58.1,45.2 58.1,45.2 29.1,51.1 29.1,51.1 29.1,51.1 29.1,51.1 29.1,51.1"/><polyline class="st68" points="29.1,51.1 58.1,45.2 58.1,45.2 58.1,45.2 58.1,45.2 58.2,45.2 29.1,51.1 29.1,51.1 29.1,51.1 29.1,51.1 29.1,51.1"/><path class="st69" d="M29.1,51.1l29-5.9c0,0,0,0,0,0c0,0,0,0,0,0c0,0,0,0,0,0c0,0,0,0,0,0L29.1,51.1 C29.2,51.2,29.2,51.2,29.1,51.1C29.2,51.2,29.2,51.2,29.1,51.1C29.1,51.1,29.1,51.1,29.1,51.1C29.1,51.1,29.1,51.1,29.1,51.1"/><path class="st70" d="M29.2,51.2l29-5.9c0,0,0,0,0.1,0c0,0,0.1,0,0.1,0c0,0,0.1,0,0.1,0c0,0,0.1,0,0.1,0l-29,5.9 c0,0-0.1,0-0.1,0c0,0-0.1,0-0.1,0C29.3,51.2,29.3,51.2,29.2,51.2C29.3,51.2,29.2,51.2,29.2,51.2"/><path class="st71" d="M29.6,51.3l29-5.9c0,0,0.1,0,0.1,0c0,0,0.1,0,0.1,0c0,0,0.1,0,0.1,0c0,0,0.1,0,0.1,0c0,0,0,0,0,0 c0,0,0,0,0,0c0,0,0,0,0,0c0,0,0,0,0,0l-29,5.9c0,0,0,0,0,0c0,0,0,0,0,0c0,0,0,0,0,0c0,0,0,0,0,0c0,0-0.1,0-0.1,0 c0,0-0.1,0-0.1,0C29.8,51.3,29.7,51.3,29.6,51.3C29.7,51.3,29.6,51.3,29.6,51.3"/></g></g><g class="st1"><defs><path id="SVGID_31_" class="st1" d="M28.4,44.3l29.1-5.2c0,0,0,0,0.1,0c0,0,0,0,0.1,0s0,0,0.1,0c0,0,0,0,0.1,0l-29.1,5.2 c0,0,0,0-0.1,0c0,0,0,0-0.1,0C28.5,44.3,28.5,44.3,28.4,44.3C28.5,44.3,28.4,44.3,28.4,44.3z"/></defs><use xlink:href="#SVGID_31_" overflow="visible" fill="#DB4126"/><clipPath id="SVGID_32_"><use xlink:href="#SVGID_31_" overflow="visible"/></clipPath><g class="st72"><polyline class="st73" points="28.4,44.3 57.6,39.2 57.6,39.2 57.6,39.2 57.6,39.2 57.6,39.2 28.4,44.3 28.4,44.3 28.4,44.3 28.4,44.3 28.4,44.3"/><path class="st73" d="M28.4,44.3l29.1-5.2c0,0,0,0,0,0c0,0,0,0,0,0c0,0,0,0,0,0c0,0,0,0,0,0L28.4,44.3 C28.5,44.3,28.5,44.3,28.4,44.3C28.5,44.3,28.5,44.3,28.4,44.3C28.4,44.3,28.4,44.3,28.4,44.3C28.4,44.3,28.4,44.3,28.4,44.3"/><path class="st73" d="M28.5,44.3l29.1-5.2c0,0,0,0,0,0c0,0,0,0,0,0c0,0,0,0,0,0c0,0,0,0,0,0L28.5,44.3 C28.5,44.3,28.5,44.3,28.5,44.3C28.5,44.3,28.5,44.3,28.5,44.3C28.5,44.3,28.5,44.3,28.5,44.3C28.5,44.3,28.5,44.3,28.5,44.3"/><path class="st73" d="M28.6,44.3l29.1-5.2c0,0,0,0,0,0c0,0,0,0,0,0c0,0,0,0,0,0c0,0,0,0,0,0L28.6,44.3 C28.6,44.3,28.6,44.3,28.6,44.3C28.6,44.3,28.6,44.3,28.6,44.3C28.6,44.3,28.6,44.3,28.6,44.3C28.6,44.3,28.6,44.3,28.6,44.3"/><path class="st73" d="M28.6,44.3l29.1-5.2c0,0,0,0,0,0c0,0,0,0,0,0c0,0,0,0,0,0c0,0,0,0,0,0L28.6,44.3 C28.7,44.3,28.7,44.3,28.6,44.3C28.6,44.3,28.6,44.3,28.6,44.3C28.6,44.3,28.6,44.3,28.6,44.3C28.6,44.3,28.6,44.3,28.6,44.3"/><polyline class="st73" points="28.7,44.3 57.8,39.2 57.8,39.2 57.8,39.2 57.8,39.2 57.8,39.2 28.7,44.3 28.7,44.3 28.7,44.3 28.7,44.3 28.7,44.3"/></g></g><g class="st1"><defs><path id="SVGID_33_" class="st1" d="M29.2,46.9l29.1-5.5c0,0,0,0.1,0,0.1c0,0,0,0.1,0,0.1c0,0,0,0.1,0,0.1c0,0,0,0.1,0,0.1 l-29.1,5.5c0,0,0-0.1,0-0.1c0,0,0-0.1,0-0.1c0,0,0-0.1,0-0.1C29.2,47,29.2,46.9,29.2,46.9z"/></defs><clipPath id="SVGID_34_"><use xlink:href="#SVGID_33_" overflow="visible"/></clipPath><g class="st74"><path class="st62" d="M29.2,46.9l29.1-5.5c0,0,0,0.1,0,0.1c0,0,0,0.1,0,0.1c0,0,0,0.1,0,0.1c0,0,0,0.1,0,0.1l-29.1,5.5 c0,0,0-0.1,0-0.1c0,0,0-0.1,0-0.1c0,0,0-0.1,0-0.1C29.2,47,29.2,46.9,29.2,46.9"/></g></g><g class="st1"><defs><path id="SVGID_35_" class="st1" d="M29.3,46.2l29.1-5.4c0,0,0,0,0,0.1c0,0,0,0.1,0,0.1c0,0,0,0.1,0,0.1c0,0.1,0,0.1,0,0.2 c0,0,0,0,0,0c0,0,0,0,0,0c0,0,0,0,0,0c0,0,0,0,0,0l-29.1,5.5c0,0,0,0,0,0c0,0,0,0,0,0c0,0,0,0,0,0c0,0,0,0,0,0 c0-0.1,0-0.1,0-0.2c0-0.1,0-0.1,0-0.2C29.3,46.3,29.3,46.3,29.3,46.2C29.3,46.2,29.3,46.2,29.3,46.2z"/></defs><clipPath id="SVGID_36_"><use xlink:href="#SVGID_35_" overflow="visible"/></clipPath><g class="st75"><polyline class="st76" points="29.3,46.2 58.4,40.8 58.4,40.8 58.4,40.8 58.4,40.8 58.4,40.8 29.3,46.2 29.3,46.2 29.3,46.2 29.3,46.2 29.3,46.2"/><polyline class="st77" points="29.3,46.2 58.4,40.8 58.4,40.8 58.4,40.8 58.4,40.8 58.4,40.8 29.3,46.2 29.3,46.2 29.3,46.2 29.3,46.2 29.3,46.2"/><polyline class="st78" points="29.3,46.2 58.4,40.8 58.4,40.8 58.4,40.8 58.4,40.8 58.4,40.8 29.3,46.2 29.3,46.2 29.3,46.2 29.3,46.2 29.3,46.2"/><polyline class="st71" points="29.3,46.2 58.4,40.8 58.4,40.8 58.4,40.8 58.4,40.8 58.4,40.8 29.3,46.2 29.3,46.2 29.3,46.2 29.3,46.2 29.3,46.2"/><polyline class="st70" points="29.3,46.2 58.4,40.8 58.4,40.8 58.4,40.8 58.4,40.8 58.4,40.8 29.3,46.2 29.3,46.2 29.3,46.2 29.3,46.2 29.3,46.2"/><polyline class="st69" points="29.3,46.2 58.4,40.8 58.4,40.8 58.4,40.8 58.4,40.8 58.4,40.8 29.3,46.2 29.3,46.2 29.3,46.2 29.3,46.2 29.3,46.2"/><polyline class="st68" points="29.3,46.2 58.4,40.8 58.4,40.8 58.4,40.8 58.4,40.9 58.4,40.9 29.3,46.3 29.3,46.2 29.3,46.2 29.3,46.2 29.3,46.2"/><path class="st67" d="M29.3,46.3l29.1-5.4c0,0,0,0,0,0c0,0,0,0,0,0c0,0,0,0,0,0c0,0,0,0,0,0l-29.1,5.4 C29.3,46.4,29.3,46.3,29.3,46.3C29.3,46.3,29.3,46.3,29.3,46.3C29.3,46.3,29.3,46.3,29.3,46.3C29.3,46.3,29.3,46.3,29.3,46.3"/><path class="st66" d="M29.3,46.4L58.4,41c0,0,0,0,0,0.1c0,0,0,0,0,0.1c0,0,0,0.1,0,0.1c0,0,0,0.1,0,0.1c0,0,0,0,0,0c0,0,0,0,0,0 c0,0,0,0,0,0c0,0,0,0,0,0l-29.1,5.4c0,0,0,0,0,0c0,0,0,0,0,0c0,0,0,0,0,0c0,0,0,0,0,0c0,0,0-0.1,0-0.1c0,0,0-0.1,0-0.1 C29.3,46.5,29.3,46.5,29.3,46.4C29.3,46.4,29.3,46.4,29.3,46.4"/><path class="st62" d="M29.3,46.8l29.1-5.4c0,0,0,0,0,0c0,0,0,0,0,0c0,0,0,0,0,0c0,0,0,0,0,0l-29.1,5.5 C29.2,46.9,29.2,46.9,29.3,46.8C29.3,46.8,29.3,46.8,29.3,46.8C29.3,46.8,29.3,46.8,29.3,46.8C29.3,46.8,29.3,46.8,29.3,46.8"/></g></g><g class="st1"><defs><path id="SVGID_37_" class="st1" d="M29.4,46.2l29.1-5.4c0,0,0,0,0,0c0,0,0,0,0,0c0,0,0,0,0,0c0,0,0,0,0,0L29.4,46.2 C29.3,46.2,29.3,46.2,29.4,46.2C29.3,46.2,29.4,46.2,29.4,46.2C29.4,46.2,29.4,46.2,29.4,46.2C29.4,46.2,29.4,46.2,29.4,46.2z"/></defs><clipPath id="SVGID_38_"><use xlink:href="#SVGID_37_" overflow="visible"/></clipPath><g class="st79"><path class="st80" d="M29.4,46.2l29.1-5.4c0,0,0,0,0,0c0,0,0,0,0,0c0,0,0,0,0,0c0,0,0,0,0,0L29.4,46.2 C29.3,46.2,29.4,46.2,29.4,46.2C29.4,46.2,29.4,46.2,29.4,46.2C29.4,46.2,29.4,46.2,29.4,46.2C29.4,46.2,29.4,46.2,29.4,46.2"/><polyline class="st81" points="29.3,46.2 58.4,40.8 58.4,40.8 58.4,40.8 58.4,40.8 58.4,40.8 29.3,46.2 29.3,46.2 29.3,46.2 29.3,46.2 29.3,46.2"/><polyline class="st82" points="29.3,46.2 58.4,40.8 58.4,40.8 58.4,40.8 58.4,40.8 58.4,40.8 29.3,46.2 29.3,46.2 29.3,46.2 29.3,46.2 29.3,46.2"/><polyline class="st76" points="29.3,46.2 58.4,40.8 58.4,40.8 58.4,40.8 58.4,40.8 58.4,40.8 29.3,46.2 29.3,46.2 29.3,46.2 29.3,46.2 29.3,46.2"/><polyline class="st77" points="29.3,46.2 58.4,40.8 58.4,40.8 58.4,40.8 58.4,40.8 58.4,40.8 29.3,46.2 29.3,46.2 29.3,46.2 29.3,46.2 29.3,46.2"/></g></g><g class="st1"><defs><path id="SVGID_39_" class="st1" d="M58.4,40.8c0,0,0.1,0,0.1,0c0.1,0,0.1,0,0.2,0c0.1,0,0.2,0,0.3,0c0.1,0,0.2,0,0.3,0l-29,5.4 c-0.1,0-0.2,0-0.3-0.1c-0.1,0-0.2,0-0.3,0c-0.1,0-0.2,0-0.2,0c-0.1,0-0.1,0-0.2,0C38.1,44.5,49.7,42.4,58.4,40.8z"/></defs><clipPath id="SVGID_40_"><use xlink:href="#SVGID_39_" overflow="visible"/></clipPath><g class="st83"><polyline class="st31" points="29.4,46.2 58.4,40.8 58.4,40.8 58.4,40.8 58.4,40.8 58.4,40.8 29.4,46.2 29.4,46.2 29.4,46.2 29.4,46.2 29.4,46.2"/><polyline class="st32" points="29.4,46.2 58.4,40.8 58.5,40.8 58.5,40.8 58.5,40.8 58.5,40.8 29.4,46.2 29.4,46.2 29.4,46.2 29.4,46.2 29.4,46.2"/><path class="st33" d="M29.4,46.2l29.1-5.4c0,0,0,0,0,0c0,0,0,0,0,0c0,0,0,0,0,0c0,0,0,0,0,0L29.4,46.2 C29.5,46.2,29.5,46.2,29.4,46.2C29.5,46.2,29.5,46.2,29.4,46.2C29.5,46.2,29.5,46.2,29.4,46.2C29.4,46.2,29.4,46.2,29.4,46.2"/><path class="st34" d="M29.5,46.2l29.1-5.4c0,0,0,0,0,0c0,0,0,0,0,0c0,0,0,0,0.1,0c0,0,0,0,0.1,0l-29,5.4c0,0,0,0-0.1,0 C29.6,46.2,29.6,46.2,29.5,46.2C29.6,46.2,29.6,46.2,29.5,46.2C29.5,46.2,29.5,46.2,29.5,46.2"/><path class="st35" d="M29.7,46.2l29-5.4c0,0,0.1,0,0.1,0c0,0,0.1,0,0.1,0c0,0,0.1,0,0.1,0c0,0,0.1,0,0.1,0l-29,5.4 c0,0-0.1,0-0.1,0c0,0-0.1,0-0.1,0c0,0-0.1,0-0.1,0C29.8,46.2,29.8,46.2,29.7,46.2"/><path class="st36" d="M30.2,46.2l29-5.4c0,0,0,0,0,0c0,0,0,0,0,0c0,0,0,0,0,0c0,0,0,0,0,0l-29,5.4c0,0,0,0,0,0 C30.3,46.3,30.3,46.3,30.2,46.2C30.3,46.2,30.3,46.2,30.2,46.2C30.2,46.2,30.2,46.2,30.2,46.2"/></g></g><g><polygon class="st84" points="30.1,51.4 59.1,45.4 82.6,49.8 55.4,56.4"/></g><g><polygon class="st37" points="29,50.5 58.1,44.7 82.6,49.2 55.4,55.8"/></g><g><polygon class="st38" points="29,50.3 58.1,44.5 82.6,49 55.4,55.6"/></g><g><polygon class="st39" points="29,49.8 58.1,44 82.7,48.5 55.5,55"/></g><g><polygon class="st40" points="29.1,49.6 58.1,43.9 82.7,48.3 55.5,54.8"/></g><g><polygon class="st39" points="29.1,49.1 58.1,43.4 82.7,47.8 55.5,54.3"/></g><g><polygon class="st41" points="29.1,48.9 58.2,43.2 82.8,47.6 55.6,54.1"/></g><g><polygon class="st39" points="29.1,48.3 58.2,42.7 82.8,47.1 55.6,53.5"/></g><g><polygon class="st41" points="29.2,48.2 58.2,42.6 82.8,47 55.6,53.3"/></g><g><polygon class="st39" points="29.2,47.6 58.3,42.1 82.9,46.5 55.7,52.8"/></g><g><polygon class="st41" points="29.2,47.4 58.3,41.9 82.9,46.3 55.7,52.6"/></g><g><polygon class="st42" points="29.2,46.9 58.3,41.4 82.9,45.8 55.7,52"/></g><g><polygon class="st41" points="29.3,46.7 58.3,41.3 82.9,45.6 55.7,51.8"/></g><g><polygon class="st43" points="30.4,46.3 59.4,40.9 74.9,43.6 47,49.5"/></g><g><path class="st40" d="M55.4,55.6l0,0.2L29,50.5c0,0,0,0,0,0c0,0,0,0,0,0c0,0,0,0,0,0c0,0,0,0,0,0L55.4,55.6z"/></g><g><polygon class="st44" points="55.4,55.6 82.6,49 82.6,49.2 55.4,55.8"/></g><g><polygon class="st85" points="55.4,56.4 82.6,49.8 83,49.8 55.8,56.5"/></g><g><polygon class="st45" points="55.5,54.8 82.7,48.3 82.7,48.5 55.5,55"/></g><g><polygon class="st40" points="55.5,54.8 55.5,55 29,49.8 29.1,49.6"/></g><g><polygon class="st40" points="55.6,54.1 55.5,54.3 29.1,49.1 29.1,48.9"/></g><g><polygon class="st45" points="55.6,54.1 82.8,47.6 82.7,47.8 55.5,54.3"/></g><g><polygon class="st40" points="55.6,53.3 55.6,53.5 29.1,48.3 29.2,48.2"/></g><g><polygon class="st46" points="55.6,53.3 82.8,47 82.8,47.1 55.6,53.5"/></g><g><polygon class="st40" points="55.7,52.6 55.7,52.8 29.2,47.6 29.2,47.4"/></g><g><polygon class="st45" points="55.7,52.6 82.9,46.3 82.9,46.5 55.7,52.8"/></g><g class="st1"><defs><path id="SVGID_41_" class="st1" d="M83.4,51.3l-27.1,6.9c0.1,0,0.2,0,0.2-0.1c0.1,0,0.1-0.1,0.2-0.1c0-0.1,0.1-0.1,0.1-0.2 c0-0.1,0-0.1,0.1-0.2c0-0.1,0-0.2-0.1-0.3c0-0.1-0.1-0.2-0.2-0.3c-0.1-0.1-0.2-0.2-0.3-0.2c-0.1-0.1-0.3-0.1-0.4-0.1L83,49.8 c0.1,0,0.3,0.1,0.4,0.1c0.1,0.1,0.2,0.1,0.3,0.2c0.1,0.1,0.1,0.2,0.2,0.3c0,0.1,0.1,0.2,0,0.3c0,0.1,0,0.1-0.1,0.2 c0,0.1-0.1,0.1-0.1,0.2c0,0-0.1,0.1-0.2,0.1C83.5,51.2,83.4,51.3,83.4,51.3z"/></defs><use xlink:href="#SVGID_41_" overflow="visible" fill="#F16227"/><clipPath id="SVGID_42_"><use xlink:href="#SVGID_41_" overflow="visible"/></clipPath><g class="st86"><polyline class="st85" points="55.8,56.5 83,49.8 83,49.8 83,49.8 83,49.8 83,49.8 55.9,56.5 55.9,56.5 55.9,56.5 55.9,56.5 55.8,56.5"/><path class="st85" d="M55.9,56.5L83,49.8c0,0,0,0,0,0c0,0,0,0,0,0c0,0,0,0,0,0s0,0,0,0L55.9,56.5C56,56.6,55.9,56.6,55.9,56.5 C55.9,56.6,55.9,56.6,55.9,56.5C55.9,56.6,55.9,56.6,55.9,56.5C55.9,56.6,55.9,56.5,55.9,56.5"/><path class="st85" d="M56,56.6l27.2-6.7c0,0,0,0,0,0c0,0,0,0,0,0c0,0,0,0,0,0c0,0,0,0,0,0L56,56.6C56,56.6,56,56.6,56,56.6 C56,56.6,56,56.6,56,56.6C56,56.6,56,56.6,56,56.6C56,56.6,56,56.6,56,56.6"/><path class="st85" d="M56,56.6l27.1-6.7c0,0,0,0,0,0c0,0,0,0,0,0c0,0,0,0,0,0c0,0,0,0,0,0L56,56.6C56.1,56.6,56.1,56.6,56,56.6 C56.1,56.6,56.1,56.6,56,56.6C56.1,56.6,56.1,56.6,56,56.6C56,56.6,56,56.6,56,56.6"/><path class="st85" d="M56.1,56.6l27.1-6.7c0,0,0,0,0,0c0,0,0,0,0,0c0,0,0,0,0,0c0,0,0,0,0,0L56.1,56.6 C56.2,56.7,56.2,56.6,56.1,56.6C56.2,56.6,56.1,56.6,56.1,56.6C56.1,56.6,56.1,56.6,56.1,56.6C56.1,56.6,56.1,56.6,56.1,56.6"/><path class="st85" d="M56.2,56.7l27.1-6.7c0,0,0,0,0,0c0,0,0,0,0,0c0,0,0,0,0,0s0,0,0,0L56.2,56.7 C56.2,56.7,56.2,56.7,56.2,56.7C56.2,56.7,56.2,56.7,56.2,56.7C56.2,56.7,56.2,56.7,56.2,56.7C56.2,56.7,56.2,56.7,56.2,56.7"/><path class="st85" d="M56.2,56.7L83.4,50c0,0,0,0,0,0c0,0,0,0,0,0c0,0,0,0,0,0c0,0,0,0,0,0L56.2,56.7 C56.3,56.7,56.3,56.7,56.2,56.7C56.3,56.7,56.3,56.7,56.2,56.7C56.3,56.7,56.3,56.7,56.2,56.7C56.3,56.7,56.2,56.7,56.2,56.7"/><path class="st85" d="M56.3,56.7L83.4,50c0,0,0,0,0,0c0,0,0,0,0,0c0,0,0,0,0,0c0,0,0,0,0,0L56.3,56.7 C56.4,56.8,56.4,56.8,56.3,56.7C56.4,56.8,56.3,56.8,56.3,56.7C56.3,56.7,56.3,56.7,56.3,56.7C56.3,56.7,56.3,56.7,56.3,56.7"/><path class="st85" d="M56.4,56.8L83.5,50c0,0,0,0,0,0c0,0,0,0,0,0s0,0,0,0c0,0,0,0,0,0L56.4,56.8C56.4,56.8,56.4,56.8,56.4,56.8 C56.4,56.8,56.4,56.8,56.4,56.8C56.4,56.8,56.4,56.8,56.4,56.8C56.4,56.8,56.4,56.8,56.4,56.8"/><path class="st85" d="M56.4,56.8l27.1-6.7c0,0,0,0,0,0c0,0,0,0,0,0c0,0,0,0,0,0c0,0,0,0,0,0L56.4,56.8 C56.5,56.9,56.5,56.9,56.4,56.8C56.5,56.9,56.5,56.8,56.4,56.8C56.5,56.8,56.5,56.8,56.4,56.8C56.4,56.8,56.4,56.8,56.4,56.8"/><path class="st85" d="M56.5,56.9l27.1-6.7c0,0,0,0,0,0c0,0,0,0,0,0c0,0,0,0,0,0c0,0,0,0,0,0L56.5,56.9 C56.5,56.9,56.5,56.9,56.5,56.9C56.5,56.9,56.5,56.9,56.5,56.9C56.5,56.9,56.5,56.9,56.5,56.9C56.5,56.9,56.5,56.9,56.5,56.9"/><path class="st85" d="M56.6,56.9l27.1-6.8c0,0,0,0,0,0c0,0,0,0,0,0c0,0,0,0,0,0c0,0,0,0,0,0L56.6,56.9 C56.6,57,56.6,57,56.6,56.9C56.6,57,56.6,57,56.6,56.9C56.6,57,56.6,57,56.6,56.9C56.6,56.9,56.6,56.9,56.6,56.9"/><path class="st85" d="M56.6,57l27.1-6.8c0,0,0,0,0,0c0,0,0,0,0,0c0,0,0,0,0,0c0,0,0,0,0,0l-27.1,6.8 C56.7,57.1,56.7,57.1,56.6,57C56.7,57.1,56.7,57.1,56.6,57C56.7,57.1,56.6,57,56.6,57C56.6,57,56.6,57,56.6,57"/><path class="st85" d="M56.7,57.1l27.1-6.8c0,0,0,0,0,0c0,0,0,0,0,0c0,0,0,0,0,0c0,0,0,0,0,0l-27.1,6.8 C56.7,57.2,56.7,57.2,56.7,57.1C56.7,57.2,56.7,57.2,56.7,57.1C56.7,57.2,56.7,57.2,56.7,57.1C56.7,57.1,56.7,57.1,56.7,57.1"/><path class="st85" d="M56.7,57.2l27.1-6.8c0,0,0,0,0,0c0,0,0,0,0,0c0,0,0,0,0,0c0,0,0,0,0,0l-27.1,6.8 C56.8,57.3,56.8,57.3,56.7,57.2C56.8,57.3,56.8,57.3,56.7,57.2C56.8,57.3,56.8,57.3,56.7,57.2C56.8,57.2,56.8,57.2,56.7,57.2"/><path class="st85" d="M56.8,57.3l27.1-6.8c0,0,0,0,0,0c0,0,0,0,0,0c0,0,0,0,0,0c0,0,0,0,0,0L56.8,57.3 C56.8,57.4,56.8,57.4,56.8,57.3C56.8,57.4,56.8,57.4,56.8,57.3C56.8,57.4,56.8,57.4,56.8,57.3C56.8,57.3,56.8,57.3,56.8,57.3"/><polyline class="st85" points="56.8,57.4 83.9,50.6 83.9,50.6 83.9,50.6 83.9,50.6 83.9,50.6 56.8,57.4 56.8,57.4 56.8,57.4 56.8,57.4 56.8,57.4"/><polyline class="st85" points="56.8,57.4 83.9,50.6 83.9,50.6 83.9,50.6 83.9,50.7 83.9,50.7 56.8,57.5 56.8,57.5 56.8,57.5 56.8,57.4 56.8,57.4"/><polyline class="st85" points="56.8,57.5 83.9,50.7 83.9,50.7 83.9,50.7 83.9,50.7 83.9,50.7 56.8,57.5 56.8,57.5 56.8,57.5 56.8,57.5 56.8,57.5"/><polyline class="st85" points="56.8,57.5 83.9,50.7 83.9,50.7 83.9,50.7 83.9,50.7 83.9,50.7 56.8,57.5 56.8,57.5 56.8,57.5 56.8,57.5 56.8,57.5"/><polyline class="st85" points="56.8,57.5 83.9,50.7 83.9,50.7 83.9,50.7 83.9,50.7 83.9,50.7 83.9,50.7 83.9,50.7 83.9,50.7 83.9,50.8 56.8,57.6 56.8,57.6 56.8,57.6 56.8,57.6 56.8,57.6 56.8,57.6 56.8,57.6 56.8,57.6 56.8,57.5"/><polyline class="st85" points="56.8,57.6 83.9,50.8 83.9,50.8 83.9,50.8 83.9,50.8 83.9,50.8 56.8,57.6 56.8,57.6 56.8,57.6 56.8,57.6 56.8,57.6"/><polyline class="st85" points="56.8,57.6 83.9,50.8 83.9,50.8 83.9,50.8 83.9,50.8 83.9,50.8 56.8,57.6 56.8,57.6 56.8,57.6 56.8,57.6 56.8,57.6"/><polyline class="st85" points="56.8,57.6 83.9,50.8 83.9,50.8 83.9,50.8 83.9,50.8 83.9,50.8 56.8,57.7 56.8,57.7 56.8,57.7 56.8,57.6 56.8,57.6"/><polyline class="st85" points="56.8,57.7 83.9,50.8 83.9,50.8 83.9,50.8 83.9,50.9 83.9,50.9 56.8,57.7 56.8,57.7 56.8,57.7 56.8,57.7 56.8,57.7"/><polyline class="st85" points="56.8,57.7 83.9,50.9 83.9,50.9 83.9,50.9 83.9,50.9 83.9,50.9 56.8,57.7 56.8,57.7 56.8,57.7 56.8,57.7 56.8,57.7"/><polyline class="st85" points="56.8,57.7 83.9,50.9 83.8,50.9 83.8,50.9 83.8,50.9 83.8,50.9 56.8,57.8 56.8,57.7 56.8,57.7 56.8,57.7 56.8,57.7"/><polyline class="st85" points="56.8,57.8 83.8,50.9 83.8,50.9 83.8,50.9 83.8,50.9 83.8,50.9 56.7,57.8 56.7,57.8 56.7,57.8 56.7,57.8 56.8,57.8"/><polyline class="st85" points="56.7,57.8 83.8,50.9 83.8,50.9 83.8,51 83.8,51 83.8,51 56.7,57.8 56.7,57.8 56.7,57.8 56.7,57.8 56.7,57.8"/><polyline class="st85" points="56.7,57.8 83.8,51 83.8,51 83.8,51 83.8,51 83.8,51 56.7,57.9 56.7,57.8 56.7,57.8 56.7,57.8 56.7,57.8"/><polyline class="st85" points="56.7,57.9 83.8,51 83.8,51 83.8,51 83.8,51 83.8,51 56.7,57.9 56.7,57.9 56.7,57.9 56.7,57.9 56.7,57.9"/><path class="st85" d="M56.7,57.9L83.8,51c0,0,0,0,0,0c0,0,0,0,0,0c0,0,0,0,0,0c0,0,0,0,0,0L56.7,57.9 C56.6,57.9,56.6,57.9,56.7,57.9C56.6,57.9,56.6,57.9,56.7,57.9C56.6,57.9,56.7,57.9,56.7,57.9C56.7,57.9,56.7,57.9,56.7,57.9"/><path class="st85" d="M56.6,58l27.1-6.9c0,0,0,0-0.1,0.1c0,0-0.1,0-0.1,0.1c0,0-0.1,0-0.1,0c0,0-0.1,0-0.1,0l-27.1,6.9 c0,0,0.1,0,0.1,0c0,0,0.1,0,0.1,0C56.5,58.1,56.5,58,56.6,58C56.6,58,56.6,58,56.6,58"/></g></g><g><polygon class="st45" points="55.7,51.8 82.9,45.6 82.9,45.8 55.7,52"/></g><g><path class="st40" d="M55.7,51.8l0,0.2l-26.5-5.1c0,0,0,0,0,0c0,0,0,0,0,0c0,0,0,0,0,0c0,0,0,0,0,0L55.7,51.8z"/></g><g><polygon class="st49" points="55.8,51.2 83,45 82.6,49.8 55.4,56.4"/></g><g><path class="st50" d="M55.8,51.2l-0.4,5.3l-25.3-5.1c0,0,0,0,0,0c0,0,0,0,0,0c0,0,0,0,0,0c0,0,0,0,0,0c-0.1,0-0.2,0-0.3-0.1 c-0.1,0-0.2,0-0.3-0.1c-0.1,0-0.1,0-0.2-0.1c-0.1,0-0.1,0-0.1,0c0,0,0,0,0-0.1c0,0,0-0.1,0-0.1c0-0.1,0-0.1,0-0.2 c0-0.1,0-0.1,0-0.2l26.4,5.3l0-0.2L29,50.3c0,0,0-0.1,0-0.1c0,0,0-0.1,0-0.1c0,0,0-0.1,0-0.1c0,0,0-0.1,0-0.1L55.5,55l0-0.2 l-26.4-5.2l0-0.5l26.4,5.2l0-0.2l-26.5-5.2l0-0.5l26.5,5.2l0-0.2l-26.5-5.2l0-0.5l26.5,5.2l0-0.2l-26.5-5.2c0,0,0-0.1,0-0.1 c0,0,0-0.1,0-0.1s0-0.1,0-0.1c0,0,0-0.1,0-0.1L55.7,52l0-0.2l-26.5-5.1c0-0.1,0-0.1,0-0.2c0-0.1,0-0.1,0-0.2c0,0,0-0.1,0-0.1 c0,0,0,0,0-0.1c0,0,0,0,0.1,0c0.1,0,0.1,0,0.2,0c0.1,0,0.2,0,0.3,0c0.1,0,0.2,0,0.4,0.1L47,49.5L55.8,51.2z"/></g><g><polygon class="st43" points="47,49.5 74.9,43.6 83,45 55.8,51.2"/></g><g><polygon class="st73" points="28.7,44.3 57.8,39.2 83.6,43.7 56.4,49.6"/></g><g class="st1"><defs><path id="SVGID_43_" class="st1" d="M83.9,45.1l-27.1,6.1c0.1,0,0.2,0,0.2-0.1c0.1,0,0.1-0.1,0.2-0.1c0.1-0.1,0.1-0.1,0.1-0.2 c0-0.1,0.1-0.1,0.1-0.2c0-0.1,0-0.2-0.1-0.3c0-0.1-0.1-0.2-0.2-0.3c-0.1-0.1-0.2-0.2-0.3-0.2c-0.1-0.1-0.3-0.1-0.4-0.1l27.2-6 c0.1,0,0.3,0.1,0.4,0.1c0.1,0.1,0.2,0.1,0.3,0.2c0.1,0.1,0.1,0.2,0.2,0.3s0.1,0.2,0,0.3c0,0.1,0,0.1-0.1,0.2 c0,0.1-0.1,0.1-0.1,0.2c0,0-0.1,0.1-0.2,0.1C84.1,45.1,84,45.1,83.9,45.1z"/></defs><use xlink:href="#SVGID_43_" overflow="visible" fill="#F16227"/><clipPath id="SVGID_44_"><use xlink:href="#SVGID_43_" overflow="visible"/></clipPath><g class="st87"><polyline class="st85" points="56.4,49.6 83.6,43.7 83.6,43.7 83.6,43.7 83.6,43.7 83.6,43.7 56.4,49.6 56.4,49.6 56.4,49.6 56.4,49.6 56.4,49.6"/><path class="st85" d="M56.4,49.6l27.2-6c0,0,0,0,0,0c0,0,0,0,0,0c0,0,0,0,0,0c0,0,0,0,0,0L56.4,49.6 C56.5,49.6,56.5,49.6,56.4,49.6C56.5,49.6,56.5,49.6,56.4,49.6C56.5,49.6,56.5,49.6,56.4,49.6C56.5,49.6,56.5,49.6,56.4,49.6"/><path class="st85" d="M56.5,49.6l27.2-6c0,0,0,0,0,0c0,0,0,0,0,0c0,0,0,0,0,0s0,0,0,0L56.5,49.6C56.6,49.7,56.6,49.7,56.5,49.6 C56.6,49.7,56.6,49.7,56.5,49.6C56.6,49.7,56.6,49.7,56.5,49.6C56.5,49.7,56.5,49.7,56.5,49.6"/><path class="st85" d="M56.6,49.7l27.2-6c0,0,0,0,0,0c0,0,0,0,0,0c0,0,0,0,0,0c0,0,0,0,0,0L56.6,49.7 C56.7,49.7,56.7,49.7,56.6,49.7C56.6,49.7,56.6,49.7,56.6,49.7C56.6,49.7,56.6,49.7,56.6,49.7C56.6,49.7,56.6,49.7,56.6,49.7"/><path class="st85" d="M56.7,49.7l27.2-6c0,0,0,0,0,0c0,0,0,0,0,0c0,0,0,0,0,0c0,0,0,0,0,0L56.7,49.7 C56.7,49.7,56.7,49.7,56.7,49.7C56.7,49.7,56.7,49.7,56.7,49.7C56.7,49.7,56.7,49.7,56.7,49.7C56.7,49.7,56.7,49.7,56.7,49.7"/><path class="st85" d="M56.7,49.7l27.1-6c0,0,0,0,0,0c0,0,0,0,0,0c0,0,0,0,0,0c0,0,0,0,0,0L56.7,49.7 C56.8,49.8,56.8,49.8,56.7,49.7C56.8,49.8,56.8,49.8,56.7,49.7C56.8,49.7,56.8,49.7,56.7,49.7C56.8,49.7,56.7,49.7,56.7,49.7"/><path class="st85" d="M56.8,49.8l27.1-6c0,0,0,0,0,0c0,0,0,0,0,0c0,0,0,0,0,0c0,0,0,0,0,0L56.8,49.8 C56.9,49.8,56.9,49.8,56.8,49.8C56.9,49.8,56.8,49.8,56.8,49.8C56.8,49.8,56.8,49.8,56.8,49.8C56.8,49.8,56.8,49.8,56.8,49.8"/><path class="st85" d="M56.9,49.8l27.1-6c0,0,0,0,0,0c0,0,0,0,0,0c0,0,0,0,0,0c0,0,0,0,0,0L56.9,49.8 C56.9,49.8,56.9,49.8,56.9,49.8C56.9,49.8,56.9,49.8,56.9,49.8C56.9,49.8,56.9,49.8,56.9,49.8C56.9,49.8,56.9,49.8,56.9,49.8"/><path class="st85" d="M56.9,49.8l27.1-6c0,0,0,0,0,0s0,0,0,0c0,0,0,0,0,0c0,0,0,0,0,0L56.9,49.8C57,49.9,57,49.9,56.9,49.8 C57,49.9,57,49.9,56.9,49.8C57,49.9,57,49.9,56.9,49.8C56.9,49.9,56.9,49.8,56.9,49.8"/><path class="st85" d="M57,49.9l27.1-6c0,0,0,0,0,0c0,0,0,0,0,0c0,0,0,0,0,0c0,0,0,0,0,0L57,49.9C57.1,49.9,57,49.9,57,49.9 C57,49.9,57,49.9,57,49.9C57,49.9,57,49.9,57,49.9C57,49.9,57,49.9,57,49.9"/><path class="st85" d="M57.1,49.9l27.1-6c0,0,0,0,0,0c0,0,0,0,0,0c0,0,0,0,0,0c0,0,0,0,0,0L57.1,49.9C57.1,50,57.1,50,57.1,49.9 C57.1,50,57.1,50,57.1,49.9C57.1,50,57.1,50,57.1,49.9C57.1,50,57.1,49.9,57.1,49.9"/><path class="st85" d="M57.1,50l27.1-6c0,0,0,0,0,0c0,0,0,0,0,0c0,0,0,0,0,0c0,0,0,0,0,0L57.1,50C57.2,50.1,57.2,50.1,57.1,50 C57.2,50.1,57.2,50,57.1,50C57.1,50,57.1,50,57.1,50C57.1,50,57.1,50,57.1,50"/><path class="st85" d="M57.2,50.1l27.1-6c0,0,0,0,0,0c0,0,0,0,0,0c0,0,0,0,0,0c0,0,0,0,0,0l-27.1,6 C57.3,50.2,57.3,50.2,57.2,50.1C57.2,50.2,57.2,50.1,57.2,50.1C57.2,50.1,57.2,50.1,57.2,50.1C57.2,50.1,57.2,50.1,57.2,50.1"/><path class="st85" d="M57.3,50.2l27.1-6c0,0,0,0,0,0c0,0,0,0,0,0c0,0,0,0,0,0c0,0,0,0,0,0l-27.1,6 C57.3,50.3,57.3,50.3,57.3,50.2C57.3,50.3,57.3,50.3,57.3,50.2C57.3,50.2,57.3,50.2,57.3,50.2C57.3,50.2,57.3,50.2,57.3,50.2"/><path class="st85" d="M57.3,50.3l27.1-6c0,0,0,0,0,0c0,0,0,0,0,0c0,0,0,0,0,0c0,0,0,0,0,0l-27.1,6.1 C57.3,50.4,57.3,50.4,57.3,50.3C57.3,50.4,57.3,50.4,57.3,50.3C57.3,50.3,57.3,50.3,57.3,50.3C57.3,50.3,57.3,50.3,57.3,50.3"/><path class="st85" d="M57.3,50.4l27.1-6.1c0,0,0,0,0,0c0,0,0,0,0,0c0,0,0,0,0,0c0,0,0,0,0,0L57.3,50.4 C57.4,50.5,57.4,50.5,57.3,50.4C57.4,50.4,57.4,50.4,57.3,50.4C57.4,50.4,57.4,50.4,57.3,50.4C57.4,50.4,57.3,50.4,57.3,50.4"/><path class="st85" d="M57.4,50.5l27.1-6.1c0,0,0,0,0,0c0,0,0,0,0,0c0,0,0,0,0,0c0,0,0,0,0,0L57.4,50.5 C57.4,50.5,57.4,50.5,57.4,50.5C57.4,50.5,57.4,50.5,57.4,50.5C57.4,50.5,57.4,50.5,57.4,50.5C57.4,50.5,57.4,50.5,57.4,50.5"/><polyline class="st85" points="57.4,50.5 84.5,44.4 84.5,44.5 84.5,44.5 84.5,44.5 84.5,44.5 57.4,50.6 57.4,50.5 57.4,50.5 57.4,50.5 57.4,50.5"/><polyline class="st85" points="57.4,50.6 84.5,44.5 84.5,44.5 84.5,44.5 84.5,44.5 84.5,44.5 57.4,50.6 57.4,50.6 57.4,50.6 57.4,50.6 57.4,50.6"/><polyline class="st85" points="57.4,50.6 84.5,44.5 84.5,44.5 84.5,44.5 84.5,44.5 84.5,44.5 57.4,50.6 57.4,50.6 57.4,50.6 57.4,50.6 57.4,50.6"/><polyline class="st85" points="57.4,50.6 84.5,44.5 84.5,44.5 84.5,44.5 84.5,44.5 84.5,44.6 84.5,44.6 84.5,44.6 84.5,44.6 84.5,44.6 57.4,50.7 57.4,50.6 57.4,50.6 57.4,50.6 57.4,50.6 57.4,50.6 57.4,50.6 57.4,50.6 57.4,50.6"/><polyline class="st85" points="57.4,50.7 84.5,44.6 84.5,44.6 84.5,44.6 84.5,44.6 84.5,44.6 57.4,50.7 57.4,50.7 57.4,50.7 57.4,50.7 57.4,50.7"/><polyline class="st85" points="57.4,50.7 84.5,44.6 84.5,44.6 84.5,44.6 84.5,44.6 84.5,44.6 57.4,50.7 57.4,50.7 57.4,50.7 57.4,50.7 57.4,50.7"/><polyline class="st85" points="57.4,50.7 84.5,44.6 84.5,44.6 84.5,44.6 84.4,44.6 84.4,44.6 57.3,50.7 57.4,50.7 57.4,50.7 57.4,50.7 57.4,50.7"/><polyline class="st85" points="57.3,50.7 84.4,44.6 84.4,44.7 84.4,44.7 84.4,44.7 84.4,44.7 57.3,50.8 57.3,50.8 57.3,50.8 57.3,50.8 57.3,50.7"/><polyline class="st85" points="57.3,50.8 84.4,44.7 84.4,44.7 84.4,44.7 84.4,44.7 84.4,44.7 57.3,50.8 57.3,50.8 57.3,50.8 57.3,50.8 57.3,50.8"/><polyline class="st85" points="57.3,50.8 84.4,44.7 84.4,44.7 84.4,44.7 84.4,44.7 84.4,44.7 57.3,50.8 57.3,50.8 57.3,50.8 57.3,50.8 57.3,50.8"/><polyline class="st85" points="57.3,50.8 84.4,44.7 84.4,44.7 84.4,44.7 84.4,44.8 84.4,44.8 57.3,50.9 57.3,50.9 57.3,50.8 57.3,50.8 57.3,50.8"/><polyline class="st85" points="57.3,50.9 84.4,44.8 84.4,44.8 84.4,44.8 84.4,44.8 84.4,44.8 57.3,50.9 57.3,50.9 57.3,50.9 57.3,50.9 57.3,50.9"/><polyline class="st85" points="57.3,50.9 84.4,44.8 84.4,44.8 84.4,44.8 84.4,44.8 84.4,44.8 57.3,50.9 57.3,50.9 57.3,50.9 57.3,50.9 57.3,50.9"/><polyline class="st85" points="57.3,50.9 84.4,44.8 84.4,44.8 84.4,44.8 84.3,44.8 84.3,44.9 57.2,51 57.2,51 57.2,51 57.3,50.9 57.3,50.9"/><path class="st85" d="M57.2,51l27.1-6.1c0,0,0,0,0,0s0,0,0,0c0,0,0,0,0,0c0,0,0,0,0,0L57.2,51C57.2,51,57.2,51,57.2,51 C57.2,51,57.2,51,57.2,51C57.2,51,57.2,51,57.2,51C57.2,51,57.2,51,57.2,51"/><path class="st85" d="M57.2,51l27.1-6.1c0,0-0.1,0-0.1,0.1c0,0-0.1,0-0.1,0.1c0,0-0.1,0-0.1,0c0,0-0.1,0-0.1,0l-27.1,6.1 c0,0,0.1,0,0.1,0c0,0,0.1,0,0.1,0C57,51.1,57.1,51.1,57.2,51C57.1,51.1,57.2,51.1,57.2,51"/></g></g><g><path class="st85" d="M56.4,49.6c0.1,0,0.3,0.1,0.4,0.1c0.1,0.1,0.2,0.1,0.3,0.2c0.1,0.1,0.2,0.2,0.2,0.3c0,0.1,0.1,0.2,0.1,0.3 c0,0.1,0,0.2-0.1,0.3c-0.1,0.1-0.1,0.2-0.2,0.2c-0.1,0.1-0.2,0.1-0.3,0.1c-0.1,0-0.3,0-0.4,0l-0.5-0.1L47,49.5l-16.6-3.2 c0,0,0,0,0,0c0,0,0,0,0,0c0,0,0,0,0,0c0,0,0,0,0,0c-0.1,0-0.3,0-0.4-0.1c-0.1,0-0.2,0-0.3,0c-0.1,0-0.2,0-0.2,0 c-0.1,0-0.1,0-0.1,0c0,0,0,0,0,0.1c0,0,0,0.1,0,0.1c0,0,0,0.1,0,0.2c0,0.1,0,0.1,0,0.2c0,0,0,0,0,0c0,0,0,0,0,0c0,0,0,0,0,0 c0,0,0,0,0,0c0,0,0,0.1,0,0.1c0,0,0,0.1,0,0.1c0,0,0,0.1,0,0.1c0,0,0,0.1,0,0.1l0,0.2l0,0.5l0,0.2l0,0.5l0,0.2l0,0.5l0,0.2 c0,0,0,0.1,0,0.1c0,0,0,0.1,0,0.1c0,0,0,0.1,0,0.1c0,0,0,0.1,0,0.1c0,0,0,0,0,0c0,0,0,0,0,0c0,0,0,0,0,0c0,0,0,0,0,0 c0,0.1,0,0.2,0,0.2c0,0.1,0,0.1,0,0.2c0,0.1,0,0.1,0,0.1c0,0,0,0.1,0,0.1c0,0,0,0,0.1,0c0.1,0,0.1,0,0.2,0.1c0.1,0,0.2,0,0.3,0.1 c0.1,0,0.2,0,0.3,0.1c0,0,0,0,0,0c0,0,0,0,0,0c0,0,0,0,0,0c0,0,0,0,0,0l25.3,5.1l0.5,0.1c0.1,0,0.3,0.1,0.4,0.1 c0.1,0.1,0.2,0.1,0.3,0.2c0.1,0.1,0.2,0.2,0.2,0.3c0,0.1,0.1,0.2,0.1,0.3c0,0.1,0,0.2-0.1,0.3c-0.1,0.1-0.1,0.2-0.2,0.2 c-0.1,0.1-0.2,0.1-0.3,0.1c-0.1,0-0.3,0-0.4,0l-27.6-5.6c-0.1,0-0.3-0.1-0.4-0.2c-0.1-0.1-0.2-0.2-0.3-0.3 c-0.1-0.1-0.1-0.3-0.2-0.4c0-0.1-0.1-0.3,0-0.5l0.4-6c0-0.2,0-0.3,0.1-0.4c0.1-0.1,0.1-0.2,0.2-0.3c0.1-0.1,0.2-0.2,0.3-0.2 c0.1,0,0.2,0,0.4,0L56.4,49.6z"/></g></g></g><g><g><defs><rect id="SVGID_45_" x="13.3" y="11.8" width="74.5" height="77.4"/></defs><clipPath id="SVGID_46_"><use xlink:href="#SVGID_45_" overflow="visible"/></clipPath><g class="st88"><defs><path id="SVGID_47_" d="M30.2,65c-8-11.2-5.4-26.8,5.8-34.8c11.2-8,26.8-5.4,34.8,5.8c8,11.2,5.4,26.8-5.8,34.8 c-4.4,3.1-9.4,4.6-14.4,4.6C42.7,75.4,35.1,71.8,30.2,65 M44.5,15.7c-2,3-5.7,4.2-9,2.8c-5.1-2-10.5,1.9-10.3,7.3 c0.2,3.6-2.2,6.7-5.6,7.6c-5.3,1.4-7.4,7.7-4,12c2.2,2.8,2.2,6.7-0.1,9.5C12,59.1,14,65.5,19.2,67c3.4,0.9,5.7,4.2,5.5,7.7 c-0.3,5.4,5,9.4,10.1,7.5c3.3-1.2,7.1,0,9,3c2.9,4.6,9.6,4.7,12.6,0.1c2-3,5.7-4.2,9-2.8c5.1,2,10.5-1.9,10.3-7.3 c-0.2-3.6,2.2-6.7,5.6-7.6c5.3-1.4,7.4-7.7,4-12c-2.2-2.8-2.2-6.7,0.1-9.5c3.5-4.2,1.5-10.6-3.8-12c-3.4-0.9-5.7-4.2-5.5-7.7 c0.3-5.4-5-9.4-10.1-7.5c-3.3,1.2-7.1,0-9-3c-1.5-2.3-3.9-3.5-6.4-3.5C48.4,12.3,46,13.4,44.5,15.7"/></defs><clipPath id="SVGID_48_"><use xlink:href="#SVGID_47_" overflow="visible"/></clipPath><radialGradient id="SVGID_49_" cx="1.5692" cy="-0.3002" r="1" gradientTransform="matrix(47.4546 47.4546 47.4546 -47.4546 -28.7193 -63.4626)" gradientUnits="userSpaceOnUse"><stop offset="0" stop-color="#FFFFFF"/><stop offset="5.209076e-02" stop-color="#DCDBEC"/><stop offset="0.1094" stop-color="#BEBCDB"/><stop offset="0.1743" stop-color="#A4A0CD"/><stop offset="0.2476" stop-color="#8F8AC2"/><stop offset="0.3332" stop-color="#7F79B9"/><stop offset="0.4391" stop-color="#736EB3"/><stop offset="0.5876" stop-color="#6D67AF"/><stop offset="1" stop-color="#6B65AE"/></radialGradient><polygon class="st89" points="50.5,-26.3 127.8,51.1 50.5,128.4 -26.8,51.1"/></g><g class="st88"><defs><rect id="SVGID_50_" x="13.3" y="11.8" width="74.5" height="77.4"/></defs><clipPath id="SVGID_51_"><use xlink:href="#SVGID_50_" overflow="visible"/></clipPath><path class="st90" d="M65.9,18.7L65.9,18.7c5.1-2,10.5,2,10.2,7.4c-0.2,3.6,2.1,6.8,5.6,7.7c5.3,1.4,7.3,7.8,3.9,12 c-2.3,2.8-2.3,6.7,0,9.5c3.4,4.2,1.3,10.6-3.9,12c-3.4,0.9-5.8,4.1-5.6,7.7c0.3,5.4-5.1,9.4-10.2,7.4c-3.3-1.3-7.1-0.1-9,2.9 c-3,4.6-9.7,4.6-12.6,0c-1.9-3-5.7-4.2-9-2.9c-5.1,2-10.5-2-10.2-7.4c0.2-3.6-2.1-6.8-5.6-7.7c-5.3-1.4-7.3-7.8-3.9-12 c2.3-2.8,2.3-6.7,0-9.5c-3.4-4.2-1.3-10.6,3.9-12c3.4-0.9,5.8-4.1,5.6-7.7c-0.3-5.4,5.1-9.4,10.2-7.4c3.3,1.3,7.1,0.1,9-2.9v0 c3-4.6,9.7-4.6,12.6,0C58.8,18.7,62.6,20,65.9,18.7z"/><ellipse transform="matrix(0.8145 -0.5802 0.5802 0.8145 -19.9304 38.6657)" class="st90" cx="50.5" cy="50.5" rx="24.9" ry="24.9"/></g></g></g><g><g><rect x="36.6" y="34.2" class="st91" width="13.3" height="22"/><g><rect x="38.3" y="51.6" class="st92" width="0.1" height="2.9"/><rect x="39.7" y="51.6" class="st92" width="0.1" height="2.9"/><rect x="41.2" y="51.6" class="st92" width="0.1" height="2.9"/><rect x="40.8" y="51.6" class="st92" width="0.1" height="2.9"/><rect x="41" y="51.6" class="st92" width="0.1" height="2.9"/><rect x="41.9" y="51.6" class="st92" width="0.1" height="2.9"/><rect x="43.9" y="51.6" class="st92" width="0.1" height="2.9"/><rect x="44.3" y="51.6" class="st92" width="0.1" height="2.9"/><rect x="44.7" y="51.6" class="st92" width="0.1" height="2.9"/><rect x="44.9" y="51.6" class="st92" width="0.1" height="2.9"/><rect x="46.4" y="51.6" class="st92" width="0.1" height="2.9"/><rect x="46.9" y="51.6" class="st92" width="0.1" height="2.9"/><rect x="47.5" y="51.6" class="st92" width="0.1" height="2.9"/><rect x="48.3" y="51.6" class="st92" width="0.1" height="2.9"/><rect x="40" y="51.6" class="st92" width="0.1" height="2.9"/><rect x="38.8" y="51.6" class="st92" width="0.2" height="2.9"/><rect x="40.5" y="51.6" class="st92" width="0.2" height="2.9"/><rect x="41.6" y="51.6" class="st92" width="0.2" height="2.9"/><rect x="47.9" y="51.6" class="st92" width="0.2" height="2.9"/><rect x="43" y="51.6" class="st92" width="0.2" height="2.9"/><rect x="43.3" y="51.6" class="st92" width="0.2" height="2.9"/><rect x="43.6" y="51.6" class="st92" width="0.3" height="2.9"/><rect x="45.3" y="51.6" class="st92" width="0.3" height="2.9"/><rect x="46" y="51.6" class="st92" width="0.3" height="2.9"/><rect x="38.5" y="51.6" class="st92" width="0.1" height="2.9"/><rect x="39.4" y="51.6" class="st92" width="0.1" height="2.9"/><rect x="39.2" y="51.6" class="st92" width="0.1" height="2.9"/><rect x="39.1" y="51.6" class="st92" width="0.1" height="2.9"/><rect x="40.3" y="51.6" class="st92" width="0.1" height="2.9"/><rect x="41.4" y="51.6" class="st92" width="0.1" height="2.9"/><rect x="42.1" y="51.6" class="st92" width="0.1" height="2.9"/><rect x="42.4" y="51.6" class="st92" width="0.1" height="2.9"/><rect x="42.6" y="51.6" class="st92" width="0.1" height="2.9"/><rect x="42.7" y="51.6" class="st92" width="0.1" height="2.9"/><rect x="44.1" y="51.6" class="st92" width="0.1" height="2.9"/><rect x="45.1" y="51.6" class="st92" width="0.1" height="2.9"/><rect x="45.7" y="51.6" class="st92" width="0.1" height="2.9"/><rect x="45.9" y="51.6" class="st92" width="0.1" height="2.9"/><rect x="46.6" y="51.6" class="st92" width="0.1" height="2.9"/><rect x="47.1" y="51.6" class="st92" width="0.1" height="2.9"/><rect x="48.1" y="51.6" class="st92" width="0.1" height="2.9"/></g><g><g><path class="st92" d="M40.6,44.7h-0.6v-0.1h0.3v-0.8L40,43.9l-0.1-0.1l0.3-0.2h0.1v0.9h0.2V44.7z"/><path class="st92" d="M41.5,44.4c0,0,0,0.1,0,0.1c0,0,0,0.1-0.1,0.1c0,0-0.1,0.1-0.1,0.1c-0.1,0-0.1,0-0.2,0c0,0-0.1,0-0.1,0 c0,0-0.1,0-0.1,0v-0.1c0,0,0.1,0,0.1,0c0,0,0.1,0,0.1,0c0.1,0,0.1,0,0.1,0c0,0,0.1,0,0.1,0c0,0,0,0,0.1-0.1c0,0,0-0.1,0-0.1 c0,0,0-0.1,0-0.1c0,0,0,0-0.1-0.1c0,0-0.1,0-0.1,0c0,0-0.1,0-0.1,0H41v-0.1h0.1c0,0,0.1,0,0.1,0c0,0,0,0,0.1,0c0,0,0,0,0-0.1 c0,0,0,0,0-0.1c0-0.1,0-0.1-0.1-0.1c0,0-0.1,0-0.1,0c0,0-0.1,0-0.1,0c0,0-0.1,0-0.1,0v-0.1c0,0,0,0,0.1,0c0,0,0,0,0.1,0 c0,0,0,0,0.1,0c0,0,0,0,0.1,0c0.1,0,0.1,0,0.1,0c0,0,0.1,0,0.1,0.1c0,0,0,0,0.1,0.1c0,0,0,0.1,0,0.1c0,0.1,0,0.1,0,0.1 c0,0-0.1,0.1-0.1,0.1c0,0,0.1,0,0.1,0c0,0,0,0,0.1,0S41.4,44.3,41.5,44.4C41.5,44.3,41.5,44.3,41.5,44.4z"/><path class="st92" d="M42,43.9C42.1,43.9,42.1,43.9,42,43.9C42.1,43.9,42.1,43.9,42,43.9c0.1,0,0.1,0.1,0.1,0.1c0,0,0,0,0,0 c0,0,0,0,0,0c0,0,0,0,0,0c0,0,0,0,0,0c0,0,0,0,0,0c0,0,0,0,0,0c0,0,0,0,0,0c0,0,0,0,0,0c0,0,0,0,0,0c0,0,0,0,0,0 C41.9,43.9,41.9,43.9,42,43.9C42,43.9,42,43.9,42,43.9C42,43.9,42,43.9,42,43.9z M42,44.5C42.1,44.5,42.1,44.5,42,44.5 C42.1,44.5,42.1,44.5,42,44.5c0.1,0,0.1,0.1,0.1,0.1c0,0,0,0,0,0c0,0,0,0,0,0c0,0,0,0,0,0c0,0,0,0,0,0c0,0,0,0,0,0c0,0,0,0,0,0 c0,0,0,0,0,0c0,0,0,0,0,0c0,0,0,0,0,0c0,0,0,0,0,0C41.9,44.5,41.9,44.5,42,44.5C42,44.5,42,44.5,42,44.5 C42,44.5,42,44.5,42,44.5z"/><path class="st92" d="M43.3,44.7h-0.6v-0.1h0.3v-0.8l-0.2,0.1l-0.1-0.1l0.3-0.2H43v0.9h0.2V44.7z"/><path class="st92" d="M44.2,44.7h-0.7v-0.1l0.3-0.3c0,0,0.1-0.1,0.1-0.1c0,0,0-0.1,0.1-0.1c0,0,0-0.1,0-0.1c0,0,0,0,0-0.1 c0,0,0,0,0-0.1c0,0,0,0,0-0.1c0,0,0,0-0.1,0c0,0,0,0-0.1,0c0,0-0.1,0-0.1,0c0,0-0.1,0-0.1,0.1l-0.1-0.1c0,0,0.1-0.1,0.1-0.1 c0.1,0,0.1,0,0.2,0c0,0,0.1,0,0.1,0c0,0,0.1,0,0.1,0.1c0,0,0,0.1,0.1,0.1c0,0,0,0.1,0,0.1c0,0,0,0.1,0,0.1c0,0,0,0.1,0,0.1 c0,0,0,0.1-0.1,0.1c0,0-0.1,0.1-0.1,0.1l-0.2,0.2h0.5V44.7z"/><path class="st92" d="M44.7,43.9C44.7,43.9,44.7,43.9,44.7,43.9C44.8,43.9,44.8,43.9,44.7,43.9c0.1,0,0.1,0.1,0.1,0.1 c0,0,0,0,0,0c0,0,0,0,0,0s0,0,0,0c0,0,0,0,0,0c0,0,0,0,0,0c0,0,0,0,0,0c0,0,0,0,0,0c0,0,0,0,0,0c0,0,0,0,0,0c0,0,0,0,0,0 C44.6,43.9,44.6,43.9,44.7,43.9C44.6,43.9,44.6,43.9,44.7,43.9C44.7,43.9,44.7,43.9,44.7,43.9z M44.7,44.5 C44.7,44.5,44.7,44.5,44.7,44.5C44.8,44.5,44.8,44.5,44.7,44.5c0.1,0,0.1,0.1,0.1,0.1c0,0,0,0,0,0c0,0,0,0,0,0c0,0,0,0,0,0 c0,0,0,0,0,0c0,0,0,0,0,0c0,0,0,0,0,0c0,0,0,0,0,0c0,0,0,0,0,0c0,0,0,0,0,0c0,0,0,0,0,0C44.6,44.5,44.6,44.5,44.7,44.5 C44.6,44.5,44.6,44.5,44.7,44.5C44.7,44.5,44.7,44.5,44.7,44.5z"/><path class="st92" d="M46,44.2c0,0.1,0,0.2,0,0.2c0,0.1,0,0.1-0.1,0.2c0,0-0.1,0.1-0.1,0.1c0,0-0.1,0-0.2,0c-0.1,0-0.1,0-0.2,0 c0,0-0.1-0.1-0.1-0.1c0,0-0.1-0.1-0.1-0.2c0-0.1,0-0.1,0-0.2c0-0.1,0-0.2,0-0.2c0-0.1,0-0.1,0.1-0.2c0,0,0.1-0.1,0.1-0.1 c0,0,0.1,0,0.2,0c0.1,0,0.1,0,0.2,0c0,0,0.1,0.1,0.1,0.1c0,0,0.1,0.1,0.1,0.2C46,44,46,44.1,46,44.2z M45.4,44.2 C45.4,44.2,45.4,44.2,45.4,44.2C45.4,44.2,45.4,44.2,45.4,44.2l0.4-0.2c0,0,0-0.1,0-0.1c0,0,0,0,0-0.1c0,0,0,0-0.1,0 c0,0,0,0-0.1,0c0,0-0.1,0-0.1,0c0,0-0.1,0-0.1,0.1c0,0,0,0.1,0,0.1C45.4,44,45.4,44.1,45.4,44.2z M45.8,44.2 C45.8,44.2,45.8,44.1,45.8,44.2c0-0.1,0-0.1,0-0.1l-0.4,0.3c0,0,0,0.1,0,0.1c0,0,0,0,0,0.1c0,0,0,0,0.1,0c0,0,0,0,0.1,0 c0,0,0.1,0,0.1,0c0,0,0.1,0,0.1-0.1c0,0,0-0.1,0-0.1C45.8,44.3,45.8,44.2,45.8,44.2z"/><path class="st92" d="M46.8,44.7h-0.6v-0.1h0.3v-0.8l-0.2,0.1l-0.1-0.1l0.3-0.2h0.1v0.9h0.2V44.7z"/></g></g><g><g><path class="st92" d="M43,48C43.1,48,43.1,48,43,48C43.1,48,43.1,48.1,43,48C43.1,48.1,43.1,48.1,43,48 C43.1,48.1,43.1,48.1,43,48c0.1,0.1,0.1,0.1,0.1,0.1c0,0,0,0,0,0c0,0,0,0,0,0c0,0,0,0,0,0c0,0,0,0,0,0c0,0,0,0,0,0c0,0,0,0,0,0 C43,48.1,43,48.1,43,48C43,48.1,43,48.1,43,48C43,48.1,43,48.1,43,48C43,48.1,43,48,43,48C43,48,43,48,43,48z M43,48.4 C43.1,48.4,43.1,48.4,43,48.4C43.1,48.5,43.1,48.5,43,48.4C43.1,48.5,43.1,48.5,43,48.4C43.1,48.5,43.1,48.5,43,48.4 c0.1,0.1,0.1,0.1,0.1,0.1c0,0,0,0,0,0c0,0,0,0,0,0c0,0,0,0,0,0c0,0,0,0,0,0c0,0,0,0,0,0c0,0,0,0,0,0C43,48.5,43,48.5,43,48.4 C43,48.5,43,48.5,43,48.4C43,48.5,43,48.5,43,48.4C43,48.5,43,48.5,43,48.4C43,48.4,43,48.4,43,48.4z"/><path class="st92" d="M44.5,48.4C44.5,48.4,44.5,48.4,44.5,48.4c0,0.1-0.1,0.2-0.1,0.2c0,0-0.1,0-0.1,0c0,0-0.1,0-0.1,0 c0,0,0,0,0,0c0,0,0,0,0,0c0,0,0,0,0,0c0,0,0,0,0,0v-0.1c0,0,0,0,0.1,0c0,0,0.1,0,0.1,0c0,0,0.1,0,0.1,0c0,0,0,0,0.1,0 c0,0,0,0,0,0c0,0,0,0,0-0.1c0,0,0-0.1,0-0.1c0,0-0.1,0-0.1,0h-0.1v-0.4h0.4V48h-0.3v0.2h0.1c0,0,0.1,0,0.1,0c0,0,0.1,0,0.1,0 C44.5,48.2,44.5,48.2,44.5,48.4C44.5,48.3,44.5,48.3,44.5,48.4z"/><path class="st92" d="M44.9,48.4C44.9,48.4,44.9,48.4,44.9,48.4C44.9,48.4,45,48.4,44.9,48.4C45,48.5,45,48.5,44.9,48.4 C45,48.5,45,48.5,44.9,48.4c0.1,0.1,0.1,0.1,0.1,0.1c0,0,0,0,0,0c0,0,0,0,0,0c0,0,0,0,0,0c0,0,0,0,0,0c0,0,0,0,0,0c0,0,0,0,0,0 C44.8,48.5,44.8,48.5,44.9,48.4C44.8,48.5,44.8,48.5,44.9,48.4C44.8,48.5,44.8,48.5,44.9,48.4C44.8,48.4,44.9,48.4,44.9,48.4 C44.9,48.4,44.9,48.4,44.9,48.4z"/><path class="st92" d="M45.8,48.2c0,0.1,0,0.1,0,0.2c0,0,0,0.1,0,0.1c0,0-0.1,0.1-0.1,0.1c0,0-0.1,0-0.1,0c0,0-0.1,0-0.1,0 c0,0-0.1,0-0.1-0.1c0,0,0-0.1-0.1-0.1c0,0,0-0.1,0-0.2c0-0.1,0-0.1,0-0.2c0,0,0-0.1,0-0.1c0,0,0-0.1,0.1-0.1c0,0,0.1,0,0.1,0 c0,0,0.1,0,0.1,0c0,0,0.1,0,0.1,0.1c0,0,0,0.1,0.1,0.1C45.8,48.1,45.8,48.2,45.8,48.2z M45.4,48.2 C45.4,48.2,45.4,48.3,45.4,48.2C45.4,48.3,45.4,48.3,45.4,48.2l0.3-0.2c0,0,0,0,0-0.1c0,0,0,0,0,0c0,0,0,0,0,0c0,0,0,0-0.1,0 c0,0,0,0-0.1,0c0,0,0,0-0.1,0.1c0,0,0,0.1,0,0.1C45.4,48.1,45.4,48.2,45.4,48.2z M45.7,48.2C45.7,48.2,45.7,48.2,45.7,48.2 C45.7,48.2,45.7,48.2,45.7,48.2l-0.3,0.2c0,0,0,0,0,0.1c0,0,0,0,0,0c0,0,0,0,0,0c0,0,0,0,0.1,0c0,0,0,0,0.1,0c0,0,0,0,0.1-0.1 c0,0,0-0.1,0-0.1C45.7,48.3,45.7,48.3,45.7,48.2z"/><path class="st92" d="M46.4,48.2c0,0.1,0,0.1,0,0.2c0,0,0,0.1,0,0.1c0,0,0,0.1-0.1,0.1c0,0-0.1,0-0.1,0c0,0-0.1,0-0.1,0 c0,0-0.1,0-0.1-0.1c0,0,0-0.1-0.1-0.1c0,0,0-0.1,0-0.2c0-0.1,0-0.1,0-0.2c0,0,0-0.1,0-0.1c0,0,0-0.1,0.1-0.1c0,0,0.1,0,0.1,0 c0,0,0.1,0,0.1,0c0,0,0.1,0,0.1,0.1c0,0,0,0.1,0.1,0.1C46.4,48.1,46.4,48.2,46.4,48.2z M46,48.2C46,48.2,46,48.3,46,48.2 C46,48.3,46,48.3,46,48.2l0.3-0.2c0,0,0,0,0-0.1c0,0,0,0,0,0c0,0,0,0,0,0c0,0,0,0-0.1,0c0,0,0,0-0.1,0c0,0,0,0-0.1,0.1 c0,0,0,0.1,0,0.1C46,48.1,46,48.2,46,48.2z M46.3,48.2C46.3,48.2,46.3,48.2,46.3,48.2C46.3,48.2,46.3,48.2,46.3,48.2L46,48.4 c0,0,0,0,0,0.1c0,0,0,0,0,0c0,0,0,0,0,0c0,0,0,0,0.1,0c0,0,0,0,0.1,0c0,0,0,0,0.1-0.1c0,0,0-0.1,0-0.1 C46.3,48.3,46.3,48.3,46.3,48.2z"/></g></g><g><g><path class="st92" d="M41.8,46.2h-0.3v-0.1l0.1-0.1c0,0,0,0,0,0c0,0,0,0,0,0c0,0,0,0,0,0c0,0,0,0,0,0c0,0,0,0,0,0c0,0,0,0,0,0 c0,0,0,0,0,0s0,0,0,0c0,0,0,0-0.1,0c0,0,0,0,0,0l0,0c0,0,0,0,0.1,0c0,0,0,0,0.1,0c0,0,0,0,0.1,0c0,0,0,0,0,0c0,0,0,0,0,0 c0,0,0,0,0,0.1c0,0,0,0,0,0c0,0,0,0,0,0c0,0,0,0,0,0c0,0,0,0,0,0l-0.1,0.1L41.8,46.2L41.8,46.2z"/><path class="st92" d="M42.2,46.1C42.2,46.1,42.2,46.1,42.2,46.1c0,0.1,0,0.1-0.1,0.1c0,0,0,0-0.1,0c0,0,0,0-0.1,0c0,0,0,0,0,0 c0,0,0,0,0,0c0,0,0,0,0,0c0,0,0,0,0,0v-0.1c0,0,0,0,0,0c0,0,0,0,0,0c0,0,0,0,0,0C42.1,46.2,42.1,46.1,42.2,46.1 C42.1,46.1,42.1,46.1,42.2,46.1C42.1,46.1,42.1,46.1,42.2,46.1C42.1,46,42.1,46,42.2,46.1C42.1,46,42.1,46,42,46h-0.1v-0.2h0.2 v0.1H42v0.1h0c0,0,0,0,0.1,0C42.1,46,42.1,46,42.2,46.1C42.2,46,42.2,46,42.2,46.1C42.2,46,42.2,46,42.2,46.1z"/><path class="st92" d="M42.4,45.9C42.4,45.9,42.5,45.9,42.4,45.9C42.5,45.9,42.5,45.9,42.4,45.9C42.5,45.9,42.5,45.9,42.4,45.9 C42.5,45.9,42.5,45.9,42.4,45.9C42.5,45.9,42.5,45.9,42.4,45.9C42.5,45.9,42.5,46,42.4,45.9C42.5,46,42.5,46,42.4,45.9 c0,0.1,0,0.1,0,0.1C42.4,46,42.4,46,42.4,45.9C42.4,46,42.4,46,42.4,45.9C42.4,46,42.4,45.9,42.4,45.9 C42.4,45.9,42.4,45.9,42.4,45.9C42.4,45.9,42.4,45.9,42.4,45.9C42.4,45.9,42.4,45.9,42.4,45.9C42.4,45.9,42.4,45.9,42.4,45.9 C42.4,45.9,42.4,45.9,42.4,45.9z M42.4,46.1C42.4,46.1,42.5,46.1,42.4,46.1C42.5,46.1,42.5,46.1,42.4,46.1 C42.5,46.1,42.5,46.1,42.4,46.1C42.5,46.2,42.5,46.2,42.4,46.1C42.5,46.2,42.5,46.2,42.4,46.1C42.5,46.2,42.5,46.2,42.4,46.1 C42.5,46.2,42.5,46.2,42.4,46.1c0,0.1,0,0.1,0,0.1C42.4,46.2,42.4,46.2,42.4,46.1C42.4,46.2,42.4,46.2,42.4,46.1 C42.4,46.2,42.4,46.2,42.4,46.1C42.4,46.2,42.4,46.2,42.4,46.1C42.4,46.2,42.4,46.2,42.4,46.1C42.4,46.1,42.4,46.1,42.4,46.1 C42.4,46.1,42.4,46.1,42.4,46.1C42.4,46.1,42.4,46.1,42.4,46.1z"/><path class="st92" d="M43,46C43,46,43,46.1,43,46c0,0.1,0,0.1,0,0.2c0,0,0,0-0.1,0c0,0,0,0-0.1,0c0,0,0,0-0.1,0c0,0,0,0,0,0 c0,0,0,0,0-0.1c0,0,0-0.1,0-0.1c0,0,0-0.1,0-0.1c0,0,0-0.1,0-0.1c0,0,0,0,0.1,0c0,0,0,0,0.1,0c0,0,0,0,0.1,0c0,0,0,0,0,0 C42.9,45.8,43,45.9,43,46C43,45.9,43,46,43,46z M42.7,46C42.7,46,42.7,46,42.7,46C42.7,46,42.7,46,42.7,46l0.2-0.1c0,0,0,0,0,0 c0,0,0,0,0,0c0,0,0,0,0,0c0,0,0,0,0,0c0,0,0,0,0,0c0,0,0,0,0,0C42.7,45.9,42.7,45.9,42.7,46C42.7,45.9,42.7,46,42.7,46z M42.9,46C42.9,46,42.9,46,42.9,46C42.9,46,42.9,46,42.9,46l-0.2,0.1c0,0,0,0,0,0c0,0,0,0,0,0c0,0,0,0,0,0c0,0,0,0,0,0 c0,0,0,0,0,0c0,0,0,0,0,0C42.9,46.1,42.9,46.1,42.9,46C42.9,46,42.9,46,42.9,46z"/><path class="st92" d="M43.3,46.2h-0.3v-0.1h0.1v-0.3l-0.1,0.1l0,0l0.1-0.1h0.1L43.3,46.2L43.3,46.2L43.3,46.2z"/><path class="st92" d="M43.6,45.9C43.6,45.9,43.6,45.9,43.6,45.9C43.6,45.9,43.6,45.9,43.6,45.9C43.6,45.9,43.6,45.9,43.6,45.9 C43.6,45.9,43.6,45.9,43.6,45.9C43.6,45.9,43.6,45.9,43.6,45.9C43.6,45.9,43.6,46,43.6,45.9C43.6,46,43.6,46,43.6,45.9 c0,0.1,0,0.1,0,0.1C43.6,46,43.5,46,43.6,45.9C43.5,46,43.5,46,43.6,45.9C43.5,46,43.5,45.9,43.6,45.9 C43.5,45.9,43.5,45.9,43.6,45.9C43.5,45.9,43.5,45.9,43.6,45.9C43.5,45.9,43.5,45.9,43.6,45.9C43.5,45.9,43.5,45.9,43.6,45.9 C43.5,45.9,43.6,45.9,43.6,45.9z M43.6,46.1C43.6,46.1,43.6,46.1,43.6,46.1C43.6,46.1,43.6,46.1,43.6,46.1 C43.6,46.1,43.6,46.1,43.6,46.1C43.6,46.2,43.6,46.2,43.6,46.1C43.6,46.2,43.6,46.2,43.6,46.1C43.6,46.2,43.6,46.2,43.6,46.1 C43.6,46.2,43.6,46.2,43.6,46.1c0,0.1,0,0.1,0,0.1C43.6,46.2,43.5,46.2,43.6,46.1C43.5,46.2,43.5,46.2,43.6,46.1 C43.5,46.2,43.5,46.2,43.6,46.1C43.5,46.2,43.5,46.2,43.6,46.1C43.5,46.2,43.5,46.2,43.6,46.1C43.5,46.1,43.5,46.1,43.6,46.1 C43.5,46.1,43.5,46.1,43.6,46.1C43.5,46.1,43.6,46.1,43.6,46.1z"/><path class="st92" d="M44.1,46.2h-0.3v-0.1l0.1-0.1c0,0,0,0,0,0c0,0,0,0,0,0c0,0,0,0,0,0c0,0,0,0,0,0c0,0,0,0,0,0c0,0,0,0,0,0 c0,0,0,0,0,0c0,0,0,0,0,0c0,0,0,0-0.1,0c0,0,0,0,0,0l0,0c0,0,0,0,0.1,0c0,0,0,0,0.1,0c0,0,0,0,0.1,0c0,0,0,0,0,0c0,0,0,0,0,0 c0,0,0,0,0,0.1c0,0,0,0,0,0c0,0,0,0,0,0c0,0,0,0,0,0c0,0,0,0,0,0l-0.1,0.1L44.1,46.2L44.1,46.2z"/><path class="st92" d="M44.5,46C44.5,46,44.5,46.1,44.5,46c0,0.1,0,0.1,0,0.2c0,0,0,0-0.1,0c0,0,0,0-0.1,0c0,0,0,0-0.1,0 c0,0,0,0,0,0c0,0,0,0,0-0.1c0,0,0-0.1,0-0.1c0,0,0-0.1,0-0.1c0,0,0-0.1,0-0.1c0,0,0,0,0.1,0c0,0,0,0,0.1,0c0,0,0,0,0.1,0 c0,0,0,0,0,0C44.4,45.8,44.4,45.9,44.5,46C44.5,45.9,44.5,46,44.5,46z M44.2,46C44.2,46,44.2,46,44.2,46 C44.2,46,44.2,46,44.2,46l0.2-0.1c0,0,0,0,0,0c0,0,0,0,0,0c0,0,0,0,0,0c0,0,0,0,0,0c0,0,0,0,0,0c0,0,0,0,0,0 C44.2,45.9,44.2,45.9,44.2,46C44.2,45.9,44.2,46,44.2,46z M44.4,46C44.4,46,44.4,46,44.4,46C44.4,46,44.4,46,44.4,46l-0.2,0.1 c0,0,0,0,0,0c0,0,0,0,0,0c0,0,0,0,0,0c0,0,0,0,0,0c0,0,0,0,0,0c0,0,0,0,0,0C44.4,46.1,44.4,46.1,44.4,46 C44.4,46,44.4,46,44.4,46z"/><path class="st92" d="M44.8,46.2h-0.3v-0.1h0.1v-0.3l-0.1,0.1l0,0l0.1-0.1h0.1L44.8,46.2L44.8,46.2L44.8,46.2z"/><path class="st92" d="M45.2,45.8L45,46.2h-0.1L45.2,45.8h-0.3v-0.1L45.2,45.8L45.2,45.8z"/></g></g><g><g><path class="st92" d="M48.8,40.3h-0.2v0L48.8,40.3L48.8,40.3z M48.5,40.3h-0.2v0L48.5,40.3L48.5,40.3z M48.3,40.3h-0.2v0 L48.3,40.3L48.3,40.3z M48,40.3h-0.2v0L48,40.3L48,40.3z M47.8,40.3h-0.2v0L47.8,40.3L47.8,40.3z M47.5,40.3h-0.2v0L47.5,40.3 L47.5,40.3z M47.3,40.3h-0.2v0L47.3,40.3L47.3,40.3z M47,40.3h-0.2v0L47,40.3L47,40.3z M46.8,40.3h-0.2v0L46.8,40.3L46.8,40.3z M46.5,40.3h-0.2v0L46.5,40.3L46.5,40.3z M46.2,40.3h-0.2v0L46.2,40.3L46.2,40.3z M46,40.3h-0.2v0L46,40.3L46,40.3z M45.7,40.3 h-0.2v0L45.7,40.3L45.7,40.3z M45.5,40.3h-0.2v0L45.5,40.3L45.5,40.3z M45.2,40.3h-0.2v0L45.2,40.3L45.2,40.3z M45,40.3h-0.2v0 L45,40.3L45,40.3z M44.7,40.3h-0.2v0L44.7,40.3L44.7,40.3z M44.5,40.3h-0.2v0L44.5,40.3L44.5,40.3z M44.2,40.3h-0.2v0L44.2,40.3 L44.2,40.3z M44,40.3h-0.2v0L44,40.3L44,40.3z M43.7,40.3h-0.2v0L43.7,40.3L43.7,40.3z M43.5,40.3h-0.2v0L43.5,40.3L43.5,40.3z M43.2,40.3H43v0L43.2,40.3L43.2,40.3z M43,40.3h-0.2v0L43,40.3L43,40.3z M42.7,40.3h-0.2v0L42.7,40.3L42.7,40.3z M42.4,40.3 h-0.2v0L42.4,40.3L42.4,40.3z M42.2,40.3H42v0L42.2,40.3L42.2,40.3z M41.9,40.3h-0.2v0L41.9,40.3L41.9,40.3z M41.7,40.3h-0.2v0 L41.7,40.3L41.7,40.3z M41.4,40.3h-0.2v0L41.4,40.3L41.4,40.3z M41.2,40.3H41v0L41.2,40.3L41.2,40.3z M40.9,40.3h-0.2v0 L40.9,40.3L40.9,40.3z M40.7,40.3h-0.2v0L40.7,40.3L40.7,40.3z M40.4,40.3h-0.2v0L40.4,40.3L40.4,40.3z M40.2,40.3H40v0 L40.2,40.3L40.2,40.3z M39.9,40.3h-0.2v0L39.9,40.3L39.9,40.3z M39.7,40.3h-0.2v0L39.7,40.3L39.7,40.3z M39.4,40.3h-0.2v0 L39.4,40.3L39.4,40.3z M39.1,40.3H39v0L39.1,40.3L39.1,40.3z M38.9,40.3h-0.2v0L38.9,40.3L38.9,40.3z M38.6,40.3h-0.2v0 L38.6,40.3L38.6,40.3z M38.4,40.3h-0.2v0L38.4,40.3L38.4,40.3z M38.1,40.3H38v0L38.1,40.3L38.1,40.3z"/></g></g><g><g><path class="st92" d="M48.8,42.7h-0.2v0L48.8,42.7L48.8,42.7z M48.5,42.7h-0.2v0L48.5,42.7L48.5,42.7z M48.3,42.7h-0.2v0 L48.3,42.7L48.3,42.7z M48,42.7h-0.2v0L48,42.7L48,42.7z M47.8,42.7h-0.2v0L47.8,42.7L47.8,42.7z M47.5,42.7h-0.2v0L47.5,42.7 L47.5,42.7z M47.3,42.7h-0.2v0L47.3,42.7L47.3,42.7z M47,42.7h-0.2v0L47,42.7L47,42.7z M46.8,42.7h-0.2v0L46.8,42.7L46.8,42.7z M46.5,42.7h-0.2v0L46.5,42.7L46.5,42.7z M46.2,42.7h-0.2v0L46.2,42.7L46.2,42.7z M46,42.7h-0.2v0L46,42.7L46,42.7z M45.7,42.7 h-0.2v0L45.7,42.7L45.7,42.7z M45.5,42.7h-0.2v0L45.5,42.7L45.5,42.7z M45.2,42.7h-0.2v0L45.2,42.7L45.2,42.7z M45,42.7h-0.2v0 L45,42.7L45,42.7z M44.7,42.7h-0.2v0L44.7,42.7L44.7,42.7z M44.5,42.7h-0.2v0L44.5,42.7L44.5,42.7z M44.2,42.7h-0.2v0L44.2,42.7 L44.2,42.7z M44,42.7h-0.2v0L44,42.7L44,42.7z M43.7,42.7h-0.2v0L43.7,42.7L43.7,42.7z M43.5,42.7h-0.2v0L43.5,42.7L43.5,42.7z M43.2,42.7H43v0L43.2,42.7L43.2,42.7z M43,42.7h-0.2v0L43,42.7L43,42.7z M42.7,42.7h-0.2v0L42.7,42.7L42.7,42.7z M42.4,42.7 h-0.2v0L42.4,42.7L42.4,42.7z M42.2,42.7H42v0L42.2,42.7L42.2,42.7z M41.9,42.7h-0.2v0L41.9,42.7L41.9,42.7z M41.7,42.7h-0.2v0 L41.7,42.7L41.7,42.7z M41.4,42.7h-0.2v0L41.4,42.7L41.4,42.7z M41.2,42.7H41v0L41.2,42.7L41.2,42.7z M40.9,42.7h-0.2v0 L40.9,42.7L40.9,42.7z M40.7,42.7h-0.2v0L40.7,42.7L40.7,42.7z M40.4,42.7h-0.2v0L40.4,42.7L40.4,42.7z M40.2,42.7H40v0 L40.2,42.7L40.2,42.7z M39.9,42.7h-0.2v0L39.9,42.7L39.9,42.7z M39.7,42.7h-0.2v0L39.7,42.7L39.7,42.7z M39.4,42.7h-0.2v0 L39.4,42.7L39.4,42.7z M39.1,42.7H39v0L39.1,42.7L39.1,42.7z M38.9,42.7h-0.2v0L38.9,42.7L38.9,42.7z M38.6,42.7h-0.2v0 L38.6,42.7L38.6,42.7z M38.4,42.7h-0.2v0L38.4,42.7L38.4,42.7z M38.1,42.7H38v0L38.1,42.7L38.1,42.7z"/></g></g><g><g><path class="st92" d="M48.8,49.6h-0.2v0L48.8,49.6L48.8,49.6z M48.5,49.6h-0.2v0L48.5,49.6L48.5,49.6z M48.3,49.6h-0.2v0 L48.3,49.6L48.3,49.6z M48,49.6h-0.2v0L48,49.6L48,49.6z M47.8,49.6h-0.2v0L47.8,49.6L47.8,49.6z M47.5,49.6h-0.2v0L47.5,49.6 L47.5,49.6z M47.3,49.6h-0.2v0L47.3,49.6L47.3,49.6z M47,49.6h-0.2v0L47,49.6L47,49.6z M46.8,49.6h-0.2v0L46.8,49.6L46.8,49.6z M46.5,49.6h-0.2v0L46.5,49.6L46.5,49.6z M46.2,49.6h-0.2v0L46.2,49.6L46.2,49.6z M46,49.6h-0.2v0L46,49.6L46,49.6z M45.7,49.6 h-0.2v0L45.7,49.6L45.7,49.6z M45.5,49.6h-0.2v0L45.5,49.6L45.5,49.6z M45.2,49.6h-0.2v0L45.2,49.6L45.2,49.6z M45,49.6h-0.2v0 L45,49.6L45,49.6z M44.7,49.6h-0.2v0L44.7,49.6L44.7,49.6z M44.5,49.6h-0.2v0L44.5,49.6L44.5,49.6z M44.2,49.6h-0.2v0L44.2,49.6 L44.2,49.6z M44,49.6h-0.2v0L44,49.6L44,49.6z M43.7,49.6h-0.2v0L43.7,49.6L43.7,49.6z M43.5,49.6h-0.2v0L43.5,49.6L43.5,49.6z M43.2,49.6H43v0L43.2,49.6L43.2,49.6z M43,49.6h-0.2v0L43,49.6L43,49.6z M42.7,49.6h-0.2v0L42.7,49.6L42.7,49.6z M42.4,49.6 h-0.2v0L42.4,49.6L42.4,49.6z M42.2,49.6H42v0L42.2,49.6L42.2,49.6z M41.9,49.6h-0.2v0L41.9,49.6L41.9,49.6z M41.7,49.6h-0.2v0 L41.7,49.6L41.7,49.6z M41.4,49.6h-0.2v0L41.4,49.6L41.4,49.6z M41.2,49.6H41v0L41.2,49.6L41.2,49.6z M40.9,49.6h-0.2v0 L40.9,49.6L40.9,49.6z M40.7,49.6h-0.2v0L40.7,49.6L40.7,49.6z M40.4,49.6h-0.2v0L40.4,49.6L40.4,49.6z M40.2,49.6H40v0 L40.2,49.6L40.2,49.6z M39.9,49.6h-0.2v0L39.9,49.6L39.9,49.6z M39.7,49.6h-0.2v0L39.7,49.6L39.7,49.6z M39.4,49.6h-0.2v0 L39.4,49.6L39.4,49.6z M39.1,49.6H39v0L39.1,49.6L39.1,49.6z M38.9,49.6h-0.2v0L38.9,49.6L38.9,49.6z M38.6,49.6h-0.2v0 L38.6,49.6L38.6,49.6z M38.4,49.6h-0.2v0L38.4,49.6L38.4,49.6z M38.1,49.6H38v0L38.1,49.6L38.1,49.6z"/></g></g><g><polygon class="st92" points="48.4,35.8 47.9,35.3 47.4,35.8 47.6,35.8 47.6,36.4 48.1,36.4 48.1,35.8"/><polygon class="st92" points="39.4,35.8 38.9,35.3 38.3,35.8 38.6,35.8 38.6,36.4 39.1,36.4 39.1,35.8"/></g><g><path class="st92" d="M41.6,50.9l-0.3-0.4h0.2l0.2,0.3l0.2-0.3H42l-0.3,0.4v0.3h-0.2V50.9z"/><path class="st92" d="M42.2,50.5h0.1l0.3,0.7h-0.2L42.4,51h-0.3l-0.1,0.2h-0.2L42.2,50.5z M42.3,50.7l-0.1,0.2h0.2L42.3,50.7z"/><path class="st92" d="M43.4,50.6C43.4,50.6,43.4,50.6,43.4,50.6c-0.1,0-0.1,0-0.1,0c0,0,0,0,0,0c0,0,0,0,0,0s0,0,0,0s0,0,0,0 c0,0,0,0,0,0c0,0,0,0,0.1,0c0,0,0.1,0,0.1,0c0,0,0.1,0,0.1,0s0,0,0.1,0.1c0,0,0,0.1,0,0.1c0,0,0,0.1,0,0.1s0,0.1-0.1,0.1 c0,0-0.1,0-0.1,0c0,0-0.1,0-0.1,0c0,0-0.1,0-0.1,0s-0.1,0-0.1-0.1l0.1-0.1c0,0,0,0,0.1,0s0,0,0.1,0c0,0,0,0,0,0c0,0,0,0,0,0 c0,0,0,0,0,0c0,0,0,0,0,0c0,0,0,0,0-0.1c0,0,0,0-0.1,0s-0.1,0-0.1,0c0,0-0.1,0-0.1,0s0,0-0.1-0.1c0,0,0-0.1,0-0.1 c0,0,0-0.1,0-0.1c0,0,0-0.1,0.1-0.1c0,0,0.1,0,0.1,0c0,0,0.1,0,0.1,0c0,0,0.1,0,0.1,0s0.1,0,0.1,0.1L43.4,50.6z"/><path class="st92" d="M43.6,50.5h0.2v0.3h0.3v-0.3h0.2v0.7h-0.2v-0.3h-0.3v0.3h-0.2V50.5z"/><path class="st92" d="M44.4,50.5h0.2v0.7h-0.2V50.5z"/><path class="st92" d="M44.8,50.6h-0.2v-0.1h0.6v0.1H45v0.6h-0.2V50.6z"/></g><g><path class="st92" d="M39.6,41.1h0.2v0.6h0.3v0.1h-0.4V41.1z"/><path class="st92" d="M40.4,41.1h0.1l0.3,0.7h-0.2l-0.1-0.1h-0.3l-0.1,0.1h-0.2L40.4,41.1z M40.4,41.3l-0.1,0.2h0.2L40.4,41.3z"/><path class="st92" d="M40.9,41.2h-0.2v-0.1h0.6v0.1h-0.2v0.6h-0.2V41.2z"/><path class="st92" d="M41.4,41.1h0.5v0.1h-0.3v0.1h0.3v0.1h-0.3v0.1h0.3v0.1h-0.5V41.1z"/><path class="st92" d="M42.3,41.1h0.5v0.1h-0.3v0.1h0.3v0.1h-0.3v0.3h-0.2V41.1z"/><path class="st92" d="M42.9,41.1h0.5v0.1h-0.3v0.1h0.3v0.1h-0.3v0.1h0.3v0.1h-0.5V41.1z"/><path class="st92" d="M43.5,41.1H44v0.1h-0.3v0.1H44v0.1h-0.3v0.1H44v0.1h-0.5V41.1z"/><path class="st92" d="M44.5,41.1h0.5v0.1h-0.3v0.1h0.3v0.1h-0.3v0.3h-0.2V41.1z"/><path class="st92" d="M45,41.1h0.2v0.7H45V41.1z"/><path class="st92" d="M45.3,41.1h0.2l0.3,0.5h0v-0.5H46v0.7h-0.2l-0.3-0.5h0v0.5h-0.2V41.1z"/><path class="st92" d="M46.2,41.1h0.5v0.1h-0.3v0.1h0.3v0.1h-0.3v0.1h0.3v0.1h-0.5V41.1z"/></g><g><path class="st92" d="M40.2,47.9h0.5V48h-0.3v0.2h0.3v0.1h-0.3v0.3h-0.1V47.9z"/><path class="st92" d="M40.7,47.9h0.1v0.7h-0.1V47.9z"/><path class="st92" d="M41,47.9h0.2l0.4,0.6h0v-0.6h0.1v0.7h-0.2L41.2,48h0v0.6H41V47.9z"/><path class="st92" d="M41.9,47.9h0.5V48H42v0.2h0.3v0.1H42v0.2h0.4v0.1h-0.5V47.9z"/></g><g><path class="st92" d="M38.3,38.9h0.5v0.1h-0.3v0.1h0.3v0.1h-0.3v0.3h-0.2V38.9z"/><path class="st92" d="M38.9,39.3c0-0.1,0-0.1,0-0.2c0,0,0-0.1,0.1-0.1c0,0,0.1-0.1,0.1-0.1c0,0,0.1,0,0.2,0s0.1,0,0.2,0 c0,0,0.1,0,0.1,0.1c0,0,0.1,0.1,0.1,0.1c0,0,0,0.1,0,0.2s0,0.1,0,0.2c0,0,0,0.1-0.1,0.1c0,0-0.1,0.1-0.1,0.1c0,0-0.1,0-0.2,0 s-0.1,0-0.2,0c0,0-0.1,0-0.1-0.1c0,0-0.1-0.1-0.1-0.1C38.9,39.4,38.9,39.3,38.9,39.3z M39,39.3C39,39.3,39,39.3,39,39.3 c0,0.1,0,0.1,0.1,0.2s0,0,0.1,0c0,0,0.1,0,0.1,0s0.1,0,0.1,0c0,0,0,0,0.1,0s0,0,0-0.1c0,0,0-0.1,0-0.1c0,0,0-0.1,0-0.1 c0,0,0-0.1,0-0.1c0,0,0,0-0.1,0c0,0-0.1,0-0.1,0s-0.1,0-0.1,0c0,0,0,0-0.1,0C39.1,39.1,39,39.2,39,39.3C39,39.2,39,39.3,39,39.3z"/><path class="st92" d="M40.3,39.4c0,0,0,0.1,0,0.1c0,0,0,0.1-0.1,0.1c0,0-0.1,0-0.1,0.1s-0.1,0-0.1,0c0,0-0.1,0-0.1,0 s-0.1,0-0.1-0.1s0-0.1-0.1-0.1c0,0,0-0.1,0-0.1v-0.4h0.2v0.4c0,0,0,0,0,0.1c0,0,0,0,0,0s0,0,0,0c0,0,0,0,0.1,0s0,0,0.1,0 c0,0,0,0,0,0s0,0,0,0c0,0,0,0,0-0.1v-0.4h0.2V39.4z"/><path class="st92" d="M40.5,38.9h0.2l0.3,0.5h0v-0.5h0.2v0.7h-0.2l-0.3-0.5h0v0.5h-0.2V38.9z"/><path class="st92" d="M41.3,38.9h0.2c0.1,0,0.1,0,0.2,0c0.1,0,0.1,0,0.1,0.1c0,0,0.1,0.1,0.1,0.1s0,0.1,0,0.2c0,0.1,0,0.1,0,0.2 c0,0-0.1,0.1-0.1,0.1c0,0-0.1,0.1-0.1,0.1c0,0-0.1,0-0.2,0h-0.3V38.9z M41.4,39.5L41.4,39.5c0.1,0,0.2,0,0.2,0c0,0,0.1,0,0.1,0 s0,0,0.1-0.1c0,0,0-0.1,0-0.1c0,0,0-0.1,0-0.1c0,0,0,0-0.1-0.1c0,0,0,0-0.1,0c0,0-0.1,0-0.1,0h-0.1V39.5z"/><path class="st92" d="M42,38.9h0.2v0.7H42V38.9z"/><path class="st92" d="M42.3,38.9h0.2l0.3,0.5h0v-0.5H43v0.7h-0.2l-0.3-0.5h0v0.5h-0.2V38.9z"/><path class="st92" d="M43.8,39.6c0,0-0.1,0-0.1,0.1c-0.1,0-0.1,0-0.2,0c-0.1,0-0.1,0-0.2,0c0,0-0.1,0-0.1-0.1 c0,0-0.1-0.1-0.1-0.1c0,0,0-0.1,0-0.2s0-0.1,0-0.2c0,0,0-0.1,0.1-0.1c0,0,0.1-0.1,0.1-0.1c0,0,0.1,0,0.2,0c0.1,0,0.1,0,0.2,0 s0.1,0,0.1,0.1l-0.1,0.1c0,0,0,0-0.1,0c0,0-0.1,0-0.1,0c0,0-0.1,0-0.1,0c0,0,0,0-0.1,0c0,0,0,0,0,0.1c0,0,0,0.1,0,0.1 c0,0,0,0.1,0,0.1c0,0,0,0.1,0,0.1s0,0,0.1,0c0,0,0.1,0,0.1,0c0,0,0.1,0,0.1,0c0,0,0,0,0.1,0v-0.1h-0.1v-0.1h0.3V39.6z"/><path class="st92" d="M44.2,38.9h0.5v0.1h-0.3v0.1h0.3v0.1h-0.3v0.3h-0.2V38.9z"/><path class="st92" d="M45,38.9h0.1l0.3,0.7h-0.2l-0.1-0.1h-0.3l-0.1,0.1h-0.2L45,38.9z M45.1,39.1L45,39.4h0.2L45.1,39.1z"/><path class="st92" d="M45.5,39.1h-0.2v-0.1h0.6v0.1h-0.2v0.6h-0.2V39.1z"/><path class="st92" d="M46,38.9h0.2v0.3h0.3v-0.3h0.2v0.7h-0.2v-0.3h-0.3v0.3H46V38.9z"/><path class="st92" d="M46.8,38.9h0.5v0.1h-0.3v0.1h0.3v0.1h-0.3v0.1h0.3v0.1h-0.5V38.9z"/><path class="st92" d="M47.4,38.9h0.3c0,0,0.1,0,0.1,0c0,0,0.1,0,0.1,0c0,0,0,0,0.1,0.1c0,0,0,0.1,0,0.1c0,0.1,0,0.1,0,0.1 c0,0-0.1,0.1-0.1,0.1l0.2,0.3h-0.2l-0.1-0.3h-0.1v0.3h-0.2V38.9z M47.5,39.2L47.5,39.2c0.1,0,0.1,0,0.1,0s0,0,0,0c0,0,0,0,0,0 c0,0,0,0,0,0c0,0,0,0,0,0c0,0,0,0,0,0c0,0,0,0,0,0c0,0,0,0,0,0h-0.1V39.2z"/><path class="st92" d="M48.4,39.1C48.4,39.1,48.3,39.1,48.4,39.1c-0.1,0-0.1,0-0.1,0c0,0,0,0,0,0c0,0,0,0,0,0c0,0,0,0,0,0s0,0,0,0 c0,0,0,0,0,0c0,0,0,0,0.1,0c0,0,0.1,0,0.1,0c0,0,0.1,0,0.1,0s0,0,0.1,0.1c0,0,0,0.1,0,0.1c0,0,0,0.1,0,0.1s0,0.1-0.1,0.1 c0,0-0.1,0-0.1,0s-0.1,0-0.1,0c0,0-0.1,0-0.1,0s-0.1,0-0.1-0.1l0.1-0.1c0,0,0,0,0.1,0s0,0,0.1,0c0,0,0,0,0,0c0,0,0,0,0,0 c0,0,0,0,0,0c0,0,0,0,0,0c0,0,0,0,0-0.1s0,0-0.1,0c0,0-0.1,0-0.1,0s-0.1,0-0.1,0s0,0-0.1-0.1s0-0.1,0-0.1c0,0,0-0.1,0-0.1 c0,0,0-0.1,0.1-0.1c0,0,0.1,0,0.1,0c0,0,0.1,0,0.1,0c0,0,0.1,0,0.1,0s0.1,0,0.1,0.1L48.4,39.1z"/></g><g><g><path class="st92" d="M43.1,37.6c0,0-0.1-0.2-0.4-0.3c-0.1,0-0.1-0.1-0.2-0.1c0,0-0.1-0.1-0.1-0.1S42.3,37,42.2,37c0,0,0,0,0,0 c0,0,0,0,0,0.1c0,0,0.1,0.1,0.1,0.1c0,0,0,0.1,0,0.1c0,0,0.1,0.1,0.1,0.1c0,0,0.1,0.1,0.1,0.1c0,0,0,0,0,0 c-0.1-0.1-0.1-0.1-0.2-0.2c0,0,0,0,0-0.1c0,0,0-0.1,0-0.1c0,0,0-0.1-0.1-0.1c0,0,0-0.1,0-0.1c0,0,0,0,0,0c0,0,0,0,0,0 c0,0,0-0.1-0.1-0.1c0,0,0-0.2,0-0.2c0,0,0-0.1-0.1-0.1c0,0,0,0,0,0c0,0,0,0,0,0.1c0,0,0,0.3,0,0.3c0,0,0,0.1,0,0.1 c0,0,0.1,0.2,0.1,0.2c0,0,0.1,0.2,0.1,0.2s0,0,0.1,0.1c0,0,0.3,0.2,0.3,0.2c0,0,0.1,0.1,0.1,0.2c0,0,0,0,0,0.2h0.5 c0,0,0-0.3,0-0.4C43.1,37.7,43.1,37.7,43.1,37.6z"/><path class="st92" d="M44.7,37.1c0,0,0-0.3,0-0.3c0-0.2,0-0.1,0-0.1c0,0,0,0,0,0c-0.1,0-0.1,0.1-0.1,0.1c-0.1,0,0,0.2,0,0.2 c0,0-0.1,0.1-0.1,0.1c0,0,0,0,0,0c0,0,0,0,0,0c0,0,0,0,0,0.1c0,0,0,0.1-0.1,0.1c0,0,0,0.1,0,0.1c0,0,0,0,0,0.1 c-0.1,0.1-0.1,0.1-0.2,0.2c0,0,0-0.1,0.1-0.1c0,0,0.1-0.1,0.1-0.2c0,0,0,0,0-0.1c0,0,0.1-0.1,0.1-0.1c0,0,0,0,0,0c0,0,0,0,0,0 c0,0,0,0,0,0c0,0,0,0,0,0c-0.1-0.1-0.3,0.2-0.3,0.2S44,37.3,44,37.3c0,0-0.1,0.1-0.2,0.1c-0.3,0.1-0.4,0.2-0.4,0.3 c0,0,0,0.1,0,0.2c0,0.1,0,0.4,0,0.4h0.5c0-0.2,0-0.2,0-0.2c0,0,0.1-0.1,0.1-0.2c0,0,0.3-0.2,0.3-0.2c0,0,0.1,0,0.1-0.1 c0,0,0.1-0.2,0.1-0.2C44.6,37.3,44.7,37.2,44.7,37.1C44.7,37.1,44.7,37.1,44.7,37.1z"/></g><g><path class="st92" d="M44.1,36.6c-0.1-0.2-0.1-0.3-0.2-0.4c0,0,0-0.1-0.1-0.1c0,0.1-0.1,0.1-0.1,0.2c0,0.1,0,0.2,0,0.3 c0,0.2,0,0.4,0,0.6c0,0.1,0,0.1,0,0.2c0.1-0.1,0.3-0.1,0.4-0.3c0,0,0.1-0.1,0.1-0.1C44.2,36.8,44.2,36.7,44.1,36.6 M42.6,35.2 C42.6,35.2,42.6,35.2,42.6,35.2c-0.1,0-0.1,0.1-0.2,0.1c-0.2,0.2-0.3,0.4-0.3,0.6c0.1,0,0.1-0.1,0.2-0.1c0.1,0,0.1-0.1,0.2-0.1 c0.1,0,0.2-0.1,0.3-0.1c0.1-0.1,0.3-0.1,0.4-0.2c-0.1,0-0.2-0.1-0.3-0.1C42.8,35.3,42.7,35.3,42.6,35.2 M44,36 C43.9,36,43.9,36,44,36C43.9,36,43.9,36,44,36c-0.1,0.1,0,0.1,0,0.1c0.1,0.2,0.2,0.3,0.2,0.5c0,0.1,0.1,0.2,0.1,0.3 c0.1-0.2,0.2-0.4,0.2-0.7c0,0,0-0.1,0-0.1c0,0,0,0-0.1,0C44.3,36,44.1,35.9,44,36 M43.6,35.7c0.1,0.1,0.2,0.2,0.2,0.3 c0,0,0.1,0,0.1-0.1c0,0,0.1,0,0.1,0c0.1,0,0.3,0,0.4,0.1c0-0.2-0.1-0.5-0.3-0.6c-0.1,0.1-0.2,0.2-0.4,0.2 C43.7,35.6,43.7,35.7,43.6,35.7 M43.5,35.7C43.5,35.7,43.5,35.7,43.5,35.7c0-0.1-0.1-0.1-0.2-0.2c-0.1,0-0.1-0.1-0.2-0.1 c-0.1,0.1-0.3,0.2-0.4,0.3c-0.1,0-0.2,0.1-0.3,0.1c0,0-0.1,0-0.1,0c-0.1,0-0.2,0.1-0.3,0.2c0,0,0,0.1,0,0.1 c0,0.3,0.1,0.6,0.3,0.8c0,0,0.1,0.1,0.1,0.1c0.1-0.1,0.1-0.2,0.2-0.3c0.1-0.2,0.2-0.3,0.3-0.5c0,0,0.1-0.1,0.1-0.1 C43.3,36,43.4,35.9,43.5,35.7 M43.6,35.7c-0.1,0.1-0.2,0.2-0.2,0.2c-0.1,0.1-0.2,0.3-0.3,0.5c-0.1,0.2-0.2,0.3-0.3,0.5 c0,0.1-0.1,0.2-0.1,0.2c0.2,0.1,0.4,0.2,0.7,0.2c0.1,0,0.3,0,0.4-0.1c0-0.2,0-0.4,0-0.5c0-0.1,0-0.2,0-0.3c0-0.1,0-0.2,0-0.3 c0-0.1,0.1-0.2,0.1-0.2C43.8,35.9,43.7,35.8,43.6,35.7 M43.7,35.6c0,0,0.1-0.1,0.1-0.1c0.1-0.1,0.2-0.1,0.3-0.2 c-0.2-0.2-0.4-0.3-0.7-0.3c0,0.2-0.1,0.3-0.2,0.4c0.1,0.1,0.2,0.1,0.4,0.2c0,0,0,0,0,0C43.6,35.6,43.7,35.6,43.7,35.6 M43.3,35.1C43.3,35,43.3,35,43.3,35.1C43.3,35,43.3,35,43.3,35.1c-0.3-0.1-0.5,0-0.7,0.1c0.1,0,0.1,0,0.2,0.1 c0.1,0,0.2,0.1,0.3,0.1c0,0,0,0,0.1,0c0,0,0,0,0-0.1C43.3,35.3,43.3,35.2,43.3,35.1z"/></g></g></g></g></svg>