<svg xmlns="http://www.w3.org/2000/svg" xmlns:xlink="http://www.w3.org/1999/xlink" width="100" height="100" viewBox="0 0 100 100" overflow="scroll"><style>.st0{fill:#998D85;} .st1{fill:#E8E7E7;} .st2{fill:#040404;} .st3{fill:#040505;} .st4{fill:#736250;} .st5{fill:#736251;} .st6{fill:#E7E7E7;} .st7{fill:#0F0F0E;} .st8{fill:#0F0E0E;} .st9{fill:#131313;} .st10{fill:#1C1C1B;} .st11{fill:#121211;} .st12{fill:#1F1E1D;} .st13{fill:#E9E7E1;} .st14{fill:#E0DAD3;} .st15{fill:#6F6150;} .st16{fill:#141313;} .st17{fill:#AA9E93;} .st18{fill:#7C7466;} .st19{fill:#91877E;} .st20{fill:#E5E3E1;} .st21{fill:#282727;} .st22{fill:#817A71;} .st23{fill:#D8D4CE;} .st24{fill:#B5AAA3;} .st25{fill:#6E645A;} .st26{fill:#6C5C43;} .st27{fill:#E1E2E1;} .st28{fill:#C9C8C8;} .st29{fill:#A8A19E;} .st30{fill:#4E4C4C;} .st31{fill:#D2C6B9;} .st32{fill:#4B4135;} .st33{fill:#A2948C;} .st34{fill:#A2938B;} .st35{fill:#E7E7E6;} .st36{fill:#D18182;} .st37{fill:#4C4236;} .st38{fill:#736252;} .st39{fill:#171313;} .st40{fill:#4E4539;} .st41{fill:#F6F7F6;} .st42{fill:#A69991;} .st43{fill:#EDECEC;} .st44{fill:#736351;} .st45{fill:#756553;} .st46{fill:#EBE8E5;} .st47{fill:#D08284;} .st48{fill:#6F6152;} .st49{fill:#F1F1F1;} .st50{fill:#4A4238;} .st51{fill:#E6E2DA;} .st52{fill:#312929;} .st53{fill:#F4F4F3;} .st54{fill:#F0EFED;} .st55{fill:#6F6051;} .st56{fill:#2F2F2F;} .st57{fill:#A1978F;} .st58{fill:#ECE9E5;} .st59{fill:#F7F8F9;} .st60{fill:#F0EDEB;} .st61{fill:#F4F4F4;} .st62{fill:#F0EFEF;} .st63{fill:#332826;} .st64{fill:#E8E8E7;} .st65{fill:#CE8182;} .st66{fill:#352B2B;} .st67{fill:#BAACA4;} .st68{fill:#3E3E3E;} .st69{fill:#231B15;} .st70{fill:#CABEB3;} .st71{fill:#F2F2F2;} .st72{fill:#434343;} .st73{fill:#F4F5F4;} .st74{fill:#ABA4A1;} .st75{fill:#C7C5C2;} .st76{fill:#383838;} .st77{fill:#ADA8A3;} .st78{fill:#C2BBB2;} .st79{fill:#EBE8E8;} .st80{fill:#DDDAD2;} .st81{fill:#746150;} .st82{fill:#645A4E;} .st83{fill:#BFBDBB;} .st84{fill:#373838;} .st85{fill:#AAA39C;} .st86{fill:#CDC2B7;} .st87{fill:#665544;} .st88{fill:#776C5F;} .st89{fill:#B4AFA8;} .st90{fill:#696868;} .st91{fill:#ACA5A0;} .st92{fill:#C9C9C8;} .st93{fill:#A49C91;} .st94{fill:#CDC4BC;} .st95{fill:#A2978F;} .st96{fill:#D6727B;} .st97{fill:#9E9A95;} .st98{fill:#B0A8A0;} .st99{fill:#454847;} .st100{fill:#D7CEC5;} .st101{fill:#C9C2BF;} .st102{fill:#D5C9BB;} .st103{fill:#C7C6C5;} .st104{fill:#7B7879;} .st105{fill:#ABA8A4;} .st106{fill:#BFBBB8;} .st107{fill:#A9A6A2;} .st108{fill:#90897E;} .st109{fill:#D8D3CC;} .st110{fill:#CCC8C7;} .st111{fill:#C9C6C1;} .st112{fill:#8B8B8B;} .st113{fill:#C4C3C1;} .st114{fill:#BFBCB5;} .st115{fill:#A7A29D;} .st116{fill:#BEBCB9;} .st117{fill:#7A7166;} .st118{fill:#C3C1BE;} .st119{fill:#CDC2B9;} .st120{fill:#0D0D0D;} .st121{fill:#D1D0CE;} .st122{fill:#4B4136;} .st123{fill:#4A4135;} .st124{fill:#736353;} .st125{fill:#6E604F;} .st126{fill:#726250;} .st127{fill:#6E6050;} .st128{fill:#4E4336;} .st129{fill:#6B5F4E;} .st130{fill:#5B564F;} .st131{fill:#5E5345;} .st132{fill:#6D6356;} .st133{fill:#EEEAE7;} .st134{fill:#4A443A;} .st135{fill:#5C4C3C;} .st136{fill:#6B5D4F;} .st137{fill:#5C5448;} .st138{fill:#A69489;} .st139{fill:#989490;} .st140{fill:#736352;} .st141{fill:#C8C6C2;} .st142{fill:#716253;} .st143{fill:#70604E;} .st144{fill:#746554;} .st145{fill:#ACADAA;} .st146{fill:#756655;} .st147{fill:#716251;} .st148{fill:#71614F;} .st149{fill:#716150;} .st150{fill:#E3DED8;} .st151{fill:#D9CFC6;} .st152{fill:#B7AC9F;} .st153{fill:#DFD9D0;} .st154{fill:#A49587;} .st155{fill:#DED6CA;} .st156{fill:#5D4D3D;} .st157{fill:#5F5345;} .st158{fill:#D3CCC3;} .st159{fill:#CBC0B6;} .st160{fill:#665A4C;} .st161{fill:#E4DBD2;} .st162{fill:#9E9A98;} .st163{fill:#5B4E42;} .st164{fill:#5D4E3E;} .st165{fill:#D4C9BE;} .st166{fill:#D4C8BC;} .st167{fill:#7E6E5F;} .st168{fill:#64594B;} .st169{fill:#D3CBC3;} .st170{fill:#BEB09F;} .st171{fill:#5F5448;} .st172{fill:#D5CCC1;} .st173{fill:#978B7E;} .st174{fill:#95877B;} .st175{fill:#635242;} .st176{fill:#C4B7A9;} .st177{fill:#110F0E;} .st178{fill:#E5E4E2;} .st179{fill:#736454;} .st180{fill:#706354;} .st181{fill:#858580;} .st182{fill:#73675A;} .st183{fill:#6E6052;} .st184{fill:#897D71;} .st185{fill:#AEA6A4;} .st186{fill:#FBF9F7;} .st187{fill:#5F5041;} .st188{fill:#AFA497;} .st189{fill:#12110F;} .st190{fill:#CDC6BC;} .st191{fill:#6D5F4F;} .st192{fill:#5D4D3C;} .st193{fill:#635747;} .st194{fill:#A1988F;} .st195{fill:#5D5448;} .st196{fill:#CEC4BD;} .st197{fill:#5C4D3F;} .st198{fill:#B6AFA3;} .st199{fill:#3B352C;} .st200{fill:#7B7167;} .st201{fill:#DCD7D0;} .st202{fill:#CBC4BA;} .st203{fill:#E7E6E5;} .st204{fill:#EEEBE7;} .st205{fill:#756756;} .st206{fill:#E2E0DD;} .st207{fill:#C9C2B8;} .st208{fill:#6C5E4E;} .st209{fill:#DAD3C7;} .st210{fill:#D6CEC4;} .st211{fill:#CABEB2;} .st212{fill:#806C53;} .st213{fill:#E6E6E5;} .st214{fill:#E5E2E2;} .st215{fill:#A9A29F;} .st216{fill:#DCD4CE;} .st217{fill:#D4CBC4;} .st218{fill:#ECE6E9;} .st219{fill:#776A5C;} .st220{fill:#6B5B47;} .st221{fill:#A39D95;} .st222{fill:#6A5947;} .st223{fill:#9E9891;} .st224{fill:#635547;} .st225{fill:#B9AD9E;} .st226{fill:#8A7F74;} .st227{fill:#B1ADA7;} .st228{fill:#DD8A8B;} .st229{fill:#726455;} .st230{fill:#6D5E4E;} .st231{fill:#413C35;} .st232{fill:#DDD4CC;} .st233{fill:#E2D6CC;} .st234{fill:#6F6353;} .st235{fill:#C5B9AD;} .st236{fill:#D8CDC5;} .st237{fill:#A89D8F;} .st238{fill:#C9BAAE;} .st239{fill:#C9BEB3;} .st240{fill:#736961;} .st241{fill:#C4BAAF;} .st242{fill:#B9B2A6;} .st243{fill:#E7E5E4;} .st244{fill:#E1DAD4;} .st245{fill:#CBC3BA;} .st246{fill:#443F35;} .st247{fill:#554A39;} .st248{fill:#E2DFDB;} .st249{fill:#6E6054;} .st250{fill:#F3F2F0;} .st251{fill:#B6AEA8;} .st252{fill:#CFD1C6;} .st253{fill:#E6E5E3;} .st254{fill:#DDDAD4;} .st255{fill:#D5D1CC;} .st256{fill:#433B33;} .st257{fill:#6D655D;} .st258{fill:#ABA49D;} .st259{fill:#CDC8C1;} .st260{fill:#A09D98;} .st261{fill:#574E48;} .st262{fill:#6A6864;} .st263{fill:#797166;} .st264{fill:#666259;} .st265{fill:#9C968C;} .st266{fill:#6F6C68;} .st267{fill:#B0B1AE;} .st268{fill:#392E26;} .st269{fill:#584E44;} .st270{fill:#E7E4E1;} .st271{fill:#A8A5A0;} .st272{fill:#7E7569;} .st273{fill:#9E9C94;} .st274{fill:#8F8D8A;} .st275{fill:#6B5D50;} .st276{fill:#635C56;} .st277{fill:#6B6258;} .st278{fill:#D0C8BD;} .st279{fill:#C1C1BF;} .st280{fill:#9A9388;} .st281{fill:#4C4741;} .st282{fill:#80786B;} .st283{fill:#BEBDBD;} .st284{fill:#9D958F;} .st285{fill:#675C4E;} .st286{fill:#AAA29B;} .st287{fill:#E0DDDB;} .st288{fill:#C8C0B7;} .st289{fill:#B9B0A8;} .st290{fill:#655D51;} .st291{fill:#62574C;} .st292{fill:#C4BDB4;} .st293{fill:#7F7368;} .st294{fill:#6B5A4A;} .st295{fill:#EAE1D9;} .st296{fill:#5A5146;} .st297{fill:#493C30;} .st298{fill:#695C4D;} .st299{fill:#DBD4CA;} .st300{fill:#4A4439;} .st301{fill:#CBBFB3;} .st302{fill:#BCB6B0;} .st303{fill:#625646;} .st304{fill:#D5CEC5;} .st305{fill:#AFAFA8;} .st306{fill:#AFAFA6;} .st307{fill:#DEE2EC;} .st308{fill:#A3A39A;} .st309{fill:#BABBB1;} .st310{fill:#9D9C95;} .st311{fill:#A2A29B;} .st312{fill:#C1C2B9;} .st313{fill:#BABBB3;} .st314{fill:#B8B9B1;} .st315{fill:#ABABA4;} .st316{fill:#AEB0A7;} .st317{fill:#A6A8A1;} .st318{fill:#9F9F97;} .st319{fill:#A2A39C;} .st320{fill:#999A94;} .st321{fill:#C1C2BA;} .st322{fill:#7F7971;} .st323{fill:#E9E4DF;} .st324{fill:#D8D2CB;} .st325{fill:#595140;} .st326{fill:#F8F4EF;} .st327{fill:#A4958D;} .st328{fill:#E8E7E6;} .st329{fill:#BBB3AF;} .st330{fill:#75695A;} .st331{fill:#888380;} .st332{fill:#B8B5B3;} .st333{fill:#B6A59C;} .st334{fill:#C8BEB2;} .st335{fill:#D4C8BB;} .st336{fill:#DCD1C3;} .st337{fill:#7D6F61;} .st338{fill:#5B5851;} .st339{fill:#55514A;} .st340{fill:#C6C8BE;} .st341{fill:#10110F;} .st342{fill:#C6C6BE;} .st343{fill:#0F100F;} .st344{fill:#CACBC4;} .st345{clip-path:url(#SVGID_2_);} .st346{clip-path:url(#SVGID_4_);fill:url(#SVGID_5_);} .st347{clip-path:url(#SVGID_7_);fill:none;stroke:#FFFFFF;stroke-miterlimit:10;} .st348{clip-path:url(#SVGID_9_);} .st349{clip-path:url(#SVGID_11_);fill:url(#SVGID_12_);} .st350{clip-path:url(#SVGID_14_);fill:none;stroke:#FFFFFF;stroke-miterlimit:10;}</style><path class="st1" d="M70.7 74.8c.1.3.2.6.2.8.1.3 0 .6-.4.8-.3.1-.5.4-.6.7-.1.2-.2.3-.4.3-.7.2-1.3.3-2 .3-.4 0-.7-.1-1.1-.2-.4-.1-.7 0-1 .3-.3.3-.8.1-1.2.1-.3 0-.5-.1-.7-.1-.2 0-.4.1-.6.2-.5.4-1 .5-1.6.4-1-.2-2-.3-3-.4-.3 0-.6-.1-.8-.1-.4-.1-.8 0-1 .3-.4.4-.8.2-1.2.2-.5-.1-1-.2-1.6-.2-.1 0-.3 0-.4.1-.4.5-.9.4-1.4.4-.4 0-.8-.1-1.1 0-.3.1-.7 0-1-.1-.5-.2-1-.3-1.4.2-.2.2-.6.2-.9 0-.3-.2-.6-.4-1-.3-.1 0-.2 0-.3.1-.3.3-.7.3-1.1.3-.9 0-1.7.1-2.5.2-.5.1-1-.1-1.4-.3-.3-.1-.6-.2-.8-.1-.7.4-1.5.2-2.3.1-.6-.1-1.3-.1-1.9-.1-.3 0-.5 0-.6-.3-.2-.2-.4-.3-.7-.3-.5 0-1 0-1.4-.4-.1 0-.1-.1-.2-.1-.4-.1-.8-.1-1-.6 0 0-.1-.1-.2-.1-.4-.2-.8-.3-.9-.8 0-.1-.2-.2-.3-.2-.6-.3-.7-.5-.6-1.1v-.1s0-.1-.1-.1c0-.1.1-.3.1-.4.3-.7.8-1.4 1.1-2.2.5-1.4 1-2.9 1.4-4.3.5-1.5 1-3 1.8-4.4.2-.3.3-.6.4-.9.5-.9.8-1.9.7-3-.1-.6.1-1.2.3-1.8.1-.3.1-.6-.2-.8-.3-.3-.6-.7-.8-1-.1-.2-.2-.4-.2-.6.6-.5 1.1-1 1.7-1.4.1.1.1.2.1.4v.4c0 .1-.1.2 0 .3.2 0 .3-.3.5-.2.1.1.1.3.1.4.1 0 .1-.1.2-.1.2-.1.3-.3.5-.2.2.1.2.4.2.6 0 .1-.1.2 0 .3.7-.2.7-.2.6.3.3-.2.5-.4.8-.5.3-.2.5-.5.5-.9v-.5c0-.1-.1-.1-.1-.1-.4-.1-.7-.3-1.1-.5-.2-.1-.2-.4-.3-.6-.1-.2-.3-.1-.5-.2-.1 0-.2-.1-.2-.2.1-.3.2-.6 0-.9-.1-.1.1-.2.1-.3l.4-.4c.2-.2.2-.3.1-.5-.1-.1 0-.3-.1-.4 0 0 0-.1-.1-.1 0-.1.1-.1.2-.2s.2-.2.4-.3c.1 0 .1-.1.2-.1l.2-.2.1-.1c1.2-1.2 2.5-2.4 3.4-3.8.1-.2.3-.4.4-.5l.6-.3c.1-.1.2-.1.3-.1.1.1 0 .2 0 .3v0c.1-.1.2-.3.5-.3.1 0 .1-.1.2-.2 0 0 0-.1.1-.1.4-.1.3-.4.4-.7 0-.1 0-.1.1-.1.1.1.1.2.1.3 0 .3-.1.5 0 .8.1.4.2.8.4 1.1.2.3.2.5.3.8.2.7.5 1.4 1.2 1.9l.2.2c.1.1.3.2.5.3.7.4 1.3.8 2 1 .2.1.3.1.5 0h.2c.2 0 .4-.1.5.1 0 .1-.1.1-.1.1-.4 0-.7.1-1 .4-.1.1-.1.1 0 .1h.2c.1.2.3.2.5.3.2.1.3.1.4.3v.1c-.1.2-.3.3-.6.3.1.1.4.1.3.4-.2.1-.4 0-.6.1h-.2c.2.3.6.4.7.8-.1.1 0 .2 0 .2s0 .1-.1.1c-.2.1-.3-.1-.4-.1-.1.3.3.4.3.6 0 .1-.1.1-.1.1-.4-.1-.6-.4-.9-.6 0 .2.1.3.2.5.2.3.2.3-.2.3 0 0-.1 0-.1-.1-.2-.4-.4-.8-.7-1.1.3.4.5.8.7 1.2v.1c0 .2-.1.4-.3.4-.2 0-.2-.2-.3-.4-.1-.2-.1-.4-.1-.5-.1-.4-.3-.7-.5-1 .2.3.5.7.6 1.1.1.2.1.4.1.6.1.2 0 .4-.2.3.2.1.3.3.5.1.1 0 .3 0 .3.2 0 .1-.1.1-.1.1s-.1 0-.1.1h.1c.1 0 .1-.1.2-.1s.2 0 .3.1c.7.6.5 1.5.7 2.3v.2c0-.6-.1-1.3-.3-1.9-.1-.3 0-.5.2-.6v-.2c-.6 0-.7-.2-.7-.7.1-.1.3 0 .4 0 .6.2 1.1.5 1.6.8.1.1.2.1.3.1h.1c.3.1.4.3.6.5.7.8 1.3 1.7 1.8 2.7.1.1.1.2.1.3-.1.3-.3.2-.4 0-.2-.2-.3-.3-.4.1-.1.3-.2.2-.3 0-.2-.3-.2-.2-.3 0 0 .1-.1.2-.1.3-.1.1-.1.3-.3.3-.2 0-.1-.2-.1-.4-.1 0-.1.1-.1.1-.3.4-.4.4-.6-.1-.1-.1-.1-.1-.2-.1-.2.1-.3.2-.5.4-.1.1-.2.2-.4.1-.1-.1-.1-.2-.1-.4v-.1c-.3.1-.5.2-.8.3-.1.1-.3.2-.4.1-.1-.1 0-.3.1-.4 0-.1.1-.1.1-.2l.2-.2-.2.2c-.2.2-.5.4-.7.6-.1.1-.1.1-.2.1-.1-.1-.1-.2-.1-.3 0-.1 0-.2.1-.4 0 0 .1-.1 0-.1-.4.7-.6.7-.8-.1 0 0 0-.1-.1-.1h-.1c-.4.6-.4.6-.9 0-.1-.1-.1-.2-.2-.2-.1-.1-.2-.4-.3-.4-.2 0-.2.3-.3.4-.1.1-.1.1-.2.1s-.1-.1-.1-.2v-.3c-.1 0-.2.2-.3.2-.2.1-.3.5-.5 0 0-.1-.1 0-.1 0-.1 0-.1 0-.2.1-.2 0-.4.1-.6-.1-.1-.2 0-.4.1-.6h-.1c-.1.1-.2.3-.3.4-.2.2-.3.4-.6.1-.1-.1-.2 0-.3 0-.2.1-.4 0-.4-.2 0-.3-.2-.3-.4-.2-.3.2-.3.1-.4-.2-.8.1-1.1.8-1.4 1.4h.2c.4-.2.4-.2.5.3 0 .1.1.1.2.1s.2-.1.3-.1c.2-.1.5-.2.4.2.3-.1.4-.4.6-.3.2 0 .1.2.1.3.4-.3.4-.3.5.1.2-.1.3-.2.5-.3.2-.1.4-.1.4.2l.3-.3c.1-.1.2-.2.3-.1.1.1.1.2.1.3.1-.1.2-.4.4-.4s.2.3.2.4c0 .1 0 .3.1.3.2 0 .3.3.5.4.1 0 .1-.1.2-.1.1-.2.2-.3.3-.5.1-.1.1-.2.2-.1.1 0 .1.1.1.2v.5c.1.1.2-.1.3-.1.1 0 .2-.1.2-.1.2.2.4.1.6.2.2.1.3.1.5.2s.3 0 .4-.1c.3-.2.3-.2.5.1.2-.1.3-.4.5-.3.2.1.2.3.2.5l.3-.3c.1 0 .2-.1.2 0 0 .3.5.4.3.8.1-.1.2-.3.2-.5 0-.1.1-.2.2-.2s.1.1.2.2c0 .1 0 .2.1.3.1-.1.1-.5.3-.4.3.1.1.4.1.6.1-.2.1-.6.4-.6.4 0 .3.5.4.7 0-.1.1-.3.1-.4 0-.1 0-.1.1-.2.2-.1.5-.2.7-.4.1-.1.1.1.2.2.1.2.1.4.2.6.2-.4.3-.8.5-1.1.1-.1.1-.3.2-.4.2.3.3.7.3 1 .1.5.2 1.1.2 1.5.1-.4-.1-1-.1-1.5.1-.2.2-.5.3-.7.1-.2.2-.3.4-.2.1.1.2.1.2-.1.1-.2.2-.2.4-.2l.9.3h.1c-.1 0-.1-.1-.2-.1-.1-.1-.3-.2-.2-.3 0-.1.2-.1.3-.2.1 0 .2 0 .2-.1-.2-.6.4-.2.5-.4l-.2-.2c.1-.2.3-.2.5-.1.2 0 .5.1.7.1-.2-.1-.6-.2-.5-.4 0-.2.4-.1.6-.2l.1-.1c0-.1.1-.1.2-.1.1-.2.2-.4.5-.5.1-.1 0-.1 0-.2-.2-.3-.1-.5.2-.7h-1.5c-.2 0-.3-.1-.5 0-.1 0-.1.1-.2.1s-.2-.1-.2-.2c-.2-.4-.6-.7-.9-1-.1-.1-.3-.2 0-.4.6.1 1.2.3 1.8.4.4 0 .7.1 1.1 0 0-.1 0-.1-.1-.1-.5-.4-1.2-.7-1.7-1.2l-.3-.3s0-.1-.1-.1c0-.2.1-.2.2-.2h.5c.2.1.4 0 .7.1h.1c-.3-.1-.6-.3-.8-.5-.1-.1-.2-.2-.1-.3.1-.1.2-.1.3 0 .3.1.5.1.8.2.1 0 .2.1.3.1.1 0 .1 0 .2.1.1 0 .1 0 0 0 0 0 0-.1 0 0 0 0-.1 0 0 0-.1 0-.2-.1-.3-.1-.2-.1-.4-.1-.5-.4 0-.1 0-.1.1-.1.4 0 .7.2 1.1.3-.1-.2-.2-.3-.3-.4l-.3-.3c-.1-.2-.3-.3-.2-.5.1-.2.3 0 .5 0 .4.1.7.2 1.1.3 0-.1-.1-.2-.1-.3 0-.2-.1-.3.1-.4.1-.1.3-.2.4-.1.2.1.3.3.6.4-.3-.7-.5-1.4-.6-2.2 0-.3-.1-.5 0-.8 0-.2.2-.4.4-.3.3 0 .6.1.9.1-.2-.4.2-.8.9-1 .2.1.3.3.4.5.5 1.1.9 2.3 1.1 3.6.3 1.5.5 3 .7 4.5.4 2.2 1 4.4 1.5 6.6.8 3.1 1.7 6.2 2.5 9.3.3 1 .6 2.1.9 3.1.1.3.2.6.2 1-.3.3-.4.1-.3 0z"/><path class="st2" d="M70.7 74.8v.5h-.1c-.2-.6-.3-1.2-.5-1.8-1.4-5.1-2.8-10.1-4.1-15.2-.5-2.1-.8-4.2-1.1-6.2-.3-1.7-.7-3.4-1.5-5-.1-.1-.1-.3-.2-.3-.3-.4-.5-.8-.8-1.1-.8-1-.7-.7-.3-1.8.5-1.4.8-2.9 1.1-4.3.3-1.5.6-3.1.8-4.7.1-1 .2-2-.1-3-.1-.6-.4-1.1-.8-1.6-.6-.6-1.4-.6-2.1-.2-1 .7-1.8 1.5-2.6 2.4-1 1.3-2.1 2.6-3.4 3.6-.2.1-.4.2-.5.4-.2.2-.5.2-.7.3-.1 0-.1.1-.2.1-.3.1-.6.1-.9-.1-.5-.3-1.1-.5-1.7-.6-1.2-.2-2.4-.2-3.6-.2-1.8 0-3.4.6-5.1 1.3-.4.2-.8.1-1.1-.1-.1-.2-.3-.2-.5-.2-.1 0-.2-.1-.2-.1-.2-.2-.4-.3-.7-.4h-.1c-.6-.3-1.1-.8-1.6-1.3-1-.9-1.9-1.7-3-2.5-.2-.2-.5-.5-.8-.3-.2.2-.1.6-.1.9.1.8.4 1.6.9 2.3.7 1.1 1 2.2 1.4 3.4.2.7.5 1.4.7 2.1.1.2.1.4 0 .6 0 .1-.1.1-.1.2s-.1.2-.1.3c0 .1-.1.2-.1.4 0 .1-.1.2-.1.4l-.3 1.2c-.1.2-.1.4-.1.6 0 .1-.1.2-.1.3-.1.7-.3 1.4-.5 2.1v.2c0 .1 0 .2-.1.3 0 .2-.1.3-.2.4-.1 0-.2 0-.3-.1-.1-.1-.2-.3-.1-.4.5-1.9.8-3.9 1.5-5.8.1-.3.1-.6 0-.9l-1.2-3.6c-.1-.3-.3-.6-.4-.9-.6-1.1-1.1-2.2-1.3-3.5v-.5c.1-.7.5-.9 1.2-.6.9.4 1.7 1.1 2.5 1.7.8.7 1.5 1.3 2.3 2.1.2.2.4.2.6.4.5.2.9.5 1.4.7.3.2.5.1.8 0 1.1-.5 2.2-1 3.5-1.1 2.2-.2 4.3-.4 6.5.3.2.1.5.2.7.3.3.2.5.2.8 0 .5-.2.9-.5 1.3-.8 1-.9 1.9-1.9 2.7-2.9.8-1 1.8-1.9 2.8-2.7 1.3-1 2.8-.7 3.6.7.6 1 .7 2.1.6 3.2-.2 3.5-1 6.9-2 10.3-.2.5-.2.9.2 1.4 1.2 1.6 1.9 3.6 2.3 5.6.4 1.8.5 3.6.9 5.4.6 2.9 1.4 5.7 2.1 8.5.7 2.4 1.3 4.8 1.9 7.2.1.7.2 1.7.3 2.7z"/><path class="st3" d="M34.8 55.2c.3.7.7 1.3 1.3 1.8.1.1.1.2.1.3-.3.9-.5 1.9-.4 2.9 0 .6-.2 1.1-.4 1.6-.4 1.1-1.1 2-1.5 3.1-.8 2.1-1.5 4.2-2.2 6.4-.3.8-.6 1.6-1.1 2.3l-.3.6c-.2 0-.1-.1-.1-.2.1-.8.5-1.5.8-2.3.8-2.3 1.5-4.6 2.3-6.8.3-.9.8-1.7 1.2-2.5.5-.9.8-1.9.7-2.9-.1-.7.1-1.3.4-1.9.1-.2.1-.3-.1-.4-.3-.3-.6-.7-.8-1.1-.2-.4-.2-.7.1-.9z"/><path class="st4" d="M40.1 54c.1.5.1 1-.3 1.4-.1.1-.1.4-.5.3-.1 0-.2.2-.3.3-.1.1-.2.2-.4.3-.1-.2 0-.4 0-.7-.3.2-.5.3-.8.4 0-.4.1-.7 0-1 0-.2-.1-.2-.2-.1-.2.1-.4.3-.6.4v-.7l-.6.6v-.6-.5-.4l.1-.1c.4-.4.9-.6 1.4-.9.1-.1.4-.1.5.1.2.8.9.8 1.5 1 0 .2-.2.2-.3.2.3.2.4 0 .5 0z"/><path class="st5" d="M38.5 50.4c.3.2.3.4 0 .6-.1.1-.2.1-.2.2-.1.2-.4.2-.2.5.1.1 0 .5-.1.8-.1.1 0 .1.1.1.1.1 0 .2 0 .2-.5.3-.9.6-1.4.8-.2 0-.2.2-.3.2-.1 0-.1.1-.2-.1v-.2s.1-.1 0-.1v.1h-.1c-.1 0-.1-.1-.1-.2-.1-.3.1-.4.3-.5.4-.1.7-.1 1.1-.2-.5 0-1 .2-1.5.2-.2 0-.3-.1-.3-.3v-.1s0-.1.1-.1c0-.1.1-.1.1-.1.5 0 1.1 0 1.6.1.3 0 .3 0 .2-.3.1-.1 0-.1 0-.2-.2 0-.4-.1-.6 0h-1.7c-.1-.1.1-.1.1-.2-.1-.1-.2-.1-.4-.2-.1-.1-.1-.2-.2-.3.8-.1 1.6-.1 2.4-.1.1 0 .4.1.4-.1s-.2-.2-.4-.2h-.1c-.2-.1-.5.2-.6-.1.2-.2.5-.2.7-.3.1 0 .3.1.4-.1.1-.1.3-.1.5-.2.1 0 .2 0 .3.1h.1s-.2.2 0 .3z"/><path class="st6" d="M35.8 54.2c-.3.2-.6.5-.9.7-.1 0-.1 0-.1-.1-.1-.5-.2-.9.1-1.4.2 0 .1.1.1.2v0c0-.1 0-.3.1-.4h.3c.1 0 0-.1 0-.1.3-.2.4-.1.5.2 0 .1 0 .1.1.2 0 .2 0 .3-.1.4-.1.1-.1.2-.1.3z"/><path class="st7" d="M34.8 53.4c-.1.5-.1 1 0 1.5-.1.2-.3.3-.4.5-.2-.7-.2-1.3-.1-2 .1-.2.3-.2.5-.1.1 0 .1 0 0 .1z"/><path class="st8" d="M35.2 47.8c.1 0 .1.1.2.1 0 0 .1 0 .1.1.1.3 0 .7-.1 1-.1.1-.3.1-.4 0 0 0-.1 0-.1-.1-.2-.4.1-.8.1-1.1.1-.2.2-.1.2 0z"/><path class="st9" d="M34.3 53.2c0-.3 0-.7.1-1 .2-.1.4-.1.5.1-.1.2.1.5 0 .7 0 .1-.1.1-.2.2-.1 0-.3.1-.4 0z"/><path class="st10" d="M34.8 51.1c.2 0 .2.2.2.3-.1.1-.1.2-.1.2 0 .4-.3.2-.4.3-.2 0-.1-.2-.1-.3.1-.2 0-.6.4-.5z"/><path class="st11" d="M34.9 50.4c-.3 0-.3-.1-.3-.4 0-.1.1-.3.1-.4.1-.1.2-.1.3-.1.1 0 .2.1.3.1v.2c0 .2 0 .3-.1.5 0 0 0 .1-.1.1h-.2z"/><path class="st12" d="M34.9 48.8s.1 0 0 0c.2.1.3.1.4.2v.2c0 .1 0 .2-.1.3H35c-.1 0-.3 0-.4-.1.2-.2 0-.4.3-.6z"/><path class="st13" d="M36.6 53.6c.4-.3.8-.5 1.2-.7.1-.1.3-.1.3-.2.1 0 .2.2.4.1.1-.1.1.1.1.2-.2-.1-.4-.1-.6.1-.4.2-.8.5-1.2.7-.2-.1-.2-.1-.2-.2z"/><path class="st14" d="M36.4 50.5c.2.1.4 0 .6.1-.1 0-.2.1-.3.1-.2.1-.3 0-.5 0-.4 0-.8 0-1.2-.2l-.1-.1c.1-.1.2-.1.3-.1.2 0 .3 0 .5.1h.4c.2 0 .3.1.3.1z"/><path class="st6" d="M34.8 53c0-.2 0-.5.1-.7v.1c.2-.2.4-.2.5 0-.1.1-.1.2-.2.3 0 .2-.1.5-.4.3z"/><path class="st15" d="M35.1 50.5c.4.1.9.2 1.3.2-.1.2-.2.1-.3.1h-.4c-.2 0-.4 0-.6.1-.1-.1-.1-.3 0-.4z"/><path class="st16" d="M35.1 50.5c0 .1 0 .3-.1.4-.2 0-.4.1-.4 0-.1-.1-.1-.4.1-.4.1 0 .3-.1.4 0z"/><path class="st17" d="M36.8 52.1h-.5c-.1-.1-.3.1-.3-.1.4 0 .8-.1 1.2.1-.2.1-.3-.1-.4 0z"/><path class="st18" d="M36.8 52.1c.1-.1.3 0 .4-.1h.4c.1.1.1.2 0 .3-.1.1-.2.1-.3 0 .1 0 .2 0 .2-.1s-.1-.1-.2-.1h-.5z"/><path class="st19" d="M35.6 50.8c.2-.2.5 0 .8-.1.2 0 .3 0 .5.1-.5.1-.9 0-1.3 0z"/><path class="st20" d="M35.5 52.5c-.2-.1-.4-.1-.5 0 0-.3.1-.3.4-.2.2 0 .2 0 .1.2.1 0 .1 0 0 0z"/><path class="st21" d="M30.2 74c0 .1 0 .2.1.2 0 .2-.1.3-.2.4-.1 0-.1 0-.1-.1.1-.1.1-.3.2-.5z"/><path class="st6" d="M34.3 53.2c.1 0 .3 0 .4-.1.1 0 .2 0 .1.2-.2-.1-.3.1-.5.1v-.2z"/><path class="st22" d="M35.8 53.9c0-.2.1-.3.1-.5 0-.1 0-.1.1-.1 0 .1 0 .2.1.2.1.1 0 .1 0 .2-.1.1-.1.2-.3.2 0 .1 0 .1 0 0z"/><path class="st23" d="M35.1 50.5c-.1 0-.3 0-.4-.1.1 0 .2 0 .2-.1h.2c.1-.1.2-.1.3.1-.1.1-.2 0-.3.1z"/><path class="st24" d="M36 52c.1 0 .1.1.2.1-.2 0-.4.1-.6-.1.2-.1.3 0 .4 0z"/><path class="st25" d="M35.6 52.5c.1-.2-.2-.1-.2-.2.1 0 .2-.1.3 0 0 .1 0 .2-.1.2z"/><path class="st26" d="M36.9 51.8c.2-.1.5-.1.7 0-.2.1-.3 0-.5 0h-.2z"/><path class="st6" d="M34.9 52.3c-.2-.2-.3-.1-.5-.1.2-.1.4-.2.5.1z"/><path class="st18" d="M37.1 51.8h.5c0 .1 0 .2-.1.2 0-.3-.3 0-.4-.2z"/><path class="st27" d="M35.2 47.8c-.1 0-.1 0-.2-.1 0-.1 0-.2.1-.3-.1.1.1.2.1.4z"/><path class="st28" d="M34.7 49.4c.1 0 .2.1.4.1 0 .1 0 .1-.1.1h-.3v-.2z"/><path class="st29" d="M35.8 53.9c.1 0 .1 0 0 0 .1.2 0 .3-.1.3.1-.1 0-.2.1-.3z"/><path class="st30" d="M30.1 74.6c.1.1.1.1.1.2-.1 0-.1.2-.1.1-.1-.1-.1-.2 0-.3z"/><path class="st31" d="M36 53.7v-.2-.1c.1 0 .1 0 .1.1 0 .2.1.3-.1.2.1.1 0 .1 0 0z"/><path class="st4" d="M51 36c.6.1 1.1.2 1.6.5.4.2.7.3 1.1.2.1 0 .2 0 .2.1.1 0 0 .1 0 .1.1-.1.1-.2.2-.3.1-.1.2 0 .2.1s-.1.2-.1.3c.1 0 .1-.1.1-.1.1-.1.2-.2.2-.1 0 .2.5.1.2.4-.2.2-.3.5-.3.8.2-.2.4-.4.6-.7.1-.2.2-.2.4-.2.1 0 .2 0 .2.2 0 .1 0 .2.1.2s.1.1 0 .2l-.2.2c.1-.1.2-.2.3-.1.2.1-.1.2 0 .4h.4c.1 0 .2 0 .2.1s0 .1-.1.2c-.2.1-.3.3-.4.5.2-.1.4-.3.6-.3.1 0 .1 0 .2.1s.3-.1.4 0l.1.1c0 .1-.1.1-.1.1.1 0 .2-.1.4-.1.1 0 .1 0 .2.1 0 .1-.1.1-.1.2-.1.1-.2.1-.3.2.1-.1.3-.2.5-.3.2-.1.4-.2.6-.2.1 0 .4-.2.3.2.1 0 .3 0 .3.1s-.2.1-.3.2c-.3.1-.5.2-.7.4.4 0 .8-.1 1.2-.2.1 0 .4-.1.4 0 .1.2-.2.2-.3.3-.2.1-.5.1-.7.3-.1 0-.3.1-.4.1.2-.1.4-.1.5-.2.1 0 .3-.2.3 0 .1.2.4.3.2.5-.1.1-.1.3-.2.5 0 0-.1.1 0 .1.1-.2.1-.5.3-.4.1 0 .2 0 .3-.1.1-.1.1-.1.2-.1.1.1.1.2.1.3-.1.5-.3.9-.5 1.4.2-.1.3-.5.6-.5.1 0 .1 0 .1.1.1.2-.1.3-.2.5 0 .1-.2.2 0 .4 0 0 .1.1 0 .1-.1.3-.1.6 0 1 0 .1.2.1.3.2.2.1.5.1.7.2.1 0 .2 0 .2.1s-.1.2-.1.2l-.6.3c.3.1.7 0 1 0 .2 0 .3.1.1.3-.2.1 0 .3.1.3.5 0 .7.4 1 .5.3.4.6.7.7 1.1-.2.2-.4.3-.6.5-.4.3-.4.3 0 .6-.4.1-.7 0-1.1-.1-.4-.1-.4.1-.4.4 0 .9.2 1.7.5 2.5.1.2.1.3.2.5-.4-.2-.6-.4-.8-.6l-.2-.1c.1.3-.5.1-.3.4.1.2.2.3.3.6-.7-.1-1.2-.3-1.9-.5.2.6.7.9 1.1 1.4-.6 0-1-.3-1.4-.4h-.2l.1.1c.1.1.4.1.5.3 0 .1 0 .1-.1.1-.4 0-.7-.2-1.2-.2.4.3.8.6 1.2.7 0-.2-.2-.3-.3-.3h-.9c-.3-.1-.2.1-.2.2h-.2c-.3-.2-.7-.4-1-.5-.4-.2-.7-.3-1.1-.4-.1 0-.3-.1-.4-.1-.2-.1-.5-.1-.7-.3-.1 0-.1-.1-.1-.2-.1-.1-.3-.2-.4-.3l-.1-.1c0-.1.1-.2.2-.2.2 0 .4-.1.6-.2h.1c.5 0 .9-.3 1.2-.5.1-.1.2-.1.3-.2 0 0 .1 0 0-.1h-.1c-.4-.1-.7-.2-1.1-.3-.1 0-.2-.1-.2-.2s.1-.1.2-.1c-.1-.1-.3 0-.4-.2 0-.1.1-.2.2-.2.3.1.7 0 1.1.2-.1-.2-.3-.2-.4-.4.2-.3.5-.3.8-.5.2-.1.3-.2.5-.3.1-.1.2-.2.3-.2.2-.1.3-.3.5-.4.1-.1.2-.2.3-.4 0 0 0-.1.1-.1.1-.1.1-.2.1-.2 0-.1.1-.2.2-.2.1-.1 0-.1 0-.2-.2-.2-.5-.4-.8-.7-.1-.1-.3-.2-.2-.4.1-.2 0-.3-.1-.3-.4-.2-.8-.5-1.3-.7-.2-.1-.4-.2-.3-.5.1-.2-.1-.2-.2-.2-1.5-.1-3-.7-4.5-.7-.3 0-.4-.1-.2-.4.2-.3.5-.6.8-.8-.2.1-.5.2-.7.3-.1 0-.2.1-.3 0-.1-.1 0-.2.1-.2.1-.2.2-.3.4-.5-.2.1-.3.2-.4.3-.2.1-.2.1-.4 0-.1 0-.1 0-.1.1l-.2.2c-.1 0-.2.1-.2 0-.1-.1 0-.1 0-.2.1-.3.2-.5.4-.8-.1.2-.2.3-.2.4-.1.1-.1.2-.2.2s-.2-.2-.2-.3c0-.6-.1-1.1 0-1.7 0-.2-.2 0-.1-.1 0-.4.1-.7 0-1.1-.1-.3 0-.6-.1-.9 0-.1 0-.2.1-.3.1-.1.2.1.3.2.1.1.1.2.3.2.1 0 .2.1.3.2.2.2.3.4.4.6.2-.1.1-.2.2-.3.1-.2-.1-.5.2-.7.2.1.3.2.3.4-.4-.7-.5-1.3-.2-1.7z"/><path class="st32" d="M49 39.2c.1-.1.1-.1.1.1v1.6c0 .1 0 .2.1.3.2-.2.3-.5.7-.7-.2.4-.5.7-.6 1.2.3-.1.4-.4.6-.4 0 .1-.2.2-.1.4.3-.2.6-.5 1.1-.6-.3.3-.5.6-.7.9.4-.1.8-.5 1.3-.5-.4.4-.9.6-1.1 1.2 1.7-.1 3.2.6 4.9.7.2 0 .4.2.2.4-.1.2-.1.2.1.3.5.3 1 .6 1.6.9.2.1.3.2.1.3-.2.2 0 .2.1.3.3.2.6.4.8.7 0 .1 0 .1-.1.1-.4.1-.7-.1-1-.1.1.1.3.2.3.3 0 .1-.1.1-.3.1.2 0 .3 0 .4.1.1 0 .1.1.1.2s-.1.1-.2.1c-.3 0-.6.1-.8.2.1 0 .4 0 .4.2s-.2.2-.3.3c-.4.2-.8.2-1.3.3.1.1.2.1.2.3-.2.2-.5 0-.8 0 .1.1.3.1.3.3 0 0 0 .1-.1.1-1 .5-2.1.7-3.2.9-.5.1-1 0-1.4.1h-.1c-.2.1-.4 0-.5 0-.7-.3-1.4-.7-2-1.1-.1-.1-.3-.2-.5-.3 0-.1-.1-.1-.1-.2-.7-.6-1-1.5-1.3-2.4-.1-.2-.1-.3-.3-.4-.3-.3-.3-.7-.4-1.1 0-.1 0-.2.1-.2.3 0 .3-.2.3-.4 0-.6-.1-1.2-.2-1.7 0-.1-.1-.3 0-.4.1-.1.2 0 .2 0 .1 0 0-.1 0-.1v-.2c.3-.6-.1-1-.4-1.4-.1-.1-.2-.3-.1-.5.2-.1.3.1.4.2 0-.1 0-.3-.1-.4 0-.1-.1-.2 0-.3.1-.1.2 0 .3.1l.1.1c.1 0 .1.1.2.1.5.4.7.9.9 1.4v-.9c0-.1 0-.3.1-.3.2 0 .2.1.3.3 0 .1 0 .1.1.2 0 0 0 .1.1.1l.1-.1c.1-.1 0-.1 0-.2-.1-.3-.2-.7-.4-1 0-.2-.1-.3.1-.4.1 0 .2.1.3.2 0 0 0 .1.1.1.3.4.3.4.5 0l.1-.1c.1.1.1.2.1.3v.1c0 .1.1.1.1.2.1.1.1.2.1.3v.2c-.1.2 0 .3-.1.5V40v-.3c0-.1.1-.3.1-.4.3 0 .3-.1.4-.1z"/><path class="st33" d="M55.4 62.7c.3.2.4.2.8-.4.2.3.5.6.7.9l.3.3c.4.4.6.3.7-.3.4.6.7 1.3 1 2.1 0-.3.1-.6-.1-.9.5.1.8.3 1.2.5 0 0 .1 0 .1.1 0 .2 0 .3.3.3.8.2 1.5.6 2.2 1.1-.5.1-.8.2-1.2.3 0 .1-.3 0-.1.1.3 0 .5.1.9.1-.6.3-1.1.4-1.7.6.3.2.6.2.9.4-.7.1-1.3-.1-2-.2-.3 0-.5-.1-.8-.2-.3-.1-.5-.2-.9.1-.3.3-.8 0-1.1-.2-.5-.3-.9-.6-1.4-.9 0 .7.4 1.1 1 1.5-.9-.2-1.5-.6-2.3-1 .2.5.3.9.5 1.2h-.1c-.2-.3-.4-.6-.6-1-.1 0-.1.1-.1.3v.4c-.5-.7-.9-1.5-1.2-2.3-.1.1 0 .3-.1.4h-.1c-.4-.7-1-.8-1.7-.5-.4.1-.8 0-1.2-.1.1-.2.2-.1.3-.1.2 0 .5 0 .7-.1.2-.1.3-.2.1-.4-.3-.3-.8-.5-1.2-.7 0-.2.1-.1.2-.1.2 0 .4.1.7.1-.4-.3-.7-.5-1-.8 0-.1 0-.1.1-.1.6.3 1.3.6 1.9.8.2.1.3.1.5.1.1 0 .3.1.4-.1.1-.1-.1-.2-.2-.3-.3-.2-.6-.4-.9-.5 0-.1 0-.1.1-.1s.2 0 .4.1c-.2-.2-.4-.3-.6-.4.4 0 .8 0 1.1.2.3.2.4.2.5-.2 0-.1.1-.1.1-.2.3.3.3.2.6-.2.1.1.1.2.1.3 0 .3.2.3.4.3s.2-.1.2-.3c-.1-.3.3-.4.2-.7.1-.1.1 0 .1.1.1.5.6.7 1 .5.3-.1.1-.4.1-.6.1 0 .2.1.3.1.1.3-.1.7-.1.9 0-.2.1-.3.1-.5-.3.3-.2.2-.1.2z"/><path class="st32" d="M36.8 42.2c0-.1.1-.2.1-.3.4 0 0-.2.1-.3 0-.1 0-.1.1-.2h.1c.2.2.5.2.8 0 0-.1-.1-.2-.1-.3 0-.1-.1-.2 0-.3.1-.1.2 0 .3 0 .7.3 1.4.7 2 1.2l.1.1c.1 0 .1.1.2.1l-.1-.1c-.3-.3-.6-.5-.9-.8 0-.1 0-.2.1-.2.2 0 .3.1.5.2-.1-.2-.2-.3-.4-.5-.1-.1-.2-.1-.1-.2s.2 0 .2 0c.2.1.4.3.7.4-.1-.3 0-.5.1-.7.2-.3.2-.2.4 0 .1.1.1.2.2.3V40c0-.1 0-.2.1-.3.1 0 .2.1.2.1.1.1.1.2.2.3.1-.1.1-.2.1-.3 0-.1 0-.2.1-.2s.1.1.2.2v.1c0 .6.1 1.2.1 1.8v-.6c0-.1 0-.3.2-.2.1 0 .1.1.1.2V41c0-.2 0-.3.2-.4.2-.1.1-.4.1-.6 0-.3-.1-.5 0-.8 0-.1 0-.3.2-.3s.2.1.2.2c0 0 0 .1.1.1.2-.2.3-.5.4-.7.1-.2.2-.5.4-.4.2.1.1.4.1.6v.3c-.2.3-.2.8-.5 1 0 0-.1 0-.1-.1v-.1.1c-.2.3-.3.6-.3.9 0 .3 0 .6-.1.8-.1.1-.2 0-.2-.1.1.6.1 1.2.2 1.8 0 .2 0 .5.1.7 0 .2 0 .4-.2.5-.6.8-1.1 1.5-1.7 2.3-.2.2-.4.5-.6.7-.4.4-.8.7-1.2 1.2-.1.1-.1.2-.3.3-.1 0-.2 0-.3-.1 0 0 0-.1-.1-.2v.1h-.3c-.2-.1-.4-.2-.5-.2-.1 0-.1 0-.1-.1-.1-.1-.3-.1-.4-.2.1.1.2.1.3.2v.2c.1.1 0 .1 0 .2h-.2c-.1 0-.2-.1-.3-.1-.1 0-.2-.1-.3-.1l-.2-.2-.1-.1c0-.2-.2-.1-.2-.1-.1 0-.2 0-.2-.1 0-.3-.1-.3-.3-.2-.1 0-.1 0-.2-.1 0-.3.4-.3.5-.5-.2-.1-.5.1-.7 0 0-.1 0-.2.1-.3.1.1.2 0 .2 0 .1-.1.3-.1.5-.2-.3-.2-.5.1-.7.1.2-.7.4-1.4.5-2.2.2 0 .3 0 .5-.1-.1-.2-.3 0-.4-.2 0-.2.1-.4.1-.6.2-.3.4-.5.3-.9v-.4c.1-.1.2-.2 0-.4z"/><path class="st33" d="M38.7 71.3c.3.3.5.6.8.9.1-.5 0-.9 0-1.3.2.5.3 1 .5 1.5l.6 1.8c.1.3.4.4.5.7.1.1.2.2.2.4-.4-.2-.8-.3-1.3-.5.1.3.2.4.3.6v.1c-.3-.2-.5-.3-.8-.5-.2-.1-.3-.2-.6-.1-1.1.2-2.2.3-3.4.5v-.1c1-.3 2.1-.5 3.1-.8-1.6-.4-3.1-.7-4.7-.8.1-.3.4-.3.6-.6h-2c.4-.4.9-.7 1.4-.9-.1-.2-.3-.1-.3-.2.2-.1.3-.1.6-.2-.6-.3-1.1-.2-1.6-.3l2.4-.3c-.3-.3-.7-.4-1-.6 0-.1 0-.1.1-.1.9.2 1.7.4 2.7.6-.4-.4-.8-.8-1.1-1.2 0 0 0-.1.1-.1 1 .7 2 1.3 3 2 .1 0 .1 0 .1-.1-.1-.1-.2-.2-.2-.4-.1 0-.1 0 0 0z"/><path class="st34" d="M44.4 57.6c-.1.2-.3.4-.1.6.1.1.4 0 .6 0 .1 0 .2-.1.3-.1v.4c.3-.1.4-.5.7-.6v.7c.2-.3.3-.6.5-.7.3.4.5.7.8 1.1.1.2.2.3.4 0 .1-.2.2-.3.3-.5.2.3.3.6.4.9.2-.2.3-.4.5-.6.1 0 .1.1.1.2 0 .2-.1.4-.1.7.4-.3.7-.5 1-.8.1 0 .1 0 .1.1-.1.2-.2.3-.4.6.5-.2.9-.4 1.3-.6.1.2-.1.4-.1.7.4-.2.7-.5 1.1-.7.2.2.1.4.2.6.2-.2.3-.5.6-.6v.7c.3-.2.3-.5.5-.7.1-.1.1-.3.2-.2.1 0 .1.2.2.2 0 .1.1.1.2.2.1-.2 0-.4.2-.6.2.1.3.2.4.4.1.2.2 0 .3 0 .2.1.3.3.2.6-.2.6-.4 1.1-.7 1.7-.1-.3-.2-.6-.3-1-.2.1-.2.4-.3.5-.1 0-.1-.2-.3-.2l-.3.9c-.2-.3-.2-.6-.4-.9-.2.3-.3.6-.5.9v-.9h-.1c-.1.2-.2.4-.4.7-.1-.3-.1-.5-.2-.8-.2.3-.3.6-.4 1-.1-.2-.1-.4-.1-.5 0-.3-.1-.3-.3-.1 0-.2.1-.4 0-.5-.2.1-.3.3-.5.5h-.1c0-.2.1-.5-.1-.6-.2-.1-.3.2-.5.3-.1 0-.1.1-.2.1-.1-.1 0-.3-.1-.4-.2 0-.3.2-.4.2-.1 0-.2.4-.3 0 0-.1-.2.1-.4.1 0-.3-.1-.4-.4-.2h-.2c-.1-.5-.3-.1-.4 0-.1 0-.1.1-.3.2v-1c-.2.3-.4.5-.5.8-.1.2-.2.2-.3 0-.1-.1-.1-.5-.4-.3-.1 0-.1-.1-.1-.2 0-.2-.1-.5-.1-.8-.2.2-.3.4-.4.6-.1 0-.1 0-.1-.1v-.3s-.1 0-.1-.1c-.2.3-.4.5-.6.8-.1-.3 0-.4-.1-.5-.3.2-.5.4-.8.6v-.5c-.2.1-.3.3-.5.5-.1-.2.1-.4 0-.6-.3.1-.4.3-.7.5-.1-.1 0-.3-.1-.5l-.9.3c-.1-.2.1-.4 0-.6-.3.1-.5.3-.8.3.3-.8.7-1.6 1.8-1.8 0 .1-.1.2-.1.4.1.1.1 0 .2 0 .2-.1.3-.3.5-.2.1.1.1.3.1.5s.1.1.2.1c.2-.1.4-.3.5.1 0 .2.1 0 .2 0 .4-.7.6-.9.9-1-.1-.1 0-.1 0 0z"/><path class="st4" d="M57.5 53.1l.1.1h.1c.1.1.2.1.3.2.6.4 1.2.7 1.8 1.2 0 0-.1.1 0 .1h.2c.2.2 0 .1-.1.1-.6 0-1.3 0-1.9-.2-.4-.1-.7-.2-1.1-.3-.2.1-.3 0-.4-.1-.2-.1-.3-.2-.4-.3-.1-.1-.2-.1-.2-.2-.1-.1-.2-.1-.3-.2 0 0-.1 0-.1-.1-.1-.1-.3-.2-.4-.3-.1 0-.1-.3-.3-.2-.3 0-.5-.1-.7-.3-.2-.3-.4-.2-.7-.2-.6-.1-1.1-.3-1.6-.5-.1-.2-.2-.1-.3-.2-.2-.1-.3-.1-.2-.3-.1.1-.2.3-.4.2-.1-.3-.4-.2-.5-.3.2-.2.6 0 .7-.3.2 0 .4-.1.6 0 0 0 .1 0 .1.1.4.2.8.1 1.2.2.6.1 1.3.3 1.9.5.1 0 .3.1.4.1.4.1.8.3 1.3.5.1.4.5.6.9.7z"/><path class="st33" d="M38.3 63.2h-.7c.2.1.3.2.6.3h-1.7c0-.2.3-.3.3-.5-.1-.1-.2-.1-.3-.2.4-.2.7-.3 1.2-.6-.7-.1-1.3-.2-1.8-.3v-.1c.4 0 .8-.1 1.2-.1-.3-.3-.7-.3-.9-.6.6-.2.6-.2.5-.4.7.1 1.3.3 2 .4v.1h-1v.1c.4.3.8.7 1.3 1 .2.2.5 0 .7.1h.7c0-.2-.2-.3-.3-.5-.1-.1-.1-.2.1-.3.5-.1 1-.2 1.4.3.3.4.8.6 1.2 1h-.6c0 .2.2.2.3.4-.7-.1-1.5-.3-2.2-.4h-.1-.1c.1 0 .1 0 .1.1.1.1.2 0 .3.2-.6-.1-1.2 0-1.7-.1.2-.1.4 0 .7 0-.5 0-.9 0-1.2.1zM58.1 58.1c.2.1.3.2.4.3-.3.1-.5 0-.8.1 0 .2.2.1.2.3-.2.1-.5.1-.8.2.2.2.3.3.5.4 0 .1-.1.1-.2.1-.3-.1-.6-.1-.9-.3-.3-.1-.5-.1-.4.3v.1H56c-.4-.3-.4-.3-.6.2-.1.1 0 .3-.2.3-.1 0-.1-.1-.1-.2v-.5-.1-.6c0 .1 0 .3-.2.3-.2-.2-.2-.5-.4-.7v-.1c0-.2 0-.4.2-.5.2-.1.3.1.4.1.1 0 .1.1.2.1 0-.4 0-.4.8-.1 0-.1-.1-.2.1-.3.1 0 .2.1.4 0-.1-.4-.1-.4.3-.4.1 0 .2.1.3 0V57c0-.1.1-.1.1-.1.1 0 0-.1 0-.1s0-.1.1-.1c.2-.1.5-.1.7 0 .1 0 .1.1.2.2s.1.2.2.3c0 .7 0 .7-.4.9-.1-.1-.1 0 0 0z"/><path class="st4" d="M43 44.8c.2-.4 0-.7 0-1.1 0-.7-.1-1.4-.2-2.1.2 0 0 .4.3.3.1 0 .3 0 .3.2v.1c.1-.2.2-.4.1-.5v-.2c0-.1.1-.2.2-.2.1.1 0 .3.2.5 0-.1 0-.2.1-.3.1 0 .2 0 .2-.1 0-.2.1-.3.1-.5.1-.1 0-.3 0-.4 0-.1 0-.2.2-.2.1.1.1.2.1.3v1.2c-.1.2.1.1.1.1v.3c0 .1.1 0 0 0-.1-.2 0-.3-.1-.5.1-.2.2-.1.2 0 .1.2 0 .4 0 .5v1c0 .2-.1.4-.1.5 0 .1-.1.1-.2.2s-.2.3-.3.4c0 .1-.1.4-.2 0 0-.1-.1 0-.1 0l-.3.3s-.1 0-.1-.1.1-.2.1-.4c0 .4-.2.7-.6.7z"/><path class="st35" d="M45.2 43.4c-.2 0-.2-.2-.2-.3v-1.2c0-.2-.1-.1-.1 0v.1c-.1 0-.1.2-.1 0v-.3c-.1-.3 0-.7-.1-1v-.3s0-.1-.1 0v.6c-.1.2-.1.4-.2.5-.1.2-.2.1-.2 0-.1 0-.1-.1-.1-.2v.6c-.2.1-.1-.1-.2-.2s-.1-.3-.1-.4c-.1 0-.1-.1-.1-.2 0 .2-.1.3-.1.5v.1c0-.1 0-.1.1-.1.1.2-.1.4-.2.6-.2 0-.1-.1-.1-.1 0-.2-.2 0-.2-.2 0-.6-.1-1.2.2-1.7.1-.2.1-.1.2 0 .1 0 0 .2.1.1.1-.3.3-.7.4-1 0-.3.2-.5.3-.7.2-.3.3-.3.5 0 0 .1.1.1.1.2.1.1 0 .3.1.4.1-.1 0-.4.3-.4.1 0 .1.1.1.2.1.2.1.3-.1.4-.2.1 0 0 0 .1.1.2 0 .2-.1.3 0 .2.1.3.1.5.2.5.3 1 .4 1.5v.2c0 .1.1.2-.1.2l-.2-.2c-.1 0-.1.1-.1.1 0 .5.1.9 0 1.4 0 .2 0 .3-.2.4.1-.3.1-.4 0-.5z"/><path class="st33" d="M40.1 64c-.3.1-.7.2-1 .2 1.1.1 2.1.2 3.1.4-.6.1-1.2.1-1.8.3-.5.1-.5.2-.2.5l.1.1c-1.5-.1-3.1-.2-4.6-.1.4-.1.8-.2 1.2-.2 0-.1-.2-.1-.2-.2.7 0 1.4 0 2.2-.2-.7-.5-1.4-.6-2.1-.7 1-.4 2-.3 3.1-.4 0 .2.1.1.2.3z"/><path class="st36" d="M43.8 48.5c-.3.3-.5.6-.9.8-.2-.2-.1-.5-.1-.8v-.3.2c0 .1-.1-.1-.1 0s.1.2.1.3c0 .1.1.4-.2.3-.1 0-.2 0-.2-.1s-.1-.1-.2-.2-.1-.2 0-.2.1-.1.1-.2c-.1-.1-.2-.2-.3-.1-.2 0-.3 0-.4-.1V48c.1-.1 0-.2 0-.2-.2-.4 0-.8.5-.8.6-.1 1.2 0 1.7.1.3.1.4.2.5.5 0 .1.1.3.1.4-.1.1-.2.1-.4.1-.3.1-.3.3-.2.4z"/><path class="st37" d="M54.4 49.3c.2.1.5.1.7.3-.1.1-.3 0-.5.1.4.1.8.3 1.3.4.1 0 .1 0 .1.1h-.1c-.1 0-.3 0-.4-.1.1.1.2.1.1.2-.3.1-.5-.1-.8-.2-.1 0-.3-.1-.4-.1.1 0 .3.1.5.2.1 0 .2.1.2.2s-.1.1-.2.1H54c-.2 0-.4 0-.6.1-.1.1-.3 0-.4 0-.2-.1-.3.2-.5.2s-.4-.1-.6-.1h-.1c-.1 0-.1-.1-.1-.1-.2-.1-.5-.2-.7-.3-.1 0-.3 0-.3-.2.1-.1.2 0 .3-.1h.1c.5-.2 1-.2 1.5-.3.5.1.9-.2 1.3-.2 0 0-.1 0 0-.1s.3-.2.5-.1z"/><path class="st38" d="M50.4 53.6c-.1-.2-.4-.2-.4-.5 0-.1-.1-.2 0-.2.1-.1.2 0 .2.1.1.1.2.1.3.1.1 0 .2.1.3.1.1.1.2.1.3.1h.1c.1.1.2.2.3.2.2.1.3.2.5.3 0 0 .1 0 .1.1.1.2.3.3.4.4.1.1.2.1.3.2.1.1.1.2.2.3 0 .2.2.3 0 .5-.2.1-.4-.1-.6.1-.2 0-.3-.2-.4-.3-.4-.5-.9-.9-1.4-1.3 0-.1-.1-.1-.2-.2z"/><path class="st39" d="M42.7 48.5c.1-.2 0-.4.1-.7.1.5 0 1 .1 1.5 0 .2-.1.5 0 .7.1.2.4.1.6.2 1.1.4 2 .9 2.7 1.8 0 0 0 .1 0 0-.6-.5-1.1-1-1.8-1.2-.3-.1-.5-.1-.8-.2-.7-.2-1.3-.1-2 .1-.1 0-.2.1-.3.1-.1 0-.2 0-.2-.1.3-.3.7-.4 1.1-.5.2-.1.3-.2.3-.4s.1-.5-.1-.7c.2-.1.1-.3.1-.4.2 0 .2-.1.2-.2z"/><path class="st5" d="M51.9 55.3c-.1.1-.1 0-.2 0-.6-.5-1.3-.8-2-1.1-.2 0-.3-.1-.2-.3h.3c-.2-.3-.3-.6-.5-.9.5.2.7.5 1.1.7.5.3 1 .8 1.5 1.2.1.1.1.2 0 .4z"/><path class="st40" d="M37.1 48.8c.1 0 .2.1.3.1.1 0 .2.1.3.1 0 0 .1 0 .1.1h.1c.2.1.3.2.5.2.2.1.4.1.5.3-.1.2-.2.3-.4.3-.2.1-.3 0-.5 0-.5-.2-1.1-.3-1.6-.5-.2-.3.1-.5.2-.8.1-.1.1 0 .2 0s.2.1.3.2z"/><path class="st41" d="M52.1 55c.2.1.3.3.5.4.4.3.6.6.9 1 .3.4.6.8.8 1.2.1.2.2.5.2.7.1.2.2.4.3.7.2.1.1.3.3.4.1.2 0 .4.1.5v.2c0 .5.2 1 .1 1.6 0 .1 0 .3-.2.4.1-1.1-.1-2-.4-3-.1-.2-.2-.4-.2-.6-.6-1.2-1.4-2.2-2.2-3.2-.1-.1-.2-.2-.3-.2 0 .1-.1 0 .1-.1z"/><path class="st34" d="M59.5 57.3c-.1 0-.1 0-.2-.1-.1 0-.1 0-.1-.1s-.2-.2-.2-.3c-.1-.1-.1-.2 0-.2s.2 0 .1-.1l-.2-.2v-.1c0-.1.1-.1.1-.1.1 0 .2 0 .4-.1h-.9c-.1 0-.2 0-.3-.1v-.1c.2-.1.3 0 .5 0h1.8c-.2.2-.5.2-.5.5s.2.4.4.4c-.1.1-.2.1-.3.1-.5-.1-.4.3-.6.5z"/><path class="st42" d="M59.3 57.1s0 .1 0 0c.1.2.2.3 0 .3s-.4 0-.6.1c.2.3.6.3.9.6-.3 0-.6 0-.9-.1-.2 0-.4-.1-.5.1-.1 0-.2-.1 0-.1h.4c-.1-.3-.3-.5-.4-.7 0-.5.4-.2.6-.3-.1-.1-.2-.1-.2-.2-.1-.2-.1-.3.1-.3h.1c.1 0 .2.1.2.2s.2.2.3.4z"/><path class="st43" d="M49.5 53.9c0 .1.1.2.2.3.1.5.1.6.6.6.1 0 .2 0 .1.1s-.4.1-.5.3h-.2c-.1-.3-.4-.1-.5-.3 0-.2-.2-.1-.3-.1-.2.1-.3-.1-.5-.1 0-.1-.1-.1-.1-.3.1 0 .2 0 .4.1-.2-.3-.1-.6-.2-.8 0 0 0-.1.1-.1.2.2.1.5.3.7.1.2.1.2.3.1.2-.2.1-.4.3-.5-.1.1-.1 0-.1 0h.1c-.1 0 0 0 0 0z"/><path class="st44" d="M45.3 43.7c.1-.6.1-1.3.1-1.9 0-.1-.1-.2.1-.2l.1.1c.1.5.1 1.1.2 1.6v.5c0 .3.1.7-.4.5 0 0 0 .1-.1.1-.2-.1 0-.4 0-.7z"/><path class="st45" d="M51.8 50.6c.2.1.4.1.6.2.1 0 .3 0 .2.2-.1.1-.3.1-.5.1h-1-.1c-.3-.2-.5-.3-.8-.4-.1 0-.2-.1-.1-.2.2-.2.5-.2.7-.2.4.2.7.2 1 .3z"/><path class="st46" d="M54.4 49.3c-.2 0-.4.1-.5.2-.4.2-.8.3-1.2.3-.5 0-1 .2-1.5.2-.2-.1-.4 0-.6-.1.9-.1 1.8-.3 2.7-.5.7-.2 1.3-.4 1.9-.6.1 0 .1 0 .1.1-.1.3-.4.3-.6.3-.2 0-.3 0-.3.1z"/><path class="st47" d="M41.4 50.8c1-.5 2-.5 3 .1-.3 0-.7-.1-1-.1 0-.1.1 0 .1-.1-.1 0-.1 0-.2.1-.7 0-1.5.1-2.2.3.1-.2.2-.2.3-.3z"/><path class="st48" d="M45.7 45.6c.2 0 .3.2.3.3.2.4.3.9.5 1.3.2.3.3.7.6.9.1.1.1.1.1.2-.3-.1-.4-.3-.6-.5-.4-.5-.6-1.1-.8-1.7 0-.2 0-.3-.1-.5z"/><path class="st46" d="M36.4 49.3c.7.3 1.4.4 2.1.6-.1 0-.1.1-.2.1s-.2 0-.3-.1c-.3.1-.5-.1-.8-.1-.2-.1-.4-.2-.7-.2-.1 0-.2-.1-.3-.1-.1-.1-.3-.1-.4-.2-.2-.1-.4-.1-.5-.2V49c0-.1 0-.1.1-.1.4 0 .7.2 1 .4z"/><path class="st49" d="M49.8 55.1h.2c.1-.1.2-.2.4-.1.2 0 0 .1 0 .1-.3 0-.3.2-.2.4.2.7.2 1.4.3 2.2 0 0 0 .1-.1.1-.1-.3 0-.7-.1-1-.1-.5-.2-.9-.3-1.4-.1-.3-.3-.2-.5-.3H49.8z"/><path class="st50" d="M37.8 49.1c0-.1.1-.2 0-.2-.3-.1.1-.1 0-.2H38.1c.2.1.3.2.5.3.1.1.3.1.4.1.1.1.2.1.2.2s-.1.2-.2.3c-.3.1-.5-.1-.7-.2-.2-.2-.4-.2-.5-.3z"/><path class="st51" d="M52.1 55c-.1.1-.1.2-.1.3h-.1c0-.2-.1-.3-.3-.5-.4-.4-.8-.8-1.2-1.1v-.1c.7.4 1.2.9 1.7 1.4z"/><path class="st52" d="M43.8 48.5c-.1 0-.2-.1-.2-.3 0-.1.2-.1.3-.1.1.1.3.1.4 0 .3 0 .7-.1 1-.2.1 0 .1 0 .1.1-.4.1-.8.3-1.2.3-.1.1-.3.1-.4.2z"/><path class="st53" d="M56.4 54.3c.1.1.2.1.4.2.1.3.4.4.6.6.2.2.5.3.5.6h-.1c-.5-.3-.9-.8-1.3-1.1-.2-.1-.3-.2-.1-.3-.1 0-.1 0 0 0z"/><path class="st54" d="M50.6 52.8c-.3-.4-.7-.7-1.1-1 .2-.1.3.1.5.2.2-.1.4 0 .5.2.1.2.2.3.3.4.1.1.3.2.2.4h-.2l-.2-.2z"/><path class="st55" d="M50.5 52.2c-.2-.1-.3-.2-.5-.2.2-.2.4-.1.7-.1.2 0 .3-.1.4-.2.1-.2.2 0 .2 0 .1.1 0 .1-.1.1-.1.1 0 .1 0 .2.1.1.3 0 .4.2-.3.1-.5 0-.8 0-.1-.1-.1 0-.3 0z"/><path class="st56" d="M42.4 46.7c.7-.2 1.3-.1 1.9.2 0 .1 0 .1-.1.1h-.4c-.4-.2-.9-.1-1.3-.1-.1-.1-.2-.1-.1-.2z"/><path class="st57" d="M57.8 55.6s0 .1 0 0l.2.2c.1 0 .2.1.3.2-.2.3-.4.1-.6.1-.3-.1-.3-.3-.2-.5h.3z"/><path class="st58" d="M50.8 50.5c-.2 0-.5.1-.7.1H50c-.1 0-.2.2-.3.1-.1-.2.2-.1.2-.3.3-.2.6-.1.9-.1.1 0 .2 0 .3.1 0 .2-.2.1-.3.1z"/><path class="st59" d="M49.4 53.9c-.3-.3-.5-.8-.8-1.2.4.3.6.7.8 1.2z"/><path class="st60" d="M58.2 56l-.2-.2s0-.1.1-.1.1 0 .1.1c.3.1.5.2.7.3v.1c-.1.1-.1.3-.3.3h-.1c-.2 0-.2-.3-.3-.5z"/><path class="st61" d="M48.7 53.5s0 .1 0 0c-.2-.4-.5-.7-.7-1.2.4.4.7.7.7 1.2z"/><path class="st62" d="M59.6 57.5c.3.3.6.4.7.8-.2-.3-.6-.5-.7-.8z"/><path class="st63" d="M41.5 48.3h.6c.2-.1.2.2.3.3-.2.3-.4 0-.5 0-.1 0-.1 0-.1-.1-.1-.1-.2-.1-.2-.1v-.1h-.1z"/><path class="st46" d="M50.8 50.4h-.9c.3-.4.7-.5 1.1-.5-.1 0-.2.1-.3.1-.1.2-.3.2-.4.2-.1 0 0 .1-.1.1.2 0 .4-.1.6.1z"/><path class="st64" d="M42.4 46.8c.5 0 .9-.1 1.4.1v.1c-.4-.1-.8-.2-1.3-.1h-.2c0-.1.1-.1.1-.1z"/><path class="st65" d="M41.8 48.5c.2-.1.3.2.5.1.1.1 0 .2-.1.2s-.1.1-.1.2c-.2 0-.3-.2-.4-.3 0-.1 0-.2.1-.2z"/><path class="st66" d="M41.4 50.8c-.1.1-.2.1-.2.2-.2.1-.4.3-.6.5.2-.3.4-.6.7-.8 0 .1.1.1.1.1z"/><path class="st67" d="M55.4 62.7c-.1.3-.2.5-.3.8.1-.3.1-.7.2-1 0 0 0 .1.1.2z"/><path class="st68" d="M49.8 55.1h-.1c-.1-.1-.2 0-.3-.1-.1 0-.2.1-.2-.1 0-.1.1-.1.2-.1.1.2.4-.1.4.3z"/><path class="st69" d="M40.1 54c-.2.2-.4.3-.7.3.1-.2.4-.2.5-.4.1.1.2 0 .2.1z"/><path class="st22" d="M58.2 53c.3-.1.6.1.9-.1.1 0 .1 0 .2.1-.4 0-.7.1-1.1 0z"/><path class="st70" d="M51 51.1s.1 0 0 0c.2-.1.3 0 .4 0 .1.1.3 0 .4.1v.1c-.1.1-.2.1-.2 0-.3-.1-.5 0-.6-.2 0 .1 0 .1 0 0z"/><path class="st71" d="M49.2 55.4c.2.2.1.4.1.6-.1-.2-.1-.2-.1-.6z"/><path class="st72" d="M50.4 55c-.1 0-.2 0-.4.1 0-.1-.2-.2 0-.2h.4c.1 0 0 .1 0 .1z"/><path class="st0" d="M38.3 63.2c.4-.2.7 0 1.1 0h-1.1z"/><path class="st73" d="M43.8 47s0-.1 0 0c.1-.1.3-.1.4-.1.1 0 .2 0 .3.1.1.2 0 .2-.1.1-.2 0-.4-.1-.6-.1z"/><path class="st74" d="M49.4 64.3c-.1 0-.2 0-.2.1-.2 0-.3-.1-.4-.2.2 0 .4 0 .6.1z"/><path class="st75" d="M40.4 63.8c.3-.1.5-.1.8 0-.2 0-.4.1-.5.1-.2 0-.3 0-.3-.1z"/><path class="st76" d="M48.5 54.6c.2-.1.3.1.5.1 0 .1.1.2-.1.1-.1 0-.3-.1-.4-.2z"/><path class="st77" d="M40.4 63.8c.1 0 .2 0 .2.1-.2 0-.4.1-.5.1-.1-.1-.2-.1-.2-.1.1-.1.3 0 .5-.1z"/><path class="st78" d="M38.3 49.3c.3 0 .4.2.7.2 0 .1-.1.1-.2.1-.2-.1-.4-.1-.5-.3z"/><path class="st42" d="M59.5 57.3c.1-.2 0-.6.5-.5-.4-.1-.3.3-.5.5z"/><path class="st79" d="M41.4 48.4c-.1.1-.2.1-.3.1-.1 0-.1-.1-.1-.1 0-.1.1 0 .2 0 0-.2.1-.1.2 0z"/><path class="st80" d="M40.1 63.1c-.1 0-.2-.1-.4-.2.2 0 .4.1.5.1l-.1.1z"/><path class="st81" d="M59.8 54.7c-.1.1-.3.1-.4 0 .1-.2.2-.1.3-.1 0 .1.1.1.1.1z"/><path class="st82" d="M47.4 48.5c.2 0 .4.1.5.3-.2 0-.4-.1-.5-.3z"/><path class="st71" d="M49.2 55c.1 0 .2.1.2.1-.1.2-.2.2-.4 0 0-.1.1-.1.2-.1z"/><path class="st83" d="M53.9 62.4l-.1-.1c0-.1 0-.2.1-.3.1.1 0 .3 0 .4z"/><path class="st46" d="M38.5 50.4c-.2-.1 0-.3-.1-.4.3.1 0 .3.1.4z"/><path class="st84" d="M46.4 52.2c.1.1.2.2.3.4-.2-.1-.3-.2-.3-.4-.1 0-.1 0 0 0z"/><path class="st85" d="M49.6 65.5c-.1 0-.2 0-.3.1-.1 0-.2-.1-.2-.1 0-.1.1-.1.2-.1 0 .1.2 0 .3.1z"/><path class="st86" d="M57.9 53.4c-.1-.1-.3 0-.3-.2.2 0 .3.1.3.2z"/><path class="st87" d="M36.5 54.2c.1.2.1.4 0 .6v-.2-.4z"/><path class="st88" d="M59.1 52.4s.1 0 .1-.1c.1-.1.2 0 .3.1 0 .1-.1.1-.2.1 0-.1-.2-.1-.2-.1z"/><path class="st89" d="M35.8 75.3c-.1.2-.3.1-.4.2-.1 0-.1 0-.1-.1.2-.1.3-.1.5-.1z"/><path class="st90" d="M42.4 46.8c-.1 0-.1.1-.2.1s-.2.1-.3 0c.2-.1.3-.2.5-.1 0-.1 0-.1 0 0z"/><path class="st91" d="M38.7 71.3s-.1 0 0 0c-.2 0-.3-.2-.3-.3h.1c0 .1.1.2.2.3z"/><path class="st92" d="M35.3 75.4s.1 0 0 0c0 .2-.2.1-.4.2.2-.2.3-.2.4-.2z"/><path class="st93" d="M59.4 52.4c.1 0 .1 0 .2-.1.1 0 .2 0 .2.1-.2.1-.3.1-.4 0z"/><path class="st94" d="M58.7 52c-.1 0-.2-.1-.3-.2.2-.1.3 0 .3.2 0-.1 0-.1 0 0z"/><path class="st95" d="M58.1 55.8c.1-.2.3-.2.5-.1-.1.1-.3 0-.5.1z"/><path class="st96" d="M43.3 50.8c.1-.1.3-.1.4 0-.1 0-.2 0-.3.1 0-.1 0-.1-.1-.1z"/><path class="st97" d="M39.3 56.1c0-.1 0-.2.1-.2.1.1 0 .1-.1.2z"/><path class="st46" d="M49.9 49.9h.5c-.2.1-.4.1-.5 0z"/><path class="st98" d="M39.1 49.3c-.1 0-.2-.1-.2-.1v-.1h.1c.1 0 .1.1.1.2.1-.1.1 0 0 0z"/><path class="st99" d="M41.4 48.4c-.1 0-.2 0-.2-.1 0 0-.1-.1 0-.1s.2 0 .3.1l-.1.1c0-.1 0-.1 0 0z"/><path class="st100" d="M53.5 67.8c-.1-.1-.1-.3-.1-.4.1-.1.1 0 .1.1s.1.2 0 .3z"/><path class="st101" d="M34.2 70.5c-.1 0-.1.1 0 0-.2.1-.3.1-.3 0 .1-.1.2-.1.3 0z"/><path class="st102" d="M50.9 53.2c-.1 0-.2-.1-.2-.2v-.1c.1 0 .2.1.2.3.1 0 0 0 0 0z"/><path class="st103" d="M44.4 57.6c-.1-.1-.1-.1 0 0 0-.1 0-.3.1-.2 0 .1-.1.1-.1.2z"/><path class="st104" d="M44.5 47c-.1 0-.2 0-.3-.1 0 0 .1 0 .1-.1.1 0 .2.1.2.2z"/><path class="st105" d="M49.8 58.8s-.1-.1 0 0c0-.1 0-.2.1-.2s.1 0 .1.1c-.1 0-.2.1-.2.1z"/><path class="st106" d="M57.5 59.5c.1 0 .1 0 .2-.1.1 0 .2.1.1.1-.1.1-.2.1-.3 0z"/><path class="st107" d="M49.2 63.5s-.1 0 0 0c-.2.1-.2 0-.3-.1.1-.1.2 0 .3.1z"/><path class="st79" d="M41.8 48.5v.1c-.1 0-.2 0-.3-.1H41.8z"/><path class="st108" d="M43.9 44.8s.1 0 .1.1-.1.2-.2.1 0-.2.1-.2z"/><path class="st109" d="M61.3 66.8c-.1 0-.2 0-.2-.1s.2-.1.2-.1v.2z"/><path class="st110" d="M54.5 68.8c-.1-.1-.2-.1-.2-.2.1-.1.1 0 .1 0 .1.1.1.1.1.2z"/><path class="st111" d="M44.8 59.2s.1 0 0 0c.1.1.1.2 0 .2-.1-.1-.1-.2 0-.2z"/><path class="st112" d="M45.4 48.1c0-.1.1-.2.1-.1.1.1 0 .1-.1.1z"/><path class="st113" d="M53.4 62.5s0 .1.1.1v.1c-.1 0-.1-.1-.1-.2-.1.1-.1 0 0 0z"/><path class="st114" d="M50.9 63.5c-.1.1-.3 0-.2 0 .1-.2.2-.1.2 0z"/><path class="st115" d="M48.8 58.8c0-.1 0-.1-.1-.2 0-.1.1-.2.1-.1.1.1.1.2 0 .3z"/><path class="st116" d="M49.2 65.5c-.1 0-.1 0-.2.1-.1 0-.1-.1-.1-.1.1-.2.2-.1.3 0z"/><path class="st117" d="M50.6 52.8c.1 0 .1 0 .2.1 0 .1-.1 0-.2.1v.1c.1-.2-.3-.2 0-.3z"/><path class="st65" d="M42.1 48.9c.1 0 .2 0 .2.2 0-.1-.1-.1-.2-.2z"/><path class="st118" d="M38.4 71c-.2 0-.2-.1-.2-.2.2 0 .2.1.2.2z"/><path class="st119" d="M38.8 71.7c.1.1.2.1.1.2 0 .1-.1 0-.1-.2 0 .1 0 .1 0 0z"/><path class="st120" d="M46.4 52.2c-.1 0-.2 0-.2-.1.1 0 .2 0 .2.1z"/><path class="st121" d="M49.9 58.6c0-.1 0-.2.1-.2.1.1 0 .2-.1.2z"/><path class="st122" d="M62.6 45.5c-.2 0-.4 0-.5-.3 0-.1-.1-.1-.2-.1h-.3c-.2 0-.3-.1-.4-.3 0-.2.2-.2.3-.3-.5-.1-.9.1-1.4-.1.3-.2.6-.3 1-.5-.4-.1-.7-.1-1.1-.2-.2 0-.4 0-.4-.4 0-.2-.1-.3.1-.5-.1-.1-.2.1-.3 0 .1-.1.2-.2.3-.4 0 0 .1-.1 0-.1h-.1c-.1 0-.1.1-.2 0-.1 0 0-.1 0-.2.1-.2.3-.5.4-.7 0-.1 0-.1.1-.2-.1 0-.1.1-.2.1-.2.2-.4.5-.8.8.2-.7.5-1.2.6-1.9-.2.1-.3.3-.5.4-.1-.1 0-.2-.1-.3l-.3.6c-.1 0-.1-.1-.1-.2.1-.2.1-.4.2-.5 0-.1.2-.2.1-.3-.1-.1-.2-.4-.5-.2-.1 0-.2.1-.2-.1.3-.1.7-.3 1.1-.5-.7.1-1.3.3-2 .3.4-.4.8-.6 1.4-.7h-.5c0-.1.1-.1.2-.2-.3 0-.6.1-.9.2-.1 0-.2.1-.2-.1l.1-.1c0-.1.1-.1.1-.2-.1.1-.2 0-.3.1-.2.1-.4.1-.6.2.1-.2.2-.3.4-.3 0-.1.1-.1.1-.1s-.1 0-.2.1c-.1 0-.3 0-.4.1.1-.2.2-.2.2-.2-.1.1-.2.1-.4.2-.3.1-.5.4-.8.5.2-.4.4-.6.8-.9-.4.1-.6.1-.9.1 0-.2.2-.3.2-.5-.2 0-.3.3-.5.2l.4-.4c-.1-.1-.2.1-.3 0 0-.1.1-.3.1-.4-.7 0-.7.9-1.2 1 .1-.4.3-.8.5-1.2-.1.1-.2.1-.3.2-.1-.1.1-.2.1-.4-.2.1-.2.4-.5.4.1-.2.1-.4.2-.6.1-.1.1-.3.1-.4.7-.5 1.3-1 1.8-1.6.9-1 1.7-2 2.5-2.9.7-.8 1.4-1.5 2.3-2 .8-.5 2-.1 2.5.8.6 1 .6 2.1.6 3.2-.1 1.1-.2 2.2-.4 3.3-.5 2.4-.9 4.8-1.7 7.1-.1.4-.1.6.2.9.5.4.6.6.7.7z"/><path class="st1" d="M48.6 39.2s-.1.1-.1 0V39c0-.2 0-.3-.1-.4 0 0-.1 0-.1-.1-.2-.2-.2-.4-.3-.6 0 .2 0 .4-.1.6 0 .1 0 .3-.2.2l-.2-.2c-.1 0-.1.1-.1.1 0 .1.1.3-.1.4h-.1c-.1 0-.1-.1-.1-.1-.1.2-.2.2-.4.1l-.3-.3c-.1-.1-.1-.3-.2-.4v-.4c0-.1.1-.3.3-.3.1 0 .1.1.1.1V37.5v-.1-.1h-.1c-.1 0-.2-.2-.3.1 0 .2-.2.2-.3 0-.1-.2-.2-.2-.4 0-.1.2-.3.1-.3-.1v-.6c0 .2-.1.3-.2.5 0 .1-.1.3-.2.2-.2-.1-.1-.2-.1-.4-.1.2-.1.4-.2.6-.1.1-.1.3-.4.2-.1 0-.1 0-.2.1s-.2.2-.4.1c-.1-.1-.1.1-.2.2s-.2.4-.4.3c-.2-.1-.5 0-.5-.3 0 0 0 .2-.1.2-.2 0-.2.1-.2.3 0 .1 0 .2-.1.2s-.2 0-.2-.1c-.1-.3-.3-.5-.3-.9 0 .2 0 .3.1.4 0 .1 0 .3-.1.3s-.2-.1-.2-.2 0-.2-.1-.3c.1-.1-.1-.1-.1-.1-.2.3-.4.1-.6 0-.1.1-.1.2-.1.3 0 .3-.1.6-.4.6-.3 0-.3-.3-.4-.5v.2c0 .4-.1.4-.4.2h-.1c-.1.4-.1.5-.5.2-.1 0-.1-.1-.2-.2-.1-.2-.3-.4-.3-.6 0 0 0-.1.1-.1.3-.2.1-.3 0-.4-.2-.2-.4-.3-.7-.4-.1-.1-.3-.1-.4-.3v-.1h.1c0-.1 0 0-.1-.1s-.2-.1-.3-.2l-.1-.1v-.1c.1-.1.2 0 .3 0 .6.4 1.3.8 2 1.1 0-.1-.2-.3.1-.4.1 0-.2-.2-.1-.4.1-.1.2 0 .4.1.1 0 .1 0 .1.1.1.1.1.2.2.3v-.1-.1c.1-.1.1 0 .2 0h.1c.1 0 .1.1.2.1 0-.2-.1-.4.2-.4.1 0 .1-.1.2-.2.1 0 .2 0 .2.1.1.1.3.2.5.2.2.2.7.3.9.2 1-.4 2-.9 3.1-1.1 1.9-.3 3.8-.4 5.8-.1-.1.5-.1 1.1-.1 1.6l-.3-.6c-.1 0-.1.1-.1.1v.6c0 .2-.1.4-.2.5-.2-.4-.4-.7-.7-1-.1 0 0 .2-.2.2-.1-.2-.2-.4-.4-.6 0 .5 0 .8.1 1.2.1.3 0 .6-.1.8-.2.4-.3.5-.5.6z"/><path class="st123" d="M37.1 37.1c.4.2.7.4 1.1.7.2.1.3.3.1.5-.1.1-.1 0-.1 0s-.1-.1-.1 0l.3.6c.1.2.1.4-.2.3-.2 0-.3.2-.5.1.2.1.3.3.3.5 0 .1-.1.1-.2.1h-.1s0-.1-.1-.1v.1c.1.3-.3.1-.2.3 0 .3-.2.2-.3.2.2.4.2.5-.2.5-.5-1.3-.9-2.7-1.4-4-.1-.4-.4-.8-.6-1.2-.5-1-1-2-1-3.2 0-.4.1-.5.5-.3.8.4 1.5.9 2.2 1.5.8.7 1.6 1.4 2.4 2.2.2.2.4.3.7.4.3.1.6.2.7.5 0 .1.1.3-.1.3-.1.1-.1-.2-.3-.1 0 .1.1.2.1.4 0 .1.1.1 0 .1l-.1-.1c-.1 0-.2-.1-.2-.2-.1 0 0 .1-.1.1 0 0-.1 0-.1-.1-.2 0-.2-.1-.2-.2h-.2c-.1-.1-.1-.3-.3-.1.1.2.2.3.3.5-.1.1-.2-.1-.3 0 .1.2.1.3.2.5-.7-.3-1.4-.7-2-1.1-.1-.1-.2-.2-.4-.1-.1 0-.1-.1-.2-.1 0 .2.1.2.2.3.2 0 .4 0 .4.2z"/><path class="st4" d="M37.9 39.9s.1 0 0 0c.1 0 .2.1.2 0v-.1c-.2-.1-.2-.4-.5-.5.3 0 .5-.2.7-.1.2 0 0-.2.1-.3.2.1.3.2.5.3.1-.2-.1-.5.2-.6.2-.1.2.2.3.3 0-.3.1-.5.1-.8.2.2.1.4.2.6.1.1.1.2.2.2s.2-.1.2-.2c.2-.3.1-.6.1-.9.2 0 .4.2.6.3.1-.1.1-.3.2-.5 0 .3.3.3.3.4.1.2.1.4.2.6.1-.1 0-.2 0-.2 0-.2-.1-.3.1-.5.1.3.2.7.4 1 .1-.2-.1-.4 0-.6.1 0 .1.2.3.2 0-.2 0-.4.1-.7.2.3.1.5.3.7.1 0 0-.2.2-.2 0 .1.1.2.1.4.2-.3.4-.6.6-.8.1.1-.1.2.1.3.1-.1.2-.3.4-.4.1 0 0 .2.2.2.1-.3.2-.6.4-.9.1.2 0 .4.1.5.1-.3.2-.5.3-.8.2 0 .1.1.1.2v.4c0 .1.1.2.2 0 .1-.1.1-.2.1-.4.2.1.3.3.5.5.1-.2.1-.3.1-.5.2 0 .1.3.4.2-.1.1.1.2 0 .3-.2-.1-.2.1-.2.2-.1.1 0 .2 0 .3-.1.1.1.3-.1.3-.1 0-.2-.1-.3-.2 0 0 0-.1 0 0v.1c0 .1-.1.1-.1.1-.1-.1-.1-.1-.1-.2v.4c0 .1 0 .3-.2.3 0-.1-.1-.1-.1-.2-.1 0-.1-.2-.2-.1 0 .1-.1.1-.1.1-.2-.1-.1-.3-.3-.4-.2.3-.3.7-.6.9-.1-.3.1-.6 0-.9-.4.3-.5.9-.9 1.3-.2-.1-.1-.4-.3-.5-.2.3-.1.6-.1.9 0 .2.1.4 0 .6 0 .1.1.2-.1.2-.1 0-.1.1-.1.2v.8c-.1 0 0 .2-.1.2v-1.1c-.3.3 0 .7-.3 1 0-.8-.1-1.5-.1-2.3-.2.2-.1.5-.3.7-.2-.1-.2-.5-.5-.6.1.4.1.7 0 1.1-.2-.3-.4-.5-.5-.7-.2.3-.4.6-.1 1-.3-.2-.7-.4-1-.6.2.3.4.5.6.9-.3-.2-.5-.3-.7-.4-.1 0-.2-.1-.2-.1.1 0 .1.2.2.3.3.3.6.5.8.8 0 .1 0 .1-.1.1-.7-.5-1.5-1.1-2.4-1.4.1.3.3.5.3.8-.1 0-.3-.1-.4-.1 0 .1.1.1.1.3-.3-.1-.5-.2-.7-.4 0-.2.1-.4 0-.6.2 0 .3-.1.1-.3-.1-.1-.2-.2-.1-.3.1 0 .2.2.4.1 0-.2-.1-.5.3-.4-.1.3-.2.2-.1.2 0-.1 0-.1 0 0z"/><path class="st124" d="M35.6 47.5c.3 0 .6-.1.9-.1-.1.4-.5.5-.7.7h-.1c-.1 0-.2-.1-.3-.1v-.1c.2-.1.2-.3.2-.4z"/><path class="st125" d="M36.8 42.6v.5c.1.4-.2.6-.4.9v-.1c.1-.4.2-.9.4-1.3z"/><path class="st126" d="M35.7 47c.3-.3.6-.2 1-.1-.3.1-.6.3-.9.4-.2.1-.1-.1-.1-.1V47z"/><path class="st127" d="M36.3 44.5c.2 0 .5-.1.6.3-.2.1-.3.1-.5.2-.1 0-.2 0-.2-.1 0-.2.1-.3.1-.4z"/><path class="st128" d="M54.5 36.3c.2.2-.1.3-.1.4 0-.1-.1-.2-.1 0-.1.2-.3.3-.4.5 0-.2.1-.2.1-.4 0-.1-.1-.1-.1-.2l.6-.3z"/><path class="st129" d="M37.1 41.6c.1 0 .1.1.2.2 0 .1.1.2 0 .2-.1.1-.2 0-.2-.1-.1-.1-.1-.2 0-.3z"/><path class="st130" d="M41.2 36.9c-.2 0 0 .2-.2.3-.1-.1-.2-.3-.3-.4.2-.1.4 0 .5.1z"/><path class="st131" d="M36.8 42.6c-.1-.1 0-.3 0-.4l.3.3c-.1.2-.2 0-.3.1z"/><path class="st132" d="M53.8 36.6c.1 0 .2 0 .1.2-.1 0-.2 0-.2-.1s.1-.1.1-.1z"/><path class="st133" d="M36 53.3c0 .1-.1.1 0 0-.2-.1-.2-.5-.6-.2 0 .1-.2.1-.2.2-.3 0-.2.2-.2.3 0 .4 0 .7-.1 1.1v-1.3-.1c0-.1-.1-.1-.1-.2l.1-.1c.2 0 .3-.2.5-.3.1 0 .1.1.1.1.1 0 .2 0 .2.1.6-.1 1.3-.3 1.9-.3v.1c-.5.1-.9.1-1.4.2-.1.1-.4.1-.2.4z"/><path class="st134" d="M37.2 49.8c.3 0 .6.1.8.2-.1.2-.3.1-.5.2 0 .1-.1.1-.2.1h-.1l-.2-.2c0-.1 0-.2.2-.3-.1 0-.1 0 0 0z"/><path class="st135" d="M36.4 50.5h-.1v-.1-.1h.2c.2 0 .2-.2.4-.2h.2c.1 0 .2 0 .3.1 0 .1 0 .1-.1.1-.3.1-.6.2-.9.2z"/><path class="st136" d="M35.7 52.9c-.1 0-.2.1-.3 0 0-.2.1-.2.2-.3 0 .1-.1.2.1.3z"/><path class="st137" d="M37.2 50.4l.1-.1h.2c.1.3-.2-.1-.3.1z"/><path class="st20" d="M35.5 52.6c-.1.1-.1.2-.2.3 0-.1 0-.1-.1-.2.2-.1.2-.1.3-.1 0-.1 0 0 0 0z"/><path class="st138" d="M36.2 53.6c-.1 0-.1-.1 0 0v-.4.4z"/><path class="st139" d="M35.2 53.3c0-.2.1-.1.2-.2h.1c-.1.2-.2.2-.3.2z"/><path class="st140" d="M35.5 47.9c.1 0 .2.1.3.1.1.2.3.1.4.3 0 .2.1.1.2.1s.2.1.2.2c0 .3-.3.4-.2.7-.3-.1-.7-.2-1-.3-.1 0-.1 0 0-.1 0-.3 0-.7.1-1z"/><path class="st141" d="M35.4 48.9s0 .1 0 0c0 .1 0 .1-.1.2-.1-.1-.3-.1-.3-.3.1.1.3.1.4.1z"/><path class="st142" d="M35.2 49.8v-.1c.3 0 .6.1.9.2.1 0 .2.1.3.2v.1c0 .1-.1.2-.2.2s-.1 0-.1-.1c-.1-.1-.4.1-.5-.2-.3.1-.4 0-.4-.3z"/><path class="st143" d="M36.1 50.2c.1 0 .1.1 0 0 0 .1-.2.1-.3.1 0 0 0 .1 0 0h.4v.1c-.1.1-.3 0-.4 0-.2.1-.3-.1-.4-.1-.1 0-.2-.1-.3-.1v-.1c0-.2.3-.2.4-.2.2.3.5.2.6.3z"/><path class="st144" d="M36.1 50.2c-.3.1-.7-.2-1 .1 0-.2 0-.3.1-.5.1.1.1.3.3.2.1 0 .6.2.6.2z"/><path class="st145" d="M35 49.6c.2-.1.3-.1.3-.1v.1s-.1 0-.1.1c-.1 0-.1-.1-.2-.1z"/><path class="st140" d="M35.3 49.1c.2 0 .4.1.5.2 0 .2-.2.2-.4.3h-.1c0-.2.2-.3 0-.5 0 .1 0 .1 0 0z"/><path class="st146" d="M35.3 49.2c.1 0 .2.1.2.1-.1.1-.2.1-.2.2h-.1v-.1s.1-.1.1-.2z"/><path class="st144" d="M35.8 50.5c.1-.1.3 0 .4 0v.1c0-.1-.2-.1-.4-.1z"/><path class="st147" d="M55.2 48.8c-.2-.2-.4-.2-.6-.5.4 0 .7.3 1 .2-.1-.1-.4-.1-.5-.3.7-.1 1.3-.1 1.9-.6-.3 0-.5 0-.8-.2.4-.2.8-.2 1.2-.3-.3-.1-.5-.1-.9-.2.2-.2.4 0 .6-.2-.2-.1-.3-.3-.6-.5.5.1 1 .2 1.4.3.1 0 .1.1.1.2l-.2.2c0 .1-.2.1-.2.3v.1c-.2.1-.3.2-.4.4l-.4.4c-.1.1-.2.1-.3.2-.2.1-.3.2-.5.3-.2-.1-.5.2-.8.2z"/><path class="st148" d="M52.9 50.6c.2-.1.4.1.6-.2.1-.1.5 0 .8 0h.8c-.4-.2-.7-.3-1-.4.5 0 .9.3 1.4.3h.1v.1c-.4.2-.8.5-1.2.5h-.1c-.3 0-.5.1-.8.1-.4.1-.5-.1-.6-.4z"/><path class="st149" d="M53.6 51.3c.2.1.4.2.5.3v.1c-.1.1-.2.1-.3 0-.3-.1-.5-.1-.8-.2-.4-.1-.8 0-1.1-.2v-.1c.2-.1.3-.1.5-.1H53.3c.1.1.2.1.3.2z"/><path class="st128" d="M54.6 49.2l.6-.3h.1c.3 0 .4.3.7.4-.5 0-1 .1-1.4-.1z"/><path class="st150" d="M53.1 51.5c.4 0 .7.2 1.1.2.2.1.5.2.7.3 0 .1 0 .1-.1.1-.6-.2-1.3-.3-1.9-.5 0-.1.1 0 .2-.1z"/><path class="st151" d="M56.4 52.6c-.5 0-.9-.3-1.3-.4 0-.1.1-.1.2-.1.3.2.8.2 1.1.5z"/><path class="st152" d="M54.4 50.9c.4-.2.9-.3 1.3-.5h.1c-.3.3-.7.4-1.1.6-.2 0-.3 0-.3-.1z"/><path class="st153" d="M55.3 48.9c-.1 0-.1-.1-.2-.1v-.1c.3-.1.6-.3.9-.4.1 0 .1 0 .1.1-.2.2-.5.4-.8.5z"/><path class="st154" d="M48.8 38.9c0-.3.2-.6.2-.9.1.4 0 .8 0 1.2v.1h-.1c-.2-.1 0-.3-.1-.4z"/><path class="st155" d="M56.4 52.6c.4 0 .7.3 1.1.5-.4 0-.8-.2-1.1-.5z"/><path class="st156" d="M57.5 38.9c0 .1.1.1.2.1-.2.1-.3.2-.5.3-.1 0-.1.1-.2 0 0-.1 0-.1.1-.1.2-.2.3-.2.4-.3z"/><path class="st157" d="M56.7 38.5c.2-.2.4-.2.7-.3-.2.1-.3.2-.5.4-.1-.1-.2-.1-.2-.1z"/><path class="st158" d="M56.1 48.4c.1-.2.3-.3.4-.4v.1c0 .2-.2.3-.4.3z"/><path class="st159" d="M54.3 50.9c-.1.3-.4.2-.5.2-.1 0-.1-.1-.1-.1.2-.1.4-.2.6-.1z"/><path class="st160" d="M57.5 38.7c.1-.1.3-.2.5-.3-.1.2-.2.3-.3.3h-.2z"/><path class="st161" d="M56.8 47.8c.2-.1.3-.3.5-.4h.1c-.1.2-.3.4-.6.4 0 .2 0 .1 0 0z"/><path class="st162" d="M50.4 37.7V37c0-.2.1-.1.1 0-.1.2.1.5-.1.7z"/><path class="st163" d="M57.2 38.6c.1-.1.3-.2.5-.2-.1.1-.3.2-.5.2.1 0 0 0 0 0z"/><path class="st164" d="M58.5 39.9c0 .1.1.1.2.1-.2.1-.4.1-.6.2.1-.3.2-.3.4-.3z"/><path class="st165" d="M53.7 51.1c0 .1-.2 0-.1.2-.1 0-.2 0-.3-.1 0-.1-.2-.1 0-.2.1 0 .3-.1.4.1z"/><path class="st166" d="M57.4 47.5s-.1 0 0 0c0-.1.1-.4.3-.4-.1.1-.1.3-.3.4z"/><path class="st167" d="M55.9 50.1c0-.1.1-.3.2-.2.1.2 0 .3-.2.2 0 .1 0 .1 0 0z"/><path class="st168" d="M59.9 41.5c.1-.1.2-.2.3-.4 0 .2-.1.3-.3.4.1 0 0 0 0 0z"/><path class="st169" d="M55.3 52.1c-.1 0-.1 0-.2.1-.1 0-.2 0-.3-.1l.1-.1c.1 0 .2.1.4.1z"/><path class="st170" d="M54.1 51.6c-.2 0-.3-.1-.5-.2.3-.1.4.1.5.2z"/><path class="st171" d="M59.7 42.4c.1-.1.2-.1.3-.2 0 .2-.1.2-.3.2.1 0 .1 0 0 0z"/><path class="st172" d="M56.8 47.8c.1.1.1.1 0 0 0 .2-.1.2-.2.3V48c.1 0 .2-.1.2-.2z"/><path class="st173" d="M58.1 46.5c-.1 0-.1-.1-.1-.2 0 0 0-.1.1-.1.3.2 0 .3 0 .3z"/><path class="st174" d="M55.9 50.1c0 .1 0 .1 0 0-.1.1-.1.2-.2.2h-.1v-.1s.2 0 .3-.1z"/><path class="st175" d="M58.8 40.9c0 .1 0 .1.1.2 0 .1-.1.2-.2.1 0-.1.1-.2.1-.3z"/><path class="st176" d="M57.8 47c-.1-.2.1-.2.2-.3-.1.2-.1.3-.2.3z"/><path class="st177" d="M48.8 45.2c0-1.1.9-1.9 1.8-2.1.8-.2 1.6.1 2.3.3 0 0 .1 0 .1.1.9.3 1 .5.5 1.5s-1.4 1.4-2.5 1.6c-.8.1-1.5 0-2-.6-.1-.3-.2-.6-.2-.8z"/><path class="st5" d="M46.4 38.6c.2.1.3.3.5.4.1-.1 0-.2 0-.3.1-.1.1 0 .1 0 0 .1 0 .2.1.2l.1.1c.1.1.1-.1.2-.1.2.3.2.7.4 1.1.1.1-.1.1-.2.2-.1 0-.1 0-.2-.1-.1-.2-.1-.4-.3-.5-.1.4.1.9-.1 1.3-.3-.5-.6-1.1-1.1-1.5 0-.2 0-.3.1-.5.2 0 .2-.2.2-.3h.2z"/><path class="st178" d="M45.3 38.9c.2-.2 0-.5.1-.8.1.1.1.2.2.3.1.1.2.2.2.3.1.2.2.4.1.7 0 .1-.1.1-.1.1l-.3-.3c.1.3.1.6.1.9-.3-.1-.3-.3-.5-.4.2-.3.3-.5.2-.8z"/><path class="st179" d="M47.6 38.7c.2-.1.1-.3.2-.5v-.4c.2.2.3.5.5.8.1 0 .1.1.1.2-.1.2 0 .5-.2.6-.2-.2-.4-.5-.6-.7z"/><path class="st180" d="M45.7 41.6c-.2-.5-.3-1-.4-1.5.3.3.4.6.6 1 0 .1-.1.3-.2.5z"/><path class="st181" d="M47.4 38.9c0 .1 0 .2-.2.1.2-.2.1-.3.1-.5s.1-.1.1 0v.4z"/><path class="st4" d="M48.8 38.9c.1.1 0 .3.1.5 0 0 0 .1-.1.1 0-.1-.1-.2-.1-.2 0-.2 0-.3.1-.4z"/><path class="st182" d="M48.9 39.8c0 .1-.1.3-.1.4-.1-.2-.1-.4 0-.6.1 0 0 .1.1.2z"/><path class="st183" d="M45.9 39.4s.1 0 0 0c.2-.2 0-.4.2-.5 0 .2.1.4-.1.5 0 .1-.1.1-.1 0z"/><path class="st184" d="M48.9 39.8c-.1-.1-.1-.2-.1-.2v-.1l.1-.1h.1c0 .1-.1.2-.1.4z"/><path class="st185" d="M48.4 38.6c0-.1 0-.1-.1-.2h.2c.1.2.1.3 0 .5-.1 0-.1-.2-.1-.3z"/><path class="st186" d="M48.5 39v-.5c.1.2.1.3 0 .5z"/><path class="st187" d="M47.6 40.2c0-.1.1-.2.2-.2.2.2 0 .2-.2.2zM47.5 40.2c.1 0 .1.1.2.1 0 .1.1.2 0 .2-.2-.1-.2-.2-.2-.3z"/><path class="st188" d="M45.7 41.9c.1 0 .1-.1.1-.2.1.1.1.2 0 .3-.1.1-.1 0-.1-.1z"/><path class="st189" d="M39.7 46.6c-.6 0-1-.1-1.4-.4-.7-.4-.9-1.1-.5-2 .3-.7 1-1.1 1.7-.9.6.1 1 .4 1.5.7.6.4.6 1.3.2 1.8-.5.6-1 .8-1.5.8z"/><path class="st190" d="M36.2 48.4c-.1-.2-.4-.1-.4-.4 0 0 .1 0 .1.1.1 0 .2.1.3.2.1 0 .1.1.2.1s.2 0 .2.1l.1.1s0 .1-.1.1-.1 0-.2-.1c-.1 0-.2-.1-.2-.1.1 0 0-.1 0-.1z"/><path class="st191" d="M36.3 48.3c-.1-.1-.2-.1-.3-.2h.1c.1 0 .2-.2.4-.1 0 .1-.2.2-.2.3z"/><path class="st192" d="M39.4 41.4c-.2-.1-.3-.3-.6-.4.3 0 .5.1.6.3v.1z"/><path class="st193" d="M42.4 42.1c0-.1.1-.1.1-.2v.7c-.2-.2-.1-.4-.1-.5z"/><path class="st194" d="M37.8 48.7c-.2 0-.3-.1-.4-.2 0-.1 0-.1.1-.1.1.1.3.1.3.3z"/><path class="st195" d="M40.2 42.2s.1 0 0 0c.2 0 .3.1.5.3-.2-.1-.4-.1-.5-.3z"/><path class="st196" d="M38.5 48.9c-.2 0-.4-.1-.5-.3.2.1.4.2.5.3z"/><path class="st50" d="M39 49.1s-.1 0 0 0c-.2 0-.2 0-.2-.1s-.1-.2 0-.2c.2-.1.1.1.2.3z"/><path class="st197" d="M36.8 48.5c-.1 0-.2-.1-.2-.1.1 0 .2-.1.3 0 0-.1-.1.1-.1.1z"/><path class="st198" d="M38.8 49c.1 0 .1 0 0 0 .1.1.1.1.1.2-.1 0-.3-.1-.4-.2.1-.1.2 0 .3 0z"/><path class="st199" d="M43.6 40.3c0 .1 0 .2-.1.2s0-.2 0-.2c0-.1 0-.1.1-.3v.3z"/><path class="st200" d="M37.5 48.4c-.1.1-.1.1 0 0-.1.1-.2 0-.3 0 .1-.1.2 0 .3 0z"/><path class="st201" d="M36.8 48.7c0-.1 0-.1 0 0 .2 0 .3 0 .3.1-.1 0-.2-.1-.3-.1z"/><path class="st202" d="M37.6 49c-.1.1-.2 0-.3-.1.2-.1.2 0 .3.1z"/><path class="st203" d="M57.8 55.6c-.1 0-.2 0-.3.1-.4.1-.5-.3-.7-.5l-.6-.6c-.1-.2-.3-.3-.3-.5 0-.1.1-.1.2-.2.2.1.3.2.4.3-.1.2.1.2.2.3.3.4.6.8 1.1 1.1z"/><path class="st204" d="M50.7 52c.3.1.6.1.9.2.6.2 1.1.4 1.7.5.1-.1.2 0 .2 0l.2.2v.1c-.1.1-.1.1-.2.1-.7-.2-1.4-.6-2.1-.7-.2 0-.3-.1-.5-.1-.1-.1-.3-.1-.2-.3z"/><path class="st205" d="M55.4 53.6c.1.1.3.2.4.3.1.1.1.2 0 .3-.1 0-.2-.1-.3-.1-.3-.3-.7-.4-1-.7 0-.1 0-.1.1-.1h.2c.1 0 .2.1.2.1l.4.2z"/><path class="st206" d="M53.1 51.5c-.1.1-.2.1-.3.1-.4 0-.8-.1-1.1-.1-.1 0-.2 0-.1-.2.1-.1.3-.1.4 0 .3.2.7.1 1.1.2z"/><path class="st207" d="M54.6 53.3H54c-.1-.1-.3-.1-.4-.2V53c0-.1.1-.1.1-.1h.1c.3.1.5.2.8.3.1 0 .1 0 0 .1.1-.1.1-.1 0 0 .1-.1.1 0 0 0z"/><path class="st208" d="M53.9 52.8c-.2.1-.3 0-.4-.1-.1 0-.2-.1-.2-.1.3 0 .5-.1.6.2z"/><path class="st209" d="M55.7 54.1v-.2c0-.1 0-.1.1-.1l.2.2c0 .1-.1.1-.2.1 0 0 0 .1-.1 0 .1 0 0 0 0 0z"/><path class="st210" d="M55.4 53.6c-.2 0-.4-.1-.5-.2v-.1c.2.1.4.1.5.3z"/><path class="st211" d="M55.8 53.8c-.1 0-.1.1 0 0-.2 0-.3-.1-.4-.1.2-.1.3 0 .4.1z"/><path class="st212" d="M51.9 51.3h-.4v-.1h.2c.1 0 .2 0 .2.1z"/><path class="st205" d="M54.7 53.2c.2-.2.1 0 .2.1-.1 0-.2 0-.2-.1z"/><path class="st1" d="M56.1 54.6c.3.2.5.3.6.6 0 .2.4.3.2.6-.1.1-.3.1-.5.1 0 0-.1 0-.1-.1-.1-.2.1-.3 0-.4 0-.1-.1 0-.1 0-.4.2-.8.5-1.2.6.4.1.8.2 1.2.4.1.1.2 0 .3.1-.1-.1-.2 0-.3-.1-.2-.1-.2-.2 0-.3.5-.1.8-.1 1.1-.1.4.2.6.5.7.9-.2.1-.4 0-.7 0-.2 0 0 .1 0 .1v.1h-.1-.1s.1 0 .1.1h.1c-.1.2-.2.1-.4.1h-.3c0 .2.3.2.2.4-.2.1-.4-.1-.6-.1-.1.2.2.2.2.4-.3-.1-.6-.2-.9-.4 0 .2.1.3.1.5-.2-.2-.5-.3-.7-.5-.1.2-.1.4-.1.6-.4-1-1-1.8-1.7-2.6-.1-.1-.1-.3-.2-.4-.1-.1-.1-.1-.1-.2s.1 0 .2 0 .2 0 .3.1h.2c.1-.1 0-.2 0-.2s0-.1.1-.1h.3c.1 0 .2.1.3.1-.1-.3 0-.4.3-.3l.6.3c-.1-.3-.4-.4-.5-.7 0-.1.1-.1.2-.1.4 0 .8.1 1.2.2h.1v-.2l.1-.1c-.2.3-.2.5-.1.6z"/><path class="st213" d="M58.2 56c.2.1.1.4.4.4-.1 0-.3-.1-.1.1.1.1.2.2.4.3-.3.2-.6-.2-.8.2 0-.1-.1-.1-.1-.2v-.1c0-.2-.2-.3-.2-.5-.1-.1-.2-.2-.1-.4.1.3.3.4.5.2z"/><path class="st214" d="M55.2 59.5c-.3.1-.2-.3-.3-.4.1-.1.1-.2.2-.3.1.2 0 .4.1.7z"/><path class="st42" d="M58 57c-.2.1-.5 0-.7.1-.1 0-.2-.1-.2-.1v-.1c.2.1.5.1.9.1-.1-.1 0-.1 0 0z"/><path class="st215" d="M57.1 57.3c-.1 0-.2-.1-.3-.2.1 0 .3 0 .4.1 0 .1-.1.1-.1.1z"/><path class="st216" d="M56.8 57.4c.1 0 .3 0 .4-.1.1 0 .2.1 0 .1-.1.1-.3.1-.4 0z"/><path class="st214" d="M55.2 60c-.2-.2-.1-.4-.1-.5.2.1.1.3.1.5z"/><path class="st217" d="M57.2 57.3c0-.1 0-.1 0 0v-.1c.1 0 .2 0 .2.1 0 0-.1-.1-.2 0z"/><path class="st218" d="M43.6 41.6c0 .1-.1.1-.1.2-.1-.3 0-.6.1-.9.1.2 0 .3 0 .5.1.1.1.2 0 .2z"/><path class="st219" d="M44.7 40.6c.1.3.1.7.1 1-.2-.3-.1-.7-.1-1z"/><path class="st220" d="M44.1 41.3v.2c0 .2.1.3-.1.5v-.3c.1-.2-.1-.4.1-.4z"/><path class="st221" d="M44.5 40.6V40c.2.1.1.2.1.3-.1.1 0 .2-.1.3.1 0 0 0 0 0z"/><path class="st222" d="M44.9 43.3v-.6.6z"/><path class="st223" d="M43.7 41.5V41c.2 0 .1.2.1.3 0 .1-.1.1-.1.2z"/><path class="st224" d="M44.9 41.9c.1.1.1.3 0 .4v-.4z"/><path class="st225" d="M43.4 42.1l.1.1v.2c-.1 0-.1-.1-.1-.1v-.2z"/><path class="st219" d="M44.5 40.6s.1 0 0 0c0 .1.1.3 0 .4v-.4z"/><path class="st178" d="M45 38.6v-.3c.1.2.2.3.3.4-.2.1-.1.3-.2.5-.2-.2 0-.4-.1-.6z"/><path class="st226" d="M45 38.6c.1.2.1.5.1.7-.2-.1-.1-.3-.2-.5 0-.1 0-.2.1-.2z"/><path class="st227" d="M44.1 41.3c-.1.1 0 .3-.1.4v-.6c.2-.1.1.1.1.2z"/><path class="st228" d="M42.7 47.8c.1.2.1.3.1.4-.2-.2-.1-.3-.1-.4zM42.7 48.5v.2c-.1 0 0-.1 0-.2z"/><path class="st229" d="M50.8 50.4c-.2-.1-.5 0-.8-.1l.6-.3c.3.2.7.2 1.1.4-.2.1-.4 0-.6-.1-.1.1-.2.1-.3.1z"/><path class="st230" d="M53.7 51.1h-.5-.2l-.6-.3v-.1c.1 0 .2-.2.4-.1.2.4.6.4 1 .3.1 0 .3-.1.4 0-.1 0-.3.1-.5.2z"/><path class="st231" d="M52.6 49.7l1.2-.3h.1c-.4.2-.8.5-1.3.3z"/><path class="st232" d="M51.1 50.5c.2 0 .4 0 .6.1l.1.1c-.3.1-.6 0-1-.1.1-.1.2-.1.3-.1z"/><path class="st48" d="M55.8 50.1l-.2.2h-.1c-.1-.1-.2-.2-.3-.2V50c.2 0 .4.1.6.1z"/><path class="st233" d="M52.4 50.8c-.2-.1-.4 0-.5-.2.2 0 .4.1.5.2.1 0 .1.1 0 0z"/><path class="st234" d="M52.1 53.9c-.2-.1-.4-.2-.5-.4-.2-.1-.3-.3-.5-.4 0 0-.1 0-.1-.1s-.1-.1 0-.2.2-.1.3 0c.1 0 .2.2.3.2.3.1.5.3.6.6 0 .1.1.2.2.3.1.1.1.2.1.3 0 0 0 .1-.1.1-.1-.1-.2-.2-.3-.4z"/><path class="st235" d="M51.2 53.1c.2.1.3.3.4.4 0 .1-.1 0-.2.1-.1 0-.2-.1-.2-.2s-.2-.2 0-.3z"/><path class="st236" d="M51.5 53.6c.1 0 .1 0 .2-.1.2.1.3.2.4.4-.3 0-.4-.2-.6-.3z"/><path class="st70" d="M52.8 54.6c-.1-.1-.3 0-.3-.2 0 0 0-.1 0 0h.3c.1.1.1.1.1.2h-.1z"/><path class="st237" d="M53.2 55.3H53c.2-.2-.1-.3-.1-.5.1-.1.2 0 .2.1v.2c.1 0 .2.1.1.2z"/><path class="st238" d="M52.6 54.3c-.1 0-.1 0 0 0-.2-.1-.4-.1-.4-.4.1.1.2.3.4.4z"/><path class="st239" d="M53.2 54.9c-.1 0-.1 0-.2-.1 0-.1-.1-.2-.1-.2l.1-.1c0 .1.2.2.2.4z"/><path class="st240" d="M51.2 53.1c-.1.1.1.2.1.3h-.1c-.1-.1-.2-.1-.2-.2s0-.2.2-.1c-.1-.1 0 0 0 0z"/><path class="st241" d="M51 53.1c0 .1.1.1.1.2-.1 0-.2 0-.3-.1.1 0 .1 0 .2-.1z"/><path class="st242" d="M38.3 49.3c-.2 0-.4 0-.5-.3.2.1.4.2.5.3z"/><path class="st243" d="M58.7 56.5c0-.2 0-.3.3-.3.1.1.3.2.4.4-.1 0-.2 0-.3-.1-.1 0-.1.1-.2.1s-.2 0-.2-.1zM58.9 56.1c-.3.1-.5-.1-.7-.3h.3c.3.1.5 0 .8.1-.1.2-.3.1-.4.2z"/><path class="st95" d="M59 56c.1 0 .1-.1.2-.1-.2-.1-.5 0-.7-.1h.7c.2 0 .3 0 .3.2s-.2 0-.3.1c-.1 0-.2 0-.2-.1z"/><path class="st244" d="M58.8 56.7c0-.1 0-.2.2-.1 0 .3.3.3.3.5-.2-.1-.3-.3-.5-.4z"/><path class="st175" d="M51.4 51.1h-.3c.3-.1.7 0 1-.1.2 0 .4 0 .5-.1.2-.1.3 0 .3.1-.1.1-.2.1-.3.1h-.2-.1c-.2.1-.6.1-.9 0z"/><path class="st245" d="M52.9 51.1c0-.1-.2-.1-.3-.1-.1 0-.2-.1-.2-.1s.1 0 .1-.1c.2.1.5.1.6.3 0 .1-.1.1-.2 0z"/><path class="st146" d="M35.5 49.5c.1-.1.3-.1.4-.2.1 0 .3.1.4.1.1.1 0 .2-.1.3-.3 0-.5 0-.7-.2z"/><path class="st246" d="M36.5 49.6c.3 0 .5 0 .7.2-.2.1-.2.1-.2.2h-.2c-.1 0-.1-.1-.2-.1l-.1-.1c-.1-.1-.1-.1 0-.2-.1 0-.1 0 0 0z"/><path class="st247" d="M36.1 49.7c0-.1.1-.1.1-.2.1 0 .2 0 .2.2l-.1.1h-.1s-.1 0-.1-.1z"/><path class="st248" d="M51.4 52.9c-.1 0-.2-.1-.4 0h-.1c0-.2-.1-.2-.2-.3-.1-.1-.3-.1-.2-.4h.1c.3.1.6.3.8.7z"/><path class="st249" d="M50.9 52.9c.1 0 .1 0 0 0 .1.1.2.1.2.1l-.1.1h-.1c-.1-.1-.2-.1-.3-.2.1 0 .1-.1.2-.1l.1.1z"/><path class="st4" d="M51.4 52.8c-.3-.2-.6-.4-.8-.6.1-.1.1-.2.2-.2 0 .1 0 .2.1.2.9.2 1.8.5 2.7.9.7.2 1.2.6 1.8.9.1.1.3.2.4.4 0 .1 0 .1.1.2 0 .1 0 .1-.1.1-.4-.1-.9-.2-1.3-.2-.1 0-.2-.1-.2.1.2.2.5.4.8.7-.5 0-.8-.4-1.2-.4.1.2.2.3.2.4-.3 0-.5-.3-.8-.3v-.1c-.1-.1-.2-.3-.3-.4 0-.1-.1-.1-.1-.2-.1-.1-.2-.2-.2-.3-.1-.1-.2-.2-.3-.4-.2-.2-.3-.4-.6-.5-.2-.1-.3-.2-.4-.3z"/><path class="st250" d="M58 57s-.1 0 0 0c-.2-.3-.4-.7-.7-.9 0-.1-.1-.1-.1-.2l-.2-.2c0-.2-.4-.2-.2-.5.3.1.4.5.7.5.1.1-.1.4.2.4.1.2.2.4.3.5 0 .1.1.2 0 .4z"/><path class="st251" d="M51.4 51.1c.4 0 .7-.1 1.1.1-.2.1-.5.1-.7 0-.1 0-.3.1-.4-.1z"/><path class="st252" d="M51.8 51.2h.7-.5c-.1.1-.2.1-.2 0 0 .1 0 0 0 0z"/><path class="st1" d="M57.5 37.1c-.1 0-.2.1-.4 0 .3-.2.6-.5 1-.4 0-.2-.2 0-.2-.1-.4-.1-.8 0-1.3-.1.2-.1.5-.2.7-.3.1-.1.1-.1.2-.1s.2-.1.2-.2c.2-.1.3-.2.5-.2 0-.2-.1-.1-.2-.1 0 0-.2 0-.1-.1.2-.2.3-.3.6-.4-.1-.1-.2-.1-.3-.2.3 0 .5-.1.8-.1-.1-.2-.4-.2-.5-.4.5.1.9 0 1.4.1.3.1 0-.2.2-.2s.4.3.6 0c0 0 .1 0 .2.1.5.6 1 1.1 1.2 1.9.1.2.1.4-.2.4-.2 0-.1.1-.1.2 0 .3.2.5.4.7-.2.1-.1.2-.1.3 0 .1 0 .2-.1.1-.1-.2-.3-.2-.5-.2-.2.1-.1.3-.1.4v.1c-.1.1-.1 0-.1 0-.1-.1-.3-.1-.4 0-.1.2.1.2.2.3.2.2.4.3.5.4 0 .1-.1.1-.1.1.1.2 0 .3-.2.2-.1 0-.3-.1-.4-.1-.1-.1-.2.1-.3.1h-.2c-.8-.7-1.7-.9-2.7-1.2-.1-.1-.5-.1-.7-.2-.1 0 .1 0 .1-.1.1-.1.3 0 .4-.1h.2v-.1c-.2 0-.4-.1-.6-.1-.1 0-.1-.1 0-.1h.9c-.1-.2-.3-.2-.4-.2 0-.2-.1-.1-.1-.1z"/><path class="st253" d="M59.5 33.2c.1-.1.3-.2.4-.2.1 0 .2 0 .2.1.3.3.6.6.9 1-.6-.2-1.1-.4-1.6-.7.1-.1.1-.1.1-.2z"/><path class="st254" d="M60.2 33.1c-.1 0-.2-.1-.2-.1.1 0 .2-.1.3-.1.1-.1.2-.1.3 0 .5-.1.8.1 1 .7-.5-.5-.9-.5-1.4-.5z"/><path class="st255" d="M59.5 33.2v.1c0 .2.3.3.3.5-.2-.1-.4-.2-.5-.4-.1 0 .1-.1.2-.2z"/><path class="st256" d="M62.2 37.8c0-.1-.2-.4.1-.3 0 .2 0 .4-.1.5 0 0 .1-.1 0-.2z"/><path class="st257" d="M60.5 39.3H60.8c0 .1 0 .2.1.3h-.1c-.1 0-.2-.1-.3-.3z"/><path class="st258" d="M57.6 36.1c-.1 0-.1.1-.2.1 0-.2.2-.2.3-.3.1.1 0 .2-.1.2z"/><path class="st259" d="M61.6 39.1l.1-.1c.1.1.3.1.3.2-.1.1-.2-.2-.4-.1z"/><path class="st260" d="M57.6 36.1c0-.1.1-.1.1-.2h.1c.1.2-.1.1-.2.2z"/><path class="st261" d="M57.1 37.4v.1c-.1 0-.2 0-.3-.1h.3z"/><path class="st262" d="M60.8 39.3h-.1v-.2c.1 0 .2.1.3.1-.1.1-.1.1-.2.1z"/><path class="st263" d="M62.2 37.8c.1.1.1.2.1.2s0 .1-.1.1-.1-.1-.1-.2c.1 0 .1-.1.1-.1z"/><path class="st264" d="M57.9 36.6h.3v.1h-.1s-.1-.1-.2-.1z"/><path class="st265" d="M59.9 34c.2 0 .2 0 .3.1-.1 0-.2 0-.3-.1z"/><path class="st266" d="M58.1 35.6c.1-.1.2-.1.3-.1 0 .1-.1.1-.2.1h-.1z"/><path class="st267" d="M57.5 37.1c.1-.1.2-.1.3-.1-.1.1-.1.1-.1.2-.2 0-.2-.1-.2-.1z"/><path class="st261" d="M57.5 37.7c-.1 0-.3 0-.4.1.1-.1.2-.1.4-.1z"/><path class="st268" d="M60.5 32.9h-.3c.1-.2.2-.1.3 0z"/><path class="st269" d="M60.8 39.6c.1 0 .1 0 0 0 .1 0 .2 0 .2.1v.1c-.1 0-.1-.1-.2-.2z"/><path class="st270" d="M37.1 37.1c-.2-.1-.3-.2-.5-.3 0-.1.1-.1.2-.1.1.1.2.1.3.2.1.1.1.2 0 .2z"/><path class="st271" d="M45.2 37.4c-.2-.2 0-.4-.1-.6 0-.1 0-.2.1-.3v.9z"/><path class="st272" d="M46.4 38.6l-.1.1c-.2-.1-.2-.2-.2-.3.1-.1-.1-.2.1-.2.1 0 .1.1.1.1 0 .1.1.2.1.3z"/><path class="st259" d="M36.9 36.7c-.1 0-.1 0-.2.1-.1-.1-.2-.1-.3-.2-.1-.1 0-.2.1-.2 0 0 .1 0 .1.1 0 0 .1.1.3.2-.1 0-.1 0 0 0z"/><path class="st273" d="M41.7 37.9c-.1.1 0 .3-.1.5-.1-.2 0-.5-.1-.7.2 0 .2.1.2.2z"/><path class="st274" d="M39.5 36.9c.1.1.2.1.2.2v.2c-.2 0-.3-.1-.2-.4z"/><path class="st275" d="M46.5 37.7c0-.1-.1-.2 0-.3.1 0 .1.1.1.2v.1c0 .1.1.2-.1.3v-.3z"/><path class="st276" d="M39 36.8c0-.1.1-.2.2-.1.1 0 .1.1.1.3-.1-.1-.2-.1-.3-.2z"/><path class="st277" d="M38.2 38.3c-.1 0-.1-.1-.1-.2h.1v.2z"/><path class="st278" d="M40 37c.1.1.1.2.2.2-.1 0-.2 0-.2-.1-.1 0-.2-.1 0-.1z"/><path class="st279" d="M37.1 37.1V37c.1 0 .2 0 .3.1h-.3z"/><path class="st280" d="M40 37c-.1 0-.1.1-.1.2h-.1c.1-.1-.1-.2 0-.3.1 0 .1 0 .2.1z"/><path class="st281" d="M36.8 36.6c-.2 0-.3-.1-.3-.2.1-.1.2.1.3.2z"/><path class="st282" d="M46.5 37.8c.1-.1 0-.2.1-.3.1.1.1.3.1.4-.1 0-.2 0-.2-.1z"/><path class="st283" d="M39.7 37.3c.1 0 .1 0 .2.1-.2.1-.2 0-.2-.1z"/><path class="st284" d="M46.6 37.4c0-.1 0-.1-.1-.2 0-.1.1-.1.1-.1.1.1 0 .2 0 .3z"/><path class="st285" d="M47.2 38.9c-.2.1-.2.1-.2-.1.1 0 .1.1.2.1z"/><path class="st286" d="M46.5 37.9h.1c0 .1 0 .2-.1.2v-.2z"/><path class="st287" d="M46.3 38.3l-.1-.1c0-.1 0-.2.1-.3v.4z"/><path class="st288" d="M38.1 39.8c.1.1.2.1.2.3-.2 0-.2-.1-.2-.3-.1.1 0 .1 0 0z"/><path class="st289" d="M36.8 36.6c-.1 0-.2-.2-.3-.2v-.1c.2 0 .3.1.3.3z"/><path class="st290" d="M37.9 39.9c-.1-.1-.2-.1-.2-.2.2-.1.2 0 .2.2z"/><path class="st291" d="M39.8 36.2c0 .1.1.1 0 .2h-.1c0-.1.1-.2.1-.2z"/><path class="st292" d="M36 36.2c.2 0 .2 0 .2.1-.1.1-.1 0-.2-.1z"/><path class="st287" d="M46.1 38.4c.1.1.2.2.2.3 0 .1.2.4-.2.3 0 .1-.1.2-.1.3 0-.2-.1-.4-.1-.6-.2-.1 0-.3-.1-.5V38c.1.1.1.3.3.4z"/><path class="st293" d="M45.7 38.2c.1.1.1.3.1.5-.1-.1-.1-.2-.2-.3.1 0 .1-.1.1-.2z"/><path class="st294" d="M39.1 38.9s.1.1 0 0v.2c-.1 0-.1 0-.1-.1.1 0 .1-.1.1-.1z"/><path class="st295" d="M37.3 50.2c-.1 0-.2.1-.3-.1V50h.2c0 .1.2.1.1.2z"/><path class="st296" d="M37.1 50.1h-.2c-.1-.2 0-.2.2-.2v.2z"/><path class="st297" d="M36.4 50.1c.1-.2.2-.2.3-.1h.1c0 .2-.1.3-.3.3h-.1c-.1 0 0-.1 0-.2z"/><path class="st144" d="M36.4 50.1c.1.1 0 .2 0 .2h-.5v-.1h.4l.1-.1z"/><path class="st298" d="M36.5 50.4l.3-.3v.1c-.1 0-.1.3-.3.2z"/><path class="st299" d="M36.8 50.1c-.1-.1-.1-.1-.2-.1h.3v.2c0-.1 0-.1-.1-.1z"/><path class="st300" d="M36.2 48.4c.1 0 .1.1.2.1-.1.1-.1.2-.3.2 0-.1 0-.2.1-.3z"/><path class="st301" d="M35.3 49.6s.1 0 0 0c.3 0 .6 0 .8.2.1 0 .1 0 .1.1s0 .1-.1.1c-.3-.2-.6-.2-.8-.4z"/><path class="st302" d="M36.1 49.9c.1 0 .1 0 0 0 .2-.2.3 0 .5-.1 0 0 0 .1.1.1v.1h-.3c-.1 0-.2 0-.3-.1z"/><path class="st303" d="M36.1 49.8c-.2-.1-.5 0-.7-.2v-.1h.1c.2.1.4.1.6.3 0-.1 0-.1 0 0z"/><path class="st304" d="M52.9 51.1c.1 0 .1 0 .2-.1h.2c.1 0 .1.1.2.1h-.1c-.2.1-.3.1-.5 0 0 .1-.2.2-.3 0h.3z"/><path class="st251" d="M52.6 51.1c.1.1.3 0 .4.1-.2.1-.4.1-.6.1v-.1c.1 0 .2 0 .2-.1z"/><path class="st305" d="M49.3 45.8c-.4-.5-.4-1.1.1-1.7.6-.8 1.4-1 2.4-.8.3.1.6.1.9.3 0 .2-.2.2-.3.3-.5-.1-1.1-.1-1.6.1-.4.2-.8.4-1.1.7-.3.4-.3.4 0 .8l.1.1c-.2.3-.4.2-.5.2z"/><path class="st306" d="M49.3 45.8c.1-.1.2.1.3-.1.3-.2.5 0 .8.1.2 0 .4.1.6.1.6 0 1-.3 1.5-.5.1 0 .2 0 .2.1v.1c-.2.4-.7.4-1 .5-.1 0-.2.1-.4.1-.1 0-.3.1-.4.1-.3 0-.7-.1-1 0-.3-.2-.5-.3-.6-.5z"/><path class="st307" d="M52.3 43.8c.1-.1.2-.2.3-.2.3.1.6.2.9.4 0 .2-.1.2-.3.2-.3 0-.5.1-.8.1-.1 0-.3 0-.3-.2s.1-.2.2-.3z"/><path class="st308" d="M49.9 46.2c.2-.4.5 0 .7-.1.1 0 .2 0 .3.1.1-.1.3 0 .4-.2.1 0 .3-.1.4-.1-.1.1-.1.2 0 .2-.7.3-1.2.4-1.8.1z"/><path class="st309" d="M52.6 45.5c-.1 0-.2 0-.2-.1s0-.2.1-.2c0 0 0-.1.1-.1.2-.2.6-.2.6-.6v-.1c.2-.2.4-.1.4.2 0 .2-.1.3-.1.4-.2 0-.3.2-.4.3-.2.1-.3.1-.5.2z"/><path class="st310" d="M51.6 46.2c-.1-.1-.1-.2 0-.2.3-.2.7-.2 1-.5.2 0 .1.1.1.2-.3.3-.7.5-1.1.5z"/><path class="st311" d="M52.7 45.7c-.1 0 0-.1-.1-.2v-.1c.2-.2.4-.4.7-.6l.1.1c-.2.4-.4.6-.7.8z"/><path class="st312" d="M53.5 44.5c-.1-.2-.2-.2-.4-.2s-.1-.1 0-.2c0-.1.1-.1.2-.1s.2-.1.2-.1c.2.2.1.4 0 .6z"/><path class="st313" d="M41.3 44.8c.1.4.1.8-.3 1.1-.3.1-.6.2-.9.2-.2 0-.4 0-.5-.2 0-.2 0-.3.2-.5.2 0 .2.2.4.2s.4 0 .4-.1c.1-.2.1-.4 0-.5-.2-.3-.5-.6-.9-.6-.3-.1-.6-.1-.9 0-.2.1-.4 0-.5.1h-.1c-.1 0-.1-.1-.1-.2.1-.2.2-.3.3-.4.4 0 .7-.2 1.1-.1.1 0 .1.1.2.1.6.1 1 .3 1.4.7 0 .1.1.2.2.2z"/><path class="st314" d="M37.9 45.5c-.2-.4-.2-.8.1-1.2h.2c.1.1.1.1.1.3-.1.6.1.8.7.9 0 0 .1 0 .1.1.1.1.1.1.1.2-.1.2-.4.3-.7.2-.2-.2-.4-.3-.6-.5z"/><path class="st315" d="M41.3 44.8c-.2.3-.4-.1-.4-.1-.3-.4-.7-.5-1.2-.6-.1 0-.3 0-.2-.2v-.1c.1 0 .2 0 .3-.1h.1c.1.1.2.1.3.2.4.2.9.3 1.1.9z"/><path class="st316" d="M39.7 45.8c.3.2.7.2 1 0 .1 0 .2-.1.3 0-.2.3-.5.4-.8.5-.2-.1-.5 0-.7-.1-.2 0-.3-.1-.3-.2v-.1c.2 0 .3 0 .5-.1z"/><path class="st317" d="M37.9 45.5c.3.1.6.4.9.4.1 0 .3.1.3-.2h.1v.2c0 .2-.1.3-.3.3-.4 0-.8-.2-1-.7z"/><path class="st318" d="M39 46.3c.1-.1.2-.1.3-.3h.1c0 .1 0 .2.2.2s.5 0 .7.2c-.5.1-.9.1-1.3-.1z"/><path class="st319" d="M39.5 43.8c-.3.1-.7 0-1 .2-.1.1-.1-.1-.2-.1.1-.1.3-.2.4-.2.4-.1.6-.2.8.1z"/><path class="st320" d="M39.5 43.8c-.2-.1-.5-.1-.7-.2.4-.2.7-.1 1 .1 0 .1-.1.2-.3.1zM40.2 43.9c-.2.1-.3 0-.3-.2.1 0 .2 0 .3.2z"/><path class="st321" d="M38.1 44.4c-.1 0-.1.1-.2 0l.1-.1c.1 0 .1 0 .1.1z"/><path class="st322" d="M56.1 54.6c-.1-.1-.3-.2-.4-.3 0-.1-.1-.1 0-.2h.1c.1.2.4.2.3.5z"/><path class="st323" d="M55.3 54.1c-.6-.3-1.2-.7-1.7-1 .1 0 .1 0 .2-.1.1.1.3 0 .4.2.1 0 .2 0 .3.1.2.2.5.4.8.8.1-.1.1 0 0 0zM53.5 52.7c.1 0 .2.1.3.1 0 0-.1 0-.1.1-.1 0-.2 0-.2-.2z"/><path class="st324" d="M55.3 54.1c0-.1.1-.1 0 0 .2 0 .3.1.4.1v.2l-.1.1c-.1-.2-.2-.3-.3-.4z"/><path class="st325" d="M54.4 53.3c-.1 0-.2-.1-.3-.1.1-.1.2 0 .3.1 0-.1 0 0 0 0z"/><path class="st326" d="M54.7 53.2c.1 0 .1.1.2.1 0 0-.1 0-.1.1 0-.1-.1-.1-.1-.2-.1 0 0 0 0 0z"/><path class="st327" d="M57.2 55.9c0 .1.2.1.1.2-.3 0-.5.1-.8.1 0 0-.1 0-.1.1l.1.1c0 .1-.1.1-.1.1-.5-.1-.9-.2-1.4-.4.6-.2.9-.5 1.4-.7.1 0 .1 0 .1.1 0 .2-.2.3 0 .5.2-.1.5-.3.7-.1z"/><path class="st328" d="M56.4 55.8c-.2 0-.3-.1-.1-.3.1-.1.1-.1.1-.2h.1c.2.2.1.4-.1.5zM57.2 55.9c-.3 0-.5.1-.8-.1.2 0 .4 0 .5-.1.2.1.2.1.3.2z"/><path class="st329" d="M56.4 56.4s.1 0 .1-.1c.1 0 .2.1.3.1-.1.1-.3.1-.4 0z"/><path class="st330" d="M53.2 55.3V55c.1 0 .2.1.2.2-.1.2-.2.1-.2.1z"/><path class="st331" d="M55.7 54.6s0-.1 0 0c.2-.1.2-.1.3 0-.1.1-.2.1-.3 0z"/><path class="st332" d="M56.5 55.3c-.1 0-.1 0-.1-.1s.1-.1.2-.1c0 .1-.1.2-.1.2z"/><path class="st333" d="M54.2 54.4c-.1 0-.1-.1-.1-.1.1-.1.2 0 .2 0 0 .1 0 0-.1.1z"/><path class="st334" d="M52.5 54c.1.1.2.2.2.3-.1.1-.1 0-.2 0V54c0-.1 0-.1 0 0z"/><path class="st335" d="M52.5 54c-.2-.1-.3-.2-.3-.4.1.1.3.2.3.4z"/><path class="st336" d="M51.4 52.8c.1.1.3.1.2.3 0 0-.1-.1-.2-.3 0 .1 0 .1 0 0z"/><path class="st296" d="M36.6 49.8c-.1.1-.3 0-.4 0l-.1-.1c.1 0 .1-.1.2-.1.1.1.2.1.3.2z"/><path class="st337" d="M36.5 49.7c-.1 0-.2 0-.2-.1s.1-.1.2-.1v.2z"/><path class="st338" d="M60.7 38.7c-.2 0-.4-.1-.5-.4.2 0 .3.2.5.3v.1z"/><path class="st339" d="M60.7 38.7v-.1c.1.1.2.1.3.2-.2.1-.3 0-.3-.1z"/><path class="st340" d="M53.3 44.1c0 .1-.3.1-.2.3v.1c-.2.3-.4.5-.7.7-.2.3-.5.3-.8.4-.1 0-.2 0-.4.1-.1.1-.2 0-.2-.1 0-.3.1-.6.1-.8 0-.1 0-.3-.1-.3-.2-.1-.2.1-.3.2l-.1.1c-.1.3-.1.5 0 .6.2.1.2.3.2.5 0 0 0 .1-.1.1-.5 0-.9-.2-1.4-.2-.2-.3-.6-.4-.3-.8.3-.3.5-.7.9-.8.4-.1.9-.4 1.4-.4.3 0 .5.1.7.1-.2.3-.1.4.3.4.5-.1.8-.2 1-.2z"/><path class="st312" d="M50.9 45.9v-.1c.1-.1.1-.2.3-.2v.1c.4-.2.9-.2 1.2-.5.1.1 0 .2-.1.2-.3.3-.8.6-1.4.5z"/><path class="st310" d="M51.2 46.1c-.1.2-.2.1-.4.2.2-.2.3-.1.4-.2z"/><path class="st312" d="M52.5 45.2c.2-.3.4-.5.7-.7 0 .3-.3.6-.7.7z"/><path class="st321" d="M39.7 44.3c.6-.1 1.2.5 1.1 1 0 .2-.1.3-.3.3-.2 0-.5.3-.6-.1 0-.1-.1-.1-.1-.2-.1-.1-.1-.3-.1-.4 0-.2-.1-.4-.2-.6h.2z"/><path class="st321" d="M39.7 44.3c-.1 0-.1 0-.2.1 0 0 0 .1-.1.1-.2.1-.3.3-.5.1-.1-.1-.3.1-.3.3 0 .2.1.2.2.2.3.1.3.2.2.6-.6.1-1-.4-.9-1v-.2l.1-.1c.5 0 .9-.3 1.4-.1.1-.1.1 0 .1 0z"/><path class="st341" d="M39.5 44.4c.3 0 .4.3.4.5v.5c0 .2-.1.3-.1.5-.1.1-.2.3-.4.1-.1-.1-.1-.2-.2-.3-.1-.6-.1-1 .3-1.3z"/><path class="st342" d="M39.5 44.4c-.3.4-.3.8-.3 1.2v.2h-.1c0-.1-.1-.1-.1-.2 0-.2.1-.5-.4-.5-.2 0-.3-.3-.1-.4.1-.1.2-.4.5-.2.2.2.3-.2.5-.1z"/><path class="st314" d="M39.2 45.8v-.2c0 .1.1.2.1.3v.1h-.1v-.2z"/><path class="st343" d="M51.2 45.6c-.1.1-.1.3-.3.2-.1-.2-.2-.3-.2-.5-.1-.2-.2-.4-.1-.6.1-.2.2-.5.5-.5.3.1.2.4.2.6 0 .3 0 .6-.1.8z"/><path class="st344" d="M50.6 44.7c0 .2 0 .4.1.6 0 .1 0 .1-.1.1s-.1-.1-.1-.1c0-.2.1-.4.1-.6z"/><g><defs><path id="SVGID_1_" d="M12.8 11.3h74.5v77.4H12.8z"/></defs><clipPath id="SVGID_2_"><use xlink:href="#SVGID_1_" overflow="visible"/></clipPath><g class="st345"><defs><path id="SVGID_3_" d="M29.7 64.5c-8-11.2-5.4-26.8 5.8-34.8 11.2-8 26.8-5.4 34.8 5.8 8 11.2 5.4 26.8-5.8 34.8-4.4 3.1-9.4 4.6-14.4 4.6-7.9 0-15.5-3.6-20.4-10.4M44 15.2c-2 3-5.7 4.2-9 2.8-5.1-2-10.5 1.9-10.3 7.3.2 3.6-2.2 6.7-5.6 7.6-5.3 1.4-7.4 7.7-4 12 2.2 2.8 2.2 6.7-.1 9.5-3.5 4.2-1.5 10.6 3.8 12 3.4.9 5.7 4.2 5.5 7.7-.3 5.4 5 9.4 10.1 7.5 3.3-1.2 7.1 0 9 3 2.9 4.6 9.6 4.7 12.6.1 2-3 5.7-4.2 9-2.8 5.1 2 10.5-1.9 10.3-7.3-.2-3.6 2.2-6.7 5.6-7.6 5.3-1.4 7.4-7.7 4-12-2.2-2.8-2.2-6.7.1-9.5 3.5-4.2 1.5-10.6-3.8-12-3.4-.9-5.7-4.2-5.5-7.7.3-5.4-5-9.4-10.1-7.5-3.3 1.2-7.1 0-9-3-1.5-2.3-3.9-3.5-6.4-3.5-2.3 0-4.7 1.1-6.2 3.4"/></defs><clipPath id="SVGID_4_"><use xlink:href="#SVGID_3_" overflow="visible"/></clipPath><radialGradient id="SVGID_5_" cx="-345.925" cy="-216.367" r="1" gradientTransform="scale(67.111) rotate(45 88.002 526.494)" gradientUnits="userSpaceOnUse"><stop offset="0" stop-color="#FFF"/><stop offset=".052" stop-color="#DCDBEC"/><stop offset=".109" stop-color="#BEBCDB"/><stop offset=".174" stop-color="#A4A0CD"/><stop offset=".248" stop-color="#8F8AC2"/><stop offset=".333" stop-color="#7F79B9"/><stop offset=".439" stop-color="#736EB3"/><stop offset=".588" stop-color="#6D67AF"/><stop offset="1" stop-color="#6B65AE"/></radialGradient><path class="st346" d="M50-26.8l77.3 77.4L50 127.9l-77.3-77.3"/></g><g class="st345"><defs><path id="SVGID_6_" d="M12.8 11.3h74.5v77.4H12.8z"/></defs><clipPath id="SVGID_7_"><use xlink:href="#SVGID_6_" overflow="visible"/></clipPath><path class="st347" d="M65.4 18.2c5.1-2 10.5 2 10.2 7.4-.2 3.6 2.1 6.8 5.6 7.7 5.3 1.4 7.3 7.8 3.9 12-2.3 2.8-2.3 6.7 0 9.5 3.4 4.2 1.3 10.6-3.9 12-3.4.9-5.8 4.1-5.6 7.7.3 5.4-5.1 9.4-10.2 7.4-3.3-1.3-7.1-.1-9 2.9-3 4.6-9.7 4.6-12.6 0-1.9-3-5.7-4.2-9-2.9-5.1 2-10.5-2-10.2-7.4.2-3.6-2.1-6.8-5.6-7.7-5.3-1.4-7.3-7.8-3.9-12 2.3-2.8 2.3-6.7 0-9.5-3.4-4.2-1.3-10.6 3.9-12 3.4-.9 5.8-4.1 5.6-7.7-.3-5.4 5.1-9.4 10.2-7.4 3.3 1.3 7.1.1 9-2.9 3-4.6 9.7-4.6 12.6 0 1.9 2.9 5.7 4.2 9 2.9z"/><ellipse transform="rotate(-35.462 49.998 49.996)" class="st347" cx="50" cy="50" rx="24.9" ry="24.9"/></g></g></svg>