<svg xmlns="http://www.w3.org/2000/svg" xmlns:xlink="http://www.w3.org/1999/xlink" width="100" height="100" viewBox="0 0 100 100" overflow="scroll"><style>.st0{clip-path:url(#SVGID_2_);} .st1{clip-path:url(#SVGID_4_);fill:#F0EFEF;} .st2{clip-path:url(#SVGID_4_);fill:#FFFFFF;} .st3{clip-path:url(#SVGID_4_);fill:#D7D7D6;} .st4{clip-path:url(#SVGID_4_);fill:#EDDD4C;} .st5{clip-path:url(#SVGID_4_);fill:#FAE950;} .st6{clip-path:url(#SVGID_4_);fill:#D6C845;} .st7{clip-path:url(#SVGID_4_);fill:#E4D448;} .st8{clip-path:url(#SVGID_4_);fill:#C5B83F;} .st9{clip-path:url(#SVGID_6_);fill:url(#SVGID_7_);} .st10{clip-path:url(#SVGID_9_);fill:none;stroke:#FFFFFF;stroke-miterlimit:10;} .st11{clip-path:url(#SVGID_11_);} .st12{clip-path:url(#SVGID_13_);fill:#F0EFEF;} .st13{clip-path:url(#SVGID_13_);fill:#FFFFFF;} .st14{clip-path:url(#SVGID_13_);fill:#D7D7D6;} .st15{clip-path:url(#SVGID_13_);fill:#EDDD4C;} .st16{clip-path:url(#SVGID_13_);fill:#FAE950;} .st17{clip-path:url(#SVGID_13_);fill:#D6C845;} .st18{clip-path:url(#SVGID_13_);fill:#E4D448;} .st19{clip-path:url(#SVGID_13_);fill:#C5B83F;} .st20{clip-path:url(#SVGID_15_);fill:url(#SVGID_16_);} .st21{clip-path:url(#SVGID_18_);fill:none;stroke:#FFFFFF;stroke-miterlimit:10;}</style><g id="POWERUP_x5F_Skipper_1_"><defs><path id="SVGID_1_" d="M0 0h100v100H0z"/></defs><clipPath id="SVGID_2_"><use xlink:href="#SVGID_1_" overflow="visible"/></clipPath><g class="st0"><defs><path id="SVGID_3_" d="M0 0h100v100H0z"/></defs><clipPath id="SVGID_4_"><use xlink:href="#SVGID_3_" overflow="visible"/></clipPath><path class="st1" d="M39.3 75.7l10.2-19.3c-.2 0-.5-.1-.7-.1L38.7 75.4l.6.3z"/><path class="st2" d="M48.2 56.1L38.1 75.4h.5l10.1-19.1c-.1-.1-.3-.2-.5-.2"/><path class="st1" d="M47.3 55.8l-10 19.1.8.5 10.1-19.3-.9-.3"/><path class="st3" d="M46.8 55.6l-10 19 .5.3 10-19.1c-.1-.1-.3-.1-.5-.2"/><path class="st3" d="M54.2 45.5l-.1-.1c-.1-.1-.2-.1-.3-.2-.2-.1-.5-.2-.8-.1-.4 0-.8.3-1 .7l-5.2 9.8c.2.1.3.1.5.2l.9.3c.2 0 .3.1.5.1.2.1.5.1.7.1l4.9-9.4c.3-.4.2-1-.1-1.4"/><path class="st4" d="M64.1 49.8c-2.9 5.5-9.7 7.7-15.3 4.7-5.5-2.9-7.7-9.7-4.7-15.3 2.9-5.5 9.7-7.7 15.3-4.7 5.5 3 7.7 9.8 4.7 15.3"/><path class="st5" d="M57.3 43.3c.7.5 1 1.1 1.7 1.5 1.6.9 3.6 1.3 5.1 2.3 1.3-4.7-.5-9.8-4.7-12.6.4 2.4.1 4.9-1.1 7.2-.3.6-.6 1.1-1 1.6"/><path class="st6" d="M45.8 38.7c1.2-2.4 3.2-4.1 5.4-5.1-2.9.8-5.6 2.8-7.1 5.7-2.9 5.5-.8 12.4 4.7 15.3 3.2 1.7 6.8 1.7 9.8.3-2.7.7-5.6.5-8.2-.9-5.4-2.9-7.5-9.7-4.6-15.3"/><path class="st5" d="M64.9 47.3l-18.4-9.7c-.2.3-.4.7-.4 1.1-.1 1.7.1 3.3.5 4.8l15.9 8.4c.6.3 1.4.1 1.7-.4l1.3-2.6c.3-.6 0-1.3-.6-1.6"/><path class="st7" d="M46.4 37.6l-.6-.3c-.6-.3-1.4-.1-1.7.4l-.7 1.4c-.2.9-.2 1.8-.1 2.7 0 0 .1 0 .1.1l3.1 1.6c-.4-1.5-.6-3.2-.5-4.8.1-.4.2-.8.4-1.1"/><path class="st8" d="M44.1 37.7l-1.3 2.6c-.3.6 0 1.3.6 1.6l19 10c.6.3 1.4.1 1.7-.4l1.3-2.6-21.3-11.2z"/><path class="st2" d="M62.9 41.1l-1.7-.9c0 .6-.1 1.2-.2 1.8l2 1c0-.6 0-1.3-.1-1.9M62.6 39.7l-1.4-.8v.8l1.6.8c-.1-.2-.1-.5-.2-.8M59.602 45.26l.093-.178 4.337 2.28-.093.178z"/><path class="st4" d="M65.5 48.9L46.1 38.7c-.5.9-.8 1.8-1 2.7l19.1 10 1.3-2.5z"/><path class="st6" d="M44.1 37.7l-1.3 2.6 2.3 1.2c.2-.9.5-1.8 1-2.7l-2-1.1z"/></g><g class="st0"><defs><path id="SVGID_5_" d="M29.7 64.5c-8-11.2-5.4-26.8 5.8-34.8 11.2-8 26.8-5.4 34.8 5.8 8 11.2 5.4 26.8-5.8 34.8-4.4 3.1-9.4 4.6-14.4 4.6-7.9 0-15.5-3.6-20.4-10.4M44 15.2c-2 3-5.7 4.2-9 2.8-5.1-2-10.5 1.9-10.3 7.3.2 3.6-2.2 6.7-5.6 7.6-5.3 1.4-7.4 7.7-4 12 2.2 2.8 2.2 6.7-.1 9.5-3.5 4.2-1.5 10.6 3.8 12 3.4.9 5.7 4.2 5.5 7.7-.3 5.4 5 9.4 10.1 7.5 3.3-1.2 7.1 0 9 3 2.9 4.6 9.6 4.7 12.6.1 2-3 5.7-4.2 9-2.8 5.1 2 10.5-1.9 10.3-7.3-.2-3.6 2.2-6.7 5.6-7.6 5.3-1.4 7.4-7.7 4-12-2.2-2.8-2.2-6.7.1-9.5 3.5-4.2 1.5-10.6-3.8-12-3.4-.9-5.7-4.2-5.5-7.7.3-5.4-5-9.4-10.1-7.5-3.3 1.2-7.1 0-9-3-1.5-2.3-3.9-3.5-6.4-3.5-2.3 0-4.7 1.1-6.2 3.4"/></defs><clipPath id="SVGID_6_"><use xlink:href="#SVGID_5_" overflow="visible"/></clipPath><radialGradient id="SVGID_7_" cx="-752.548" cy="-123.374" r="1" gradientTransform="scale(67.111) rotate(45 -227.563 970.834)" gradientUnits="userSpaceOnUse"><stop offset="0" stop-color="#FFF"/><stop offset=".052" stop-color="#DCDBEC"/><stop offset=".109" stop-color="#BEBCDB"/><stop offset=".174" stop-color="#A4A0CD"/><stop offset=".248" stop-color="#8F8AC2"/><stop offset=".333" stop-color="#7F79B9"/><stop offset=".439" stop-color="#736EB3"/><stop offset=".588" stop-color="#6D67AF"/><stop offset="1" stop-color="#6B65AE"/></radialGradient><path class="st9" d="M50-26.8l77.3 77.4L50 127.9l-77.3-77.3z"/></g><g class="st0"><defs><path id="SVGID_8_" d="M12.8 11.3h74.5v77.4H12.8z"/></defs><clipPath id="SVGID_9_"><use xlink:href="#SVGID_8_" overflow="visible"/></clipPath><path class="st10" d="M65.4 18.2c5.1-2 10.5 2 10.2 7.4-.2 3.6 2.1 6.8 5.6 7.7 5.3 1.4 7.3 7.8 3.9 12-2.3 2.8-2.3 6.7 0 9.5 3.4 4.2 1.3 10.6-3.9 12-3.4.9-5.8 4.1-5.6 7.7.3 5.4-5.1 9.4-10.2 7.4-3.3-1.3-7.1-.1-9 2.9-3 4.6-9.7 4.6-12.6 0-1.9-3-5.7-4.2-9-2.9-5.1 2-10.5-2-10.2-7.4.2-3.6-2.1-6.8-5.6-7.7-5.3-1.4-7.3-7.8-3.9-12 2.3-2.8 2.3-6.7 0-9.5-3.4-4.2-1.3-10.6 3.9-12 3.4-.9 5.8-4.1 5.6-7.7-.3-5.4 5.1-9.4 10.2-7.4 3.3 1.3 7.1.1 9-2.9 3-4.6 9.7-4.6 12.6 0 1.9 2.9 5.7 4.2 9 2.9z"/><ellipse transform="rotate(-35.462 49.998 49.996)" class="st10" cx="50" cy="50" rx="24.9" ry="24.9"/></g></g></svg>