<svg xmlns="http://www.w3.org/2000/svg" xmlns:xlink="http://www.w3.org/1999/xlink" width="100" height="100" viewBox="0 0 100 100"><style>.st0{clip-path:url(#SVGID_2_);} .st1{clip-path:url(#SVGID_4_);fill:url(#SVGID_5_);} .st2{clip-path:url(#SVGID_7_);fill:none;stroke:#FFFFFF;stroke-miterlimit:10;} .st3{clip-path:url(#SVGID_9_);fill:#FFFFFF;} .st4{clip-path:url(#SVGID_11_);fill:url(#SVGID_12_);} .st5{clip-path:url(#SVGID_14_);fill:url(#SVGID_15_);} .st6{clip-path:url(#SVGID_17_);fill:url(#SVGID_18_);} .st7{clip-path:url(#SVGID_20_);fill:url(#SVGID_21_);} .st8{clip-path:url(#SVGID_23_);fill:url(#SVGID_24_);} .st9{clip-path:url(#SVGID_26_);fill:#231F20;} .st10{clip-path:url(#SVGID_28_);fill:url(#SVGID_29_);} .st11{clip-path:url(#SVGID_31_);fill:url(#SVGID_32_);} .st12{clip-path:url(#SVGID_34_);fill:url(#SVGID_35_);} .st13{clip-path:url(#SVGID_37_);fill:url(#SVGID_38_);} .st14{clip-path:url(#SVGID_40_);fill:url(#SVGID_41_);} .st15{clip-path:url(#SVGID_43_);fill:url(#SVGID_44_);} .st16{clip-path:url(#SVGID_46_);fill:url(#SVGID_47_);} .st17{clip-path:url(#SVGID_49_);fill:url(#SVGID_50_);} .st18{clip-path:url(#SVGID_52_);fill:url(#SVGID_53_);} .st19{clip-path:url(#SVGID_55_);fill:url(#SVGID_56_);} .st20{clip-path:url(#SVGID_58_);fill:url(#SVGID_59_);} .st21{clip-path:url(#SVGID_61_);fill:url(#SVGID_62_);} .st22{clip-path:url(#SVGID_64_);fill:url(#SVGID_65_);} .st23{clip-path:url(#SVGID_67_);fill:url(#SVGID_68_);} .st24{clip-path:url(#SVGID_70_);fill:url(#SVGID_71_);} .st25{clip-path:url(#SVGID_73_);fill:url(#SVGID_74_);} .st26{clip-path:url(#SVGID_76_);} .st27{clip-path:url(#SVGID_78_);fill:url(#SVGID_79_);} .st28{clip-path:url(#SVGID_81_);fill:none;stroke:#FFFFFF;stroke-miterlimit:10;} .st29{clip-path:url(#SVGID_83_);fill:#FFFFFF;} .st30{clip-path:url(#SVGID_85_);fill:url(#SVGID_86_);} .st31{clip-path:url(#SVGID_88_);fill:url(#SVGID_89_);} .st32{clip-path:url(#SVGID_91_);fill:url(#SVGID_92_);} .st33{clip-path:url(#SVGID_94_);fill:url(#SVGID_95_);} .st34{clip-path:url(#SVGID_97_);fill:url(#SVGID_98_);} .st35{clip-path:url(#SVGID_100_);fill:#231F20;} .st36{clip-path:url(#SVGID_102_);fill:url(#SVGID_103_);} .st37{clip-path:url(#SVGID_105_);fill:url(#SVGID_106_);} .st38{clip-path:url(#SVGID_108_);fill:url(#SVGID_109_);} .st39{clip-path:url(#SVGID_111_);fill:url(#SVGID_112_);} .st40{clip-path:url(#SVGID_114_);fill:url(#SVGID_115_);} .st41{clip-path:url(#SVGID_117_);fill:url(#SVGID_118_);} .st42{clip-path:url(#SVGID_120_);fill:url(#SVGID_121_);} .st43{clip-path:url(#SVGID_123_);fill:url(#SVGID_124_);} .st44{clip-path:url(#SVGID_126_);fill:url(#SVGID_127_);} .st45{clip-path:url(#SVGID_129_);fill:url(#SVGID_130_);} .st46{clip-path:url(#SVGID_132_);fill:url(#SVGID_133_);} .st47{clip-path:url(#SVGID_135_);fill:url(#SVGID_136_);} .st48{clip-path:url(#SVGID_138_);fill:url(#SVGID_139_);} .st49{clip-path:url(#SVGID_141_);fill:url(#SVGID_142_);} .st50{clip-path:url(#SVGID_144_);fill:url(#SVGID_145_);} .st51{clip-path:url(#SVGID_147_);fill:url(#SVGID_148_);}</style><g id="POWERUP_x5F_Time_Warp_1_"><defs><path id="SVGID_1_" d="M0 0h100v100H0z"/></defs><clipPath id="SVGID_2_"><use xlink:href="#SVGID_1_" overflow="visible"/></clipPath><g class="st0"><defs><path id="SVGID_3_" d="M29.7 64.5c-8-11.2-5.4-26.8 5.8-34.8 11.2-8 26.8-5.4 34.8 5.8 8 11.2 5.4 26.8-5.8 34.8-4.4 3.1-9.4 4.6-14.4 4.6-7.9 0-15.5-3.6-20.4-10.4M44 15.2c-2 3-5.7 4.2-9 2.8-5.1-2-10.5 1.9-10.3 7.3.2 3.6-2.2 6.7-5.6 7.6-5.3 1.4-7.4 7.7-4 12 2.2 2.8 2.2 6.7-.1 9.5-3.5 4.2-1.5 10.6 3.8 12 3.4.9 5.7 4.2 5.5 7.7-.3 5.4 5 9.4 10.1 7.5 3.3-1.2 7.1 0 9 3 2.9 4.6 9.6 4.7 12.6.1 2-3 5.7-4.2 9-2.8 5.1 2 10.5-1.9 10.3-7.3-.2-3.6 2.2-6.7 5.6-7.6 5.3-1.4 7.4-7.7 4-12-2.2-2.8-2.2-6.7.1-9.5 3.5-4.2 1.5-10.6-3.8-12-3.4-.9-5.7-4.2-5.5-7.7.3-5.4-5-9.4-10.1-7.5-3.3 1.2-7.1 0-9-3-1.5-2.3-3.9-3.5-6.4-3.5-2.3 0-4.7 1.1-6.2 3.4"/></defs><clipPath id="SVGID_4_"><use xlink:href="#SVGID_3_" overflow="visible"/></clipPath><radialGradient id="SVGID_5_" cx="1.054" cy="-1.054" r="1" gradientTransform="matrix(47.4546 47.4546 47.4546 -47.4546 30.9999 -75.2497)" gradientUnits="userSpaceOnUse"><stop offset="0" stop-color="#FFF"/><stop offset=".052" stop-color="#DCDBEC"/><stop offset=".109" stop-color="#BEBCDB"/><stop offset=".174" stop-color="#A4A0CD"/><stop offset=".248" stop-color="#8F8AC2"/><stop offset=".333" stop-color="#7F79B9"/><stop offset=".439" stop-color="#736EB3"/><stop offset=".588" stop-color="#6D67AF"/><stop offset="1" stop-color="#6B65AE"/></radialGradient><path class="st1" d="M50-26.8l77.3 77.4L50 127.9l-77.3-77.3z"/></g><g class="st0"><defs><path id="SVGID_6_" d="M12.8 11.3h74.5v77.4H12.8z"/></defs><clipPath id="SVGID_7_"><use xlink:href="#SVGID_6_" overflow="visible"/></clipPath><path class="st2" d="M65.4 18.2c5.1-2 10.5 2 10.2 7.4-.2 3.6 2.1 6.8 5.6 7.7 5.3 1.4 7.3 7.8 3.9 12-2.3 2.8-2.3 6.7 0 9.5 3.4 4.2 1.3 10.6-3.9 12-3.4.9-5.8 4.1-5.6 7.7.3 5.4-5.1 9.4-10.2 7.4-3.3-1.3-7.1-.1-9 2.9-3 4.6-9.7 4.6-12.6 0-1.9-3-5.7-4.2-9-2.9-5.1 2-10.5-2-10.2-7.4.2-3.6-2.1-6.8-5.6-7.7-5.3-1.4-7.3-7.8-3.9-12 2.3-2.8 2.3-6.7 0-9.5-3.4-4.2-1.3-10.6 3.9-12 3.4-.9 5.8-4.1 5.6-7.7-.3-5.4 5.1-9.4 10.2-7.4 3.3 1.3 7.1.1 9-2.9 3-4.6 9.7-4.6 12.6 0 1.9 2.9 5.7 4.2 9 2.9z"/><ellipse transform="matrix(0.8145 -0.5802 0.5802 0.8145 -19.7333 38.2829)" class="st2" cx="50" cy="50" rx="24.9" ry="24.9"/></g><g class="st0"><defs><path id="SVGID_8_" d="M0 0h100v100H0z"/></defs><clipPath id="SVGID_9_"><use xlink:href="#SVGID_8_" overflow="visible"/></clipPath><path class="st3" d="M65.8 44c0 5-.6 11.3-2.4 12.4-.8.5-.9-3.2-2.8-2-3.5 2.1-3.5 13.3-5.7 14-1.8.6-1.3-4.5-3.5-4.4-2.3.1-2 1.8-4.6 3.2-1.9 1.1-2-6.1-1.8-12.5-8.5-2.2-14.4-9.2-7.1-12.4 8.3-3.7 22.9-.3 27.9 1.7"/></g><g class="st0"><defs><path id="SVGID_10_" d="M45 54.7c-8.5-2.2-14.4-9.2-7.1-12.4 8.3-3.7 22.9-.3 27.9 1.7 0 5-.7 11.3-2.4 12.4-.4.2-.6-.4-.9-1.1-.4-.8-.9-1.6-2-.9-3.5 2.1-3.5 13.3-5.7 14-1 .3-1.3-.9-1.6-2.2-.4-1.1-.8-2.3-1.8-2.2-2.3.1-2 1.8-4.6 3.2-.1.1-.3.1-.4.1-1.6 0-1.7-6.7-1.4-12.6m-8.2-12.9c-2.4 1.1-3.5 2.6-3.5 4.3v3.1c0 1 .4 5.7 7.2 8.1 0 5 .2 6.7.5 8.2.4 1.5.7 3.4 5 3.4.3 0 .5-.1.8-.2 1.4-.7 1.8-1.5 2.3-2.2 1 .1-.4 3.4 5.1 3.4.2 0 .5-.1.8-.2 2.4-1.4 3-9 4.7-12.6.3.4.9.9 3.5.9.1 0 .3 0 .5-.1 2.5-1.5 3.2-10.7 3.1-14.5C63.1 42 54.9 40 47.2 40c-3.7 0-7.4.5-10.4 1.8"/></defs><clipPath id="SVGID_11_"><use xlink:href="#SVGID_10_" overflow="visible"/></clipPath><linearGradient id="SVGID_12_" gradientUnits="userSpaceOnUse" x1="3.258" y1="-.043" x2="4.258" y2="-.043" gradientTransform="matrix(0 30.6942 30.6942 0 50.0222 -60.657)"><stop offset="0" stop-color="#F26724"/><stop offset="1" stop-color="#83371B"/></linearGradient><path class="st4" d="M30.6 38.6h36.2V70H30.6z"/></g><g class="st0"><defs><path id="SVGID_13_" d="M33.3 49.3c0 1 .4 5.7 7.2 8.1 0 5 .2 6.7.5 8.2.4 1.5.7 3.4 5 3.4.3 0 .5-.1.8-.2-.9.1-2.9 1.1-3.6-4.2-.3-2-.3-5.3-.2-8.9-8-2.8-9.5-6.7-9.8-8.5v2.1zm0-2.2v-1s-.1.4 0 1"/></defs><clipPath id="SVGID_14_"><use xlink:href="#SVGID_13_" overflow="visible"/></clipPath><linearGradient id="SVGID_15_" gradientUnits="userSpaceOnUse" x1="3.811" y1="-2.118" x2="4.811" y2="-2.118" gradientTransform="matrix(11.0996 20.1111 20.1111 -11.0996 35.1673 -51.5557)"><stop offset="0" stop-color="#F26724"/><stop offset=".055" stop-color="#D85C22"/><stop offset=".13" stop-color="#BB5020"/><stop offset=".209" stop-color="#A4461F"/><stop offset=".296" stop-color="#943F1E"/><stop offset=".394" stop-color="#8B3B1D"/><stop offset=".527" stop-color="#883A1D"/><stop offset=".636" stop-color="#8B3B1D"/><stop offset=".725" stop-color="#95401E"/><stop offset=".807" stop-color="#A6471F"/><stop offset=".885" stop-color="#BF5121"/><stop offset=".959" stop-color="#DD5E23"/><stop offset="1" stop-color="#F26724"/></linearGradient><path class="st5" d="M43.7 40.3l13.2 24-20.5 11.3-13.2-24z"/></g><g class="st0"><defs><path id="SVGID_16_" d="M61.1 55.4c-.6.1-1.1 1-1.4 1.8.3.4.9.9 3.5.9-1.3-.3-1.3-2.7-2.1-2.7.1 0 0 0 0 0"/></defs><clipPath id="SVGID_17_"><use xlink:href="#SVGID_16_" overflow="visible"/></clipPath><linearGradient id="SVGID_18_" gradientUnits="userSpaceOnUse" x1="38.281" x2="39.281" gradientTransform="matrix(0 2.6122 2.6122 0 61.4335 -44.612)"><stop offset="0" stop-color="#231F20"/><stop offset=".291" stop-color="#673721"/><stop offset=".632" stop-color="#B25123"/><stop offset=".878" stop-color="#E06124"/><stop offset="1" stop-color="#F26724"/></linearGradient><path class="st6" d="M59.7 55.4h3.5v2.7h-3.5z"/></g><g class="st0"><defs><path id="SVGID_19_" d="M45 54.7c-.2 6.4-.2 13.5 1.8 12.5 2.6-1.4 2.3-3.1 4.6-3.2 1.1-.1 1.5 1.1 1.8 2.2.4 1.2.7 2.5 1.6 2.2 2.3-.7 2.3-11.9 5.7-14 1.1-.6 1.6.1 2 .9.3.7.5 1.3.9 1.1 1.8-1.1 2.4-7.4 2.4-12.4L45 54.7z"/></defs><clipPath id="SVGID_20_"><use xlink:href="#SVGID_19_" overflow="visible"/></clipPath><linearGradient id="SVGID_21_" gradientUnits="userSpaceOnUse" x1="6.076" y1="-2.212" x2="7.076" y2="-2.212" gradientTransform="matrix(5.201 14.6072 14.6072 -5.201 54.0496 -49.355)"><stop offset="0" stop-color="#E7E7E7"/><stop offset="1" stop-color="#939598"/></linearGradient><path class="st7" d="M63.4 37.3l10.2 28.6-26.5 9.4-10.2-28.6z"/></g><g class="st0"><defs><path id="SVGID_22_" d="M50.8 65.2c-.9.4-1.3.9-1.7 1.4 1 .1-.4 3.4 5.1 3.4-1.7-.2-1.8-4.9-3.1-4.9-.1 0-.2 0-.3.1"/></defs><clipPath id="SVGID_23_"><use xlink:href="#SVGID_22_" overflow="visible"/></clipPath><linearGradient id="SVGID_24_" gradientUnits="userSpaceOnUse" x1="20.262" y1="-.045" x2="21.262" y2="-.045" gradientTransform="matrix(0 4.9353 4.9353 0 51.6986 -34.8887)"><stop offset="0" stop-color="#231F20"/><stop offset=".291" stop-color="#673721"/><stop offset=".632" stop-color="#B25123"/><stop offset=".878" stop-color="#E06124"/><stop offset="1" stop-color="#F26724"/></linearGradient><path class="st8" d="M48.7 65.1h5.5V70h-5.5z"/></g><g class="st0"><defs><path id="SVGID_25_" d="M0 0h100v100H0z"/></defs><clipPath id="SVGID_26_"><use xlink:href="#SVGID_25_" overflow="visible"/></clipPath><path class="st9" d="M53.7 48.6l4.1-4.9-1.5-.3-4.5 4.7c-.4.1-.7.2-.9.4l-14.1-.3.1.2 13.8.4v.1c0 .5.7.8 1.6.8.6 0 1.1-.2 1.3-.4l.8.4v12.6l.5-.3.2-12.7-1.2-.3c0-.1-.1-.3-.2-.4m-1.4.5c-.3 0-.6-.1-.6-.3s.3-.3.6-.3.6.1.6.3-.2.3-.6.3"/></g><g class="st0"><defs><path id="SVGID_27_" d="M38.3 43.5c0 .3.4.5 1 .5.5 0 1-.2 1-.5s-.4-.5-1-.5c-.5 0-1 .2-1 .5"/></defs><clipPath id="SVGID_28_"><use xlink:href="#SVGID_27_" overflow="visible"/></clipPath><linearGradient id="SVGID_29_" gradientUnits="userSpaceOnUse" x1="-45.848" y1="-45.848" x2="-44.848" y2="-45.848" gradientTransform="matrix(1.0906 -1.0906 -1.0906 -1.0906 38.748 -55.9738)"><stop offset="0" stop-color="#231F20"/><stop offset=".241" stop-color="#3D3A3C"/><stop offset=".545" stop-color="#585759"/><stop offset=".808" stop-color="#68686B"/><stop offset="1" stop-color="#6E6E71"/></linearGradient><path class="st10" d="M37.8 43.5l1.5-1.5 1.5 1.5-1.5 1.5z"/></g><g class="st0"><defs><path id="SVGID_30_" d="M43.9 52.7c0 .3.4.5 1 .5.5 0 1-.2 1-.5s-.4-.5-1-.5-1 .2-1 .5"/></defs><clipPath id="SVGID_31_"><use xlink:href="#SVGID_30_" overflow="visible"/></clipPath><linearGradient id="SVGID_32_" gradientUnits="userSpaceOnUse" x1="-45.847" y1="-45.847" x2="-44.847" y2="-45.847" gradientTransform="matrix(1.0906 -1.0906 -1.0906 -1.0906 44.3192 -46.7618)"><stop offset="0" stop-color="#231F20"/><stop offset=".241" stop-color="#3D3A3C"/><stop offset=".545" stop-color="#585759"/><stop offset=".808" stop-color="#68686B"/><stop offset="1" stop-color="#6E6E71"/></linearGradient><path class="st11" d="M43.4 52.7l1.5-1.5 1.4 1.5-1.4 1.5z"/></g><g class="st0"><defs><path id="SVGID_33_" d="M60.9 44.2c0 .3.4.5 1 .5.5 0 1-.2 1-.5s-.4-.5-1-.5c-.5 0-1 .3-1 .5"/></defs><clipPath id="SVGID_34_"><use xlink:href="#SVGID_33_" overflow="visible"/></clipPath><linearGradient id="SVGID_35_" gradientUnits="userSpaceOnUse" x1="-45.854" y1="-45.854" x2="-44.854" y2="-45.854" gradientTransform="matrix(1.0904 -1.0904 -1.0904 -1.0904 61.3575 -55.2061)"><stop offset="0" stop-color="#231F20"/><stop offset=".241" stop-color="#3D3A3C"/><stop offset=".545" stop-color="#585759"/><stop offset=".808" stop-color="#68686B"/><stop offset="1" stop-color="#6E6E71"/></linearGradient><path class="st12" d="M60.4 44.2l1.5-1.4 1.5 1.4-1.5 1.5z"/></g><g class="st0"><defs><path id="SVGID_36_" d="M54.2 64.5c0 .5.2 1 .5 1s.5-.4.5-1-.2-1-.5-1c-.3.1-.5.5-.5 1"/></defs><clipPath id="SVGID_37_"><use xlink:href="#SVGID_36_" overflow="visible"/></clipPath><linearGradient id="SVGID_38_" gradientUnits="userSpaceOnUse" x1="45.857" y1="-45.857" x2="46.857" y2="-45.857" gradientTransform="matrix(1.0903 1.0903 1.0903 -1.0903 54.1752 -35.9956)"><stop offset="0" stop-color="#6E6E71"/><stop offset=".192" stop-color="#68686B"/><stop offset=".455" stop-color="#585759"/><stop offset=".759" stop-color="#3D3A3C"/><stop offset="1" stop-color="#231F20"/></linearGradient><path class="st13" d="M54.7 63.1l1.5 1.4-1.5 1.5-1.5-1.5z"/></g><g class="st0"><defs><path id="SVGID_39_" d="M62.9 53.1c0 .3.1.6.3.6.2 0 .3-.3.3-.6s-.1-.6-.3-.6c-.2.1-.3.3-.3.6"/></defs><clipPath id="SVGID_40_"><use xlink:href="#SVGID_39_" overflow="visible"/></clipPath><linearGradient id="SVGID_41_" gradientUnits="userSpaceOnUse" x1="78.298" y1="-78.299" x2="79.298" y2="-78.299" gradientTransform="matrix(0.6386 0.6386 0.6386 -0.6386 62.8441 -47.1848)"><stop offset="0" stop-color="#6E6E71"/><stop offset=".192" stop-color="#68686B"/><stop offset=".455" stop-color="#585759"/><stop offset=".759" stop-color="#3D3A3C"/><stop offset="1" stop-color="#231F20"/></linearGradient><path class="st14" d="M63.2 52.3l.8.8-.8.9-.9-.9z"/></g><g class="st0"><defs><path id="SVGID_42_" d="M46.2 61.2c0 .3.1.6.3.6.2 0 .3-.3.3-.6s-.1-.6-.3-.6c-.2 0-.3.3-.3.6"/></defs><clipPath id="SVGID_43_"><use xlink:href="#SVGID_42_" overflow="visible"/></clipPath><linearGradient id="SVGID_44_" gradientUnits="userSpaceOnUse" x1="78.332" y1="-78.331" x2="79.332" y2="-78.331" gradientTransform="matrix(0.6383 0.6383 0.6383 -0.6383 46.1473 -39.1081)"><stop offset="0" stop-color="#6E6E71"/><stop offset=".192" stop-color="#68686B"/><stop offset=".455" stop-color="#585759"/><stop offset=".759" stop-color="#3D3A3C"/><stop offset="1" stop-color="#231F20"/></linearGradient><path class="st15" d="M46.5 60.3l.8.9-.8.9-.9-.9z"/></g><g class="st0"><defs><path id="SVGID_45_" d="M49.9 62.8c0 .3.1.6.3.6.2 0 .3-.3.3-.6s-.1-.6-.3-.6c-.2.1-.3.3-.3.6"/></defs><clipPath id="SVGID_46_"><use xlink:href="#SVGID_45_" overflow="visible"/></clipPath><linearGradient id="SVGID_47_" gradientUnits="userSpaceOnUse" x1="78.316" y1="-78.315" x2="79.316" y2="-78.315" gradientTransform="matrix(0.6384 0.6384 0.6384 -0.6384 49.8708 -37.4907)"><stop offset="0" stop-color="#6E6E71"/><stop offset=".192" stop-color="#68686B"/><stop offset=".455" stop-color="#585759"/><stop offset=".759" stop-color="#3D3A3C"/><stop offset="1" stop-color="#231F20"/></linearGradient><path class="st16" d="M50.2 62l.9.8-.9.9-.9-.9z"/></g><g class="st0"><defs><path id="SVGID_48_" d="M57.3 56.2c0 .3.1.6.3.6.2 0 .3-.3.3-.6s-.1-.6-.3-.6c-.2 0-.3.3-.3.6"/></defs><clipPath id="SVGID_49_"><use xlink:href="#SVGID_48_" overflow="visible"/></clipPath><linearGradient id="SVGID_50_" gradientUnits="userSpaceOnUse" x1="78.31" y1="-78.31" x2="79.31" y2="-78.31" gradientTransform="matrix(0.6385 0.6385 0.6385 -0.6385 57.2555 -44.1427)"><stop offset="0" stop-color="#6E6E71"/><stop offset=".192" stop-color="#68686B"/><stop offset=".455" stop-color="#585759"/><stop offset=".759" stop-color="#3D3A3C"/><stop offset="1" stop-color="#231F20"/></linearGradient><path class="st17" d="M57.6 55.3l.8.9-.8.8-.9-.8z"/></g><g class="st0"><defs><path id="SVGID_51_" d="M47.7 42.3c0 .2.3.3.6.3s.6-.1.6-.3c0-.2-.3-.3-.6-.3-.4 0-.6.1-.6.3"/></defs><clipPath id="SVGID_52_"><use xlink:href="#SVGID_51_" overflow="visible"/></clipPath><linearGradient id="SVGID_53_" gradientUnits="userSpaceOnUse" x1="-78.332" y1="-78.331" x2="-77.332" y2="-78.331" gradientTransform="matrix(0.6383 -0.6383 -0.6383 -0.6383 47.893 -57.3964)"><stop offset="0" stop-color="#231F20"/><stop offset=".241" stop-color="#3D3A3C"/><stop offset=".545" stop-color="#585759"/><stop offset=".808" stop-color="#68686B"/><stop offset="1" stop-color="#6E6E71"/></linearGradient><path class="st18" d="M47.3 42.3l.9-.9.9.9-.9.8z"/></g><g class="st0"><defs><path id="SVGID_54_" d="M36.6 46.6c0 .2.3.3.6.3s.6-.1.6-.3c0-.2-.3-.3-.6-.3-.4 0-.6.1-.6.3"/></defs><clipPath id="SVGID_55_"><use xlink:href="#SVGID_54_" overflow="visible"/></clipPath><linearGradient id="SVGID_56_" gradientUnits="userSpaceOnUse" x1="-78.326" y1="-78.326" x2="-77.326" y2="-78.326" gradientTransform="matrix(0.6384 -0.6384 -0.6384 -0.6384 36.7959 -53.0712)"><stop offset="0" stop-color="#231F20"/><stop offset=".241" stop-color="#3D3A3C"/><stop offset=".545" stop-color="#585759"/><stop offset=".808" stop-color="#68686B"/><stop offset="1" stop-color="#6E6E71"/></linearGradient><path class="st19" d="M36.3 46.6l.8-.9.9.9-.9.9z"/></g><g class="st0"><defs><path id="SVGID_57_" d="M38.7 50.3c0 .2.3.3.6.3s.6-.1.6-.3c0-.2-.3-.3-.6-.3s-.6.1-.6.3"/></defs><clipPath id="SVGID_58_"><use xlink:href="#SVGID_57_" overflow="visible"/></clipPath><linearGradient id="SVGID_59_" gradientUnits="userSpaceOnUse" x1="-78.314" y1="-78.314" x2="-77.314" y2="-78.314" gradientTransform="matrix(0.6385 -0.6385 -0.6385 -0.6385 38.9744 -49.3957)"><stop offset="0" stop-color="#231F20"/><stop offset=".241" stop-color="#3D3A3C"/><stop offset=".545" stop-color="#585759"/><stop offset=".808" stop-color="#68686B"/><stop offset="1" stop-color="#6E6E71"/></linearGradient><path class="st20" d="M38.4 50.3l.9-.9.9.9-.9.9z"/></g><g class="st0"><defs><path id="SVGID_60_" d="M54.8 42.9c0 .2.3.3.6.3s.6-.1.6-.3-.3-.3-.6-.3c-.4 0-.6.1-.6.3"/></defs><clipPath id="SVGID_61_"><use xlink:href="#SVGID_60_" overflow="visible"/></clipPath><linearGradient id="SVGID_62_" gradientUnits="userSpaceOnUse" x1="-78.324" y1="-78.324" x2="-77.324" y2="-78.324" gradientTransform="matrix(0.6384 -0.6384 -0.6384 -0.6384 55.009 -56.7898)"><stop offset="0" stop-color="#231F20"/><stop offset=".241" stop-color="#3D3A3C"/><stop offset=".545" stop-color="#585759"/><stop offset=".808" stop-color="#68686B"/><stop offset="1" stop-color="#6E6E71"/></linearGradient><path class="st21" d="M54.5 42.9l.8-.9.9.9-.9.9z"/></g><g class="st0"><defs><path id="SVGID_63_" d="M47.9 65.8c-1.2 1.2-1.9 1.2-2.3.7.3.6.7.9 1.1.6 2.6-1.4 2.3-3.1 4.6-3.2.2 0 .3 0 .5.1-.3-.1-.6-.2-.9-.2-1.2 0-2.1 1-3 2"/></defs><clipPath id="SVGID_64_"><use xlink:href="#SVGID_63_" overflow="visible"/></clipPath><linearGradient id="SVGID_65_" gradientUnits="userSpaceOnUse" y1="-16.173" x2="1" y2="-16.173" gradientTransform="matrix(6.1883 0 0 -6.1883 45.5998 -34.4528)"><stop offset="0" stop-color="#231F20"/><stop offset=".291" stop-color="#673721"/><stop offset=".632" stop-color="#B25123"/><stop offset=".878" stop-color="#E06124"/><stop offset="1" stop-color="#F26724"/></linearGradient><path class="st22" d="M45.6 63.8h6.2v3.6h-6.2z"/></g><g class="st0"><defs><path id="SVGID_66_" d="M58.7 55.8c-1.3 2.1-2.1 7.8-3 10.5-.5 1.4-1.3 2.3-1.8 1.8.2.3.5.4.9.3 2.3-.7 2.3-11.9 5.7-14 .4-.3.8-.3 1-.2-.1-.2-.4-.2-.6-.2-.6 0-1.3.4-2.2 1.8"/></defs><clipPath id="SVGID_67_"><use xlink:href="#SVGID_66_" overflow="visible"/></clipPath><linearGradient id="SVGID_68_" gradientUnits="userSpaceOnUse" y1="-13.061" x2="1" y2="-13.061" gradientTransform="matrix(7.6635 0 0 -7.6635 53.9139 -38.8244)"><stop offset="0" stop-color="#231F20"/><stop offset=".291" stop-color="#673721"/><stop offset=".632" stop-color="#B25123"/><stop offset=".878" stop-color="#E06124"/><stop offset="1" stop-color="#F26724"/></linearGradient><path class="st23" d="M53.9 54h7.7v14.6h-7.7z"/></g><g class="st0"><defs><path id="SVGID_69_" d="M34.6 46.2c0-.1 0-.1 0 0 0-.1 0 0 0 0"/></defs><clipPath id="SVGID_70_"><use xlink:href="#SVGID_69_" overflow="visible"/></clipPath><linearGradient id="SVGID_71_" gradientUnits="userSpaceOnUse" x1="34.588" y1="46.118" x2="34.592" y2="46.118" gradientTransform="matrix(3.426700e-003 0 0 -3.426700e-003 34.5891 -53.8821)"><stop offset="0" stop-color="#231F20"/><stop offset=".291" stop-color="#673721"/><stop offset=".632" stop-color="#B25123"/><stop offset=".878" stop-color="#E06124"/><stop offset="1" stop-color="#F26724"/></linearGradient></g><g class="st0"><defs><path id="SVGID_72_" d="M37.9 42.3c-2.2 1-3.2 2.3-3.3 3.8 0-.4.3-2.2 3.3-3.5 9.3-4.1 25.1.6 27.5 1.6.2 2.9-.3 9.4-1.6 11.3-.4.6-.8.8-1 .4.2.4.3.6.6.4 1.8-1.1 2.4-7.4 2.4-12.4-3.4-1.3-11.2-3.3-18.5-3.3-3.4 0-6.7.5-9.4 1.7"/></defs><clipPath id="SVGID_73_"><use xlink:href="#SVGID_72_" overflow="visible"/></clipPath><linearGradient id="SVGID_74_" gradientUnits="userSpaceOnUse" x1="4.762" y1="-2.789" x2="5.762" y2="-2.789" gradientTransform="matrix(9.0454 15.8295 15.8295 -9.0454 49.4623 -56.2547)"><stop offset="0" stop-color="#231F20"/><stop offset=".291" stop-color="#673721"/><stop offset=".632" stop-color="#B25123"/><stop offset=".878" stop-color="#E06124"/><stop offset="1" stop-color="#F26724"/></linearGradient><path class="st25" d="M58.1 25.1l15.4 27-31.2 17.8-15.5-27z"/></g></g></svg>