<svg xmlns="http://www.w3.org/2000/svg" xmlns:xlink="http://www.w3.org/1999/xlink" width="100" height="100" viewBox="0 0 100 100"><style>.st0{fill:#FFFFFF;} .st1{clip-path:url(#SVGID_2_);} .st2{clip-path:url(#SVGID_4_);fill:url(#SVGID_5_);} .st3{clip-path:url(#SVGID_7_);fill:none;stroke:#FFFFFF;stroke-miterlimit:10;} .st4{filter:url(#Adobe_OpacityMaskFilter);} .st5{fill:#231F20;stroke:#FFFFFF;stroke-miterlimit:10;} .st6{mask:url(#SVGID_8_);} .st7{fill-rule:evenodd;clip-rule:evenodd;fill:#F16722;} .st8{fill-rule:evenodd;clip-rule:evenodd;fill:#F16722;stroke:#F16722;stroke-miterlimit:10;} .st9{fill-rule:evenodd;clip-rule:evenodd;} .st10{fill:#F16722;} .st11{clip-path:url(#SVGID_10_);} .st12{clip-path:url(#SVGID_12_);fill:url(#SVGID_13_);} .st13{clip-path:url(#SVGID_15_);fill:none;stroke:#FFFFFF;stroke-miterlimit:10;} .st14{filter:url(#Adobe_OpacityMaskFilter_1_);} .st15{mask:url(#SVGID_16_);}</style><defs><path id="SVGID_1_" d="M12.8 11.3h74.5v77.4H12.8z"/></defs><clipPath id="SVGID_2_"><use xlink:href="#SVGID_1_" overflow="visible"/></clipPath><g class="st1"><defs><path id="SVGID_3_" d="M29.7 64.5c-8-11.2-5.4-26.8 5.8-34.8 11.2-8 26.8-5.4 34.8 5.8 8 11.2 5.4 26.8-5.8 34.8-4.4 3.1-9.4 4.6-14.4 4.6-7.9 0-15.5-3.6-20.4-10.4M44 15.2c-2 3-5.7 4.2-9 2.8-5.1-2-10.5 1.9-10.3 7.3.2 3.6-2.2 6.7-5.6 7.6-5.3 1.4-7.4 7.7-4 12 2.2 2.8 2.2 6.7-.1 9.5-3.5 4.2-1.5 10.6 3.8 12 3.4.9 5.7 4.2 5.5 7.7-.3 5.4 5 9.4 10.1 7.5 3.3-1.2 7.1 0 9 3 2.9 4.6 9.6 4.7 12.6.1 2-3 5.7-4.2 9-2.8 5.1 2 10.5-1.9 10.3-7.3-.2-3.6 2.2-6.7 5.6-7.6 5.3-1.4 7.4-7.7 4-12-2.2-2.8-2.2-6.7.1-9.5 3.5-4.2 1.5-10.6-3.8-12-3.4-.9-5.7-4.2-5.5-7.7.3-5.4-5-9.4-10.1-7.5-3.3 1.2-7.1 0-9-3-1.5-2.3-3.9-3.5-6.4-3.5-2.3 0-4.7 1.1-6.2 3.4"/></defs><clipPath id="SVGID_4_"><use xlink:href="#SVGID_3_" overflow="visible"/></clipPath><radialGradient id="SVGID_5_" cx="1.069" cy="-.8" r="1" gradientTransform="matrix(47.4546 47.4546 47.4546 -47.4546 18.2353 -63.9626)" gradientUnits="userSpaceOnUse"><stop offset="0" stop-color="#FFF"/><stop offset=".052" stop-color="#DCDBEC"/><stop offset=".109" stop-color="#BEBCDB"/><stop offset=".174" stop-color="#A4A0CD"/><stop offset=".248" stop-color="#8F8AC2"/><stop offset=".333" stop-color="#7F79B9"/><stop offset=".439" stop-color="#736EB3"/><stop offset=".588" stop-color="#6D67AF"/><stop offset="1" stop-color="#6B65AE"/></radialGradient><path class="st2" d="M50-26.8l77.3 77.4L50 127.9l-77.3-77.3"/></g><g class="st1"><defs><path id="SVGID_6_" d="M12.8 11.3h74.5v77.4H12.8z"/></defs><clipPath id="SVGID_7_"><use xlink:href="#SVGID_6_" overflow="visible"/></clipPath><path class="st3" d="M65.4 18.2c5.1-2 10.5 2 10.2 7.4-.2 3.6 2.1 6.8 5.6 7.7 5.3 1.4 7.3 7.8 3.9 12-2.3 2.8-2.3 6.7 0 9.5 3.4 4.2 1.3 10.6-3.9 12-3.4.9-5.8 4.1-5.6 7.7.3 5.4-5.1 9.4-10.2 7.4-3.3-1.3-7.1-.1-9 2.9-3 4.6-9.7 4.6-12.6 0-1.9-3-5.7-4.2-9-2.9-5.1 2-10.5-2-10.2-7.4.2-3.6-2.1-6.8-5.6-7.7-5.3-1.4-7.3-7.8-3.9-12 2.3-2.8 2.3-6.7 0-9.5-3.4-4.2-1.3-10.6 3.9-12 3.4-.9 5.8-4.1 5.6-7.7-.3-5.4 5.1-9.4 10.2-7.4 3.3 1.3 7.1.1 9-2.9 3-4.6 9.7-4.6 12.6 0 1.9 2.9 5.7 4.2 9 2.9z"/><ellipse transform="matrix(0.8145 -0.5802 0.5802 0.8145 -19.7331 38.2829)" class="st3" cx="50" cy="50" rx="24.9" ry="24.9"/></g><defs><filter id="Adobe_OpacityMaskFilter" filterUnits="userSpaceOnUse" x="36.9" y="21.5" width="61.1" height="60.5"><feColorMatrix values="-1 0 0 0 1 0 -1 0 0 1 0 0 -1 0 1 0 0 0 1 0" color-interpolation-filters="sRGB" result="source"/></filter></defs><mask maskUnits="userSpaceOnUse" x="36.9" y="21.5" width="61.1" height="60.5" id="SVGID_8_"><path class="st4 st5" d="M29.7 64.5c-8-11.2-5.4-26.8 5.8-34.8 2.5-1.8 5.2-3 8-3.8.5-.1 0-5.3.5-5.4 4.5-.9 9.1-.5 13.4 1 .3.1 1.6 5.2 1.9 5.3 3.6 1.5 6.9 3.8 9.6 6.9.5.6 27.7 1.8 28.1 2.4 6.2 8.6-3.3 25.6-8.8 33.9-.1.2-17.7-6-17.9-5.8-1.6 2.2-3.6 4.2-5.9 5.9-11.2 8.2-26.7 5.6-34.7-5.6z"/></mask><g class="st6"><path class="st7" d="M58.2 33.3c4.2 2.2 11.4 1.9 22.5 3.9 2.8.5 10.5 2.2 12.8 4.7-6.4-2.1-7.7 2.3-7.3 6.6.4 4-1.4 6.4-7.1 7.1-5.9.8-7 4.1-7.9 7.9C61.3 41.4 42.7 45 41.9 33.1c-.1-2.9 16.3.2 16.3.2z"/><path class="st8" d="M48.8 26.9s-.1 1.8-.3 2.9c0 .2-.9.3-1.5.6 1.2 4.2 8.4 4.1 9.4 2.1-.4-.4-1.4-1-1.8-1.2-.4-.2-.4-.2-.4-1.1 0-1-.1-2.8-.1-3.3-.2-.5-4.6-.5-5.3 0z"/><path class="st9" d="M49.1 26.9s0 1-.1 2c0 .5-.1.7-.1 1.1 0 .2 1 1 1.3 2.9 1.4 3.7 4.5 1.9 5.8.1-.5-.4-1.2-.9-2-1.3-.4-.2-.2-.7-.3-1.6 0-1-.1-2.4-.2-2.9-.1-.6-3.7-.8-4.4-.3z"/><path class="st9" d="M48.8 26.9s0 .6-.1 1.4c.4.5.9 1.1 1.2 1.5.3.3.9.2 1.5.2.5 0 1 .1 1.2 0 .5-.3 1.1-1 1.5-1.5 0-.6-.1-1.2-.1-1.5-.1-.6-4.5-.6-5.2-.1z"/><path class="st7" d="M48.8 25.6s-.3-.2-.5 0c-.2.3 0 1.7.6 1.4.2-.7 0-1.3-.1-1.4zM53.9 25.6s.3-.2.5 0c.2.3 0 1.7-.6 1.4-.2-.7 0-1.3.1-1.4z"/><path class="st7" d="M51.4 29.6c-.3 0-.7 0-1.1-.1-.1 0-.3-.1-.4-.2l-.6-.6c-.4-.4-.5-.7-.5-.8.2-2.2-.1-4.1-.1-4.1s-.2-.9.9-1.2c1.1-.2 1.7-.3 1.7-.3s.7 0 1.8.3c1.1.2.9 1.2.9 1.2s-.3 1.8-.1 4.1c0 .1 0 .4-.5.8-.4.4-.7.7-1 .8-.3 0-.7.1-1 .1z"/><path class="st9" d="M50.3 29.5c-.1 0-.3-.1-.4-.2-.3-.6-.4-.9-.3-1.7.1-.7-.4-1.1-.4-1.7 0-.3.1-.4.2-.5.1-.2-.3-.3-.3-.7 0-.2 0-.3.1-.5s-.3-.7.3-1.1c1.5-.8 1.5-.4 2.7-.3.9 0 1.5.7 1.3 1.3-.1.2.1.4 0 .7-.1.2-.4.3-.4.6 0 .1 0 .1.1.2.1.3.3.7.1.9-.1.2-.1.5-.1.7 0 .5-.2.5-.2 1.1 0 .5-.4 1.2-.7 1.3-.4 0-1.4 0-2-.1z"/><path class="st7" d="M51.4 21.5c-1.9 0-2.5.8-3 1.6-.1.2.2 1 .4 3.2h.2s-.2-.6-.1-1.4c0-.7.2-.7 0-.9-.1-.2-.3-.5.2-.9.5-.3 1.3.3 2.3.3 1 0 1.8-.7 2.3-.3.5.3.3.7.2.9-.1.2 0 .1 0 .9 0 .7-.1 1.4-.1 1.4h.2c.2-2.2.5-3.1.4-3.2-.5-.8-1.1-1.6-3-1.6zM60.9 48.7s-.6 2.4-1.6 3.2c-.2-.1-.7 0-.7 0s-.9-.2-1-.3c-.1-.1-.7-.2-.8-.3l-.1-.1c-.1-.1 1.2-1.1 1-1.2-.1-.1-.3-.1-.3-.1-.1-.2-1.4-.4-1.4-.7.1-.5.3-.8.3-.8s.4-1 1-1c.5 0 1.6-.1 1.8-.4.2-.4 1.8.5 1.8 1.7z"/><path class="st9" d="M58.2 33.3c9.3 2.8 11.9-.6 29.9 4.3 2.8.8 7.7 3.5 9.8 9.1-4.4-3.1-13.9-6.3-24.9-7.6-5.6-.7-9.6-1-14.6-1.9 0-2-.2-2.7-.2-3.9z"/><path class="st7" d="M58.2 33.3c9.3 2.8 11.9-.6 29.9 4.3 2.8.8 7.7 3.5 9.8 9.1-1.3-2.8-4.3-6.3-8.5-8-5.9-2.4-13.3-3.1-18.7-3.4-7.7-.4-8.9.4-12.3-1.7.1-.1-.1-.1-.2-.3z"/><path class="st7" d="M56.7 33.5s1.7-.5 3 .9c1.2 1.4 1.2 3.3.8 4.4.3.4.9 1.7.4 3.2 1.8 1.9 1.4 4.6-.1 6.8 0 0-.3-1.8-1.9-1.8 0-.7-1.9-1.2-1-3.5-.7-.4-1.2-1.1-1.4-2.3-.2-1 .2-7.7.2-7.7z"/><path class="st9" d="M56.1 34.5s2.1-1.3 3.3.2c1.2 1.4.9 3.1.5 4.2.3.4 1 1.8.6 3.4-.1.3-.6.3-1.1 1.2 1.2-.8 1.8-.7 2.1.3.5 1.5-.1 3.4-.8 4.5 0 0 0-.1-.1-.1-.1.5-.2 1.7-1 2.9-.4.6-.7.6-1.2.5-.6-.1-1.4-.4-2.2-.9-.5-.3-.2-.9-.2-1.2 0-.1 0-.2.1-.3 0-.2.2-.5.5-.8 0 0 .3-.7.9-.7.5 0 1.5 0 1.7-.6 0-1.2-1.5-1.2-1.2-3.3 0-.1.2-.2.7-.3-.7-.2-1-.2-1.5-.8-.3-.4-.6-.9-.7-1.5-.2-1-.4-6.7-.4-6.7z"/><path class="st7" d="M50 32.3c-.2-.3-1-1.7-2.7-2.2-.5-.2-.8.3-1.3.6-.1-.1-.8-.4-1.1-.2-.3.2-.6.5-.9.7-.2-.1-.4-.2-.8-.1-.4.2-1 .6-1.5 1.5-.3 1.5 5.9.4 5.9.4l2.4-.7z"/><path class="st9" d="M50.1 32.3c-.2-.3-1.1-1.3-2.8-1.8-.4-.1-.7.2-1 .5.1.2.3.4.4.7-.2-.4-.7-.8-1.2-.9-.4-.1-.7.3-1.2.6.1.1.2.3.3.5-.4-.3-.6-.6-1.1-.4-.4.2-1.2.8-1.7 1.7-.3 1.5 5.8-.2 5.8-.2l2.5-.7z"/><path class="st7" d="M55.5 32.9v-.7c0-.1-.2-.3-.2-.3v-.1s.4-.3.8-.1c.4.1.6.7.6.7.7-.3.7 0 1 .5.7-.2.8.1 1.2.9 0 0-.5-.1-1.5.1-1.1.1-1.9-1.1-1.9-1z"/><path class="st9" d="M55.5 32.9v-.3c.3-.2.7-.4.9.3.7-.3.8 0 1.1.5.8-.5.8.1.9.4-.3 0-.6 0-1.1.1-1 .1-1.8-1.1-1.8-1z"/><path class="st7" d="M45.6 31.8s2 .4 3.4.3c1.4-.1 3.3 0 4.6.9 0 0 1.3-.5 2.5-.2 1.2.4 3.4 2.9 2.7 5.5 0 .2-.4.4-.8.6 0 0 .2 1.2-.2 2.1-.4.9-1.3 2.7-1.3 5.2 0 .4 0 .7-.1 1.1-2.2-.1-5.7-.5-9.1-.5 0-.5 0-.7.1-1.2h.1c-.2-1.1-.2-1.6-.4-2.5-1.1-.8-2.3-1.8-3.3-3.7-.9-1.5 1.8-7.6 1.8-7.6zM56.7 50.6s1.7 7.7-.4 11c0 0 .3 1.4-.4 3l-.3 2.1c-.4 2.9-1 4.1-1.2 8.7h-1.7s-.2-3.3-.8-5.1c-.3-1-1.6-2.2-1.5-3.5.1-1.1.5-2.2 1.5-3.5.1-2-1.5-3.9-1.3-11.4l6.1-1.3z"/><path class="st9" d="M56.1 50.3c.5 3.6 1.3 8.8-.6 11.3.1.5.1 1.2 0 2-.1.4-.2.9-.3 1.3-.3.8-.4 2.1-.5 2.8-.4 2.9-.2 3.1-.4 7.7h-1.7s-.2-3.3-.8-5.1c-.3-1-.9-1.9-1-3.2-.1-1 .5-3.1 2-3.1-.1-4.2-1.8-3.4-2.3-12.2l5.6-1.5zM45.6 31.8s2 .4 3.4.3c1.4-.1 3.3 0 4.6.9 0 0 1.2-.5 2.5-.1 1.2.4 2.6 3 2 5.3 0 .2-.5 0-.9.2.1.5.1 1.6-.3 2.8-.5 1.2-1.1 2.7-1 5.6-3-.2-4.3-.4-7.3-.6-.3-1.3-.4-2.6-.5-3.2.4-.3.8-.5 1.1-.9-.9.2-1.4.2-1.9-.2s-1.1-.9-1.5-1.7c0-.1-.7.6-1.4.6-.2-.5.8-1.7.6-2.2-.7-1.8.6-6.8.6-6.8z"/><path class="st7" d="M56.4 47.4s.1 1.2.1 1.6c0 .3.2 1.1.3 1.7-.3.6-1.7 2.4-4.2 2.9-2.4.6-5.7-4.1-5.7-4.1.1-.5.4-1.8.6-2.5 0-.1.1-.3.1-.3.1-.4 8.8.7 8.8.7z"/><path class="st9" d="M55.8 47.5c0 .9.1 1.5.2 2.1.3 1.6-1.5 3.8-3.6 4.1-2.4.6-4.5-4.1-4.5-4.1.2-.8.3-1.7.6-2.5 0-.4.1-.9.1-1.2 3.5 0 5.9.2 7.4.4-.1.4-.2 1.1-.2 1.2z"/><path class="st7" d="M53 52s-1.5-4.1-6.1-2.9c-1.1 3.7-2.5 8-1.6 12.6-.9 1.6-2 2.4-2 5.3s.1 3.4.1 3.4l3.3.2s1.1-1.7 1.5-3.6c.1-.5.2-1.5.2-2.5.1-.2.6-.7.6-1.6 0 0 1.6-1 2.6-3.6 1-2.2.7-4.2 1.4-7.3z"/><path class="st9" d="M53 52c-.1-.4-1.4-3.8-5.4-3-2.5 8.1-1.5 11.4-1.1 12.9-1.7 2.6-2.6 3.1-2.2 8.4h2.2c1-2 1.3-2.7 1.3-5.3 0-.1-.3.2-.5.6.2-1.1.7-1.3 1-1.9.2-.3.3-.7.3-1.2 2-1.7 2.9-3.9 3.4-6 .3-1.6.5-3.1 1-4.5z"/><path class="st7" d="M45.9 46.4s.8 0 1.4.3c.7.3.6.5.8.9.2.4 1.1.9 1 1.3-.1.3-.3.2-.5.5-.1.1 0 .3-.2.4-.1.1-.3.1-.4.2s-.2.3-.3.4c-.1.1-.3.1-.4.1-.1.1-.1.2-.2.2-.3.2-.6.3-1 .5 0 0-.6 0-1.1-.6 0 0 0-.3.1-.5 0 0-.7-.5-.9-.9-.2-.4-.2-1-.1-1.3.4-.2 1.5-1.1 1.8-1.5z"/><path class="st9" d="M45.6 46.8c.8-.1 1.8.1 2.4.8.7.9 1.3 1 1.1 1.4-.1.1-.2.2-.4.3-.1.1 0 .3-.2.4-.1.1-.3.1-.4.2-.1.1-.2.3-.3.4-.1.1-.3.1-.4.1-.1.1-.1.2-.2.2-.3.2-.6.1-.9-.1-.3-.2-.3-.4-.6-.7-.8-.7-1.2-1-.9-2.3.1-.1.4-.3.8-.7z"/><path class="st8" d="M46.7 80.3v.8s-.4.4-2.3.4-2.7-.6-2.8-1v-1s.4-.7.5-.7c.6.1 2.8 1.1 4.3 1.4.1 0 .2.1.3.1z"/><path class="st9" d="M46.5 80.6c.1.3 0 .7-.7.8-.3.1-.8.1-1.4.1-1 0-1.6-.2-2.1-.4-.5-.4-.7-1.1-.5-1.3.1-.2 4.4.2 4.7.8z"/><path class="st7" d="M50.8 78.5v.8c.3.3 1.2.5 2.8.4 2.4-.1 4.6.9 7.2.3v-.6h-.2l-9.5-.9h-.3z"/><path class="st9" d="M52.9 79.7h.7c1.5-.1 3 .3 4.6.5.8 0 1.9-.3 1.8-1l-8.1-.8c-.6.6-.2 1.1 1 1.3z"/><path class="st7" d="M43.6 65c.3.2 2.1 1.6 4.9 1.4-.1.7-.1 2-1.4 4.2-.6 1.1-1.2 3.1-1.3 5.5 0 .6.3 1-.1 1.8.1.4.6 1.4.8 1.9.2.5.3 1.2-1.2 1.2s-4-.2-3.7-1.6c.2-.8.8-1.6.8-1.9.1-.3 0-1.2.5-1.9.4-1.7.3-3.4.2-5 .1-1.6-.1-4.3.5-5.6zM50.5 65.7s2.5 1.3 5.3.6c0 0-1.1 6-.6 9.2 0 0 .5.8 4.1 2.4 0 0 1.6.5 1.5 1.4 0 0 0 .2-1.9.1s-3.8-.5-5.1-.5-2.6.1-2.9-.4c-.2-.4 0-1.5.4-2.1.4-.6.3-1.1.3-2.3 0-2.9-1.9-6.1-1.1-8.4zM46.2 36.7c2-3.3.4-5.8-2.9-5-1.3.3-2.6 1.3-2.7 3.3-.4.1-1.4.1-1.9 2.3-.4 1.7-1.1 2.4-1.8 3.3.1.4.6 1.2.9 2 1 3 4.3 3 6.5 5.5.7-.2 1.5-1 1.7-1.6-1.8-2.7-1.5-3.7-2.3-5.1.9-.4 2.8-1.8 2.5-4.7z"/><path class="st9" d="M46 36.6l.3-.6s.3.3.3.2c1.5-2.9.2-5-2.8-4.3-1.3.3-2.5 1.4-2.5 3 0 .1.9.4 1.1 1.7-.4-.7-1.2-1.5-2.1-.8-.9.7-.5 2.4-1.7 4.1-.4.6-.4 1.3.1 2.7.7 2.2 4.1 3.1 6 5.2.5-.2.8-.6 1.1-1-1.3-1.6-1.7-3.1-2.1-4.2-.4-1.3-1-2-2-3 .5.3.9.5 1.2.7.3.2.6.2 1 .1 1.3-.5 2-2.5 2.1-3.8z"/><path class="st7" d="M58.3 37.1c-.1 1.3-.9.6-1.3.4-.8-.4-1.7-.8-2.7-.8-1 0-2.3.1-3.4.5-1.5.5-2 .5-2.7.1-.7-.4-2-1.4-2-1.4s1.3 1.9 2.7 2.4c.5.2 1 .1 1.5-.1 2.5-.8 5.2-.9 7.5.8.1.1.5-.1.7-.5.1-.5-.3-1.4-.3-1.4z"/><ellipse class="st9" cx="55.4" cy="46.9" rx=".6" ry=".9"/><path class="st9" d="M44.7 65.6c.7.3 1.6.6 2.8.7-.3 2.7-.9 3.9-1.4 5.4-.4 1.2-.6 2.9-.6 4 0 .4.3 1 .2 1.3-.1.2-.2-.1-.4-.2.1.7.3 1.9.6 2.8.2.6.1 1.1-.7 1.3-.7 0-1.6 0-2.3-.2-.8-.5-1.1-.8-1-1.8.1-.7 1-1.5 1.8-2.1-.4 0-.9.4-.8 0 .1-1.1.8-1.1.9-1.8.5-2.9 0-5.9.9-9.4zM51.2 66c.8.2 2.1.5 3.5.5 0 3.4-.4 4.9 0 8.6 0 .2 0 .4.1.6 0 .1-.8.4-.5.4 1 0 1.6.5 2.5 1.1.5.3 1.2.6 1.9 1 2 .7 2 1.2.3 1.3-1.9 0-3.8-.5-5.1-.5h-.5c-.9-.1-1.7-.3-1.7-.8v-.7c.1-.4.3-.8.7-.7.2.1.7.2.6.1-.5-.5-.7-.9-.7-1.2.2-1.6-.1-3.4-.5-5-.5-1.6-1-3-.6-4.7zM45.3 50.2c.2.2.5.3.8.6 0 0-.3 0-.4-.1 0-.1-.3-.4-.4-.5zM51.3 21.8c-1.6 0-2.1.6-2.1 1 0 .1.1.2.1.3.5 0 1.2.4 2 .5.8 0 1.5-.5 2-.4 0-.1.1-.2.1-.3.1-.5-.6-1.1-2.1-1.1z"/></g><g><path class="st10" d="M49.802 33.226c.075.15.15.3.225.375.075.076.075.15.15.15s.3-.224.375-.3c.075-.074.075-.224.075-.3-.075-.15-.075-.3.075-.45 0-.074.075-.15.075-.15s-.525.15-.75.226c-.075 0-.15.075-.225.075-.075.15 0 .3 0 .376m4.65 2.25c.075 0 .225.075.225.075.075 0 .225-.224.3-.3.375-.524.375-1.424.225-1.5-.075 0-.3.15-.45.15-.15.076-.3.076-.525.076-.225 0-.525 0-.75.075-.375.076-.975.526-.975.526 0 .075.6.3.9.45.375.225.675.375 1.05.45M49.877 33.9c.075 0 .15-.074.225-.074l-.075-.075c-.15-.15-.225-.3-.3-.524V33c-.075 0-.6.45-.825.75 0 .076-.075.15-.075.15s.075 0 .075.076c.15.075.525.075.975-.075m.825.3c-.225-.074-.525-.3-.6-.3-.075 0-.15.076-.3.15-.075 0-.225.076-.3.076-.3.075-.75-.075-.825-.075-.15.076-.075 1.126.15 1.126.225.075.975-.45 1.425-.675.15-.15.3-.224.45-.3m.45-.15c-.075 0-.15.076-.15.076s.375.15.6.225c.225.076.6.3.75.226.225-.075.75-.525 1.2-.6.225 0 .525-.075.75-.075.075 0 .15 0 .225-.074.225-.075.6-.225.6-.225s-.075-.15-.15-.224c-.375-.45-.975-.675-1.65-.825-.075 0-.225-.074-.225-.074-.075 0-.225.225-.3.3-.15.15-.3.3-.45.375-.075 0-.075.076-.15.15-.3.226-.6.45-1.05.75m-.225 0c.3-.15.525-.3.675-.45.3-.224.525-.374.675-.524.15-.15.3-.225.45-.375l.225-.224c0-.075-.9-.075-1.425 0-.225 0-.525 0-.675.075-.075.076-.15.3-.15.45v.226c0 .075 0 .15-.075.225-.075.076-.375.3-.375.3 0 .076.375.226.675.3m-.45.45c-.15.076-.3.15-.45.3-.375.226-1.05.45-1.05.526 0 .15 1.8 1.2 2.25 1.05.375-.15 1.125-1.575 1.125-1.65 0-.075-.9-.3-1.275-.45h-.075c-.225 0-.375.15-.525.225m1.125 1.5c-.075.15-.225.376-.225.376h.15c1.05.075 2.925-.6 2.925-.6s-.6-.225-.825-.375c-.3-.15-.6-.374-.9-.524-.075-.075-.225-.15-.225-.15s-.15.15-.15.225c-.3.3-.525.676-.75 1.05z" id="Layer0_0_MEMBER_0_MEMBER_0_FILL_4_"/></g></svg>