<svg xmlns="http://www.w3.org/2000/svg" xmlns:xlink="http://www.w3.org/1999/xlink" width="100" height="100" viewBox="0 0 100 100"><style>.st0{fill:#353B51;} .st1{clip-path:url(#SVGID_2_);} .st2{clip-path:url(#SVGID_4_);fill:url(#SVGID_5_);} .st3{clip-path:url(#SVGID_7_);fill:none;stroke:#FFFFFF;stroke-miterlimit:10;} .st4{fill:#EC1C24;} .st5{clip-path:url(#SVGID_9_);} .st6{clip-path:url(#SVGID_11_);fill:url(#SVGID_12_);} .st7{clip-path:url(#SVGID_14_);fill:none;stroke:#FFFFFF;stroke-miterlimit:10;}</style><defs><path id="SVGID_1_" d="M12.8 11.3h74.5v77.4H12.8z"/></defs><clipPath id="SVGID_2_"><use xlink:href="#SVGID_1_" overflow="visible"/></clipPath><g class="st1"><defs><path id="SVGID_3_" d="M29.7 64.5c-8-11.2-5.4-26.8 5.8-34.8 11.2-8 26.8-5.4 34.8 5.8 8 11.2 5.4 26.8-5.8 34.8-4.4 3.1-9.4 4.6-14.4 4.6-7.9 0-15.5-3.6-20.4-10.4M44 15.2c-2 3-5.7 4.2-9 2.8-5.1-2-10.5 1.9-10.3 7.3.2 3.6-2.2 6.7-5.6 7.6-5.3 1.4-7.4 7.7-4 12 2.2 2.8 2.2 6.7-.1 9.5-3.5 4.2-1.5 10.6 3.8 12 3.4.9 5.7 4.2 5.5 7.7-.3 5.4 5 9.4 10.1 7.5 3.3-1.2 7.1 0 9 3 2.9 4.6 9.6 4.7 12.6.1 2-3 5.7-4.2 9-2.8 5.1 2 10.5-1.9 10.3-7.3-.2-3.6 2.2-6.7 5.6-7.6 5.3-1.4 7.4-7.7 4-12-2.2-2.8-2.2-6.7.1-9.5 3.5-4.2 1.5-10.6-3.8-12-3.4-.9-5.7-4.2-5.5-7.7.3-5.4-5-9.4-10.1-7.5-3.3 1.2-7.1 0-9-3-1.5-2.3-3.9-3.5-6.4-3.5-2.3 0-4.7 1.1-6.2 3.4"/></defs><clipPath id="SVGID_4_"><use xlink:href="#SVGID_3_" overflow="visible"/></clipPath><radialGradient id="SVGID_5_" cx=".016" cy="100.253" r="1" gradientTransform="matrix(47.4546 47.4546 47.4546 -47.4546 -4727.2202 4781.4932)" gradientUnits="userSpaceOnUse"><stop offset="0" stop-color="#FFF"/><stop offset=".052" stop-color="#DCDBEC"/><stop offset=".109" stop-color="#BEBCDB"/><stop offset=".174" stop-color="#A4A0CD"/><stop offset=".248" stop-color="#8F8AC2"/><stop offset=".333" stop-color="#7F79B9"/><stop offset=".439" stop-color="#736EB3"/><stop offset=".588" stop-color="#6D67AF"/><stop offset="1" stop-color="#6B65AE"/></radialGradient><path class="st2" d="M50-26.8l77.3 77.4L50 127.9l-77.3-77.3"/></g><g class="st1"><defs><path id="SVGID_6_" d="M12.8 11.3h74.5v77.4H12.8z"/></defs><clipPath id="SVGID_7_"><use xlink:href="#SVGID_6_" overflow="visible"/></clipPath><path class="st3" d="M65.4 18.2c5.1-2 10.5 2 10.2 7.4-.2 3.6 2.1 6.8 5.6 7.7 5.3 1.4 7.3 7.8 3.9 12-2.3 2.8-2.3 6.7 0 9.5 3.4 4.2 1.3 10.6-3.9 12-3.4.9-5.8 4.1-5.6 7.7.3 5.4-5.1 9.4-10.2 7.4-3.3-1.3-7.1-.1-9 2.9-3 4.6-9.7 4.6-12.6 0-1.9-3-5.7-4.2-9-2.9-5.1 2-10.5-2-10.2-7.4.2-3.6-2.1-6.8-5.6-7.7-5.3-1.4-7.3-7.8-3.9-12 2.3-2.8 2.3-6.7 0-9.5-3.4-4.2-1.3-10.6 3.9-12 3.4-.9 5.8-4.1 5.6-7.7-.3-5.4 5.1-9.4 10.2-7.4 3.3 1.3 7.1.1 9-2.9 3-4.6 9.7-4.6 12.6 0 1.9 2.9 5.7 4.2 9 2.9z"/><ellipse transform="matrix(0.8145 -0.5802 0.5802 0.8145 -19.7331 38.2829)" class="st3" cx="50" cy="50" rx="24.9" ry="24.9"/></g><g><path class="st4" d="M29.9 47.4v4.4c0 1 .3 1.3.6 1.3.4 0 .7-.3.7-1.3v-4.4h1.3v4.2c0 1.7-.7 2.7-2 2.7-1.4 0-2-1-2-2.7v-4.2h1.4zM33.7 47.5c.4-.1.9-.1 1.5-.1s1.2.1 1.7.5c.4.3.5.8.5 1.2 0 .6-.3 1.2-1 1.5.8.2 1.2.9 1.2 1.6 0 .6-.2 1-.5 1.3-.4.4-1.1.7-2.2.7-.5 0-.9 0-1.2-.1v-6.6zm1.3 2.6h.3c.5 0 .8-.4.8-1 0-.5-.2-.9-.8-.9H35v1.9zm0 3h.3c.5 0 1-.3 1-1s-.5-1-1-1H35v2zM41.4 51.1h-1.5V53h1.7v1.1h-3.1v-6.8h2.9v1.1h-1.6V50h1.5v1.1zM42.4 47.5c.4-.1.9-.1 1.4-.1.7 0 1.4.1 1.8.5.4.4.5.8.5 1.4 0 .7-.4 1.4-1 1.7.5.2.7.6.8 1.3.1.8.3 1.6.4 1.8h-1.4c-.1-.2-.2-.9-.3-1.6-.1-.8-.3-1.1-.8-1.1h-.2v2.7h-1.3v-6.6zm1.4 2.9h.2c.6 0 .9-.5.9-1.1 0-.6-.2-1-.8-1h-.3v2.1zM47 52.8c.3.2.7.3 1.1.3.6 0 .9-.3.9-.8s-.3-.7-.9-1.1c-.9-.6-1.3-1.3-1.3-1.9 0-1.1.7-2 2.1-2 .4 0 .9.1 1.1.2l-.2 1.1c-.2-.1-.5-.2-.9-.2-.6 0-.8.3-.8.7 0 .4.2.6.9 1.1.9.5 1.2 1.2 1.2 1.9 0 1.2-.9 2-2.2 2-.5 0-1.1-.1-1.3-.3l.3-1zM55.1 50.6c0 2.5-.9 3.6-2.2 3.6-1.5 0-2.1-1.6-2.1-3.5 0-1.8.7-3.4 2.2-3.4 1.6 0 2.1 1.8 2.1 3.3zm-3 .1c0 1.5.3 2.3.8 2.3.6 0 .8-1 .8-2.4 0-1.2-.2-2.3-.8-2.3-.5.1-.8 1-.8 2.4zM55.9 47.4h1.3V53H59v1.1h-3v-6.7zM59.7 47.5c.3-.1.8-.1 1.3-.1.9 0 1.4.2 1.9.6.6.5.9 1.4.9 2.7 0 1.4-.4 2.3-.9 2.9-.5.4-1.1.7-2.1.7-.4 0-.8 0-1.1-.1v-6.7zm1.3 5.6h.2c.6 0 1.2-.6 1.2-2.5 0-1.4-.4-2.2-1.2-2.2h-.3v4.7zM65.6 52.6l-.3 1.5H64l1.5-6.8H67l1.3 6.8H67l-.3-1.5h-1.1zm1.1-1.1l-.2-1.4c-.1-.4-.2-1.1-.2-1.5-.1.5-.2 1.2-.2 1.5l-.3 1.4h.9zM69.3 48.6h-1.2v-1.2h3.7v1.2h-1.2v5.5h-1.3v-5.5z"/></g></svg>